<?xml version="1.0" encoding="utf-8"?>
<!-- Generator: Adobe Illustrator 16.0.0, SVG Export Plug-In . SVG Version: 6.00 Build 0)  -->
<!DOCTYPE svg PUBLIC "-//W3C//DTD SVG 1.1//EN" "http://www.w3.org/Graphics/SVG/1.1/DTD/svg11.dtd">
<svg version="1.1" id="Layer_1" xmlns="http://www.w3.org/2000/svg" xmlns:xlink="http://www.w3.org/1999/xlink" x="0px" y="0px"
	 width="565.573px" height="43.691px" viewBox="0 0 565.573 43.691" enable-background="new 0 0 565.573 43.691"
	 xml:space="preserve">
<g>
	<g>
		<g>
			<g>
				<g>
					<g>
						<g>
							<g>
								<path fill="#003964" d="M33.73,20.851c-3.796-2.581-8.654-1.527-11.205,2.351c-2.13,3.24-5.346,3.643-6.593,3.643
									c-4.058,0-6.838-2.854-7.66-5.81H8.271c-0.008-0.03-0.016-0.054-0.023-0.083c-0.007-0.032-0.017-0.065-0.025-0.101
									c-0.324-1.231-0.403-1.82-0.403-3.131c0-7.066,7.251-14.933,17.691-14.933c10.693,0,16.811,8.14,18.384,12.664
									c-0.024-0.08-0.051-0.159-0.078-0.24C40.78,6.363,32.393,0,22.513,0C10.082,0,0,10.08,0,22.514
									c0,11.114,8.018,20.629,19.138,20.629c8.869,0,14.828-4.973,17.562-11.824C38.2,27.569,37.137,23.165,33.73,20.851z"/>
							</g>
							<g>
								<path fill="#ED1A3B" d="M44.036,15.889c-1.315-4.413-7.479-13.102-18.525-13.102c-10.44,0-17.691,7.866-17.691,14.933
									c0,1.311,0.079,1.9,0.403,3.131c-0.137-0.538-0.205-1.08-0.205-1.606c0-7.358,7.365-12.458,14.938-12.458
									c10.254,0,18.566,8.313,18.566,18.563c0,8.038-4.625,14.992-11.346,18.336v0.005c8.663-3.138,14.851-11.433,14.851-21.177
									C45.027,20.208,44.718,18.175,44.036,15.889z"/>
							</g>
						</g>
					</g>
				</g>
			</g>
		</g>
		<g>
			<path fill="#040505" d="M63.018,17.12v-2.544h-6.911v-1.903h16.027v1.903h-6.933v2.544h5.65v6.09h-2.164v-4.187H57.188V17.12
				H63.018z M70.812,6.081v5.188h-2.164V7.984H57.349V6.081H70.812z"/>
			<path fill="#040505" d="M84.434,15.136h-9.416V9.807h7.052V8.064h-7.052V6.221h9.216v5.349h-7.072v1.763h7.272V15.136z
				 M76,16.058h2.123V17.5h9.416v-1.442h2.124v6.771H76V16.058z M87.539,19.263h-9.416v1.763h9.416V19.263z M87.499,5.72h2.164
				v9.736h-2.164V5.72z"/>
			<path fill="#040505" d="M92.988,6.802h7.332v1.903h-5.148v10.157h5.369v1.903h-7.553V6.802z M106.21,5.72h2.084v17.45h-2.084
				v-8.415h-2.323v8.314h-2.023V5.74h2.023v7.152h2.323V5.72z"/>
			<path fill="#040505" d="M110.577,8.886V7.022h4.107V5.36h2.304v1.663h4.127v1.863H110.577z M111.358,22.829v-5.309h2.184v3.406
				h11.88v1.903H111.358z M119.893,13.093c0,0.521-0.106,1.005-0.32,1.453s-0.501,0.845-0.861,1.192
				c-0.374,0.334-0.805,0.601-1.292,0.801c-0.488,0.2-1.012,0.301-1.573,0.301c-0.561,0-1.085-0.101-1.572-0.301
				s-0.918-0.467-1.292-0.801c-0.36-0.347-0.648-0.745-0.861-1.192c-0.214-0.447-0.321-0.932-0.321-1.453s0.107-1.008,0.321-1.462
				c0.213-0.454,0.501-0.854,0.861-1.202c0.374-0.333,0.805-0.601,1.292-0.801s1.012-0.301,1.572-0.301
				c0.562,0,1.085,0.101,1.573,0.301c0.487,0.2,0.918,0.468,1.292,0.801c0.36,0.348,0.647,0.748,0.861,1.202
				S119.893,12.572,119.893,13.093z M117.789,13.073c0-0.534-0.187-0.992-0.561-1.373c-0.374-0.38-0.828-0.571-1.362-0.571
				s-0.992,0.19-1.372,0.571c-0.381,0.381-0.571,0.838-0.571,1.373s0.19,0.989,0.571,1.362c0.38,0.374,0.838,0.561,1.372,0.561
				s0.988-0.187,1.362-0.561C117.603,14.062,117.789,13.607,117.789,13.073z M125.062,10.468h2.505v1.903h-2.505v4.528h-2.163V5.72
				h2.163V10.468z"/>
			<path fill="#040505" d="M129.829,15.196V6.221h8.976v8.975H129.829z M130.33,22.829V17h2.164v3.906h12.141v1.923H130.33z
				 M136.681,8.104h-4.708v5.229h4.708V8.104z M142.311,16.899V5.72h2.164v11.179H142.311z"/>
			<path fill="#040505" d="M154.371,17.12v-2.544h-6.911v-1.903h16.027v1.903h-6.933v2.544h5.65v6.09h-2.164v-4.187h-11.499V17.12
				H154.371z M162.165,6.081v5.188h-2.164V7.984h-11.299V6.081H162.165z"/>
			<path fill="#040505" d="M175.527,10.288c0,0.614-0.124,1.189-0.371,1.723c-0.247,0.535-0.584,1.002-1.012,1.402
				c-0.414,0.401-0.905,0.718-1.473,0.952c-0.567,0.234-1.172,0.351-1.813,0.351c-0.642,0-1.246-0.117-1.813-0.351
				c-0.567-0.233-1.059-0.551-1.473-0.952c-0.428-0.4-0.765-0.868-1.012-1.402c-0.247-0.534-0.37-1.108-0.37-1.723
				s0.123-1.192,0.37-1.733s0.584-1.012,1.012-1.413c0.414-0.4,0.905-0.718,1.473-0.952c0.567-0.233,1.172-0.351,1.813-0.351
				c0.641,0,1.245,0.117,1.813,0.351c0.567,0.234,1.059,0.551,1.473,0.952c0.428,0.401,0.765,0.872,1.012,1.413
				S175.527,9.674,175.527,10.288z M167.354,15.857h13.663v6.972h-13.663V15.857z M173.443,10.288c0-0.708-0.25-1.315-0.751-1.823
				c-0.501-0.507-1.105-0.761-1.813-0.761s-1.315,0.254-1.823,0.761c-0.508,0.508-0.761,1.115-0.761,1.823s0.253,1.312,0.761,1.813
				s1.115,0.751,1.823,0.751s1.313-0.25,1.813-0.751S173.443,10.996,173.443,10.288z M178.872,17.701h-9.375v3.266h9.375V17.701z
				 M178.853,5.72h2.164v9.236h-2.164V5.72z"/>
			<path fill="#040505" d="M189.29,5.84l5.709,14.104l-1.923,0.841l-3.786-9.576l-3.747,9.717l-1.963-0.862L189.29,5.84z
				 M197.123,5.72h2.164v17.45h-2.164V5.72z"/>
			<path fill="#040505" d="M202.211,8.084V6.221h10.018v1.863h-4.268l4.447,5.429l-1.522,1.242l-3.565-4.447l-3.547,4.748
				l-1.582-1.282l4.428-5.689H202.211z M216.074,19.463c0,0.588-0.12,1.139-0.36,1.653c-0.24,0.514-0.561,0.965-0.962,1.353
				c-0.414,0.387-0.897,0.694-1.452,0.921c-0.555,0.228-1.139,0.342-1.753,0.342s-1.202-0.114-1.763-0.342
				c-0.562-0.227-1.049-0.534-1.463-0.921c-0.4-0.388-0.721-0.838-0.961-1.353c-0.241-0.514-0.361-1.065-0.361-1.653
				c0-0.587,0.12-1.142,0.361-1.663c0.24-0.521,0.561-0.975,0.961-1.362c0.414-0.387,0.901-0.694,1.463-0.921
				c0.561-0.227,1.148-0.341,1.763-0.341s1.198,0.114,1.753,0.341s1.038,0.534,1.452,0.921c0.401,0.388,0.722,0.841,0.962,1.362
				S216.074,18.876,216.074,19.463z M213.951,19.443c0-0.654-0.24-1.218-0.722-1.693c-0.48-0.474-1.048-0.711-1.702-0.711
				c-0.655,0-1.22,0.237-1.693,0.711c-0.475,0.475-0.711,1.039-0.711,1.693c0,0.655,0.236,1.216,0.711,1.683
				c0.474,0.467,1.038,0.701,1.693,0.701c0.654,0,1.222-0.234,1.702-0.701C213.711,20.659,213.951,20.098,213.951,19.443z
				 M215.394,14.976v-3.787h-3.245V9.326h3.245V5.72h2.164v9.256H215.394z"/>
			<path fill="#040505" d="M220.542,16.759h16.027v1.923h-6.933v4.488h-2.184v-4.488h-6.911V16.759z M223.968,8.225h9.176V6.021
				h2.144v8.394h-13.463V6.021h2.144V8.225z M233.144,10.108h-9.176v2.404h9.176V10.108z"/>
			<path fill="#040505" d="M247.567,20.886h-2.164V8.746h-6.691V6.802h8.855V20.886z M251.935,5.72h2.164v17.45h-2.164V5.72z"/>
			<path fill="#040505" d="M267.14,14.635h-9.336V6.121h2.184v6.651h7.152V14.635z M258.706,15.857h13.663v6.972h-13.663V15.857z
				 M270.225,17.701h-9.375v3.266h9.375V17.701z M270.205,5.72h2.164v9.236h-2.164v-2.925h-4.748v-1.683h4.748V8.986h-4.748V7.263
				h4.748V5.72z"/>
			<path fill="#040505" d="M286.393,14.275v1.903h-11.318v-1.903h3.546v-3.907h2.144v3.907H286.393z M283.288,12.612V7.964h-7.433
				V6.081h9.576v6.531H283.288z M276.316,22.869v-5.229h2.163v3.326h11.74v1.903H276.316z M289.898,17.18h-2.163V5.72h2.163v4.688
				h2.244v1.983h-2.244V17.18z"/>
			<path fill="#040505" d="M309.672,13.033c0,0.708-0.141,1.372-0.421,1.993s-0.661,1.166-1.142,1.633
				c-0.481,0.468-1.046,0.838-1.693,1.112c-0.647,0.274-1.339,0.411-2.073,0.411c-0.735,0-1.426-0.137-2.073-0.411
				c-0.648-0.273-1.213-0.644-1.693-1.112c-0.48-0.467-0.861-1.012-1.142-1.633c-0.281-0.621-0.421-1.285-0.421-1.993
				s0.14-1.373,0.421-1.993c0.28-0.621,0.661-1.166,1.142-1.633c0.48-0.468,1.045-0.838,1.693-1.112
				c0.647-0.273,1.338-0.411,2.073-0.411c0.734,0,1.426,0.137,2.073,0.411c0.647,0.274,1.212,0.645,1.693,1.112
				c0.48,0.467,0.861,1.012,1.142,1.633C309.531,11.66,309.672,12.325,309.672,13.033z M307.528,13.033
				c0-0.441-0.084-0.861-0.251-1.262s-0.391-0.741-0.671-1.021c-0.294-0.294-0.635-0.524-1.021-0.691
				c-0.388-0.167-0.802-0.25-1.242-0.25c-0.441,0-0.855,0.083-1.242,0.25c-0.388,0.167-0.729,0.397-1.021,0.691
				c-0.281,0.28-0.505,0.621-0.672,1.021s-0.25,0.821-0.25,1.262s0.083,0.861,0.25,1.262c0.167,0.4,0.391,0.741,0.672,1.021
				c0.293,0.294,0.634,0.524,1.021,0.691c0.387,0.167,0.801,0.25,1.242,0.25c0.44,0,0.854-0.083,1.242-0.25
				c0.387-0.167,0.728-0.397,1.021-0.691c0.28-0.28,0.504-0.621,0.671-1.021C307.444,13.894,307.528,13.474,307.528,13.033z
				 M313.778,23.17h-2.163V5.72h2.163v6.23h2.505v2.164h-2.505V23.17z"/>
			<path fill="#040505" d="M317.384,6.802h8.795v14.083h-2.163v-6.351h-6.531v-1.903h6.531V8.746h-6.632V6.802z M332.049,12.492
				h2.505v2.164h-2.505v8.515h-2.163V5.72h2.163V12.492z"/>
			<path fill="#040505" d="M346.493,13.033c0,0.708-0.144,1.375-0.431,2.003s-0.671,1.175-1.152,1.643
				c-0.48,0.468-1.045,0.838-1.692,1.112c-0.648,0.274-1.34,0.411-2.074,0.411s-1.426-0.137-2.073-0.411
				c-0.647-0.273-1.212-0.644-1.692-1.112c-0.481-0.467-0.865-1.015-1.152-1.643s-0.431-1.295-0.431-2.003s0.144-1.375,0.431-2.003
				c0.287-0.627,0.671-1.175,1.152-1.643c0.48-0.468,1.045-0.838,1.692-1.112c0.647-0.273,1.339-0.411,2.073-0.411
				s1.426,0.137,2.074,0.411c0.647,0.274,1.212,0.645,1.692,1.112c0.481,0.467,0.865,1.015,1.152,1.643
				C346.35,11.657,346.493,12.325,346.493,13.033z M344.35,13.033c0-0.441-0.084-0.861-0.251-1.262s-0.391-0.748-0.671-1.042
				c-0.294-0.294-0.638-0.524-1.031-0.691c-0.395-0.167-0.812-0.25-1.253-0.25c-0.44,0-0.857,0.083-1.252,0.25
				c-0.394,0.167-0.738,0.397-1.031,0.691c-0.28,0.294-0.505,0.641-0.671,1.042c-0.168,0.401-0.251,0.821-0.251,1.262
				s0.083,0.861,0.251,1.262c0.166,0.4,0.391,0.748,0.671,1.042c0.293,0.294,0.638,0.524,1.031,0.691
				c0.395,0.167,0.812,0.25,1.252,0.25c0.441,0,0.858-0.083,1.253-0.25c0.394-0.167,0.737-0.397,1.031-0.691
				c0.28-0.293,0.504-0.641,0.671-1.042C344.266,13.894,344.35,13.474,344.35,13.033z M349.298,5.72h2.164v17.45h-2.164V5.72z"/>
			<path fill="#040505" d="M370.474,19.964v1.923h-16.027v-1.923H370.474z M367.048,9.266V6.461h2.144v10.177h-13.463V6.461h2.144
				v2.805H367.048z M367.048,14.735v-3.586h-9.176v3.586H367.048z"/>
		</g>
		<g>
			<path fill="#585757" d="M60.258,37.995l-2.703-5.861v5.861h-1.204v-7.193h1.774l2.714,5.884v-5.884h1.193v7.193H60.258z"/>
			<path fill="#585757" d="M65.739,34.657c0.395,0,0.803,0,1.226,0c0-0.33-0.132-0.58-0.396-0.75
				c-0.265-0.168-0.644-0.253-1.136-0.253h-0.032c-0.464,0-0.961,0.108-1.489,0.327l-0.295-0.919
				c0.542-0.232,1.141-0.353,1.795-0.358h0.021c0.866,0,1.531,0.167,1.996,0.501c0.465,0.335,0.697,0.864,0.697,1.59v3.2h-1.12
				v-0.57c-0.218,0.219-0.487,0.389-0.808,0.512s-0.646,0.186-0.977,0.186c-0.613,0-1.111-0.164-1.495-0.491s-0.575-0.73-0.575-1.21
				c0-0.527,0.239-0.965,0.718-1.309C64.307,34.81,64.93,34.657,65.739,34.657z M65.423,37.192c0.303,0,0.603-0.074,0.897-0.222
				c0.296-0.147,0.511-0.32,0.645-0.518v-0.877c-0.388,0-0.735,0-1.046,0c-0.591,0-1.003,0.077-1.235,0.232
				c-0.232,0.169-0.349,0.374-0.349,0.612c0,0.227,0.097,0.41,0.29,0.555C64.819,37.12,65.085,37.192,65.423,37.192z"/>
			<path fill="#585757" d="M71.073,31.161v1.669h1.119v0.94h-1.119v2.63c0,0.253,0.06,0.426,0.18,0.518
				c0.119,0.091,0.288,0.138,0.507,0.138h0.433v0.939h-0.707c-0.557,0-0.961-0.125-1.215-0.375c-0.253-0.25-0.38-0.617-0.38-1.104
				v-2.746h-0.888v-0.94h0.888v-1.669H71.073z"/>
			<path fill="#585757" d="M74.622,31.214c0,0.197-0.074,0.37-0.222,0.518c-0.148,0.148-0.324,0.223-0.528,0.223
				s-0.381-0.074-0.528-0.223c-0.147-0.147-0.222-0.32-0.222-0.518c0-0.203,0.074-0.38,0.222-0.527
				c0.147-0.148,0.324-0.223,0.528-0.223s0.38,0.074,0.528,0.223C74.548,30.834,74.622,31.011,74.622,31.214z M73.291,37.995V32.83
				h1.183v5.165H73.291z"/>
			<path fill="#585757" d="M78.361,38.122c-0.754,0-1.397-0.261-1.933-0.781c-0.535-0.521-0.803-1.162-0.803-1.923
				c0-0.768,0.268-1.411,0.803-1.933s1.179-0.781,1.933-0.781c0.761,0,1.406,0.26,1.938,0.781c0.531,0.521,0.797,1.165,0.797,1.933
				c0,0.761-0.266,1.401-0.797,1.923C79.768,37.861,79.122,38.122,78.361,38.122z M78.361,37.149c0.43,0,0.796-0.163,1.099-0.49
				c0.303-0.328,0.454-0.741,0.454-1.241s-0.151-0.915-0.454-1.246s-0.669-0.497-1.099-0.497c-0.423,0-0.787,0.166-1.093,0.497
				c-0.307,0.331-0.46,0.746-0.46,1.246s0.153,0.913,0.46,1.241C77.574,36.986,77.938,37.149,78.361,37.149z"/>
			<path fill="#585757" d="M83.356,35.397v2.598h-1.173V32.83h1.131v0.687c0.134-0.239,0.332-0.435,0.597-0.586
				c0.264-0.151,0.547-0.227,0.85-0.227c0.605,0,1.094,0.207,1.463,0.623c0.37,0.415,0.555,0.971,0.555,1.668v3h-1.172v-2.704
				c0-0.549-0.09-0.956-0.27-1.22s-0.456-0.396-0.829-0.396c-0.19,0-0.377,0.064-0.56,0.19c-0.184,0.127-0.324,0.3-0.423,0.518
				C83.413,34.636,83.356,34.974,83.356,35.397z"/>
			<path fill="#585757" d="M90.443,34.657c0.395,0,0.803,0,1.226,0c0-0.33-0.132-0.58-0.396-0.75
				c-0.265-0.168-0.644-0.253-1.136-0.253h-0.032c-0.464,0-0.961,0.108-1.489,0.327l-0.295-0.919
				c0.542-0.232,1.141-0.353,1.795-0.358h0.021c0.866,0,1.531,0.167,1.996,0.501c0.465,0.335,0.697,0.864,0.697,1.59v3.2h-1.12
				v-0.57c-0.218,0.219-0.487,0.389-0.808,0.512s-0.646,0.186-0.977,0.186c-0.613,0-1.111-0.164-1.495-0.491s-0.575-0.73-0.575-1.21
				c0-0.527,0.239-0.965,0.718-1.309C89.011,34.81,89.634,34.657,90.443,34.657z M90.127,37.192c0.303,0,0.603-0.074,0.897-0.222
				c0.296-0.147,0.511-0.32,0.645-0.518v-0.877c-0.388,0-0.735,0-1.046,0c-0.591,0-1.003,0.077-1.235,0.232
				c-0.232,0.169-0.349,0.374-0.349,0.612c0,0.227,0.097,0.41,0.29,0.555C89.523,37.12,89.789,37.192,90.127,37.192z"/>
			<path fill="#585757" d="M94.267,37.995v-7.668h1.173v7.668H94.267z"/>
			<path fill="#585757" d="M107.3,30.802v7.193h-1.151v-5.788l-1.88,5.788h-1.119l-1.87-5.788v5.788h-1.161v-7.193h1.774
				l1.816,5.599l1.816-5.599H107.3z"/>
			<path fill="#585757" d="M109.645,35.925c0.07,0.316,0.219,0.578,0.444,0.781c0.33,0.303,0.767,0.455,1.31,0.455
				c0.57,0,1.105-0.212,1.605-0.635l0.349,0.867c-0.557,0.485-1.219,0.729-1.986,0.729c-0.873,0-1.582-0.248-2.128-0.744
				c-0.546-0.497-0.818-1.146-0.818-1.949c0-0.796,0.242-1.449,0.729-1.959c0.485-0.511,1.119-0.766,1.901-0.766
				c0.774,0,1.406,0.253,1.896,0.76c0.489,0.508,0.734,1.137,0.734,1.891c0,0.205-0.018,0.395-0.053,0.57H109.645z M109.624,35.006
				h2.872c-0.014-0.338-0.154-0.646-0.422-0.924s-0.609-0.417-1.024-0.417c-0.423,0-0.771,0.151-1.046,0.453
				C109.8,34.345,109.673,34.64,109.624,35.006z"/>
			<path fill="#585757" d="M120.249,32.704c0.605,0,1.078,0.207,1.416,0.623c0.338,0.415,0.507,0.971,0.507,1.668v3h-1.162v-2.704
				c0-0.549-0.074-0.956-0.222-1.22s-0.391-0.396-0.729-0.396c-0.197,0-0.37,0.057-0.518,0.17c-0.148,0.112-0.268,0.277-0.359,0.496
				c-0.092,0.225-0.137,0.542-0.137,0.95v2.704h-1.162v-2.704c0-0.549-0.076-0.956-0.228-1.22s-0.393-0.396-0.724-0.396
				c-0.197,0-0.366,0.057-0.507,0.17c-0.141,0.112-0.261,0.277-0.358,0.496c-0.099,0.254-0.148,0.592-0.148,1.014v-0.01v2.65h-1.162
				V32.83h1.099v0.687c0.289-0.542,0.736-0.813,1.342-0.813c0.647,0,1.123,0.313,1.426,0.939c0.176-0.31,0.389-0.544,0.639-0.702
				C119.512,32.782,119.841,32.704,120.249,32.704z"/>
			<path fill="#585757" d="M125.963,38.122c-0.754,0-1.397-0.261-1.933-0.781c-0.535-0.521-0.803-1.162-0.803-1.923
				c0-0.768,0.268-1.411,0.803-1.933s1.179-0.781,1.933-0.781c0.761,0,1.406,0.26,1.938,0.781c0.531,0.521,0.797,1.165,0.797,1.933
				c0,0.761-0.266,1.401-0.797,1.923C127.369,37.861,126.724,38.122,125.963,38.122z M125.963,37.149c0.43,0,0.796-0.163,1.099-0.49
				c0.303-0.328,0.454-0.741,0.454-1.241s-0.151-0.915-0.454-1.246s-0.669-0.497-1.099-0.497c-0.423,0-0.787,0.166-1.093,0.497
				c-0.307,0.331-0.46,0.746-0.46,1.246s0.153,0.913,0.46,1.241C125.176,36.986,125.54,37.149,125.963,37.149z"/>
			<path fill="#585757" d="M129.786,37.995V32.83h1.109v0.771c0.169-0.253,0.377-0.449,0.623-0.591
				c0.296-0.176,0.645-0.265,1.046-0.265h0.084v1.047h-0.126c-0.486,0-0.873,0.147-1.162,0.443
				c-0.268,0.289-0.401,0.738-0.401,1.352v2.408H129.786z"/>
			<path fill="#585757" d="M134.909,31.214c0,0.197-0.074,0.37-0.222,0.518c-0.148,0.148-0.324,0.223-0.528,0.223
				s-0.381-0.074-0.528-0.223c-0.147-0.147-0.222-0.32-0.222-0.518c0-0.203,0.074-0.38,0.222-0.527
				c0.147-0.148,0.324-0.223,0.528-0.223s0.38,0.074,0.528,0.223C134.835,30.834,134.909,31.011,134.909,31.214z M133.578,37.995
				V32.83h1.183v5.165H133.578z"/>
			<path fill="#585757" d="M138.499,34.657c0.395,0,0.803,0,1.226,0c0-0.33-0.132-0.58-0.396-0.75
				c-0.265-0.168-0.644-0.253-1.136-0.253h-0.032c-0.464,0-0.961,0.108-1.489,0.327l-0.295-0.919
				c0.542-0.232,1.141-0.353,1.795-0.358h0.021c0.866,0,1.531,0.167,1.996,0.501c0.465,0.335,0.697,0.864,0.697,1.59v3.2h-1.12
				v-0.57c-0.218,0.219-0.487,0.389-0.808,0.512s-0.646,0.186-0.977,0.186c-0.613,0-1.111-0.164-1.495-0.491s-0.575-0.73-0.575-1.21
				c0-0.527,0.239-0.965,0.718-1.309C137.066,34.81,137.689,34.657,138.499,34.657z M138.183,37.192
				c0.303,0,0.603-0.074,0.897-0.222c0.296-0.147,0.511-0.32,0.645-0.518v-0.877c-0.388,0-0.735,0-1.046,0
				c-0.591,0-1.003,0.077-1.235,0.232c-0.232,0.169-0.349,0.374-0.349,0.612c0,0.227,0.097,0.41,0.29,0.555
				C137.579,37.12,137.845,37.192,138.183,37.192z"/>
			<path fill="#585757" d="M142.323,37.995v-7.668h1.173v7.668H142.323z"/>
			<path fill="#585757" d="M150.414,38.122c-0.754,0-1.397-0.261-1.933-0.781c-0.535-0.521-0.803-1.162-0.803-1.923
				c0-0.768,0.268-1.411,0.803-1.933s1.179-0.781,1.933-0.781c0.761,0,1.406,0.26,1.938,0.781c0.531,0.521,0.797,1.165,0.797,1.933
				c0,0.761-0.266,1.401-0.797,1.923C151.82,37.861,151.175,38.122,150.414,38.122z M150.414,37.149c0.43,0,0.796-0.163,1.099-0.49
				c0.303-0.328,0.454-0.741,0.454-1.241s-0.151-0.915-0.454-1.246s-0.669-0.497-1.099-0.497c-0.423,0-0.787,0.166-1.093,0.497
				c-0.307,0.331-0.46,0.746-0.46,1.246s0.153,0.913,0.46,1.241C149.627,36.986,149.991,37.149,150.414,37.149z"/>
			<path fill="#585757" d="M154.512,31.806c0-0.486,0.135-0.854,0.406-1.104s0.685-0.375,1.241-0.375h0.57v0.939h-0.349
				c-0.219,0-0.388,0.047-0.507,0.138c-0.12,0.092-0.18,0.265-0.18,0.518v0.908h1.035v0.94h-1.035v4.225h-1.183v-4.225h-0.888v-0.94
				h0.888V31.806z"/>
			<path fill="#585757" d="M162.443,31.161v1.669h1.119v0.94h-1.119v2.63c0,0.253,0.06,0.426,0.18,0.518
				c0.119,0.091,0.288,0.138,0.507,0.138h0.433v0.939h-0.707c-0.557,0-0.961-0.125-1.215-0.375c-0.253-0.25-0.38-0.617-0.38-1.104
				v-2.746h-0.888v-0.94h0.888v-1.669H162.443z"/>
			<path fill="#585757" d="M165.802,37.995h-1.173v-7.668h1.173v3.115c0.134-0.211,0.325-0.387,0.575-0.527s0.526-0.211,0.829-0.211
				c0.605,0,1.094,0.207,1.463,0.623c0.37,0.415,0.555,0.971,0.555,1.668v3h-1.172v-2.704c0-0.549-0.09-0.956-0.27-1.22
				s-0.456-0.396-0.829-0.396c-0.19,0-0.377,0.064-0.56,0.19c-0.184,0.127-0.324,0.3-0.423,0.518
				c-0.112,0.253-0.169,0.591-0.169,1.015V37.995z"/>
			<path fill="#585757" d="M171.526,35.925c0.07,0.316,0.219,0.578,0.444,0.781c0.33,0.303,0.767,0.455,1.31,0.455
				c0.57,0,1.105-0.212,1.605-0.635l0.349,0.867c-0.557,0.485-1.219,0.729-1.986,0.729c-0.873,0-1.582-0.248-2.128-0.744
				c-0.546-0.497-0.818-1.146-0.818-1.949c0-0.796,0.242-1.449,0.729-1.959c0.485-0.511,1.119-0.766,1.901-0.766
				c0.774,0,1.406,0.253,1.896,0.76c0.489,0.508,0.734,1.137,0.734,1.891c0,0.205-0.018,0.395-0.053,0.57H171.526z M171.506,35.006
				h2.872c-0.014-0.338-0.154-0.646-0.422-0.924s-0.609-0.417-1.024-0.417c-0.423,0-0.771,0.151-1.046,0.453
				C171.682,34.345,171.555,34.64,171.506,35.006z"/>
			<path fill="#585757" d="M180.959,34.15l2.988-3.349h1.447l-3.2,3.57l3.189,3.623h-1.489l-2.936-3.348v3.348h-1.204v-7.193h1.204
				V34.15z"/>
			<path fill="#585757" d="M188.088,38.122c-0.754,0-1.397-0.261-1.933-0.781c-0.535-0.521-0.803-1.162-0.803-1.923
				c0-0.768,0.268-1.411,0.803-1.933s1.179-0.781,1.933-0.781c0.761,0,1.406,0.26,1.938,0.781c0.531,0.521,0.797,1.165,0.797,1.933
				c0,0.761-0.266,1.401-0.797,1.923C189.494,37.861,188.849,38.122,188.088,38.122z M188.088,37.149c0.43,0,0.796-0.163,1.099-0.49
				c0.303-0.328,0.454-0.741,0.454-1.241s-0.151-0.915-0.454-1.246s-0.669-0.497-1.099-0.497c-0.423,0-0.787,0.166-1.093,0.497
				c-0.307,0.331-0.46,0.746-0.46,1.246s0.153,0.913,0.46,1.241C187.301,36.986,187.665,37.149,188.088,37.149z"/>
			<path fill="#585757" d="M191.91,37.995V32.83h1.109v0.771c0.169-0.253,0.377-0.449,0.623-0.591
				c0.296-0.176,0.645-0.265,1.046-0.265h0.084v1.047h-0.126c-0.486,0-0.873,0.147-1.162,0.443
				c-0.268,0.289-0.401,0.738-0.401,1.352v2.408H191.91z"/>
			<path fill="#585757" d="M196.441,35.925c0.07,0.316,0.219,0.578,0.444,0.781c0.33,0.303,0.767,0.455,1.31,0.455
				c0.57,0,1.105-0.212,1.605-0.635l0.349,0.867c-0.557,0.485-1.219,0.729-1.986,0.729c-0.873,0-1.582-0.248-2.128-0.744
				c-0.546-0.497-0.818-1.146-0.818-1.949c0-0.796,0.242-1.449,0.729-1.959c0.485-0.511,1.119-0.766,1.901-0.766
				c0.774,0,1.406,0.253,1.896,0.76c0.489,0.508,0.734,1.137,0.734,1.891c0,0.205-0.018,0.395-0.053,0.57H196.441z M196.421,35.006
				h2.872c-0.014-0.338-0.154-0.646-0.422-0.924s-0.609-0.417-1.024-0.417c-0.423,0-0.771,0.151-1.046,0.453
				C196.597,34.345,196.47,34.64,196.421,35.006z"/>
			<path fill="#585757" d="M203.782,34.657c0.395,0,0.803,0,1.226,0c0-0.33-0.132-0.58-0.396-0.75
				c-0.265-0.168-0.644-0.253-1.136-0.253h-0.032c-0.464,0-0.961,0.108-1.489,0.327l-0.295-0.919
				c0.542-0.232,1.141-0.353,1.795-0.358h0.021c0.866,0,1.531,0.167,1.996,0.501c0.465,0.335,0.697,0.864,0.697,1.59v3.2h-1.12
				v-0.57c-0.218,0.219-0.487,0.389-0.808,0.512s-0.646,0.186-0.977,0.186c-0.613,0-1.111-0.164-1.495-0.491s-0.575-0.73-0.575-1.21
				c0-0.527,0.239-0.965,0.718-1.309C202.35,34.81,202.973,34.657,203.782,34.657z M203.466,37.192c0.303,0,0.603-0.074,0.897-0.222
				c0.296-0.147,0.511-0.32,0.645-0.518v-0.877c-0.388,0-0.735,0-1.046,0c-0.591,0-1.003,0.077-1.235,0.232
				c-0.232,0.169-0.349,0.374-0.349,0.612c0,0.227,0.097,0.41,0.29,0.555C202.862,37.12,203.128,37.192,203.466,37.192z"/>
			<path fill="#585757" d="M208.778,35.397v2.598h-1.173V32.83h1.131v0.687c0.134-0.239,0.332-0.435,0.597-0.586
				c0.264-0.151,0.547-0.227,0.85-0.227c0.605,0,1.094,0.207,1.463,0.623c0.37,0.415,0.555,0.971,0.555,1.668v3h-1.172v-2.704
				c0-0.549-0.09-0.956-0.27-1.22s-0.456-0.396-0.829-0.396c-0.19,0-0.377,0.064-0.56,0.19c-0.184,0.127-0.324,0.3-0.423,0.518
				C208.835,34.636,208.778,34.974,208.778,35.397z"/>
			<path fill="#585757" d="M221.875,33.084c0,0.669-0.234,1.216-0.702,1.642c-0.469,0.427-1.136,0.64-2.002,0.64h-1.119v2.63h-1.204
				v-7.193h2.323c0.866,0,1.533,0.214,2.002,0.64C221.641,31.868,221.875,32.415,221.875,33.084z M220.66,33.084
				c0-0.401-0.138-0.715-0.412-0.94c-0.274-0.225-0.722-0.338-1.341-0.338h-0.855v2.557h0.855c0.619,0,1.066-0.115,1.341-0.344
				S220.66,33.478,220.66,33.084z"/>
			<path fill="#585757" d="M222.994,37.995V32.83h1.109v0.771c0.169-0.253,0.377-0.449,0.623-0.591
				c0.296-0.176,0.645-0.265,1.046-0.265h0.084v1.047h-0.126c-0.486,0-0.873,0.147-1.162,0.443
				c-0.268,0.289-0.401,0.738-0.401,1.352v2.408H222.994z"/>
			<path fill="#585757" d="M229.036,38.122c-0.754,0-1.397-0.261-1.933-0.781c-0.535-0.521-0.803-1.162-0.803-1.923
				c0-0.768,0.268-1.411,0.803-1.933s1.179-0.781,1.933-0.781c0.761,0,1.406,0.26,1.938,0.781c0.531,0.521,0.797,1.165,0.797,1.933
				c0,0.761-0.266,1.401-0.797,1.923C230.442,37.861,229.797,38.122,229.036,38.122z M229.036,37.149c0.43,0,0.796-0.163,1.099-0.49
				c0.303-0.328,0.454-0.741,0.454-1.241s-0.151-0.915-0.454-1.246s-0.669-0.497-1.099-0.497c-0.423,0-0.787,0.166-1.093,0.497
				c-0.307,0.331-0.46,0.746-0.46,1.246s0.153,0.913,0.46,1.241C228.249,36.986,228.613,37.149,229.036,37.149z"/>
			<path fill="#585757" d="M234.707,37.013l1.384-4.183h1.215l-1.796,5.165h-1.605l-1.795-5.165h1.214L234.707,37.013z"/>
			<path fill="#585757" d="M239.429,31.214c0,0.197-0.074,0.37-0.222,0.518c-0.148,0.148-0.324,0.223-0.528,0.223
				s-0.381-0.074-0.528-0.223c-0.147-0.147-0.222-0.32-0.222-0.518c0-0.203,0.074-0.38,0.222-0.527
				c0.147-0.148,0.324-0.223,0.528-0.223s0.38,0.074,0.528,0.223C239.354,30.834,239.429,31.011,239.429,31.214z M238.098,37.995
				V32.83h1.183v5.165H238.098z"/>
			<path fill="#585757" d="M240.315,37.034l0.739-0.75c0.204,0.281,0.43,0.5,0.676,0.654c0.239,0.148,0.496,0.223,0.771,0.223
				c0.267,0,0.49-0.055,0.67-0.164s0.27-0.252,0.27-0.428s-0.086-0.314-0.259-0.418c-0.173-0.102-0.382-0.195-0.628-0.279
				c-0.282-0.092-0.57-0.193-0.866-0.307c-0.395-0.141-0.686-0.325-0.872-0.555c-0.187-0.229-0.279-0.486-0.279-0.775
				c0-0.423,0.199-0.783,0.597-1.083s0.868-0.448,1.41-0.448c0.577,0,1.049,0.137,1.415,0.411c0.19,0.142,0.338,0.321,0.443,0.539
				l-0.718,0.696c-0.099-0.161-0.211-0.295-0.338-0.4c-0.232-0.197-0.518-0.296-0.855-0.296c-0.204,0-0.381,0.05-0.528,0.147
				c-0.147,0.1-0.222,0.219-0.222,0.359c0,0.148,0.082,0.273,0.248,0.375c0.165,0.102,0.41,0.203,0.734,0.301
				c0.119,0.035,0.253,0.078,0.401,0.127c0.5,0.162,0.88,0.373,1.141,0.634c0.26,0.261,0.391,0.573,0.391,0.94
				c0,0.43-0.208,0.801-0.623,1.113c-0.416,0.314-0.94,0.471-1.574,0.471c-0.542,0-1.018-0.127-1.426-0.381
				C240.759,37.579,240.52,37.344,240.315,37.034z"/>
			<path fill="#585757" d="M247.022,31.214c0,0.197-0.074,0.37-0.222,0.518c-0.148,0.148-0.324,0.223-0.528,0.223
				s-0.381-0.074-0.528-0.223c-0.147-0.147-0.222-0.32-0.222-0.518c0-0.203,0.074-0.38,0.222-0.527
				c0.147-0.148,0.324-0.223,0.528-0.223s0.38,0.074,0.528,0.223C246.948,30.834,247.022,31.011,247.022,31.214z M245.691,37.995
				V32.83h1.183v5.165H245.691z"/>
			<path fill="#585757" d="M250.762,38.122c-0.754,0-1.397-0.261-1.933-0.781c-0.535-0.521-0.803-1.162-0.803-1.923
				c0-0.768,0.268-1.411,0.803-1.933s1.179-0.781,1.933-0.781c0.761,0,1.406,0.26,1.938,0.781c0.531,0.521,0.797,1.165,0.797,1.933
				c0,0.761-0.266,1.401-0.797,1.923C252.168,37.861,251.522,38.122,250.762,38.122z M250.762,37.149c0.43,0,0.796-0.163,1.099-0.49
				c0.303-0.328,0.454-0.741,0.454-1.241s-0.151-0.915-0.454-1.246s-0.669-0.497-1.099-0.497c-0.423,0-0.787,0.166-1.093,0.497
				c-0.307,0.331-0.46,0.746-0.46,1.246s0.153,0.913,0.46,1.241C249.975,36.986,250.339,37.149,250.762,37.149z"/>
			<path fill="#585757" d="M255.757,35.397v2.598h-1.173V32.83h1.131v0.687c0.134-0.239,0.332-0.435,0.597-0.586
				c0.264-0.151,0.547-0.227,0.85-0.227c0.605,0,1.094,0.207,1.463,0.623c0.37,0.415,0.555,0.971,0.555,1.668v3h-1.172v-2.704
				c0-0.549-0.09-0.956-0.27-1.22s-0.456-0.396-0.829-0.396c-0.19,0-0.377,0.064-0.56,0.19c-0.184,0.127-0.324,0.3-0.423,0.518
				C255.813,34.636,255.757,34.974,255.757,35.397z"/>
			<path fill="#585757" d="M262.844,34.657c0.395,0,0.803,0,1.226,0c0-0.33-0.132-0.58-0.396-0.75
				c-0.265-0.168-0.644-0.253-1.136-0.253h-0.032c-0.464,0-0.961,0.108-1.489,0.327l-0.295-0.919
				c0.542-0.232,1.141-0.353,1.795-0.358h0.021c0.866,0,1.531,0.167,1.996,0.501c0.465,0.335,0.697,0.864,0.697,1.59v3.2h-1.12
				v-0.57c-0.218,0.219-0.487,0.389-0.808,0.512s-0.646,0.186-0.977,0.186c-0.613,0-1.111-0.164-1.495-0.491s-0.575-0.73-0.575-1.21
				c0-0.527,0.239-0.965,0.718-1.309C261.411,34.81,262.034,34.657,262.844,34.657z M262.527,37.192
				c0.303,0,0.603-0.074,0.897-0.222c0.296-0.147,0.511-0.32,0.645-0.518v-0.877c-0.388,0-0.735,0-1.046,0
				c-0.591,0-1.003,0.077-1.235,0.232c-0.232,0.169-0.349,0.374-0.349,0.612c0,0.227,0.097,0.41,0.29,0.555
				C261.924,37.12,262.189,37.192,262.527,37.192z"/>
			<path fill="#585757" d="M266.667,37.995v-7.668h1.173v7.668H266.667z"/>
			<path fill="#585757" d="M273.406,34.403c0,0.768,0.246,1.416,0.739,1.944c0.492,0.507,1.08,0.761,1.764,0.761
				c0.38,0,0.73-0.069,1.051-0.207c0.32-0.137,0.544-0.283,0.671-0.438V35.06h-2.165v-1.004h3.358v2.756
				c-0.282,0.381-0.68,0.694-1.193,0.94c-0.515,0.247-1.088,0.37-1.722,0.37c-1.035,0-1.912-0.357-2.63-1.072
				c-0.719-0.715-1.077-1.597-1.077-2.646c0-1.056,0.358-1.941,1.077-2.656c0.718-0.714,1.595-1.071,2.63-1.071
				c1.119,0,1.989,0.288,2.608,0.866l-0.485,0.877c-0.606-0.486-1.313-0.729-2.123-0.729c-0.684,0-1.271,0.253-1.764,0.761
				C273.652,32.985,273.406,33.637,273.406,34.403z"/>
			<path fill="#585757" d="M282.616,38.122c-0.754,0-1.397-0.261-1.933-0.781c-0.535-0.521-0.803-1.162-0.803-1.923
				c0-0.768,0.268-1.411,0.803-1.933s1.179-0.781,1.933-0.781c0.761,0,1.406,0.26,1.938,0.781c0.531,0.521,0.797,1.165,0.797,1.933
				c0,0.761-0.266,1.401-0.797,1.923C284.022,37.861,283.377,38.122,282.616,38.122z M282.616,37.149c0.43,0,0.796-0.163,1.099-0.49
				c0.303-0.328,0.454-0.741,0.454-1.241s-0.151-0.915-0.454-1.246s-0.669-0.497-1.099-0.497c-0.423,0-0.787,0.166-1.093,0.497
				c-0.307,0.331-0.46,0.746-0.46,1.246s0.153,0.913,0.46,1.241C281.829,36.986,282.193,37.149,282.616,37.149z"/>
			<path fill="#585757" d="M288.287,37.013l1.384-4.183h1.215l-1.796,5.165h-1.605l-1.795-5.165h1.214L288.287,37.013z"/>
			<path fill="#585757" d="M292.459,35.925c0.07,0.316,0.219,0.578,0.444,0.781c0.33,0.303,0.767,0.455,1.31,0.455
				c0.57,0,1.105-0.212,1.605-0.635l0.349,0.867c-0.557,0.485-1.219,0.729-1.986,0.729c-0.873,0-1.582-0.248-2.128-0.744
				c-0.546-0.497-0.818-1.146-0.818-1.949c0-0.796,0.242-1.449,0.729-1.959c0.485-0.511,1.119-0.766,1.901-0.766
				c0.774,0,1.406,0.253,1.896,0.76c0.489,0.508,0.734,1.137,0.734,1.891c0,0.205-0.018,0.395-0.053,0.57H292.459z M292.438,35.006
				h2.872c-0.014-0.338-0.154-0.646-0.422-0.924s-0.609-0.417-1.024-0.417c-0.423,0-0.771,0.151-1.046,0.453
				C292.614,34.345,292.487,34.64,292.438,35.006z"/>
			<path fill="#585757" d="M297.571,37.995V32.83h1.109v0.771c0.169-0.253,0.377-0.449,0.623-0.591
				c0.296-0.176,0.645-0.265,1.046-0.265h0.084v1.047h-0.126c-0.486,0-0.873,0.147-1.162,0.443
				c-0.268,0.289-0.401,0.738-0.401,1.352v2.408H297.571z"/>
			<path fill="#585757" d="M302.504,35.397v2.598h-1.173V32.83h1.131v0.687c0.134-0.239,0.332-0.435,0.597-0.586
				c0.264-0.151,0.547-0.227,0.85-0.227c0.605,0,1.094,0.207,1.463,0.623c0.37,0.415,0.555,0.971,0.555,1.668v3h-1.172v-2.704
				c0-0.549-0.09-0.956-0.27-1.22s-0.456-0.396-0.829-0.396c-0.19,0-0.377,0.064-0.56,0.19c-0.184,0.127-0.324,0.3-0.423,0.518
				C302.561,34.636,302.504,34.974,302.504,35.397z"/>
			<path fill="#585757" d="M312.854,32.704c0.605,0,1.078,0.207,1.416,0.623c0.338,0.415,0.507,0.971,0.507,1.668v3h-1.162v-2.704
				c0-0.549-0.074-0.956-0.222-1.22s-0.391-0.396-0.729-0.396c-0.197,0-0.37,0.057-0.518,0.17c-0.148,0.112-0.268,0.277-0.359,0.496
				c-0.092,0.225-0.137,0.542-0.137,0.95v2.704h-1.162v-2.704c0-0.549-0.076-0.956-0.228-1.22s-0.393-0.396-0.724-0.396
				c-0.197,0-0.366,0.057-0.507,0.17c-0.141,0.112-0.261,0.277-0.358,0.496c-0.099,0.254-0.148,0.592-0.148,1.014v-0.01v2.65h-1.162
				V32.83h1.099v0.687c0.289-0.542,0.736-0.813,1.342-0.813c0.647,0,1.123,0.313,1.426,0.939c0.176-0.31,0.389-0.544,0.639-0.702
				C312.116,32.782,312.445,32.704,312.854,32.704z"/>
			<path fill="#585757" d="M317.058,35.925c0.07,0.316,0.219,0.578,0.444,0.781c0.33,0.303,0.767,0.455,1.31,0.455
				c0.57,0,1.105-0.212,1.605-0.635l0.349,0.867c-0.557,0.485-1.219,0.729-1.986,0.729c-0.873,0-1.582-0.248-2.128-0.744
				c-0.546-0.497-0.818-1.146-0.818-1.949c0-0.796,0.242-1.449,0.729-1.959c0.485-0.511,1.119-0.766,1.901-0.766
				c0.774,0,1.406,0.253,1.896,0.76c0.489,0.508,0.734,1.137,0.734,1.891c0,0.205-0.018,0.395-0.053,0.57H317.058z M317.037,35.006
				h2.872c-0.014-0.338-0.154-0.646-0.422-0.924s-0.609-0.417-1.024-0.417c-0.423,0-0.771,0.151-1.046,0.453
				C317.213,34.345,317.086,34.64,317.037,35.006z"/>
			<path fill="#585757" d="M323.342,35.397v2.598h-1.173V32.83h1.131v0.687c0.134-0.239,0.332-0.435,0.597-0.586
				c0.264-0.151,0.547-0.227,0.85-0.227c0.605,0,1.094,0.207,1.463,0.623c0.37,0.415,0.555,0.971,0.555,1.668v3h-1.172v-2.704
				c0-0.549-0.09-0.956-0.27-1.22s-0.456-0.396-0.829-0.396c-0.19,0-0.377,0.064-0.56,0.19c-0.184,0.127-0.324,0.3-0.423,0.518
				C323.398,34.636,323.342,34.974,323.342,35.397z"/>
			<path fill="#585757" d="M329.595,31.161v1.669h1.119v0.94h-1.119v2.63c0,0.253,0.06,0.426,0.18,0.518
				c0.119,0.091,0.288,0.138,0.507,0.138h0.433v0.939h-0.707c-0.557,0-0.961-0.125-1.215-0.375c-0.253-0.25-0.38-0.617-0.38-1.104
				v-2.746h-0.888v-0.94h0.888v-1.669H329.595z"/>
			<path fill="#585757" d="M338.287,30.802l2.515,7.193h-1.226l-0.729-2.112h-2.757l-0.729,2.112h-1.236l2.514-7.193H338.287z
				 M336.429,34.88h2.081l-1.035-3.021L336.429,34.88z"/>
			<path fill="#585757" d="M341.508,37.995V32.83h1.109v0.771c0.169-0.253,0.377-0.449,0.623-0.591
				c0.296-0.176,0.645-0.265,1.046-0.265h0.084v1.047h-0.126c-0.486,0-0.873,0.147-1.162,0.443
				c-0.268,0.289-0.401,0.738-0.401,1.352v2.408H341.508z"/>
			<path fill="#585757" d="M344.814,35.418c0-0.746,0.279-1.386,0.84-1.917c0.56-0.531,1.269-0.797,2.128-0.797
				c0.676,0,1.31,0.215,1.901,0.644l-0.381,0.919c-0.514-0.395-1.021-0.592-1.521-0.592c-0.528,0-0.958,0.168-1.289,0.502
				s-0.496,0.748-0.496,1.241c0,0.485,0.165,0.896,0.496,1.23s0.761,0.501,1.289,0.501c0.507,0,1.021-0.196,1.542-0.591l0.38,0.919
				c-0.57,0.43-1.211,0.645-1.922,0.645c-0.859,0-1.568-0.266-2.128-0.798C345.094,36.793,344.814,36.157,344.814,35.418z"/>
			<path fill="#585757" d="M352.007,37.995h-1.173v-7.668h1.173v3.115c0.134-0.211,0.325-0.387,0.575-0.527s0.526-0.211,0.829-0.211
				c0.605,0,1.094,0.207,1.463,0.623c0.37,0.415,0.555,0.971,0.555,1.668v3h-1.172v-2.704c0-0.549-0.09-0.956-0.27-1.22
				s-0.456-0.396-0.829-0.396c-0.19,0-0.377,0.064-0.56,0.19c-0.184,0.127-0.324,0.3-0.423,0.518
				c-0.112,0.253-0.169,0.591-0.169,1.015V37.995z"/>
			<path fill="#585757" d="M358.229,31.214c0,0.197-0.074,0.37-0.222,0.518c-0.148,0.148-0.324,0.223-0.528,0.223
				s-0.381-0.074-0.528-0.223c-0.147-0.147-0.222-0.32-0.222-0.518c0-0.203,0.074-0.38,0.222-0.527
				c0.147-0.148,0.324-0.223,0.528-0.223s0.38,0.074,0.528,0.223C358.154,30.834,358.229,31.011,358.229,31.214z M356.897,37.995
				V32.83h1.183v5.165H356.897z"/>
			<path fill="#585757" d="M361.491,37.013l1.384-4.183h1.215l-1.796,5.165h-1.605l-1.795-5.165h1.214L361.491,37.013z"/>
			<path fill="#585757" d="M365.663,35.925c0.07,0.316,0.219,0.578,0.444,0.781c0.33,0.303,0.767,0.455,1.31,0.455
				c0.57,0,1.105-0.212,1.605-0.635l0.349,0.867c-0.557,0.485-1.219,0.729-1.986,0.729c-0.873,0-1.582-0.248-2.128-0.744
				c-0.546-0.497-0.818-1.146-0.818-1.949c0-0.796,0.242-1.449,0.729-1.959c0.485-0.511,1.119-0.766,1.901-0.766
				c0.774,0,1.406,0.253,1.896,0.76c0.489,0.508,0.734,1.137,0.734,1.891c0,0.205-0.018,0.395-0.053,0.57H365.663z M365.643,35.006
				h2.872c-0.014-0.338-0.154-0.646-0.422-0.924s-0.609-0.417-1.024-0.417c-0.423,0-0.771,0.151-1.046,0.453
				C365.818,34.345,365.691,34.64,365.643,35.006z"/>
		</g>
	</g>
	<g>
		<g>
			<path fill="#040505" d="M406.491,5.62l5.51,8.895l-1.764,1.102l-3.746-6.25l-3.706,6.391l-1.803-1.102L406.491,5.62z
				 M402.404,22.829V17h2.164v3.906h12.141v1.923H402.404z M414.385,16.899V5.72h2.164v11.179H414.385z"/>
			<path fill="#040505" d="M435.561,14.435v1.903h-6.852v2.705h-2.185v-2.705h-6.991v-1.903H435.561z M420.815,12.652V5.941h13.463
				v6.711H420.815z M422.999,17.741v3.226h11.499v1.903h-13.683v-5.128H422.999z M432.135,7.824h-9.176v2.965h9.176V7.824z"/>
			<path fill="#040505" d="M442.491,13.834c0,0.401-0.146,0.745-0.44,1.032c-0.294,0.288-0.642,0.431-1.042,0.431
				s-0.748-0.143-1.042-0.431c-0.294-0.287-0.44-0.631-0.44-1.032c0-0.4,0.146-0.744,0.44-1.032
				c0.294-0.287,0.642-0.431,1.042-0.431s0.748,0.144,1.042,0.431C442.345,13.09,442.491,13.434,442.491,13.834z"/>
			<path fill="#040505" d="M446.118,8.084V6.221h10.017v1.863h-4.268l4.448,5.549l-1.563,1.202l-3.525-4.528l-3.506,4.668
				l-1.623-1.242l4.428-5.649H446.118z M447.159,15.457h2.124V17.1h9.216v-1.643h2.123v7.373h-13.463V15.457z M458.499,18.862
				h-9.216v2.164h9.216V18.862z M460.622,14.956h-2.163V5.72h2.163v3.386h2.505v2.144h-2.505V14.956z"/>
			<path fill="#040505" d="M464.528,8.706V6.802h10.498v1.903h-4.388l4.809,11.419l-1.903,0.822l-3.666-8.916l-3.646,9.056
				l-1.983-0.841l4.828-11.54H464.528z M477.871,5.72h2.164v17.45h-2.164V5.72z"/>
			<path fill="#040505" d="M489.33,6.221h8.574v7.473h-2.144V11.59h-6.331V9.767h6.331V8.084h-6.431V6.221z M490.611,14.816h13.704
				v4.768h-11.54v1.482h11.74v1.763h-13.904v-4.868h11.54v-1.442h-11.54V14.816z M502.151,5.72h2.164v8.274h-2.164v-3.326h-2.865
				V8.766h2.865V5.72z"/>
			<path fill="#040505" d="M515.454,15.457h-7.853V9.947h5.569V8.064h-5.569V6.221h7.652v5.509h-5.569v1.943h5.77V15.457z
				 M508.543,16.959h14.244v6.05h-2.164v-4.127h-12.08V16.959z M517.378,5.74h2.043v9.977h-2.043v-3.727h-1.583v-1.923h1.583V5.74z
				 M520.703,5.72h2.084v10.097h-2.084V5.72z"/>
			<path fill="#040505" d="M530.8,5.62l5.51,8.895l-1.764,1.102l-3.746-6.25l-3.706,6.391l-1.803-1.102L530.8,5.62z M526.713,22.829
				V17h2.164v3.906h12.141v1.923H526.713z M538.693,16.899v-4.027h-2.965v-1.783h2.965V9.447h-3.025V7.664h3.025V5.72h2.164v11.179
				H538.693z"/>
		</g>
		<g>
			<path fill="#585757" d="M405.396,37.995l-2.693-5.839v5.839h-1.199v-7.164h1.768l2.704,5.859v-5.859h1.188v7.164H405.396z"/>
			<path fill="#585757" d="M409.5,35.934c0.07,0.315,0.218,0.575,0.442,0.778c0.329,0.302,0.764,0.453,1.305,0.453
				c0.567,0,1.101-0.211,1.599-0.632l0.348,0.862c-0.555,0.484-1.214,0.727-1.979,0.727c-0.869,0-1.576-0.248-2.12-0.742
				c-0.543-0.494-0.815-1.141-0.815-1.941c0-0.792,0.242-1.442,0.727-1.951c0.483-0.508,1.115-0.763,1.894-0.763
				c0.771,0,1.401,0.253,1.889,0.757c0.487,0.506,0.731,1.133,0.731,1.884c0,0.204-0.018,0.394-0.053,0.568H409.5z M409.479,35.019
				h2.861c-0.014-0.337-0.154-0.645-0.421-0.921c-0.267-0.277-0.606-0.415-1.021-0.415c-0.421,0-0.768,0.15-1.042,0.451
				C409.654,34.358,409.528,34.653,409.479,35.019z"/>
			<path fill="#585757" d="M417.56,34.682l-0.789,3.313h-1.494l-1.326-5.145h1.115l1,4.041l0.979-4.041h1.031l0.979,4.041
				l0.999-4.041h1.115l-1.325,5.145h-1.494L417.56,34.682z"/>
			<path fill="#585757" d="M421.474,37.038l0.736-0.747c0.203,0.28,0.428,0.499,0.674,0.652c0.238,0.147,0.494,0.222,0.768,0.222
				c0.267,0,0.489-0.055,0.668-0.164c0.179-0.108,0.269-0.25,0.269-0.426s-0.086-0.313-0.258-0.416
				c-0.172-0.102-0.381-0.194-0.626-0.278c-0.28-0.091-0.568-0.192-0.863-0.306c-0.393-0.14-0.682-0.324-0.867-0.552
				c-0.187-0.228-0.279-0.485-0.279-0.773c0-0.421,0.198-0.78,0.595-1.078c0.396-0.298,0.864-0.447,1.404-0.447
				c0.575,0,1.045,0.137,1.41,0.41c0.189,0.141,0.337,0.319,0.441,0.536l-0.715,0.695c-0.099-0.162-0.211-0.295-0.337-0.4
				c-0.231-0.196-0.516-0.295-0.853-0.295c-0.203,0-0.379,0.05-0.525,0.148c-0.147,0.098-0.222,0.217-0.222,0.357
				c0,0.146,0.083,0.271,0.247,0.373c0.165,0.102,0.409,0.201,0.731,0.3c0.119,0.035,0.253,0.077,0.4,0.126
				c0.498,0.162,0.876,0.373,1.136,0.632s0.39,0.571,0.39,0.937c0,0.428-0.207,0.798-0.621,1.109
				c-0.414,0.313-0.937,0.469-1.567,0.469c-0.54,0-1.014-0.127-1.421-0.379C421.915,37.582,421.677,37.347,421.474,37.038z"/>
			<path fill="#585757" d="M429.543,38.122c-0.632,0-1.158-0.246-1.578-0.736v2.609h-1.168v-7.145h1.125v0.652
				c0.442-0.52,0.982-0.778,1.621-0.778c0.75,0,1.358,0.269,1.825,0.805c0.466,0.536,0.699,1.17,0.699,1.899
				c0,0.723-0.233,1.352-0.699,1.889C430.901,37.854,430.293,38.122,429.543,38.122z M427.975,35.755
				c0.042,0.386,0.187,0.709,0.432,0.968c0.273,0.288,0.613,0.431,1.021,0.431c0.449,0,0.805-0.162,1.068-0.488
				c0.263-0.326,0.395-0.738,0.395-1.236s-0.132-0.912-0.395-1.242c-0.264-0.329-0.619-0.494-1.068-0.494
				c-0.407,0-0.747,0.145-1.021,0.432c-0.245,0.26-0.39,0.582-0.432,0.968C427.954,35.31,427.954,35.53,427.975,35.755z"/>
			<path fill="#585757" d="M435.361,34.671c0.393,0,0.8,0,1.221,0c0-0.33-0.132-0.578-0.395-0.747
				c-0.264-0.169-0.641-0.253-1.132-0.253h-0.031c-0.463,0-0.957,0.109-1.483,0.326l-0.295-0.915
				c0.54-0.231,1.137-0.351,1.789-0.357h0.021c0.863,0,1.526,0.167,1.989,0.499c0.463,0.334,0.694,0.861,0.694,1.584v3.188h-1.115
				v-0.567c-0.218,0.218-0.486,0.388-0.805,0.511c-0.319,0.122-0.644,0.184-0.974,0.184c-0.61,0-1.106-0.163-1.489-0.489
				c-0.382-0.326-0.573-0.728-0.573-1.204c0-0.527,0.238-0.961,0.716-1.305C433.934,34.821,434.555,34.671,435.361,34.671z
				 M435.046,37.196c0.301,0,0.6-0.074,0.894-0.221c0.295-0.148,0.509-0.319,0.643-0.516v-0.873c-0.386,0-0.733,0-1.042,0
				c-0.589,0-0.999,0.076-1.23,0.23c-0.231,0.169-0.348,0.372-0.348,0.611c0,0.225,0.097,0.408,0.289,0.552
				C434.444,37.124,434.709,37.196,435.046,37.196z"/>
			<path fill="#585757" d="M441.916,38.122c-0.632,0-1.158-0.246-1.578-0.736v2.609h-1.168v-7.145h1.125v0.652
				c0.442-0.52,0.982-0.778,1.621-0.778c0.75,0,1.358,0.269,1.825,0.805c0.466,0.536,0.699,1.17,0.699,1.899
				c0,0.723-0.233,1.352-0.699,1.889C443.274,37.854,442.666,38.122,441.916,38.122z M440.348,35.755
				c0.042,0.386,0.187,0.709,0.432,0.968c0.273,0.288,0.613,0.431,1.021,0.431c0.449,0,0.805-0.162,1.068-0.488
				c0.263-0.326,0.395-0.738,0.395-1.236s-0.132-0.912-0.395-1.242c-0.264-0.329-0.619-0.494-1.068-0.494
				c-0.407,0-0.747,0.145-1.021,0.432c-0.245,0.26-0.39,0.582-0.432,0.968C440.327,35.31,440.327,35.53,440.348,35.755z"/>
			<path fill="#585757" d="M446.377,35.934c0.07,0.315,0.218,0.575,0.442,0.778c0.329,0.302,0.764,0.453,1.305,0.453
				c0.567,0,1.101-0.211,1.599-0.632l0.348,0.862c-0.555,0.484-1.214,0.727-1.979,0.727c-0.869,0-1.576-0.248-2.12-0.742
				c-0.543-0.494-0.815-1.141-0.815-1.941c0-0.792,0.242-1.442,0.727-1.951c0.483-0.508,1.115-0.763,1.894-0.763
				c0.771,0,1.401,0.253,1.889,0.757c0.487,0.506,0.731,1.133,0.731,1.884c0,0.204-0.018,0.394-0.053,0.568H446.377z
				 M446.356,35.019h2.861c-0.014-0.337-0.154-0.645-0.421-0.921c-0.267-0.277-0.606-0.415-1.021-0.415
				c-0.421,0-0.768,0.15-1.042,0.451C446.531,34.358,446.405,34.653,446.356,35.019z"/>
			<path fill="#585757" d="M451.47,37.995v-5.145h1.104v0.768c0.168-0.252,0.375-0.448,0.621-0.588
				c0.294-0.176,0.642-0.264,1.041-0.264h0.084v1.041h-0.126c-0.484,0-0.87,0.148-1.157,0.442c-0.267,0.288-0.399,0.737-0.399,1.347
				v2.398H451.47z"/>
			<path fill="#585757" d="M462.738,36.933c-0.196,0.337-0.478,0.614-0.842,0.832c-0.4,0.238-0.866,0.357-1.399,0.357
				c-0.681,0-1.236-0.195-1.668-0.584c-0.431-0.389-0.646-0.882-0.646-1.479c0-0.357,0.126-0.726,0.379-1.104
				c0.252-0.379,0.616-0.712,1.094-0.999c-0.295-0.268-0.521-0.52-0.679-0.758s-0.236-0.488-0.236-0.747
				c0-0.484,0.163-0.896,0.489-1.236s0.808-0.511,1.446-0.511c0.604,0,1.061,0.174,1.373,0.521c0.313,0.347,0.469,0.741,0.469,1.184
				c0,0.33-0.138,0.645-0.411,0.947c-0.225,0.245-0.522,0.49-0.894,0.736l1.21,1.168l0.768-1.41l0.926,0.568l-0.884,1.619
				l1.315,1.264l-0.705,0.693L462.738,36.933z M460.35,34.618c-0.33,0.218-0.568,0.428-0.716,0.631
				c-0.196,0.26-0.294,0.52-0.294,0.779c0,0.344,0.105,0.617,0.315,0.82s0.487,0.305,0.831,0.305c0.351,0,0.639-0.09,0.863-0.273
				c0.203-0.168,0.396-0.41,0.578-0.726L460.35,34.618z M460.539,33.429c0.218-0.125,0.417-0.276,0.6-0.451
				c0.183-0.176,0.273-0.354,0.273-0.537c0-0.217-0.064-0.405-0.194-0.563c-0.13-0.158-0.321-0.237-0.573-0.237
				c-0.273,0-0.476,0.077-0.605,0.231s-0.194,0.334-0.194,0.537c0,0.196,0.066,0.371,0.2,0.525
				C460.178,33.089,460.343,33.255,460.539,33.429z"/>
			<path fill="#585757" d="M475.7,30.831v7.164h-1.146v-5.766l-1.873,5.766h-1.115l-1.862-5.766v5.766h-1.157v-7.164h1.768
				l1.81,5.576l1.81-5.576H475.7z"/>
			<path fill="#585757" d="M479.393,34.671c0.393,0,0.8,0,1.221,0c0-0.33-0.132-0.578-0.395-0.747
				c-0.264-0.169-0.641-0.253-1.132-0.253h-0.031c-0.463,0-0.957,0.109-1.483,0.326l-0.295-0.915
				c0.54-0.231,1.137-0.351,1.789-0.357h0.021c0.863,0,1.526,0.167,1.989,0.499c0.463,0.334,0.694,0.861,0.694,1.584v3.188h-1.115
				v-0.567c-0.218,0.218-0.486,0.388-0.805,0.511c-0.319,0.122-0.644,0.184-0.974,0.184c-0.61,0-1.106-0.163-1.489-0.489
				c-0.382-0.326-0.573-0.728-0.573-1.204c0-0.527,0.238-0.961,0.716-1.305C477.965,34.821,478.586,34.671,479.393,34.671z
				 M479.077,37.196c0.301,0,0.6-0.074,0.894-0.221c0.295-0.148,0.509-0.319,0.643-0.516v-0.873c-0.386,0-0.733,0-1.042,0
				c-0.589,0-0.999,0.076-1.23,0.23c-0.231,0.169-0.348,0.372-0.348,0.611c0,0.225,0.097,0.408,0.289,0.552
				C478.476,37.124,478.74,37.196,479.077,37.196z"/>
			<path fill="#585757" d="M485.316,40.048c-0.793,0-1.47-0.2-2.03-0.6l0.347-0.926c0.526,0.378,1.088,0.567,1.684,0.567
				c0.52,0,0.928-0.147,1.226-0.442c0.299-0.294,0.447-0.623,0.447-0.988v-0.316c-0.428,0.52-0.968,0.779-1.62,0.779
				c-0.751,0-1.359-0.269-1.825-0.805c-0.467-0.537-0.7-1.166-0.7-1.889c0-0.729,0.233-1.363,0.7-1.899
				c0.466-0.536,1.074-0.805,1.825-0.805c0.61,0,1.137,0.245,1.578,0.736v-0.61h1.168v4.271c0,0.976-0.244,1.707-0.731,2.193
				C486.896,39.804,486.207,40.048,485.316,40.048z M486.937,35.765c0.021-0.23,0.021-0.459,0-0.684
				c-0.042-0.385-0.186-0.708-0.431-0.968c-0.273-0.288-0.614-0.431-1.021-0.431c-0.449,0-0.806,0.166-1.068,0.499
				s-0.395,0.749-0.395,1.247s0.132,0.912,0.395,1.241c0.263,0.33,0.619,0.495,1.068,0.495c0.406,0,0.747-0.145,1.021-0.432
				C486.751,36.474,486.895,36.151,486.937,35.765z"/>
			<path fill="#585757" d="M491.766,34.671c0.393,0,0.8,0,1.221,0c0-0.33-0.132-0.578-0.395-0.747
				c-0.264-0.169-0.641-0.253-1.132-0.253h-0.031c-0.463,0-0.957,0.109-1.483,0.326l-0.295-0.915
				c0.54-0.231,1.137-0.351,1.789-0.357h0.021c0.863,0,1.526,0.167,1.989,0.499c0.463,0.334,0.694,0.861,0.694,1.584v3.188h-1.115
				v-0.567c-0.218,0.218-0.486,0.388-0.805,0.511c-0.319,0.122-0.644,0.184-0.974,0.184c-0.61,0-1.106-0.163-1.489-0.489
				c-0.382-0.326-0.573-0.728-0.573-1.204c0-0.527,0.238-0.961,0.716-1.305C490.338,34.821,490.959,34.671,491.766,34.671z
				 M491.45,37.196c0.301,0,0.6-0.074,0.894-0.221c0.295-0.148,0.509-0.319,0.643-0.516v-0.873c-0.386,0-0.733,0-1.042,0
				c-0.589,0-0.999,0.076-1.23,0.23c-0.231,0.169-0.348,0.372-0.348,0.611c0,0.225,0.097,0.408,0.289,0.552
				C490.849,37.124,491.113,37.196,491.45,37.196z"/>
			<path fill="#585757" d="M499.615,37.995h-4.44v-0.842l2.841-3.355h-2.62v-0.947h4.104v0.842l-2.841,3.356h2.957V37.995z"/>
			<path fill="#585757" d="M502.014,31.241c0,0.196-0.073,0.368-0.221,0.516c-0.147,0.146-0.322,0.221-0.525,0.221
				c-0.204,0-0.379-0.074-0.526-0.221c-0.147-0.147-0.221-0.319-0.221-0.516c0-0.203,0.073-0.379,0.221-0.526
				s0.322-0.221,0.526-0.221c0.203,0,0.378,0.073,0.525,0.221S502.014,31.038,502.014,31.241z M500.688,37.995v-5.145h1.179v5.145
				H500.688z"/>
			<path fill="#585757" d="M504.539,35.407v2.588h-1.168v-5.145h1.125v0.684c0.134-0.238,0.332-0.433,0.595-0.584
				c0.264-0.15,0.546-0.226,0.847-0.226c0.604,0,1.09,0.207,1.458,0.62c0.368,0.414,0.552,0.969,0.552,1.663v2.987h-1.168v-2.693
				c0-0.547-0.089-0.951-0.268-1.215c-0.18-0.263-0.454-0.395-0.826-0.395c-0.189,0-0.375,0.063-0.558,0.189
				s-0.323,0.299-0.421,0.516C504.595,34.649,504.539,34.987,504.539,35.407z"/>
			<path fill="#585757" d="M510.241,35.934c0.07,0.315,0.218,0.575,0.442,0.778c0.329,0.302,0.764,0.453,1.305,0.453
				c0.567,0,1.101-0.211,1.599-0.632l0.348,0.862c-0.555,0.484-1.214,0.727-1.979,0.727c-0.869,0-1.576-0.248-2.12-0.742
				c-0.543-0.494-0.815-1.141-0.815-1.941c0-0.792,0.242-1.442,0.727-1.951c0.483-0.508,1.115-0.763,1.894-0.763
				c0.771,0,1.401,0.253,1.889,0.757c0.487,0.506,0.731,1.133,0.731,1.884c0,0.204-0.018,0.394-0.053,0.568H510.241z
				 M510.221,35.019h2.861c-0.014-0.337-0.154-0.645-0.421-0.921c-0.267-0.277-0.606-0.415-1.021-0.415
				c-0.421,0-0.768,0.15-1.042,0.451C510.396,34.358,510.27,34.653,510.221,35.019z"/>
			<path fill="#585757" d="M521.814,37.112c0.751,0,1.435-0.242,2.052-0.727l0.494,0.873c-0.638,0.576-1.486,0.863-2.546,0.863
				c-1.031,0-1.904-0.355-2.62-1.068c-0.715-0.711-1.073-1.59-1.073-2.635c0-1.053,0.358-1.935,1.073-2.646
				c0.716-0.712,1.589-1.068,2.62-1.068c1.045,0,1.88,0.288,2.504,0.863l-0.483,0.873c-0.61-0.484-1.284-0.727-2.021-0.727
				c-0.681,0-1.266,0.253-1.757,0.758c-0.491,0.533-0.736,1.182-0.736,1.947c0,0.764,0.245,1.409,0.736,1.936
				C520.549,36.859,521.134,37.112,521.814,37.112z"/>
			<path fill="#585757" d="M527.76,38.122c-0.751,0-1.393-0.26-1.926-0.779c-0.533-0.519-0.8-1.156-0.8-1.914
				c0-0.765,0.267-1.406,0.8-1.926s1.175-0.778,1.926-0.778c0.757,0,1.4,0.259,1.931,0.778c0.529,0.52,0.794,1.161,0.794,1.926
				c0,0.758-0.265,1.396-0.794,1.914C529.16,37.862,528.517,38.122,527.76,38.122z M527.76,37.153c0.428,0,0.792-0.162,1.094-0.488
				s0.453-0.738,0.453-1.236s-0.151-0.912-0.453-1.242c-0.302-0.329-0.666-0.494-1.094-0.494c-0.421,0-0.784,0.165-1.089,0.494
				c-0.306,0.33-0.458,0.744-0.458,1.242s0.152,0.91,0.458,1.236C526.976,36.991,527.339,37.153,527.76,37.153z"/>
			<path fill="#585757" d="M531.568,37.995v-7.639h1.168v7.639H531.568z"/>
			<path fill="#585757" d="M534.199,37.995v-7.639h1.168v7.639H534.199z"/>
			<path fill="#585757" d="M537.691,35.934c0.07,0.315,0.218,0.575,0.442,0.778c0.329,0.302,0.764,0.453,1.305,0.453
				c0.567,0,1.101-0.211,1.599-0.632l0.348,0.862c-0.555,0.484-1.214,0.727-1.979,0.727c-0.869,0-1.576-0.248-2.12-0.742
				c-0.543-0.494-0.815-1.141-0.815-1.941c0-0.792,0.242-1.442,0.727-1.951c0.483-0.508,1.115-0.763,1.894-0.763
				c0.771,0,1.401,0.253,1.889,0.757c0.487,0.506,0.731,1.133,0.731,1.884c0,0.204-0.018,0.394-0.053,0.568H537.691z
				 M537.671,35.019h2.861c-0.014-0.337-0.154-0.645-0.421-0.921c-0.267-0.277-0.606-0.415-1.021-0.415
				c-0.421,0-0.768,0.15-1.042,0.451C537.846,34.358,537.72,34.653,537.671,35.019z"/>
			<path fill="#585757" d="M542.426,35.429c0-0.744,0.279-1.381,0.837-1.91s1.264-0.794,2.12-0.794c0.673,0,1.305,0.214,1.894,0.642
				l-0.379,0.916c-0.512-0.394-1.017-0.59-1.515-0.59c-0.526,0-0.954,0.167-1.284,0.5c-0.329,0.333-0.494,0.745-0.494,1.236
				c0,0.484,0.165,0.893,0.494,1.226c0.33,0.333,0.758,0.499,1.284,0.499c0.505,0,1.017-0.195,1.536-0.588l0.379,0.914
				c-0.568,0.429-1.207,0.643-1.915,0.643c-0.856,0-1.563-0.265-2.12-0.795C542.705,36.798,542.426,36.165,542.426,35.429z"/>
			<path fill="#585757" d="M549.928,31.188v1.662h1.115v0.937h-1.115v2.62c0,0.252,0.06,0.424,0.179,0.516
				c0.12,0.091,0.288,0.137,0.506,0.137h0.431v0.936h-0.705c-0.554,0-0.957-0.124-1.21-0.373c-0.252-0.248-0.378-0.615-0.378-1.1
				v-2.735h-0.884v-0.937h0.884v-1.662H549.928z"/>
			<path fill="#585757" d="M553.463,31.241c0,0.196-0.073,0.368-0.221,0.516c-0.147,0.146-0.322,0.221-0.525,0.221
				c-0.204,0-0.379-0.074-0.526-0.221c-0.147-0.147-0.221-0.319-0.221-0.516c0-0.203,0.073-0.379,0.221-0.526
				s0.322-0.221,0.526-0.221c0.203,0,0.378,0.073,0.525,0.221S553.463,31.038,553.463,31.241z M552.138,37.995v-5.145h1.179v5.145
				H552.138z"/>
			<path fill="#585757" d="M557.188,38.122c-0.751,0-1.393-0.26-1.926-0.779c-0.533-0.519-0.8-1.156-0.8-1.914
				c0-0.765,0.267-1.406,0.8-1.926s1.175-0.778,1.926-0.778c0.757,0,1.4,0.259,1.931,0.778c0.529,0.52,0.794,1.161,0.794,1.926
				c0,0.758-0.265,1.396-0.794,1.914C558.588,37.862,557.944,38.122,557.188,38.122z M557.188,37.153
				c0.428,0,0.792-0.162,1.094-0.488s0.453-0.738,0.453-1.236s-0.151-0.912-0.453-1.242c-0.302-0.329-0.666-0.494-1.094-0.494
				c-0.421,0-0.784,0.165-1.089,0.494c-0.306,0.33-0.458,0.744-0.458,1.242s0.152,0.91,0.458,1.236
				C556.403,36.991,556.767,37.153,557.188,37.153z"/>
			<path fill="#585757" d="M562.165,35.407v2.588h-1.168v-5.145h1.125v0.684c0.134-0.238,0.332-0.433,0.595-0.584
				c0.264-0.15,0.546-0.226,0.847-0.226c0.604,0,1.09,0.207,1.458,0.62c0.368,0.414,0.552,0.969,0.552,1.663v2.987h-1.168v-2.693
				c0-0.547-0.089-0.951-0.268-1.215c-0.18-0.263-0.454-0.395-0.826-0.395c-0.189,0-0.375,0.063-0.558,0.189
				s-0.323,0.299-0.421,0.516C562.221,34.649,562.165,34.987,562.165,35.407z"/>
		</g>
	</g>
	<path fill-rule="evenodd" clip-rule="evenodd" fill="#BDBDBD" d="M385.315,5.664h0.714v32.449h-0.714V5.664z"/>
</g>
</svg>
