<svg width="168" height="26" viewBox="0 0 168 26" fill="none" xmlns="http://www.w3.org/2000/svg">
<g clip-path="url(#clip0_58_15734)">
<path d="M7.732 15.3511C7.676 15.5011 7.648 15.5951 7.648 15.6321C7.591 15.6131 7.54 15.6041 7.493 15.6041C7.446 15.6041 7.404 15.6041 7.367 15.6041C7.179 15.6041 7.02 15.6841 6.889 15.8431C6.758 16.0021 6.682 16.0921 6.664 16.1111C6.645 16.1111 6.594 16.0361 6.509 15.8851C6.425 15.7361 6.28 15.6601 6.073 15.6601C5.998 15.5661 6.003 15.3841 6.087 15.1121C6.171 14.8401 6.213 14.5631 6.213 14.2821C6.194 13.6271 6.217 12.9091 6.283 12.1321C6.348 11.3541 6.381 10.8811 6.381 10.7121C6.362 10.1121 6.255 9.69912 6.058 9.47512C5.861 9.25112 5.398 9.15612 4.667 9.19312C4.143 9.21212 3.655 9.33412 3.206 9.55912C2.756 9.78512 2.512 9.90712 2.475 9.92512C2.4 9.92512 2.31 9.92512 2.207 9.92512C2.104 9.92512 2.006 9.91512 1.912 9.89712C1.837 9.80312 1.5 9.58712 0.9 9.25012C0.3 8.91212 0 8.64112 0 8.43512C0.131 8.26612 0.197 8.16412 0.197 8.12512C0.74 8.08812 1.373 8.03112 2.095 7.95612C2.816 7.88212 3.215 7.83512 3.29 7.81512C3.44 7.81512 3.745 7.73612 4.204 7.57712C4.663 7.41812 4.911 7.33812 4.949 7.33812C5.736 7.30112 6.434 7.49212 7.044 7.91412C7.653 8.33612 7.967 8.95912 7.986 9.78412L8.294 10.6001C8.238 10.6191 8.19 10.6521 8.153 10.6981C8.115 10.7461 8.097 10.8351 8.097 10.9661C8.097 11.0041 8.12 11.0501 8.167 11.1071C8.213 11.1631 8.284 11.3131 8.378 11.5571C8.34 11.5941 8.321 11.6361 8.321 11.6831C8.321 11.7301 8.33 11.8291 8.349 11.9781C8.199 12.0911 8.086 12.1851 8.012 12.2591C8.031 12.3541 8.054 12.4611 8.082 12.5821C8.11 12.7041 8.124 12.8121 8.124 12.9051C8.086 12.9251 8.049 12.9751 8.012 13.0601C7.974 13.1441 7.937 13.2711 7.9 13.4401C7.937 13.4591 7.98 13.4771 8.026 13.4961C8.072 13.5151 8.106 13.5341 8.124 13.5531C8.105 13.6091 8.082 13.6651 8.054 13.7211C8.026 13.7781 8.002 13.8431 7.984 13.9181C8.002 13.8991 8.016 13.8901 8.026 13.8901C8.035 13.8901 8.049 13.8901 8.068 13.8901L7.815 15.0991C7.816 15.1171 7.788 15.2011 7.732 15.3511ZM14.747 12.5811C14.737 12.5911 14.723 12.6141 14.705 12.6511C14.686 12.7261 14.63 12.8301 14.536 12.9611C14.498 12.9991 14.489 13.0781 14.508 13.2001C14.527 13.3221 14.546 13.4291 14.565 13.5231C14.583 13.6171 14.579 13.6731 14.551 13.6921C14.523 13.7111 14.462 13.7391 14.368 13.7761C14.405 13.8881 14.438 14.0711 14.466 14.3241C14.494 14.5781 14.508 14.7141 14.508 14.7321C14.508 14.7501 14.499 14.8311 14.48 14.9711C14.461 15.1121 14.433 15.2561 14.396 15.4071C14.358 15.5761 14.321 15.7631 14.284 15.9701H14.34C14.34 16.0071 14.321 16.0071 14.284 15.9701C14.246 15.9321 14.19 15.9091 14.115 15.9001C14.04 15.8901 13.927 15.8851 13.778 15.8851C13.74 15.9601 13.712 16.0261 13.694 16.0821C13.675 16.1381 13.647 16.1861 13.61 16.2231C13.572 16.2601 13.53 16.2981 13.484 16.3351C13.437 16.3731 13.358 16.4391 13.245 16.5311C13.114 16.5131 13.038 16.5041 13.02 16.5041C13.001 16.5041 12.982 16.5041 12.963 16.5041H12.738C12.775 15.8851 12.789 15.2851 12.78 14.7041C12.77 14.1231 12.775 13.5421 12.794 12.9611C12.813 12.8491 12.827 12.6941 12.836 12.4971C12.845 12.3001 12.859 12.1081 12.878 11.9211C12.896 11.7711 12.901 11.6681 12.892 11.6111C12.882 11.5551 12.859 11.5081 12.822 11.4701C12.803 11.4511 12.756 11.4421 12.681 11.4421C12.83 10.7491 12.817 10.2011 12.639 9.79712C12.461 9.39512 12.297 9.02412 12.147 8.68712C11.828 7.93712 11.467 7.38912 11.064 7.04212C10.661 6.69512 10.469 6.42812 10.487 6.24012C10.506 5.86512 10.806 5.56112 11.387 5.32612C11.968 5.09312 12.268 4.97412 12.286 4.97412C12.549 4.99412 12.933 5.24612 13.439 5.73412C13.945 6.22112 14.236 6.76512 14.311 7.36512C14.33 7.51512 14.334 7.73012 14.325 8.01112C14.315 8.29212 14.395 8.52712 14.564 8.71412C14.564 8.73312 14.559 8.81712 14.55 8.96712C14.54 9.11712 14.498 9.21012 14.424 9.24812C14.499 10.1661 14.573 10.7801 14.649 11.0891C14.724 11.3991 14.743 11.8821 14.706 12.5371L14.734 12.5091V12.5371C14.751 12.5591 14.756 12.5721 14.747 12.5811Z" fill="white"/>
<path d="M25.2342 10.2478C26.5182 10.5568 27.1602 11.0868 27.1602 11.8358C27.1602 11.9488 26.9633 12.1078 26.5693 12.3148C26.1753 12.5208 25.9603 12.6328 25.9233 12.6518C25.5103 12.6518 25.0893 12.3808 24.6583 11.8368C24.2263 11.2938 23.5713 11.0218 22.6903 11.0218C22.3343 11.0218 22.0952 11.0968 21.9732 11.2478C21.8512 11.3978 21.7522 11.5578 21.6782 11.7258C21.4902 12.2698 21.3413 12.8788 21.2283 13.5538C21.1153 14.2288 20.8343 14.5658 20.3843 14.5658V14.5098H20.3563C20.2813 14.4908 20.1592 14.4818 19.9902 14.4818C19.7832 14.4818 19.6062 14.5658 19.4562 14.7348C19.3062 14.5098 19.1563 14.2388 19.0063 13.9198C18.8563 13.6018 18.7812 13.3198 18.7812 13.0758C18.7812 13.0388 19.0523 12.2278 19.5963 10.6438C20.1393 9.05977 20.4772 8.17377 20.6082 7.98677C20.7582 7.79877 20.9263 7.44877 21.1143 6.93177C21.3013 6.41677 21.4983 6.03677 21.7043 5.79277C21.8543 5.64377 21.9942 5.42377 22.1252 5.13277C22.2562 4.84177 22.3502 4.69677 22.4062 4.69677C22.4442 4.69677 22.5143 4.74377 22.6173 4.83777C22.7203 4.93177 22.7902 4.99677 22.8282 5.03377C23.0342 4.77077 23.1563 4.58377 23.1943 4.47077V4.38577C23.5313 4.74177 23.7602 5.03677 23.8822 5.27177C24.0042 5.50677 24.0653 5.74577 24.0653 5.98877C24.0653 6.34477 23.8162 6.92177 23.3202 7.71777C22.8232 8.51477 22.4712 9.23177 22.2652 9.86777C22.9612 9.81177 23.9502 9.93777 25.2342 10.2478ZM34.9623 20.4678C34.4463 20.5618 33.9642 20.6838 33.5142 20.8328C32.3332 21.2458 31.1572 21.7138 29.9862 22.2388C28.8142 22.7628 28.1812 23.0258 28.0882 23.0258C28.0692 23.0258 27.8913 22.9978 27.5543 22.9418C27.2173 22.8848 26.9642 22.7728 26.7952 22.6038C26.7202 22.5098 26.6592 22.2668 26.6122 21.8738C26.5652 21.4798 26.5422 21.1888 26.5422 21.0018C26.7292 21.0768 26.9643 20.8808 27.2453 20.4118C27.5263 19.9428 27.6952 19.6338 27.7512 19.4838C28.2382 18.9588 28.7912 18.1248 29.4102 16.9808C30.0292 15.8378 30.6002 15.0228 31.1252 14.5348C31.1062 14.4978 31.0833 14.4738 31.0553 14.4648C31.0273 14.4558 30.9942 14.4508 30.9562 14.4508C31.1622 14.0198 31.4853 13.4388 31.9263 12.7078C32.3663 11.9768 32.6892 11.3868 32.8962 10.9368C32.8212 10.8808 32.7703 10.8108 32.7423 10.7258C32.7143 10.6418 32.6432 10.5998 32.5312 10.5998C32.4372 10.5998 32.1183 10.7068 31.5753 10.9228C31.0313 11.1388 30.7132 11.2458 30.6192 11.2458C30.1312 11.2458 29.7853 11.0678 29.5793 10.7118C29.3723 10.3558 29.2322 10.1778 29.1572 10.1778C29.0822 10.0838 29.0022 9.61477 28.9182 8.77177C28.8342 7.92877 28.7643 7.47877 28.7083 7.42177C28.6513 7.27277 28.6383 7.08977 28.6663 6.87377C28.6943 6.65777 28.6893 6.47577 28.6523 6.32477C28.5213 5.95077 28.4933 5.50577 28.5683 4.98977C28.6433 4.47377 28.2212 3.91677 27.3022 3.31677C27.6962 3.01677 27.9583 2.71677 28.0903 2.41777C28.2213 2.11777 28.6332 1.96777 29.3272 1.96777C29.9082 1.96777 30.3483 2.30077 30.6493 2.96577C30.9483 3.63077 31.0993 4.12277 31.0993 4.44177L30.9312 5.42577C30.8562 5.44477 30.8042 5.51077 30.7762 5.62277C30.7482 5.73477 30.7713 5.81877 30.8463 5.87577V6.15677L30.6772 6.01577C30.6022 6.03477 30.5412 6.08077 30.4942 6.15677C30.4472 6.23177 30.4143 6.29777 30.3953 6.35277C30.4333 6.42777 30.4892 6.49377 30.5642 6.54977C30.6392 6.60577 30.7422 6.68077 30.8732 6.77477C30.8542 6.86877 30.8073 7.00877 30.7323 7.19677C30.6573 7.38477 30.6762 7.54377 30.7892 7.67477C30.7892 7.71277 30.7612 7.77377 30.7052 7.85877C30.6492 7.94277 30.6012 8.00377 30.5642 8.04177C30.5642 8.07877 30.5873 8.12177 30.6343 8.16777C30.6803 8.21477 30.7143 8.22977 30.7323 8.20977C30.7513 8.24777 30.7702 8.33677 30.7892 8.47777C30.8072 8.61877 30.8352 8.74477 30.8732 8.85777C30.8352 8.89477 30.7932 8.92277 30.7472 8.94177C30.7012 8.96077 30.6302 8.96977 30.5362 8.96977V9.64477C30.6112 9.58777 30.6952 9.55977 30.7892 9.55977C30.8822 9.55977 30.9482 9.61677 30.9862 9.72877C31.0232 9.84077 31.0893 9.89777 31.1833 9.89777C31.2023 9.89777 31.6373 9.67677 32.4903 9.23677C33.3433 8.79777 34.0042 8.57677 34.4722 8.57677C34.8092 8.57677 35.0912 8.73577 35.3152 9.05477C35.5402 9.37377 35.6523 9.57077 35.6523 9.64577C35.6523 9.73977 35.6103 9.83377 35.5263 9.92677C35.4423 10.0198 35.3532 10.1148 35.2592 10.2078C35.2592 10.2448 35.2782 10.2968 35.3152 10.3618C35.3522 10.4268 35.4093 10.4788 35.4843 10.5158C35.4653 10.5908 35.4142 10.6618 35.3292 10.7268C35.2452 10.7928 35.1653 10.8348 35.0903 10.8538C34.9403 11.0418 34.8322 11.1868 34.7662 11.2898C34.7002 11.3938 34.6492 11.5578 34.6122 11.7818C34.3682 12.0068 34.0823 12.2638 33.7543 12.5548C33.4263 12.8448 33.2153 13.0838 33.1223 13.2718C33.0473 13.4028 32.9622 13.5848 32.8692 13.8198C32.7752 14.0538 32.6623 14.2748 32.5323 14.4808C32.4573 14.6308 32.3213 14.8328 32.1243 15.0848C31.9273 15.3368 31.7443 15.5868 31.5763 15.8298C31.5013 15.9608 31.3843 16.1718 31.2243 16.4628C31.0653 16.7528 30.9103 16.9738 30.7603 17.1228C30.7413 17.1418 30.7133 17.1508 30.6763 17.1508C30.6393 17.1508 30.6012 17.1698 30.5642 17.2068C30.5832 17.5078 30.3762 18.0508 29.9452 18.8378C29.5142 19.6248 29.2992 20.1508 29.2992 20.4128C29.2992 20.5068 29.3182 20.5538 29.3552 20.5538C29.3922 20.5538 29.4202 20.6008 29.4392 20.6948H29.7202C29.7942 20.6948 30.0532 20.5868 30.4932 20.3708C30.9332 20.1558 31.3232 19.9818 31.6602 19.8508C31.8092 19.8138 32.1842 19.6248 32.7852 19.2878C33.3852 18.9508 33.9473 18.7818 34.4722 18.7818C34.6032 18.7818 34.8512 18.7718 35.2172 18.7538C35.5822 18.7348 35.8783 18.8288 36.1033 19.0348C36.0653 19.0728 36.0463 19.1428 36.0463 19.2458C36.0463 19.3498 36.1302 19.4468 36.2992 19.5408C36.2612 19.6348 36.2153 19.7098 36.1583 19.7658C36.1023 19.8228 36.0833 19.8978 36.1023 19.9918C35.8573 20.2148 35.4783 20.3738 34.9623 20.4678ZM29.7472 17.1918C29.4472 17.5388 29.2973 17.7588 29.2973 17.8528C29.2973 17.9468 29.3163 17.9988 29.3533 18.0068C29.3903 18.0168 29.3993 18.0488 29.3813 18.1058C29.3623 18.1618 29.3062 18.2368 29.2122 18.3308C29.1182 18.4248 29.0522 18.5098 29.0152 18.5838C29.0522 18.5098 29.1093 18.4578 29.1833 18.4298C29.2573 18.4018 29.3142 18.3778 29.3522 18.3598C29.3892 18.3788 29.4083 18.4208 29.4083 18.4858C29.4083 18.5518 29.4083 18.6038 29.4083 18.6408C29.7083 18.4348 30.0173 18.0368 30.3363 17.4458C30.6553 16.8558 30.9082 16.4008 31.0952 16.0828C31.1512 15.9888 31.2022 15.8438 31.2502 15.6468C31.2962 15.4498 31.4042 15.3418 31.5732 15.3228C31.5732 15.2298 31.5732 15.1448 31.5732 15.0698C31.5732 14.9958 31.5353 14.9388 31.4613 14.9018C31.4983 14.8638 31.5223 14.8318 31.5312 14.8028C31.5402 14.7748 31.5542 14.7508 31.5732 14.7328C31.6292 14.7328 31.6903 14.7428 31.7563 14.7608C31.8213 14.7798 31.8642 14.7878 31.8822 14.7878C31.9382 14.6948 31.9713 14.5818 31.9813 14.4508C31.9903 14.3198 31.9203 14.2168 31.7703 14.1408C31.8073 14.1038 31.8402 14.0848 31.8692 14.0848C31.8972 14.0848 31.9202 14.0658 31.9392 14.0278L32.1363 14.1118L32.1923 13.2688C32.1733 13.2688 32.1222 13.2638 32.0372 13.2538C31.9532 13.2448 31.8912 13.2318 31.8542 13.2118C31.8162 13.3998 31.7743 13.6018 31.7283 13.8158C31.6813 14.0318 31.6583 14.2428 31.6583 14.4488C31.6013 14.4488 31.5273 14.4628 31.4333 14.4908C31.3393 14.5188 31.2643 14.5528 31.2083 14.5898V14.8428C31.2463 14.8808 31.2923 14.9268 31.3493 14.9838C31.2373 14.9838 31.1383 14.9938 31.0543 15.0118C30.9703 15.0308 30.8803 15.0588 30.7873 15.0958C30.7683 15.3028 30.7072 15.4518 30.6042 15.5458C30.5012 15.6398 30.4503 15.7338 30.4503 15.8268C30.4503 15.9018 30.4733 15.9908 30.5203 16.0938C30.5663 16.1978 30.5992 16.3048 30.6182 16.4168C30.5992 16.4548 30.5803 16.4868 30.5623 16.5158C30.5433 16.5438 30.5153 16.5778 30.4783 16.6148C30.4593 16.5578 30.4403 16.4978 30.4223 16.4318C30.4033 16.3668 30.3942 16.3248 30.3942 16.3048C30.2622 16.5508 30.0462 16.8458 29.7472 17.1918ZM30.9982 15.3928C31.0262 15.3088 31.0503 15.2668 31.0683 15.2668C31.1253 15.3788 31.1203 15.4918 31.0543 15.6038C30.9883 15.7168 30.8802 15.8478 30.7302 15.9978C30.8802 15.6788 30.9702 15.4778 30.9982 15.3928ZM32.5022 12.6658C32.5212 12.6558 32.6712 12.5488 32.9522 12.3428C32.7272 12.3238 32.6013 12.3148 32.5733 12.3148C32.5453 12.3148 32.4842 12.4188 32.3902 12.6248C32.4462 12.6608 32.4832 12.6758 32.5022 12.6658ZM32.4322 13.5088C32.4412 13.4998 32.5493 13.4298 32.7553 13.2988C32.5873 13.2798 32.4922 13.2758 32.4742 13.2838C32.4552 13.2938 32.4272 13.3538 32.3902 13.4668C32.4082 13.5048 32.4222 13.5188 32.4322 13.5088Z" fill="white"/>
<path d="M51.592 13.383C51.573 13.383 51.47 13.336 51.283 13.242C51.095 13.148 50.87 13.064 50.608 12.989C50.608 12.895 50.594 12.792 50.566 12.679C50.538 12.567 50.524 12.483 50.524 12.426C50.543 12.369 50.65 11.939 50.848 11.133C51.045 10.327 51.143 9.69799 51.143 9.24899C51.143 9.07999 51.087 8.58799 50.975 7.77199C50.862 6.95699 50.497 6.54899 49.878 6.54899C49.091 6.54899 48.552 6.74099 48.261 7.12499C47.97 7.50999 47.806 7.72899 47.769 7.78599C47.657 7.89799 47.511 8.01999 47.333 8.15099C47.155 8.28399 47.047 8.34999 47.01 8.34999C46.991 8.34999 46.879 8.33599 46.673 8.30799C46.466 8.27999 46.232 8.26599 45.97 8.26599C45.802 8.26599 45.581 7.92899 45.309 7.25399C45.037 6.57899 44.892 6.21299 44.873 6.15699C44.873 5.91299 45.102 5.74899 45.562 5.66499C46.021 5.57999 46.288 5.53799 46.363 5.53799C46.382 5.53799 46.466 5.55299 46.616 5.57999C46.765 5.60799 46.934 5.62299 47.122 5.62299C47.216 5.62299 47.286 5.62299 47.333 5.62299C47.379 5.62299 47.422 5.61299 47.459 5.59499C47.478 5.57599 47.496 5.54299 47.515 5.49599C47.534 5.44899 47.553 5.38899 47.571 5.31299C47.59 5.29399 47.59 5.29399 47.571 5.31299C47.815 5.27599 48.246 5.23399 48.864 5.18599C49.483 5.13999 49.848 5.11599 49.961 5.11599C50.223 5.11599 50.434 5.10199 50.593 5.07399C50.752 5.04599 50.86 5.03199 50.917 5.03199C51.029 5.03199 51.357 5.21499 51.901 5.57999C52.444 5.94599 52.726 6.16699 52.744 6.24099C52.838 6.42899 52.917 6.64899 52.983 6.90199C53.048 7.15499 53.166 7.44999 53.335 7.78799L53.025 10.093C52.931 10.188 52.899 10.361 52.927 10.614C52.955 10.867 52.922 11.096 52.828 11.302C52.828 11.322 52.744 11.598 52.575 12.132C52.406 12.666 52.303 13.028 52.265 13.214C52.284 13.214 52.274 13.21 52.237 13.2C52.199 13.19 52.133 13.185 52.04 13.185C51.927 13.185 51.843 13.2 51.787 13.228C51.73 13.255 51.683 13.289 51.646 13.326C51.63 13.346 51.611 13.364 51.592 13.383ZM55.782 15.59C55.519 16.593 55.369 17.45 55.332 18.162C56.1 17.656 56.742 17.216 57.258 16.841C57.774 16.466 58.397 16.278 59.128 16.278C59.54 16.278 60.014 16.494 60.548 16.925C61.082 17.356 61.471 18.021 61.715 18.921C61.808 19.239 61.93 19.581 62.08 19.947C62.23 20.312 62.305 20.617 62.305 20.86C62.305 21.216 62.028 21.633 61.475 22.111C60.922 22.59 60.486 22.829 60.168 22.829C59.53 22.829 58.767 22.688 57.876 22.407C56.985 22.126 56.456 21.901 56.288 21.732C56.325 21.712 56.569 21.657 57.019 21.563C57.469 21.469 57.787 21.385 57.975 21.31C58.163 21.273 58.289 21.226 58.355 21.169C58.42 21.112 58.5 21.01 58.594 20.859C58.819 20.859 59.025 20.836 59.213 20.789C59.4 20.743 59.663 20.653 60 20.522C60.131 19.791 59.916 19.149 59.354 18.596C58.792 18.043 58.22 17.766 57.639 17.766C56.233 17.766 55.53 18.399 55.53 19.664C55.53 20.929 55.53 21.852 55.53 22.434C55.436 22.583 55.389 22.733 55.389 22.883C55.389 23.071 55.445 23.319 55.557 23.628C55.67 23.938 55.726 24.102 55.726 24.12L55.923 24.261C55.679 24.449 55.515 24.626 55.431 24.795C55.347 24.964 55.295 25.048 55.277 25.048C55.258 25.048 55.136 25.006 54.911 24.922C54.686 24.837 54.555 24.757 54.517 24.683C54.273 24.683 54.114 24.702 54.039 24.739C53.964 24.777 53.908 24.814 53.871 24.852C53.777 24.814 53.627 24.546 53.421 24.05C53.214 23.553 53.102 23.286 53.084 23.248C53.084 23.154 53.14 22.775 53.253 22.109C53.365 21.444 53.412 20.878 53.394 20.409C53.394 20.146 53.436 19.766 53.52 19.27C53.604 18.773 53.675 18.337 53.731 17.962C53.843 17.812 53.974 17.662 54.125 17.512C54.181 17.343 54.134 17.207 53.984 17.105C53.834 17.001 53.749 16.95 53.731 16.95C53.749 16.931 53.89 16.809 54.152 16.585C54.414 16.361 54.668 15.985 54.911 15.46C54.93 15.423 54.972 15.348 55.037 15.235C55.102 15.123 55.136 15.057 55.136 15.039C55.173 15.02 55.197 15.006 55.206 14.996C55.215 14.987 55.229 14.974 55.248 14.954C55.286 14.935 55.328 14.903 55.374 14.855C55.421 14.809 55.482 14.739 55.557 14.645C55.614 14.588 55.969 14.289 56.626 13.745C57.282 13.202 57.61 12.677 57.61 12.171C57.61 12.134 57.629 11.632 57.666 10.667C57.704 9.70099 57.685 9.08799 57.61 8.82499C57.591 8.74999 57.586 8.64699 57.596 8.51499C57.605 8.38399 57.573 8.23399 57.498 8.06499C57.498 8.00899 57.432 7.58399 57.301 6.78599C57.17 5.98999 56.982 5.59199 56.738 5.59199C56.719 5.55499 56.649 5.34399 56.527 4.95899C56.405 4.57499 56.354 4.31699 56.372 4.18599C56.41 4.03699 56.48 3.86299 56.583 3.66599C56.686 3.46899 56.812 3.31399 56.963 3.20199C57.112 3.08899 57.328 2.97299 57.609 2.84999C57.89 2.72699 58.04 2.66699 58.059 2.66699C58.078 2.66699 58.34 2.86799 58.847 3.27099C59.353 3.67399 59.624 3.89399 59.662 3.93099C59.681 3.95099 59.727 4.07699 59.803 4.31099C59.878 4.54499 59.916 4.68099 59.916 4.71799C59.897 4.79299 59.827 5.27699 59.705 6.16599C59.583 7.05699 59.522 7.63299 59.522 7.89499C59.522 8.30699 59.48 9.06599 59.396 10.172C59.312 11.278 59.41 12.046 59.691 12.478C59.391 13.359 58.983 13.766 58.468 13.701C57.953 13.636 57.592 13.622 57.385 13.659C56.578 13.945 56.044 14.587 55.782 15.59Z" fill="white"/>
<path d="M79.2868 20.1868C79.2678 20.2818 79.1977 20.5478 79.0757 20.9888C78.9537 21.4288 78.6588 21.6318 78.1898 21.5928C78.0958 21.5928 78.0398 21.5698 78.0218 21.5228C78.0028 21.4758 77.9748 21.4528 77.9378 21.4528C77.8628 21.5088 77.7877 21.5788 77.7127 21.6638C77.6377 21.7478 77.5717 21.8368 77.5157 21.9308C77.2347 21.9878 77.1077 22.0108 77.1367 22.0008C77.1647 21.9908 77.0478 21.9778 76.7848 21.9588C76.6908 21.9588 76.5877 21.9778 76.4757 22.0158C76.3627 22.0528 76.2597 22.0718 76.1657 22.0718C76.0717 22.0528 76.0197 22.0298 76.0117 22.0018C76.0017 21.9748 75.9787 21.9498 75.9417 21.9318C75.7167 22.1578 75.4307 22.2788 75.0837 22.2978C74.7367 22.3168 74.4327 22.3168 74.1697 22.2978C74.0947 22.2978 73.9817 22.3348 73.8327 22.4098C73.6827 22.4838 73.5608 22.5508 73.4668 22.6058C73.3358 22.6058 73.1857 22.6338 73.0167 22.6908C72.8487 22.7468 72.7167 22.7648 72.6227 22.7468C72.5287 22.7278 72.4968 22.7188 72.5238 22.7188C72.5518 22.7188 72.5188 22.7098 72.4258 22.6918C72.3508 22.6918 72.2707 22.7288 72.1867 22.8038C72.1027 22.8778 72.0137 22.9068 71.9197 22.8878C71.8257 22.8878 71.7657 22.8878 71.7367 22.8878C71.7087 22.8878 71.6477 22.8778 71.5537 22.8598C71.1977 22.8228 70.8737 22.6538 70.5837 22.3538C70.2937 22.0538 70.1288 21.7258 70.0918 21.3708C70.2978 21.3328 70.4947 21.2068 70.6817 20.9908C70.8687 20.7748 71.0288 20.5928 71.1598 20.4418C71.2528 20.4048 71.3378 20.3768 71.4128 20.3578C71.4878 20.3388 71.5347 20.2738 71.5537 20.1618C71.6467 20.1238 71.8017 20.0348 72.0177 19.8938C72.2327 19.7528 72.3308 19.6178 72.3128 19.4868C72.4438 19.4678 72.5377 19.4538 72.5938 19.4438C72.6508 19.4348 72.7437 19.4398 72.8747 19.4588L73.0717 19.2618C73.0527 19.2248 73.0057 19.2158 72.9307 19.2338C72.8557 19.2538 72.7897 19.2538 72.7337 19.2338L72.7617 19.0928C72.9117 18.9618 73.0477 18.8638 73.1697 18.7978C73.2917 18.7328 73.3527 18.6148 73.3527 18.4458C73.5027 18.4268 73.6617 18.4458 73.8307 18.5028C73.9987 18.5588 74.0367 18.4178 73.9427 18.0808C73.9987 18.0618 74.1717 17.8468 74.4637 17.4348C74.7537 17.0228 74.8997 16.6288 74.8997 16.2538C74.8997 16.1788 74.8758 16.0098 74.8298 15.7468C74.7828 15.4848 74.7128 15.1098 74.6188 14.6228C74.5998 14.4348 74.4687 14.3318 74.2247 14.3128C73.9807 14.2938 73.8307 14.2848 73.7747 14.2848C73.5677 14.2478 73.2077 14.3508 72.6917 14.5948C72.1757 14.8388 71.8437 14.9598 71.6937 14.9598C71.6187 15.0918 71.4638 15.2178 71.2298 15.3398C70.9948 15.4618 70.8127 15.5318 70.6817 15.5508C70.3817 15.6448 69.8378 15.8688 69.0508 16.2258C68.2638 16.5828 67.8418 16.7498 67.7858 16.7318C67.6918 16.7318 67.6688 16.7228 67.7158 16.7038C67.7618 16.6848 67.7388 16.6668 67.6458 16.6478C67.5708 16.6288 67.4677 16.6708 67.3367 16.7738C67.2057 16.8778 67.0927 16.9478 66.9997 16.9848C66.8497 17.0038 66.7188 17.0368 66.6058 17.0838C66.4938 17.1308 66.3907 17.1448 66.2967 17.1258C66.2027 17.1068 66.1507 17.0978 66.1417 17.0978C66.1327 17.0978 66.0807 17.0978 65.9877 17.0978C65.8187 17.0608 65.5377 16.8308 65.1437 16.4098C64.7497 15.9888 64.5248 15.7118 64.4688 15.5808L64.6377 14.2308L64.8347 14.0898C64.9097 14.1088 65.1058 14.2398 65.4248 14.4838C65.7428 14.7268 65.9967 14.8678 66.1837 14.9058C66.2767 14.9058 66.3567 14.9108 66.4227 14.9198C66.4877 14.9298 66.5778 14.9428 66.6898 14.9618C66.7838 14.9618 67.3227 14.8498 68.3067 14.6248C69.2907 14.3988 69.8208 14.2868 69.8958 14.2868C69.9888 14.3068 70.0358 14.3248 70.0358 14.3438C70.0358 14.3628 70.0738 14.3808 70.1488 14.3998C70.2048 14.3998 70.2557 14.3908 70.3027 14.3728C70.3497 14.3548 70.4107 14.2598 70.4857 14.0918C70.5787 14.0538 70.7147 14.0308 70.8937 14.0218C71.0717 14.0118 71.2168 13.9988 71.3298 13.9798C71.4988 13.9228 71.9067 13.7308 72.5527 13.4028C73.1987 13.0758 73.5887 12.8828 73.7197 12.8268C73.8127 12.7898 73.9447 12.6208 74.1137 12.3208C74.2817 12.0208 74.5257 11.8898 74.8447 11.9268C75.6127 12.0018 76.2788 12.0438 76.8408 12.0528C77.4038 12.0628 77.4218 12.5648 76.8968 13.5578C76.9718 13.7638 77.0138 14.2038 77.0228 14.8788C77.0318 15.5538 77.0188 16.0128 76.9808 16.2568C76.9618 16.3318 76.9338 16.4488 76.8968 16.6078C76.8588 16.7678 76.7937 16.8938 76.6997 16.9878C76.5877 17.0998 76.4747 17.2408 76.3627 17.4098C76.2507 17.5788 76.1188 17.7288 75.9688 17.8598C75.9308 17.8968 75.8468 17.9398 75.7158 17.9858C75.5848 18.0328 75.4807 18.0558 75.4067 18.0558C75.3317 18.0368 75.2937 18.0418 75.2937 18.0708C75.2937 18.0978 75.2467 18.1128 75.1527 18.1128C75.0967 18.0938 75.0447 18.1128 74.9987 18.1688C74.9517 18.2258 74.9097 18.2818 74.8717 18.3378C74.8337 18.3008 74.8068 18.2678 74.7878 18.2388C74.7688 18.2118 74.7128 18.1878 74.6188 18.1688C74.4878 18.1498 74.3377 18.2588 74.1687 18.4918C73.9997 18.7268 73.9057 18.8438 73.8877 18.8438C73.7567 18.8248 73.6718 18.8068 73.6348 18.7878C73.5968 18.7688 73.4467 18.8348 73.1847 18.9838C73.1847 19.0038 73.1847 19.0258 73.1847 19.0538C73.1847 19.0818 73.2027 19.1158 73.2407 19.1528C73.2777 19.1338 73.3207 19.0958 73.3667 19.0408C73.4127 18.9838 73.4738 18.9468 73.5498 18.9288L73.5218 19.2378C73.4468 19.2578 73.3907 19.2658 73.3527 19.2658C73.3147 19.2658 73.2497 19.2858 73.1557 19.3228C73.1927 19.3418 73.2257 19.3748 73.2547 19.4218C73.2827 19.4688 73.3527 19.5108 73.4647 19.5478C73.3337 19.6798 73.2017 19.7918 73.0707 19.8858C72.9397 19.9798 72.9117 20.0268 72.9867 20.0268C73.0057 20.1948 72.8977 20.3358 72.6637 20.4478C72.4297 20.5608 72.3128 20.6918 72.3128 20.8418C72.3498 20.8618 72.3688 20.9168 72.3688 21.0108C72.3688 21.1048 72.4058 21.1608 72.4808 21.1798C72.6868 21.1988 73.5167 21.0858 74.9688 20.8418C76.4208 20.5988 77.4287 20.4108 77.9907 20.2798C78.2527 20.2228 78.4447 20.1628 78.5667 20.0968C78.6887 20.0308 78.8807 20.0078 79.1437 20.0268L79.2868 20.1868ZM74.2107 9.31979C73.7897 9.08579 73.4747 8.95879 73.2687 8.93979C72.7997 8.92079 72.4537 9.13179 72.2287 9.57279C72.0037 10.0128 71.8627 10.4768 71.8067 10.9648C71.7877 10.9648 71.6568 11.0118 71.4128 11.1058C71.1688 11.1998 71.0287 11.3308 70.9907 11.4998C70.9717 11.7248 70.9717 11.9218 70.9907 12.0908C70.9527 12.1278 70.9157 12.1138 70.8787 12.0478C70.8407 11.9828 70.7477 11.9318 70.5977 11.8938L70.4567 12.0348H70.0918C69.9608 12.0348 69.7777 12.0448 69.5437 12.0628C69.3087 12.0818 69.1168 12.0908 68.9668 12.0908C68.9668 12.0718 68.9248 12.0018 68.8408 11.8798C68.7568 11.7578 68.7047 11.6878 68.6867 11.6688C68.6867 11.0128 69.2257 10.0798 70.3027 8.87079C71.3797 7.66179 71.9197 6.68279 71.9197 5.93279V5.70678C71.9387 5.59478 71.9477 5.48179 71.9477 5.36979H71.4977C71.2537 5.36979 70.9067 5.56579 70.4567 5.95979C70.0067 6.35379 69.3887 6.55079 68.6017 6.55079C67.9827 6.55079 67.5467 6.18979 67.2937 5.46779C67.0407 4.74679 66.9147 4.34879 66.9147 4.27379C66.9147 4.21679 66.9237 4.12779 66.9427 4.00579C66.9617 3.88479 66.9807 3.82279 66.9997 3.82279C67.1677 3.91679 67.3597 4.03379 67.5757 4.17479C67.7907 4.31579 67.9927 4.38579 68.1797 4.38579H68.7697C68.9757 4.38579 69.6137 4.26379 70.6817 4.02079C71.7497 3.77679 72.2938 3.65479 72.3128 3.65479C72.9688 3.65479 73.4178 3.94579 73.6618 4.52679C73.9058 5.10779 74.0277 5.55779 74.0277 5.87679C74.0277 6.11979 73.9667 6.39679 73.8447 6.70579C73.7227 7.01579 73.5957 7.41379 73.4647 7.90079C73.8397 8.01279 74.2338 8.04179 74.6458 7.98479C75.0598 7.92879 75.3587 7.89979 75.5467 7.89979C75.5657 7.91879 75.7057 7.97979 75.9688 8.08279C76.2307 8.18679 76.4467 8.23679 76.6157 8.23679C76.8217 8.23679 76.8968 8.21779 76.8408 8.18079C76.8968 8.18079 77.0237 8.27879 77.2207 8.47579C77.4177 8.67179 77.6277 8.83679 77.8527 8.96779C77.7967 9.06179 77.7167 9.18879 77.6137 9.34679C77.5097 9.50679 77.4397 9.60579 77.4027 9.64279C77.2147 9.66179 77.0318 9.70379 76.8548 9.76879C76.6768 9.83479 76.5777 9.86779 76.5597 9.86779C76.5417 9.86779 76.3447 9.83579 75.9697 9.76879C75.5947 9.70379 75.2947 9.67078 75.0707 9.67078C74.9187 9.67178 74.6327 9.55479 74.2107 9.31979ZM73.8457 19.0198C73.9487 18.8988 74.0467 18.7998 74.1407 18.7248C74.1217 18.7998 74.0707 18.9588 73.9867 19.2038C73.9027 19.4468 73.7758 19.5038 73.6068 19.3718C73.6628 19.2588 73.7427 19.1428 73.8457 19.0198ZM74.5488 18.4298C74.6518 18.3828 74.7128 18.3978 74.7318 18.4718C74.5818 18.6038 74.4597 18.6598 74.3657 18.6408C74.3847 18.5468 74.4458 18.4768 74.5488 18.4298Z" fill="white"/>
<path d="M94.1884 17.0382C94.1504 17.2632 94.1604 17.3752 94.2164 17.3752C94.1784 17.5072 94.0564 17.7832 93.8504 18.2052C93.6444 18.6262 93.5224 18.8652 93.4854 18.9222C93.4664 18.8842 93.4194 18.9782 93.3444 19.2032C93.2694 19.4282 93.2134 19.5032 93.1764 19.4282C93.1764 19.5222 93.1664 19.5872 93.1484 19.6242C93.1294 19.6622 93.1294 19.6812 93.1484 19.6812C93.1674 19.7002 93.1944 19.7232 93.2324 19.7512C93.2694 19.7792 93.3074 19.8032 93.3444 19.8212L97.0554 18.3312C97.0744 18.3312 97.0874 18.3362 97.0974 18.3462C97.1064 18.3552 97.1204 18.3602 97.1394 18.3602C97.1764 18.3602 97.2234 18.3322 97.2794 18.2762C97.3364 18.2192 97.3734 18.1822 97.3924 18.1632C97.4114 18.1632 97.4244 18.1782 97.4344 18.2062C97.4434 18.2332 97.4574 18.2672 97.4764 18.3042C97.4954 18.2302 97.5374 18.1972 97.6034 18.2062C97.6684 18.2152 97.7394 18.2012 97.8134 18.1632C97.8514 18.2012 97.8744 18.2482 97.8834 18.3042C97.8924 18.3612 97.8974 18.3992 97.8974 18.4162C97.9724 18.3602 98.0284 18.3322 98.0664 18.3322C98.0844 18.4642 98.1734 18.5482 98.3334 18.5852C98.4924 18.6232 98.6004 18.7172 98.6564 18.8662L98.6004 18.9512V19.0912C98.7684 19.1292 98.8864 19.1712 98.9524 19.2182C99.0174 19.2652 99.0314 19.3722 98.9944 19.5412C98.9944 19.5602 98.9944 19.5792 98.9944 19.5982C98.9944 19.6172 99.0134 19.6252 99.0504 19.6252C99.0874 19.6252 99.1204 19.6112 99.1494 19.5832C99.1774 19.5562 99.2194 19.5882 99.2754 19.6822C99.1814 19.8142 99.1294 19.9352 99.1204 20.0472C99.1104 20.1602 99.0874 20.3002 99.0504 20.4692C99.0314 20.4692 98.9944 20.4692 98.9384 20.4692C98.8824 20.4692 98.8254 20.4792 98.7694 20.4972C98.7694 20.4782 98.7734 20.4652 98.7834 20.4552C98.7924 20.4452 98.7874 20.4402 98.7694 20.4402C98.7314 20.4402 98.7034 20.4552 98.6854 20.4832C98.6664 20.5102 98.6474 20.5442 98.6294 20.5812C98.4794 20.5622 98.3764 20.5622 98.3204 20.5812C98.2644 20.6012 98.1604 20.6562 98.0114 20.7502L97.9834 20.7222C97.9454 20.7222 97.9174 20.7462 97.8994 20.7922C97.8804 20.8392 97.8614 20.8822 97.8434 20.9192C97.7494 20.9002 97.6794 20.9002 97.6324 20.9192C97.5854 20.9382 97.5524 20.9472 97.5344 20.9472C97.5154 20.8902 97.5064 20.8342 97.5064 20.7782C97.4874 20.8342 97.3384 20.9372 97.0564 21.0882C96.7754 21.2372 96.6244 21.3312 96.6064 21.3692C96.5874 21.3502 96.5684 21.3312 96.5504 21.3122C96.5324 21.2932 96.5224 21.2752 96.5224 21.2552C96.5034 21.2552 96.4844 21.2602 96.4664 21.2702C96.4474 21.2802 96.4384 21.3022 96.4384 21.3402C96.4194 21.3402 96.4054 21.3252 96.3964 21.2982C96.3864 21.2702 96.3634 21.2552 96.3264 21.2552L93.9084 22.0422C93.8704 22.0612 93.8334 22.0942 93.7954 22.1412C93.7574 22.1882 93.7204 22.2022 93.6834 22.1832C93.6644 22.1832 93.6414 22.1692 93.6134 22.1412C93.5854 22.1132 93.5524 22.0992 93.5144 22.0992C93.4954 22.0992 93.4584 22.1222 93.4024 22.1692C93.3464 22.2162 93.2994 22.2392 93.2614 22.2392C93.2424 22.2392 93.2284 22.2292 93.2194 22.2112C93.2094 22.1922 93.1864 22.1742 93.1494 22.1552C93.1304 22.1552 93.0834 22.1692 93.0084 22.1972C92.9334 22.2252 92.8774 22.2392 92.8404 22.2392C92.5964 22.2202 92.3484 22.2012 92.0954 22.1822C91.8424 22.1632 91.5844 22.1452 91.3224 22.1262C91.3034 22.1072 91.2474 21.9992 91.1544 21.8032C91.0604 21.6062 90.9664 21.4232 90.8734 21.2542C90.8544 21.1982 90.7894 20.9782 90.6764 20.5942C90.5634 20.2102 90.5074 20.0082 90.5074 19.9902C90.5264 19.6902 90.6294 19.4042 90.8174 19.1332C91.0044 18.8622 91.0794 18.6782 91.0424 18.5842C91.1364 18.4902 91.2534 18.3132 91.3944 18.0502C91.5354 17.7882 91.6704 17.6192 91.8024 17.5442C91.9524 17.4692 92.1724 17.1322 92.4634 16.5312C92.7544 15.9312 92.9084 15.6322 92.9274 15.6322C92.9654 15.6322 93.1564 15.3422 93.5044 14.7612C93.8514 14.1802 94.0334 13.8052 94.0524 13.6362C94.0704 13.4302 93.8924 13.3932 93.5174 13.5242C93.1424 13.6552 92.9364 13.7202 92.8994 13.7202C92.8804 13.7202 92.8714 13.7022 92.8714 13.6642C92.8714 13.6272 92.8614 13.6072 92.8434 13.6072C92.8054 13.6272 92.7774 13.6692 92.7594 13.7342C92.7404 13.7992 92.7034 13.8232 92.6464 13.8042C92.5154 13.8792 92.3754 13.9872 92.2254 14.1272C92.0754 14.2682 91.9814 14.3562 91.9444 14.3942C91.9634 14.3012 91.9724 14.2212 91.9724 14.1562C91.9724 14.0912 91.9444 14.0572 91.8884 14.0572C91.8324 14.0572 91.7844 14.0902 91.7474 14.1562C91.7094 14.2212 91.6914 14.2822 91.6914 14.3392C91.6724 14.3392 91.6444 14.3442 91.6074 14.3532C91.5694 14.3632 91.5324 14.3762 91.4954 14.3952C91.4954 14.4702 91.5374 14.4942 91.6214 14.4652C91.7054 14.4382 91.7574 14.4432 91.7754 14.4802C91.7754 14.5552 91.7054 14.6162 91.5654 14.6632C91.4244 14.7102 91.3544 14.7802 91.3544 14.8742C91.3544 14.8552 91.3444 14.8222 91.3264 14.7752C91.3074 14.7282 91.2984 14.6962 91.2984 14.6762C91.3164 14.6762 91.3164 14.6112 91.2984 14.4802C91.2234 14.4802 91.1674 14.5172 91.1294 14.5922C91.0914 14.6672 91.0824 14.7422 91.1014 14.8172C91.0454 14.8742 90.9374 14.8792 90.7784 14.8322C90.6194 14.7852 90.5204 14.8272 90.4834 14.9582C90.5014 14.9782 90.5864 14.9822 90.7364 14.9732C90.8864 14.9632 90.9704 14.9582 90.9894 14.9582C90.9514 14.9962 90.8484 15.0702 90.6804 15.1842C90.5114 15.2962 90.3994 15.3522 90.3434 15.3522L90.2594 15.3242C90.2404 15.3442 90.2314 15.3722 90.2314 15.4092C90.2314 15.4472 90.2314 15.4742 90.2314 15.4932C90.2124 15.4932 90.1844 15.4982 90.1474 15.5082C90.1094 15.5182 90.0724 15.5222 90.0344 15.5222V15.3812C90.0724 15.3442 90.1234 15.3112 90.1894 15.2822C90.2544 15.2552 90.3254 15.2312 90.4004 15.2122V15.1282C90.3254 15.0162 90.2784 14.9792 90.2594 15.0162C90.2404 15.0532 90.2124 15.0912 90.1754 15.1282C90.1564 15.1282 90.1334 15.1232 90.1054 15.1142C90.0774 15.1042 90.0444 15.0992 90.0074 15.0992C90.0074 15.0622 90.0114 15.0202 90.0214 14.9732C90.0304 14.9262 90.0254 14.8652 90.0074 14.7892C89.8764 14.7522 89.8284 14.8132 89.8664 14.9732C89.9034 15.1322 89.8664 15.2022 89.7544 15.1842C89.7354 15.2402 89.7354 15.2962 89.7544 15.3522C89.7724 15.4092 89.8004 15.4472 89.8384 15.4642H89.9224V15.5772C89.8844 15.6332 89.8384 15.6752 89.7814 15.7032C89.7244 15.7312 89.6694 15.7732 89.6134 15.8302C89.6314 15.7922 89.6454 15.6712 89.6554 15.4642C89.6644 15.2582 89.5854 15.1552 89.4164 15.1552C89.3414 15.1362 89.2854 15.2112 89.2474 15.3802C89.2094 15.5492 89.1444 15.6522 89.0504 15.6902L89.0784 15.8022L89.4154 15.8862C89.3964 16.0552 89.1154 16.2142 88.5714 16.3652C88.0274 16.5152 87.7564 16.6932 87.7564 16.8992C87.6444 16.9362 87.5544 16.9362 87.4894 16.8992C87.4234 16.8622 87.3254 16.9462 87.1944 17.1522C87.1754 17.1522 87.1614 17.1522 87.1524 17.1522C87.1424 17.1522 87.1294 17.1422 87.1104 17.1242C87.0914 17.1432 87.0774 17.1662 87.0684 17.1942C87.0584 17.2222 87.0444 17.2462 87.0264 17.2642C87.0074 17.2452 86.9884 17.2172 86.9704 17.1802C86.9514 17.1422 86.9234 17.1232 86.8864 17.1232C86.8674 17.1232 86.8534 17.1282 86.8444 17.1372C86.8344 17.1472 86.8204 17.1522 86.8024 17.1522C86.7644 17.1332 86.7374 17.1202 86.7184 17.1102C86.6994 17.1002 86.6714 17.0952 86.6344 17.0952C86.5594 17.0952 86.5224 17.1282 86.5224 17.1942C86.5224 17.2602 86.5224 17.3212 86.5224 17.3772C86.5034 17.3772 86.4804 17.3822 86.4524 17.3922C86.4244 17.4022 86.3914 17.4062 86.3534 17.4062C86.3344 17.4062 86.3304 17.3832 86.3394 17.3362C86.3484 17.2892 86.3434 17.2662 86.3254 17.2662C86.2314 17.2472 86.1704 17.3132 86.1424 17.4632C86.1144 17.6122 86.0444 17.6782 85.9314 17.6592C85.9124 17.6592 85.8894 17.6312 85.8614 17.5752C85.8334 17.5182 85.8004 17.4902 85.7634 17.4902C85.7444 17.4902 85.6224 17.4952 85.3974 17.5052C85.1724 17.5152 85.0414 17.5192 85.0034 17.5192C84.9094 17.5002 84.8254 17.4452 84.7504 17.3502C84.6754 17.2572 84.5724 17.2382 84.4414 17.2942C84.4034 17.1442 84.3574 17.0462 84.3004 16.9992C84.2434 16.9522 84.1694 16.9292 84.0754 16.9292C84.0564 16.4972 83.9444 16.2912 83.7384 16.3102C83.5314 16.3302 83.3354 16.2072 83.1484 15.9452C83.2424 15.7762 83.2844 15.5932 83.2744 15.3962C83.2644 15.2002 83.3544 14.9892 83.5414 14.7642C83.5224 14.7452 83.5034 14.7172 83.4854 14.6792C83.4664 14.6422 83.4474 14.6142 83.4294 14.5952C83.5044 14.5012 83.6214 14.4122 83.7804 14.3272C83.9394 14.2432 84.0294 14.2012 84.0474 14.2012C84.0854 14.2012 84.0994 14.2062 84.0894 14.2152C84.0794 14.2252 84.0934 14.2302 84.1314 14.2302C84.1504 14.2302 84.1874 14.1832 84.2444 14.0892C84.3004 13.9952 84.3564 13.9582 84.4124 13.9772C84.4504 13.9772 84.4684 13.9862 84.4684 14.0042C84.4684 14.0242 84.4874 14.0322 84.5244 14.0322C84.6744 14.0322 84.7254 13.9582 84.6794 13.8072C84.6324 13.6572 84.6744 13.5812 84.8054 13.5812C84.8434 13.5812 84.8944 13.6342 84.9604 13.7362C85.0254 13.8402 85.0774 13.8902 85.1154 13.8902H85.3124C85.3684 13.8902 85.4344 13.8432 85.5094 13.7492C85.5844 13.6552 85.6504 13.5902 85.7064 13.5532H85.7904C85.7714 13.5722 85.7104 13.6472 85.6074 13.7782C85.5044 13.9102 85.4434 14.0592 85.4244 14.2282C85.4244 14.2842 85.4284 14.3502 85.4384 14.4242C85.4474 14.4992 85.4894 14.5462 85.5644 14.5652C85.6014 14.5652 85.6294 14.5612 85.6484 14.5512C85.6664 14.5412 85.7044 14.5362 85.7604 14.5362C85.9664 14.5562 86.1394 14.5692 86.2804 14.5792C86.4214 14.5882 86.5854 14.5932 86.7724 14.5932C86.8094 14.5932 86.8334 14.5982 86.8424 14.6072C86.8514 14.6172 86.8654 14.6402 86.8844 14.6772C86.9224 14.6772 86.9454 14.6542 86.9544 14.6072C86.9634 14.5612 86.9774 14.5182 86.9964 14.4812C87.0894 14.4812 87.1324 14.4912 87.1224 14.5092C87.1124 14.5282 87.1084 14.4992 87.1084 14.4242C87.2394 14.4242 87.3374 14.4522 87.4034 14.5092C87.4694 14.5652 87.5304 14.4992 87.5864 14.3122C87.6234 14.3692 87.6424 14.4062 87.6424 14.4242C87.6794 14.4242 87.6984 14.4012 87.6984 14.3542C87.6984 14.3082 87.7074 14.2752 87.7264 14.2552H87.8104C87.8104 14.2752 87.8804 14.3122 88.0214 14.3682C88.1624 14.4242 88.2504 14.4712 88.2884 14.5092C88.2884 14.4902 88.2974 14.4442 88.3164 14.3682C88.3354 14.2932 88.3814 14.2462 88.4574 14.2272C88.5134 14.1892 88.5644 14.1802 88.6114 14.1992C88.6584 14.2182 88.6914 14.2272 88.7104 14.2272C88.7104 14.2462 88.7104 14.2692 88.7104 14.2972C88.7104 14.3242 88.7194 14.3392 88.7384 14.3392C88.7754 14.3202 88.8134 14.2972 88.8504 14.2692C88.8874 14.2412 88.9444 14.1892 89.0184 14.1142C89.0564 14.1892 89.1214 14.2092 89.2154 14.1712C89.3094 14.1342 89.3934 14.1142 89.4684 14.1142C89.5054 14.1142 89.5334 14.1242 89.5524 14.1422C89.5714 14.1422 89.5754 14.1332 89.5664 14.1142C89.5564 14.0962 89.5524 14.0772 89.5524 14.0582C89.7774 14.0212 90.0634 13.9272 90.4104 13.7772C90.7574 13.6282 90.9114 13.5802 90.8744 13.6362C90.9114 13.6552 90.9304 13.6742 90.9304 13.6932C90.9304 13.7122 90.9394 13.7202 90.9584 13.7202C90.9764 13.6832 90.9904 13.6362 91.0004 13.5792C91.0094 13.5232 91.0424 13.5052 91.0984 13.5232C91.1364 13.5232 91.2064 13.4912 91.3094 13.4242C91.4124 13.3592 91.4734 13.2792 91.4924 13.1852C91.5104 13.2052 91.5244 13.2422 91.5344 13.2982C91.5434 13.3542 91.5484 13.3922 91.5484 13.4102C91.6414 13.3352 91.7024 13.3032 91.7314 13.3112C91.7594 13.3212 91.7824 13.2412 91.8014 13.0722C91.8954 13.1662 91.9884 13.1842 92.0824 13.1292C92.1754 13.0722 92.2604 13.0352 92.3354 13.0172L92.3634 13.2422C92.3444 13.2052 92.3164 13.1852 92.2794 13.1852C92.2794 13.2052 92.2744 13.2282 92.2654 13.2552C92.2554 13.2832 92.2424 13.3252 92.2234 13.3822C92.2234 13.4202 92.2514 13.4622 92.3074 13.5082C92.3644 13.5562 92.4014 13.5882 92.4204 13.6072C92.4204 13.5332 92.4524 13.4712 92.5184 13.4242C92.5834 13.3772 92.6264 13.3822 92.6444 13.4392C92.7944 13.3072 92.9304 13.1762 93.0524 13.0442C93.1744 12.9132 93.3194 12.8662 93.4884 12.9032L93.5164 12.8472L93.6294 12.7632C93.6294 12.6502 93.6294 12.5892 93.6294 12.5792C93.6294 12.5702 93.6194 12.5572 93.6014 12.5372H93.4044C93.3854 12.4432 93.4134 12.3782 93.4884 12.3412C93.5634 12.3032 93.6294 12.2842 93.6854 12.2842C93.7044 12.2842 93.8264 12.2232 94.0514 12.1012C94.2764 11.9792 94.4354 11.8812 94.5294 11.8062C94.5864 11.7492 94.6324 11.7212 94.6704 11.7212C94.7084 11.7212 94.7454 11.7122 94.7834 11.6932C94.8394 11.6372 94.8714 11.5812 94.8814 11.5252C94.8904 11.4682 94.9324 11.4212 95.0074 11.3842C95.0454 11.3472 95.0824 11.2812 95.1204 11.1872C95.1574 11.0932 95.2134 11.0282 95.2884 10.9912C95.3824 10.9532 95.4854 10.9162 95.5984 10.8792C95.6354 10.8792 95.6914 10.8932 95.7664 10.9212C95.8414 10.9492 95.8884 10.9632 95.9074 10.9632C95.9444 10.9632 95.9584 10.9582 95.9494 10.9492C95.9394 10.9392 95.9634 10.9342 96.0194 10.9342C96.1134 10.9532 96.3144 11.0982 96.6234 11.3702C96.9334 11.6422 97.1244 11.8622 97.2004 12.0312C97.2374 12.0882 97.2514 12.1582 97.2424 12.2422C97.2324 12.3262 97.2284 12.4162 97.2284 12.5092C97.2664 12.5842 97.3274 12.6692 97.4114 12.7632C97.4954 12.8572 97.5564 12.9512 97.5944 13.0432C97.4814 13.1562 97.4164 13.2922 97.3974 13.4512C97.3784 13.6102 97.3134 13.6802 97.2004 13.6622H97.1444C97.1254 13.6622 97.0504 13.7042 96.9194 13.7882C96.7884 13.8732 96.7034 13.9152 96.6664 13.9152C96.6474 13.9152 96.6424 13.9062 96.6524 13.8872C96.6614 13.8682 96.6474 13.8592 96.6104 13.8592C96.3294 13.8402 96.1284 13.9582 96.0064 14.2112C95.8844 14.4642 95.7014 14.6942 95.4584 14.9002C95.4584 14.9192 95.4674 14.9422 95.4864 14.9702C95.5054 14.9972 95.5244 15.0312 95.5424 15.0682L95.4584 15.1532C95.4394 15.1532 95.4254 15.1432 95.4164 15.1252C95.4064 15.1062 95.3834 15.0882 95.3464 15.0682C95.3274 15.0882 95.3234 15.1062 95.3324 15.1252C95.3414 15.1442 95.3464 15.1722 95.3464 15.2092C95.3274 15.3592 95.2574 15.4772 95.1354 15.5612C95.0134 15.6462 94.9254 15.6882 94.8684 15.6882C94.8494 15.9132 94.8074 16.1242 94.7424 16.3212C94.6764 16.5172 94.6064 16.7102 94.5314 16.8972H94.3344C94.3724 16.8032 94.3764 16.7382 94.3484 16.7002C94.3204 16.6632 94.2964 16.6542 94.2784 16.6722C94.2534 16.6912 94.2264 16.8132 94.1884 17.0382ZM92.3044 10.9232C92.1544 10.9332 92.0704 10.9372 92.0514 10.9372C92.0894 10.7882 92.0704 10.6002 91.9954 10.3742C92.0334 10.2802 92.1174 10.1782 92.2484 10.0652C92.3794 9.9522 92.4734 9.8312 92.5294 9.6992C92.6794 9.3252 92.7634 8.9452 92.7824 8.5602C92.8014 8.1762 92.8104 7.9472 92.8104 7.8722C92.8104 7.8532 92.8104 7.7312 92.8104 7.5072C92.8104 7.2812 92.6984 7.0752 92.4734 6.8882C92.2854 6.9632 91.9904 6.9962 91.5874 6.9872C91.1844 6.9782 90.9554 6.9732 90.8984 6.9732C90.0554 6.9732 89.2584 6.7292 88.5084 6.2422C87.7584 5.7552 87.3834 5.4182 87.3834 5.2302C87.3834 5.1732 87.3784 5.1262 87.3694 5.0892C87.3594 5.0512 87.3454 5.0242 87.3274 5.0042C87.2894 4.9852 87.2434 4.9762 87.1864 4.9762C87.1864 4.8272 87.2424 4.7092 87.3544 4.6252C87.4664 4.5402 87.5794 4.4982 87.6914 4.4982C87.8974 4.5922 88.0854 4.6572 88.2544 4.6952C88.5354 4.7142 88.9664 4.6302 89.5474 4.4412C90.1284 4.2542 90.4754 4.1612 90.5884 4.1612C90.8694 4.1612 91.3384 4.1562 91.9944 4.1462C92.6504 4.1372 93.0434 4.1512 93.1754 4.1882C93.8874 4.3202 94.3984 4.6672 94.7074 5.2292C95.0164 5.7912 95.1714 6.2972 95.1714 6.7472C95.1714 6.9542 95.1854 7.2022 95.2134 7.4922C95.2414 7.7832 95.0774 8.1812 94.7214 8.6872C94.6464 8.8182 94.3144 9.1892 93.7234 9.7972C93.1334 10.4062 92.7534 10.7582 92.5844 10.8522C92.5484 10.8902 92.4544 10.9132 92.3044 10.9232ZM89.6054 14.5632L89.6334 14.7322C89.6524 14.7322 89.7084 14.6952 89.8024 14.6202C89.8954 14.5452 89.9524 14.4792 89.9704 14.4232L89.6054 14.5632ZM91.7424 13.6922C91.7424 13.7112 91.7564 13.7342 91.7844 13.7622C91.8124 13.7892 91.8264 13.8232 91.8264 13.8602C91.8264 13.8232 91.8494 13.7812 91.8964 13.7342C91.9424 13.6872 91.9754 13.6542 91.9944 13.6352L91.7424 13.6922ZM93.2184 12.5672C93.2644 12.5482 93.2984 12.5392 93.3164 12.5392C93.2974 12.6712 93.2324 12.7732 93.1194 12.8492C93.0074 12.9242 92.9124 12.9612 92.8384 12.9612C92.8194 12.9612 92.8054 12.9522 92.7964 12.9332C92.7864 12.9142 92.7734 12.8962 92.7544 12.8772C92.7164 12.8962 92.7024 12.9332 92.7124 12.9892C92.7214 13.0452 92.7264 13.0932 92.7264 13.1302C92.6884 13.1492 92.6374 13.1492 92.5714 13.1302C92.5064 13.1112 92.4544 13.1022 92.4174 13.1022C92.3984 13.0452 92.3894 13.0082 92.3894 12.9902C92.4644 12.8962 92.5394 12.8212 92.6144 12.7652C92.6894 12.7082 92.7364 12.6802 92.7554 12.6802C92.7924 12.6802 92.8114 12.6902 92.8114 12.7082C92.8114 12.7262 92.8304 12.7362 92.8674 12.7362C92.8864 12.7362 92.9284 12.7132 92.9934 12.6662C93.0584 12.6192 93.0924 12.5862 93.0924 12.5672C93.1294 12.5862 93.1714 12.5862 93.2184 12.5672ZM92.6424 14.0012C92.7554 13.8702 92.8204 13.7952 92.8394 13.7762C92.8574 13.7952 92.8674 13.8232 92.8674 13.8602C92.8674 13.8982 92.8674 13.9262 92.8674 13.9452L92.6424 14.0012ZM94.0484 12.4692C94.1794 12.4412 94.2354 12.3802 94.2164 12.2862C94.1974 12.2862 94.1414 12.2912 94.0484 12.3002C93.9544 12.3102 93.8604 12.3702 93.7674 12.4842C93.8234 12.5022 93.9174 12.4972 94.0484 12.4692ZM97.5624 18.0212C97.6184 18.0212 97.6934 18.0212 97.7874 18.0212C97.7124 18.1342 97.6464 18.1812 97.5904 18.1622C97.5344 18.1432 97.4864 18.1352 97.4494 18.1352C97.4684 18.0602 97.5064 18.0212 97.5624 18.0212Z" fill="white"/>
<path d="M117.791 24.1368C117.763 24.1098 117.721 24.0848 117.665 24.0668C117.177 24.0668 116.835 23.9408 116.639 23.6878C116.443 23.4348 116.344 23.1488 116.344 22.8308C116.344 22.5678 116.503 22.0658 116.822 21.3258C117.14 20.5858 117.346 20.1318 117.441 19.9628C117.609 19.6448 118.055 19.0068 118.776 18.0508C119.497 17.0948 119.896 16.4398 119.971 16.0828C120.121 15.4828 120.159 15.0568 120.084 14.8038C120.009 14.5508 119.812 14.3118 119.493 14.0868C119.418 14.1058 119.244 14.1428 118.973 14.1988C118.701 14.2548 118.481 14.3208 118.312 14.3948C118.218 14.2458 118.049 14.1328 117.806 14.0578C117.638 14.1518 117.562 14.2828 117.581 14.4518C117.225 14.4898 116.766 14.6058 116.203 14.8038C115.641 14.9998 115.265 15.2308 115.078 15.4918L113.701 16.2518C113.626 16.2328 113.56 16.2238 113.504 16.2238C113.279 16.2238 112.998 16.3228 112.661 16.5188C112.324 16.7158 111.846 16.8138 111.227 16.8138C111.189 16.8138 110.89 16.6978 110.328 16.4628C109.765 16.2288 109.484 16.0458 109.484 15.9138V15.2098C109.597 15.1728 109.728 15.0838 109.878 14.9428C110.028 14.8018 110.112 14.7038 110.131 14.6478C110.543 14.6668 110.89 14.6748 111.171 14.6748C111.452 14.6748 111.649 14.6748 111.761 14.6748C112.005 14.6748 112.183 14.6098 112.295 14.4788H112.323C112.342 14.4788 112.351 14.4888 112.351 14.5068C112.369 14.5258 112.397 14.5338 112.435 14.5338C112.473 14.5338 112.529 14.5338 112.604 14.5338C112.998 14.5338 113.311 14.5298 113.546 14.5198C113.78 14.5108 114.112 14.3928 114.544 14.1678C114.619 14.2248 114.708 14.2148 114.811 14.1398C114.914 14.0658 114.975 14.0188 114.994 13.9988C115.088 13.9618 115.753 13.7458 116.991 13.3528C118.228 12.9588 118.968 12.5838 119.212 12.2288L119.437 12.3128C119.699 12.3128 119.896 12.2518 120.027 12.1298C120.158 12.0078 120.327 11.9008 120.533 11.8068C120.664 11.8258 120.832 11.8538 121.039 11.8908C121.376 12.1348 121.653 12.2708 121.869 12.2978C122.084 12.3258 122.248 12.3878 122.361 12.4818C122.398 12.5188 122.449 12.6078 122.515 12.7488C122.58 12.8898 122.614 13.0628 122.614 13.2698C122.351 13.7938 122.272 14.2678 122.375 14.6898C122.478 15.1118 122.539 15.3408 122.558 15.3778C122.558 15.5278 122.45 15.6728 122.235 15.8138C122.019 15.9548 121.902 16.0348 121.883 16.0528C121.583 16.1648 121.349 16.2918 121.18 16.4328C121.012 16.5738 120.88 16.6908 120.786 16.7848C120.355 17.1218 119.89 17.8858 119.394 19.0758C118.897 20.2658 118.611 21.1048 118.537 21.5928C118.537 21.7238 118.654 21.8358 118.888 21.9298C119.122 22.0238 119.333 22.0708 119.521 22.0708C119.727 22.0708 119.971 22.0238 120.252 21.9298C120.533 21.8358 120.767 21.7238 120.955 21.5928L121.573 21.2828C121.723 21.1888 121.878 21.0398 122.037 20.8328C122.196 20.6278 122.276 20.4488 122.276 20.2988C122.276 20.1118 122.018 19.7788 121.503 19.3008C120.987 18.8228 120.692 18.5658 120.618 18.5288C120.58 18.4348 120.571 18.3878 120.59 18.3878C120.628 18.3878 120.646 18.3728 120.646 18.3458C120.646 18.3178 120.646 18.2378 120.646 18.1068C120.871 18.1068 121.077 18.0598 121.265 17.9658C121.265 17.9088 121.265 17.8768 121.265 17.8668C121.265 17.8578 121.246 17.8528 121.209 17.8528C121.171 17.8528 121.162 17.8248 121.181 17.7678C121.556 17.7308 122.118 18.0638 122.868 18.7658C123.618 19.4688 123.993 19.9528 123.993 20.2138C123.993 20.5328 123.974 20.7808 123.937 20.9588C123.899 21.1378 123.862 21.2448 123.825 21.2818C123.694 21.4138 123.567 21.5588 123.446 21.7178C123.323 21.8768 123.151 22.2098 122.925 22.7158C122.662 22.8478 122.133 23.0678 121.337 23.3768C120.54 23.6868 120.114 23.8588 120.058 23.8978C119.833 23.8028 119.664 23.7188 119.552 23.6448C119.421 23.8318 119.12 23.9768 118.652 24.0808C118.183 24.1838 117.93 24.2348 117.893 24.2348H117.865C117.842 24.1968 117.819 24.1648 117.791 24.1368ZM121.292 2.83877C121.404 2.97077 121.46 3.07377 121.46 3.14877C121.46 3.22377 121.432 3.39277 121.376 3.65477C121.32 3.91777 121.264 4.06777 121.208 4.10477C120.776 4.34877 120.374 4.48477 119.999 4.51177C119.624 4.53977 119.221 4.63877 118.79 4.80777C118.321 4.95777 117.511 5.15477 116.358 5.39777C115.205 5.64177 114.582 5.77377 114.488 5.79177C114.169 5.79177 113.794 5.64677 113.363 5.35577C112.931 5.06577 112.678 4.85477 112.604 4.72277C112.979 4.53577 113.85 4.30577 115.219 4.03477C116.587 3.76377 117.543 3.55277 118.087 3.40177C118.275 3.36477 118.397 3.28077 118.453 3.14877C118.847 3.09177 119.296 2.98977 119.803 2.83877C120.309 2.68977 120.74 2.61377 121.096 2.61377C121.113 2.63277 121.179 2.70777 121.292 2.83877ZM119.604 5.34177C119.622 5.34177 119.665 5.35177 119.73 5.36977C119.795 5.38877 119.903 5.39677 120.053 5.39677C120.184 5.39677 120.273 5.38277 120.32 5.35477C120.366 5.32677 120.4 5.29377 120.419 5.25577C120.437 5.25577 120.602 5.39677 120.911 5.67777C121.221 5.95877 121.384 6.10977 121.403 6.12777C121.44 6.14677 121.454 6.22177 121.445 6.35277C121.435 6.48477 121.525 6.70877 121.712 7.02777C121.656 7.19677 121.576 7.41277 121.473 7.67377C121.369 7.93677 121.262 8.14277 121.15 8.29277C121.262 8.38677 121.407 8.55577 121.586 8.79877C121.764 9.04277 121.919 9.20177 122.05 9.27677L121.909 9.67177C121.778 9.76577 121.67 9.85977 121.586 9.95177C121.502 10.0468 121.45 10.1308 121.431 10.2058C121.319 10.2428 121.145 10.2198 120.911 10.1358C120.677 10.0508 120.372 10.0838 119.997 10.2338C119.622 10.3658 118.732 10.6138 117.326 10.9788C115.92 11.3448 115.17 11.5458 115.076 11.5828C114.682 11.5828 114.349 11.3398 114.078 10.8528C113.806 10.3658 113.642 10.0658 113.586 9.95277C113.605 9.95277 113.764 9.92577 114.064 9.86877C114.364 9.81177 114.692 9.74677 115.048 9.67277C115.385 9.59777 115.69 9.53177 115.962 9.47577C116.233 9.41877 116.379 9.39177 116.398 9.39177C116.417 9.39177 116.468 9.40577 116.553 9.43377C116.638 9.46177 116.717 9.52277 116.792 9.61677C116.923 9.52277 117.012 9.45277 117.059 9.40577C117.105 9.35877 117.129 9.32677 117.129 9.30677H117.072V9.13777C117.166 9.11877 117.278 9.09077 117.409 9.05277C117.54 9.01577 117.597 8.90377 117.578 8.71577C117.615 8.71577 117.728 8.72577 117.915 8.74277C118.102 8.76277 118.243 8.77077 118.337 8.77077C118.524 8.77077 118.66 8.72477 118.744 8.62977C118.828 8.53577 118.88 8.44277 118.899 8.34877C118.937 8.25577 118.946 8.09577 118.927 7.87077C118.964 7.81377 119.072 7.75377 119.25 7.68777C119.428 7.62277 119.592 7.48677 119.742 7.27977L119.489 7.02677C119.564 6.85777 119.62 6.65177 119.658 6.40877C119.695 6.16577 119.714 5.87477 119.714 5.53677C119.62 5.48077 119.55 5.43877 119.503 5.41077C119.456 5.38277 119.414 5.35877 119.377 5.34077L119.604 5.34177ZM117.355 7.44977C117.336 7.52477 117.341 7.59577 117.369 7.66077C117.397 7.72577 117.476 7.81477 117.608 7.92877C117.589 7.94777 117.411 8.03177 117.074 8.18177C116.737 8.33077 116.568 8.43477 116.568 8.49077C116.493 8.49077 116.371 8.51077 116.202 8.54777C115.865 8.54777 115.475 8.30477 115.035 7.81677C114.594 7.32977 114.383 7.00177 114.402 6.83377V6.55077L115.386 6.52277C115.536 6.52277 115.845 6.66377 116.314 6.94477C116.782 7.22577 117.091 7.41377 117.242 7.50777L117.354 7.42277V7.44977H117.355Z" fill="white"/>
<path d="M138.555 8.50484C138.517 8.49484 138.48 8.48184 138.443 8.46284C138.424 8.44384 138.41 8.42984 138.401 8.41984C138.392 8.41084 138.378 8.40584 138.359 8.40584V8.37784H138.331C138.293 8.34084 138.237 8.31284 138.163 8.29384C138.088 8.27484 138.003 8.25684 137.91 8.23684C137.441 8.19984 136.743 8.22784 135.815 8.32184C134.887 8.41584 134.273 8.79084 133.973 9.44584C133.898 9.52084 133.847 9.59184 133.819 9.65684C133.791 9.72284 133.786 9.77384 133.805 9.81084C133.824 9.84884 133.88 9.93384 133.973 10.0648C133.785 10.2528 133.687 10.4198 133.678 10.5708C133.668 10.7208 133.664 10.8048 133.664 10.8238C133.514 10.9928 133.383 11.1428 133.27 11.2738L133.298 11.3298C133.317 11.3498 133.312 11.3498 133.284 11.3298C133.256 11.3108 133.157 11.3018 132.989 11.3018C132.82 11.3018 132.726 11.3168 132.708 11.3448C132.689 11.3718 132.661 11.4058 132.624 11.4428L132.54 11.2178C132.54 11.2748 132.465 11.3118 132.315 11.3298C132.165 11.3498 132.043 11.3678 131.949 11.3868C131.93 11.2368 131.879 11.0028 131.795 10.6838C131.711 10.3658 131.669 10.1878 131.669 10.1498C131.706 9.66284 132.034 8.94584 132.653 7.99884C133.272 7.05284 133.674 6.57984 133.862 6.57984C134.087 6.09284 134.354 5.47384 134.663 4.72384C134.972 3.97484 135.248 3.34684 135.493 2.83984C135.68 2.93484 135.924 3.21984 136.224 3.69684C136.523 4.17584 136.655 4.63084 136.618 5.06084C136.618 5.09884 136.552 5.24884 136.421 5.51084C136.29 5.77384 136.177 5.99784 136.084 6.18484C136.309 6.31684 136.506 6.39184 136.674 6.41084C136.843 6.42984 136.936 6.43884 136.955 6.43884C137.067 6.43884 137.508 6.45784 138.276 6.49484C139.045 6.53284 139.476 6.56084 139.569 6.57984C139.775 6.59884 140.089 6.67784 140.511 6.81784C140.933 6.95784 141.134 7.16084 141.115 7.42184C141.003 7.57184 140.918 7.69384 140.862 7.78784C140.824 7.86184 140.782 7.93284 140.736 7.99784C140.689 8.06384 140.656 8.11584 140.637 8.15284C140.675 8.11584 140.712 8.09584 140.749 8.09584C140.355 8.56484 140.121 8.85584 140.046 8.96784C139.971 9.07984 139.886 9.24884 139.793 9.47384C139.718 9.66184 139.68 9.79284 139.68 9.86784C139.68 9.94284 139.671 10.0178 139.652 10.0928C139.577 10.2428 139.366 10.5718 139.019 11.0768C138.672 11.5828 138.415 11.9678 138.246 12.2298C138.264 12.2488 138.288 12.2948 138.316 12.3698C138.344 12.4448 138.442 12.4828 138.611 12.4828H138.724C139.192 12.5018 139.984 12.3658 141.099 12.0748C142.214 11.7848 142.809 11.6298 142.885 11.6108C143.072 11.6298 143.26 11.7328 143.447 11.9208C143.634 12.1088 143.718 12.3328 143.7 12.5958C143.7 12.6898 143.658 12.7918 143.573 12.9048C143.489 13.0178 143.24 13.1858 142.828 13.4118C142.809 13.4118 142.729 13.4218 142.589 13.4398C142.449 13.4578 142.294 13.5238 142.125 13.6358C142.031 13.6548 141.933 13.6778 141.83 13.7058C141.727 13.7338 141.628 13.7678 141.535 13.8048C140.785 14.3488 139.993 14.9818 139.159 15.7018C138.325 16.4238 137.908 16.9438 137.908 17.2628L137.318 18.1348C138.461 17.8348 139.351 17.5678 139.989 17.3328C140.626 17.0988 141.451 16.9808 142.463 16.9808C143.026 16.9808 143.526 17.1448 143.967 17.4728C144.407 17.8008 144.693 18.2648 144.824 18.8648C144.861 19.0338 144.917 19.1878 144.992 19.3288C145.067 19.4698 145.105 19.5678 145.105 19.6238V22.5768C145.067 22.7078 145.03 22.8198 144.992 22.9138C144.954 22.9878 144.898 23.1108 144.824 23.2788C144.805 23.2418 144.707 23.1808 144.529 23.0958C144.351 23.0118 144.159 22.9698 143.953 22.9698C143.803 22.9698 143.709 22.9838 143.672 23.0118C143.634 23.0398 143.606 23.0628 143.588 23.0818L143.56 22.9968C143.56 22.9598 143.532 22.9178 143.476 22.8708C143.42 22.8238 143.279 22.8008 143.054 22.8008H142.66C142.735 22.7258 142.791 22.6688 142.829 22.6318C142.754 22.5938 142.66 22.5478 142.548 22.4908C142.435 22.4348 142.323 22.3688 142.211 22.2948C142.361 22.1818 142.436 22.0508 142.436 21.9008C142.286 21.7508 142.178 21.6798 142.113 21.6898C142.047 21.6998 141.996 21.7038 141.958 21.7038C141.958 21.6848 141.991 21.5588 142.057 21.3238C142.122 21.0908 142.156 20.8878 142.156 20.7198C142.156 20.4578 142.16 19.9748 142.17 19.2728C142.179 18.5698 141.753 18.2178 140.891 18.2178C139.804 18.2178 138.867 18.4758 138.079 18.9908C137.292 19.5068 136.795 19.7628 136.589 19.7628C136.383 19.7628 136.177 19.6268 135.971 19.3558C135.764 19.0848 135.661 18.9108 135.661 18.8348C135.661 18.5728 136.345 17.7628 137.714 16.4028C139.082 15.0448 139.822 14.2708 139.935 14.0838H139.907C139.588 14.1588 138.145 14.6368 135.577 15.5178C133.009 16.3988 131.687 16.8308 131.613 16.8108C131.294 16.7738 131.023 16.6378 130.798 16.4038C130.573 16.1698 130.47 15.8828 130.488 15.5468C130.507 15.2838 130.553 15.1298 130.629 15.0828C130.704 15.0358 130.863 14.9758 131.107 14.8998C131.688 14.7118 132.41 14.3978 133.272 13.9578C134.134 13.5178 134.771 13.1388 135.184 12.8188C135.765 12.3318 136.225 11.8678 136.562 11.4268C136.899 10.9858 137.133 10.6628 137.265 10.4568C137.322 10.3448 137.509 10.1518 137.828 9.87984C138.146 9.60884 138.493 9.20084 138.869 8.65684C138.85 8.63784 138.817 8.61984 138.77 8.59984C138.723 8.58184 138.681 8.56284 138.644 8.54384C138.62 8.52784 138.592 8.51484 138.555 8.50484ZM138.611 8.54684C138.555 8.50984 138.499 8.48184 138.443 8.46284C138.424 8.44384 138.41 8.42984 138.401 8.41984C138.392 8.41084 138.378 8.40584 138.359 8.40584L138.331 8.37784C138.425 8.39784 138.528 8.41084 138.641 8.41984C138.753 8.42984 138.884 8.42484 139.035 8.40584C139.41 8.38684 139.743 8.34484 140.033 8.27884C140.324 8.21384 140.525 8.17184 140.637 8.15284C140.393 8.58484 140.126 8.78084 139.836 8.74284C139.545 8.70584 139.147 8.63984 138.641 8.54684H138.611Z" fill="white"/>
<path d="M152.303 6.18498C152.228 6.14798 152.162 6.12898 152.106 6.12898C152.087 6.12898 152.078 6.13898 152.078 6.15698H151.881C151.468 6.51298 150.953 6.79898 150.335 7.01398C149.717 7.22898 149.173 7.39298 148.704 7.50598C148.404 7.59998 148.132 7.70198 147.889 7.81498C147.645 7.92798 147.486 7.97498 147.411 7.95598C147.167 7.89998 147.045 7.71798 147.045 7.40798C147.045 7.09798 147.064 6.90698 147.101 6.83198C147.12 6.73798 147.79 6.18898 149.111 5.18598C150.433 4.18398 151.356 3.53298 151.881 3.23198C151.975 3.15798 152.036 3.10598 152.064 3.07798C152.092 3.04998 152.116 3.02598 152.134 3.00798C152.172 2.91398 152.209 2.81998 152.247 2.72698C152.247 2.63298 152.092 2.25898 151.783 1.60298C151.473 0.946977 151.347 0.571977 151.403 0.477977C151.403 0.383977 151.455 0.318977 151.558 0.280977C151.661 0.243977 151.75 0.149977 151.825 0.000976562C152.106 0.0199766 152.655 0.323977 153.47 0.913977C154.285 1.50498 154.618 2.02398 154.468 2.47498C154.412 2.64398 154.219 2.88298 153.891 3.19198C153.563 3.50198 153.343 3.64698 153.23 3.62898C153.118 3.55398 152.986 3.50698 152.836 3.48798C152.386 3.37498 151.857 3.50198 151.248 3.86698C150.639 4.23298 150.231 4.50998 150.025 4.69698C149.837 4.88498 149.631 5.08098 149.406 5.28698C149.181 5.49398 148.966 5.71898 148.76 5.96198L148.676 6.55298C149.219 6.38398 149.566 6.27698 149.716 6.22998C149.866 6.18298 150.175 6.08398 150.644 5.93398C150.793 5.89698 151.436 5.62998 152.57 5.13298C153.704 4.63598 154.44 4.43498 154.777 4.52898C154.983 4.56698 155.105 4.71698 155.143 4.97798C155.18 5.24098 155.18 5.40998 155.143 5.48498C155.068 5.67298 154.524 6.12698 153.512 6.84798C152.5 7.56898 151.89 8.29598 151.684 9.02698C151.609 9.21498 151.572 9.38298 151.572 9.53398C151.572 9.68298 151.553 9.86198 151.516 10.068C151.572 10.217 151.657 10.321 151.769 10.377C151.881 10.434 151.956 10.481 151.994 10.518C152.537 10.799 153.001 10.79 153.386 10.49C153.77 10.191 154.084 10.004 154.328 9.92798C154.44 9.51598 154.337 9.13098 154.018 8.77498C153.699 8.41998 153.549 8.20398 153.568 8.12898C153.606 7.97998 153.779 7.90398 154.088 7.90398C154.398 7.90398 154.561 7.90398 154.58 7.90398C155.123 8.03498 155.629 8.49398 156.098 9.28098C156.567 10.069 156.679 10.762 156.435 11.362C156.36 11.55 156.327 11.718 156.337 11.868C156.346 12.018 156.341 12.084 156.323 12.065C156.323 12.102 156.285 12.159 156.211 12.234C156.136 12.308 156.107 12.422 156.127 12.571C155.996 12.759 155.93 12.899 155.93 12.993C155.93 13.087 155.864 13.199 155.733 13.33C155.714 13.35 156.473 12.983 158.01 12.234C159.547 11.484 160.325 10.762 160.343 10.069C160.362 9.46898 160.189 8.77098 159.823 7.97398C159.457 7.17698 159.256 6.74998 159.219 6.69498C159.219 6.56398 159.313 6.34798 159.5 6.04898C159.687 5.74898 159.791 5.39298 159.809 4.97998C159.903 4.96198 159.978 4.94298 160.034 4.92398C160.071 4.90498 160.137 4.88698 160.231 4.86698C160.643 4.88698 161.191 5.66398 161.876 7.20098C162.561 8.73798 162.987 10.022 163.155 11.053C163.249 10.997 163.404 10.922 163.619 10.828C163.834 10.734 163.952 10.687 163.97 10.687C164.12 10.687 164.678 10.856 165.643 11.193C166.608 11.531 167.081 11.831 167.063 12.093C167.063 12.205 166.88 12.318 166.515 12.43C166.15 12.542 165.892 12.683 165.742 12.852C165.554 12.777 165.264 12.618 164.87 12.373C164.476 12.13 163.923 11.821 163.211 11.445L162.508 18.109C162.508 18.184 162.517 18.235 162.536 18.263C162.554 18.291 162.573 18.305 162.592 18.305C162.629 18.325 162.657 18.333 162.676 18.333C162.676 19.046 162.746 19.729 162.886 20.386C163.026 21.043 163.135 21.67 163.21 22.27C163.435 22.27 163.594 22.354 163.688 22.523C163.782 22.692 163.829 22.785 163.829 22.804C163.81 22.916 163.838 23.104 163.913 23.367C163.782 23.441 163.692 23.493 163.646 23.521C163.599 23.549 163.576 23.573 163.576 23.591C163.557 23.648 163.538 23.694 163.52 23.732H163.239C162.62 23.713 162.138 23.226 161.791 22.27C161.444 21.314 161.252 20.714 161.214 20.47C161.195 20.283 161.172 19.875 161.144 19.247C161.116 18.619 161.046 18.099 160.933 17.686C160.895 17.574 160.872 17.334 160.863 16.969C160.853 16.603 160.858 16.383 160.877 16.308L161.214 12.85L161.242 11.472C160.942 11.416 160.712 11.449 160.553 11.571C160.394 11.693 160.304 11.763 160.286 11.782C160.38 12.026 160.295 12.264 160.033 12.499C159.77 12.733 159.48 12.963 159.161 13.187C158.805 13.468 158.383 13.746 157.896 14.017C157.408 14.288 156.93 14.537 156.462 14.762C156.199 14.893 155.566 15.179 154.564 15.619C153.561 16.059 153.022 16.495 152.947 16.927C152.816 17.001 152.675 17.063 152.526 17.11C152.376 17.157 152.291 17.18 152.273 17.18C152.254 17.161 152.17 17.105 152.02 17.011C151.87 16.917 151.739 16.862 151.626 16.842C151.588 16.73 151.518 16.594 151.415 16.435C151.312 16.276 151.251 16.187 151.232 16.167C151.232 16.073 151.588 15.854 152.3 15.507C153.012 15.16 153.49 14.846 153.734 14.565C154.146 14.059 154.399 13.539 154.493 13.004C154.587 12.469 154.643 12.185 154.662 12.147C154.699 12.016 154.713 11.837 154.704 11.613C154.694 11.388 154.615 11.163 154.465 10.938C154.24 11.088 153.921 11.266 153.509 11.472C153.096 11.679 152.731 11.8 152.412 11.837H151.569C151.494 11.8 151.391 11.763 151.259 11.725C151.128 11.688 151.015 11.66 150.922 11.641C150.566 11.547 150.308 11.294 150.149 10.882C149.989 10.47 149.947 10.151 150.023 9.92598C150.154 9.49398 150.571 8.85798 151.274 8.01398C151.977 7.16998 152.422 6.67398 152.609 6.52398V6.18498H152.303Z" fill="white"/>
</g>
<defs>
<clipPath id="clip0_58_15734">
<rect width="167.064" height="25.051" fill="white"/>
</clipPath>
</defs>
</svg>
