<?xml version="1.0" encoding="utf-8"?>
<!-- Generator: Adobe Illustrator 16.0.0, SVG Export Plug-In . SVG Version: 6.00 Build 0)  -->
<!DOCTYPE svg PUBLIC "-//W3C//DTD SVG 1.1//EN" "http://www.w3.org/Graphics/SVG/1.1/DTD/svg11.dtd">
<svg version="1.1" id="Layer_1" xmlns="http://www.w3.org/2000/svg" xmlns:xlink="http://www.w3.org/1999/xlink" x="0px" y="0px"
	 width="167.064px" height="25.051px" viewBox="0 0 167.064 25.051" enable-background="new 0 0 167.064 25.051"
	 xml:space="preserve">
<g>
	<path d="M7.732,15.351c-0.056,0.15-0.084,0.244-0.084,0.281c-0.057-0.019-0.108-0.028-0.155-0.028c-0.047,0-0.089,0-0.126,0
		c-0.188,0-0.347,0.08-0.478,0.239c-0.131,0.159-0.207,0.249-0.225,0.268c-0.019,0-0.07-0.075-0.155-0.226
		c-0.084-0.149-0.229-0.225-0.436-0.225c-0.075-0.094-0.07-0.276,0.014-0.548s0.126-0.549,0.126-0.83
		c-0.019-0.655,0.004-1.373,0.07-2.15c0.065-0.778,0.098-1.251,0.098-1.42c-0.019-0.6-0.126-1.013-0.323-1.237
		S5.398,9.156,4.667,9.193C4.143,9.212,3.655,9.334,3.206,9.559c-0.45,0.226-0.694,0.348-0.731,0.366c-0.075,0-0.165,0-0.268,0
		s-0.201-0.01-0.295-0.028C1.837,9.803,1.5,9.587,0.9,9.25C0.3,8.912,0,8.641,0,8.435c0.131-0.169,0.197-0.271,0.197-0.31
		C0.74,8.088,1.373,8.031,2.095,7.956c0.721-0.074,1.12-0.121,1.195-0.141c0.15,0,0.455-0.079,0.914-0.238
		c0.459-0.159,0.707-0.239,0.745-0.239c0.787-0.037,1.485,0.154,2.095,0.576c0.609,0.422,0.923,1.045,0.942,1.87L8.294,10.6
		c-0.056,0.019-0.104,0.052-0.141,0.098c-0.038,0.048-0.056,0.137-0.056,0.268c0,0.038,0.023,0.084,0.07,0.141
		c0.046,0.056,0.117,0.206,0.211,0.45c-0.038,0.037-0.057,0.079-0.057,0.126s0.009,0.146,0.028,0.295
		c-0.15,0.113-0.263,0.207-0.337,0.281c0.019,0.095,0.042,0.202,0.07,0.323c0.028,0.122,0.042,0.23,0.042,0.323
		c-0.038,0.02-0.075,0.07-0.112,0.155c-0.038,0.084-0.075,0.211-0.112,0.38c0.037,0.019,0.08,0.037,0.126,0.056
		c0.046,0.019,0.08,0.038,0.098,0.057c-0.019,0.056-0.042,0.112-0.07,0.168c-0.028,0.057-0.052,0.122-0.07,0.197
		c0.018-0.019,0.032-0.028,0.042-0.028c0.009,0,0.023,0,0.042,0l-0.253,1.209C7.816,15.117,7.788,15.201,7.732,15.351z
		 M14.747,12.581c-0.01,0.01-0.024,0.033-0.042,0.07c-0.019,0.075-0.075,0.179-0.169,0.31c-0.038,0.038-0.047,0.117-0.028,0.239
		s0.038,0.229,0.057,0.323c0.018,0.094,0.014,0.15-0.014,0.169c-0.028,0.019-0.089,0.047-0.183,0.084
		c0.037,0.112,0.07,0.295,0.098,0.548c0.028,0.254,0.042,0.39,0.042,0.408s-0.009,0.099-0.028,0.239
		c-0.019,0.141-0.047,0.285-0.084,0.436c-0.038,0.169-0.075,0.356-0.112,0.563h0.056c0,0.037-0.019,0.037-0.056,0
		c-0.038-0.038-0.094-0.061-0.169-0.07c-0.075-0.01-0.188-0.015-0.337-0.015c-0.038,0.075-0.066,0.141-0.084,0.197
		c-0.019,0.056-0.047,0.104-0.084,0.141c-0.038,0.037-0.08,0.075-0.126,0.112c-0.047,0.038-0.126,0.104-0.239,0.196
		c-0.131-0.018-0.207-0.027-0.225-0.027c-0.019,0-0.038,0-0.057,0h-0.225c0.037-0.619,0.051-1.219,0.042-1.8
		c-0.01-0.581-0.005-1.162,0.014-1.743c0.019-0.112,0.033-0.267,0.042-0.464s0.023-0.389,0.042-0.576
		c0.018-0.15,0.023-0.253,0.014-0.31c-0.01-0.056-0.033-0.103-0.07-0.141c-0.019-0.019-0.066-0.028-0.141-0.028
		c0.149-0.693,0.136-1.241-0.042-1.645c-0.178-0.402-0.342-0.773-0.492-1.11c-0.319-0.75-0.68-1.298-1.083-1.645
		c-0.403-0.347-0.595-0.614-0.577-0.802c0.019-0.375,0.319-0.679,0.9-0.914c0.581-0.233,0.881-0.352,0.899-0.352
		c0.263,0.02,0.647,0.272,1.153,0.76c0.506,0.487,0.797,1.031,0.872,1.631c0.019,0.15,0.023,0.365,0.014,0.646
		c-0.01,0.281,0.07,0.516,0.239,0.703c0,0.019-0.005,0.103-0.014,0.253c-0.01,0.15-0.052,0.243-0.126,0.281
		c0.075,0.918,0.149,1.532,0.225,1.841c0.075,0.31,0.094,0.793,0.057,1.448l0.028-0.028v0.028
		C14.751,12.559,14.756,12.572,14.747,12.581z"/>
	<path d="M25.234,10.248c1.284,0.309,1.926,0.839,1.926,1.588c0,0.113-0.197,0.272-0.591,0.479
		c-0.394,0.206-0.609,0.318-0.646,0.337c-0.413,0-0.834-0.271-1.265-0.815c-0.432-0.543-1.087-0.815-1.968-0.815
		c-0.356,0-0.595,0.075-0.717,0.226c-0.122,0.15-0.221,0.31-0.295,0.478c-0.188,0.544-0.337,1.153-0.45,1.828
		s-0.394,1.012-0.844,1.012v-0.056h-0.028c-0.075-0.019-0.197-0.028-0.366-0.028c-0.207,0-0.384,0.084-0.534,0.253
		c-0.15-0.225-0.3-0.496-0.45-0.815c-0.15-0.318-0.225-0.6-0.225-0.844c0-0.037,0.271-0.848,0.815-2.432
		c0.543-1.584,0.881-2.47,1.012-2.657c0.15-0.188,0.318-0.538,0.506-1.055c0.187-0.515,0.384-0.895,0.59-1.139
		c0.15-0.149,0.29-0.369,0.421-0.66s0.225-0.436,0.281-0.436c0.038,0,0.108,0.047,0.211,0.141s0.173,0.159,0.211,0.196
		c0.206-0.263,0.328-0.45,0.366-0.563V4.386c0.337,0.356,0.566,0.651,0.688,0.886s0.183,0.474,0.183,0.717
		c0,0.356-0.249,0.933-0.745,1.729c-0.497,0.797-0.849,1.514-1.055,2.15C22.961,9.812,23.95,9.938,25.234,10.248z M34.962,20.468
		c-0.516,0.094-0.998,0.216-1.448,0.365c-1.181,0.413-2.357,0.881-3.528,1.406c-1.172,0.524-1.805,0.787-1.898,0.787
		c-0.019,0-0.197-0.028-0.534-0.084c-0.337-0.057-0.59-0.169-0.759-0.338c-0.075-0.094-0.136-0.337-0.183-0.73
		c-0.047-0.394-0.07-0.685-0.07-0.872c0.187,0.075,0.422-0.121,0.703-0.59c0.281-0.469,0.45-0.778,0.506-0.928
		c0.487-0.525,1.04-1.359,1.659-2.503c0.619-1.143,1.19-1.958,1.715-2.446c-0.019-0.037-0.042-0.061-0.07-0.07
		c-0.028-0.009-0.061-0.014-0.099-0.014c0.206-0.431,0.529-1.012,0.97-1.743c0.44-0.731,0.763-1.321,0.97-1.771
		c-0.075-0.056-0.126-0.126-0.154-0.211c-0.028-0.084-0.099-0.126-0.211-0.126c-0.094,0-0.413,0.107-0.956,0.323
		c-0.544,0.216-0.862,0.323-0.956,0.323c-0.488,0-0.834-0.178-1.04-0.534c-0.207-0.356-0.347-0.534-0.422-0.534
		c-0.075-0.094-0.155-0.563-0.239-1.406c-0.084-0.843-0.154-1.293-0.21-1.35c-0.057-0.149-0.07-0.332-0.042-0.548
		c0.028-0.216,0.023-0.398-0.014-0.549c-0.131-0.374-0.159-0.819-0.084-1.335c0.075-0.516-0.347-1.073-1.266-1.673
		c0.394-0.3,0.656-0.6,0.788-0.899c0.131-0.3,0.543-0.45,1.237-0.45c0.581,0,1.021,0.333,1.322,0.998
		c0.299,0.665,0.45,1.157,0.45,1.476l-0.168,0.984c-0.075,0.019-0.127,0.085-0.155,0.197c-0.028,0.112-0.005,0.196,0.07,0.253v0.281
		l-0.169-0.141c-0.075,0.019-0.136,0.065-0.183,0.141c-0.047,0.075-0.08,0.141-0.099,0.196c0.038,0.075,0.094,0.141,0.169,0.197
		c0.075,0.056,0.178,0.131,0.309,0.225c-0.019,0.094-0.066,0.234-0.141,0.422s-0.056,0.347,0.057,0.478
		c0,0.038-0.028,0.099-0.084,0.184c-0.056,0.084-0.104,0.145-0.141,0.183c0,0.037,0.023,0.08,0.07,0.126
		c0.046,0.047,0.08,0.062,0.098,0.042c0.019,0.038,0.038,0.127,0.057,0.268c0.018,0.141,0.046,0.267,0.084,0.38
		c-0.038,0.037-0.08,0.065-0.126,0.084s-0.117,0.028-0.211,0.028v0.675c0.075-0.057,0.159-0.085,0.253-0.085
		c0.093,0,0.159,0.057,0.197,0.169c0.037,0.112,0.103,0.169,0.197,0.169c0.019,0,0.454-0.221,1.307-0.661
		c0.853-0.439,1.514-0.66,1.982-0.66c0.337,0,0.619,0.159,0.843,0.478c0.225,0.319,0.337,0.516,0.337,0.591
		c0,0.094-0.042,0.188-0.126,0.281s-0.173,0.188-0.267,0.281c0,0.037,0.019,0.089,0.056,0.154s0.094,0.117,0.169,0.154
		c-0.019,0.075-0.07,0.146-0.155,0.211c-0.084,0.066-0.164,0.108-0.239,0.127c-0.15,0.188-0.258,0.333-0.324,0.436
		c-0.066,0.104-0.117,0.268-0.154,0.492c-0.244,0.225-0.53,0.482-0.858,0.773c-0.328,0.29-0.539,0.529-0.632,0.717
		c-0.075,0.131-0.16,0.313-0.253,0.548c-0.094,0.234-0.207,0.455-0.337,0.661c-0.075,0.15-0.211,0.352-0.408,0.604
		s-0.38,0.502-0.548,0.745c-0.075,0.131-0.192,0.342-0.352,0.633c-0.159,0.29-0.314,0.511-0.464,0.66
		c-0.019,0.019-0.047,0.028-0.084,0.028s-0.075,0.019-0.112,0.056c0.019,0.301-0.188,0.844-0.619,1.631s-0.646,1.313-0.646,1.575
		c0,0.094,0.019,0.141,0.056,0.141c0.037,0,0.065,0.047,0.084,0.141h0.281c0.074,0,0.333-0.108,0.773-0.324
		c0.44-0.215,0.83-0.389,1.167-0.52c0.149-0.037,0.524-0.226,1.125-0.563c0.6-0.337,1.162-0.506,1.687-0.506
		c0.131,0,0.379-0.01,0.745-0.028c0.365-0.019,0.661,0.075,0.886,0.281c-0.038,0.038-0.057,0.108-0.057,0.211
		c0,0.104,0.084,0.201,0.253,0.295c-0.038,0.094-0.084,0.169-0.141,0.225c-0.056,0.057-0.075,0.132-0.056,0.226
		C35.857,20.215,35.478,20.374,34.962,20.468z M29.747,17.192c-0.3,0.347-0.45,0.567-0.45,0.661s0.019,0.146,0.056,0.154
		c0.037,0.01,0.046,0.042,0.028,0.099c-0.019,0.056-0.075,0.131-0.169,0.225s-0.16,0.179-0.197,0.253
		c0.037-0.074,0.094-0.126,0.168-0.154s0.131-0.052,0.169-0.07c0.037,0.019,0.056,0.061,0.056,0.126c0,0.066,0,0.118,0,0.155
		c0.3-0.206,0.609-0.604,0.928-1.195c0.319-0.59,0.572-1.045,0.759-1.363c0.056-0.094,0.107-0.239,0.155-0.436
		c0.046-0.197,0.154-0.305,0.323-0.324c0-0.093,0-0.178,0-0.253c0-0.074-0.038-0.131-0.112-0.168c0.037-0.038,0.061-0.07,0.07-0.099
		c0.009-0.028,0.023-0.052,0.042-0.07c0.056,0,0.117,0.01,0.183,0.028c0.065,0.019,0.108,0.027,0.126,0.027
		c0.056-0.093,0.089-0.206,0.099-0.337c0.009-0.131-0.061-0.234-0.211-0.31c0.037-0.037,0.07-0.056,0.099-0.056
		c0.028,0,0.051-0.019,0.07-0.057l0.197,0.084l0.056-0.843c-0.019,0-0.07-0.005-0.155-0.015c-0.084-0.009-0.146-0.022-0.183-0.042
		c-0.038,0.188-0.08,0.39-0.126,0.604c-0.047,0.216-0.07,0.427-0.07,0.633c-0.057,0-0.131,0.014-0.225,0.042
		c-0.094,0.028-0.169,0.062-0.225,0.099v0.253c0.038,0.038,0.084,0.084,0.141,0.141c-0.112,0-0.211,0.01-0.295,0.028
		c-0.084,0.019-0.174,0.047-0.267,0.084c-0.019,0.207-0.08,0.356-0.183,0.45s-0.154,0.188-0.154,0.281
		c0,0.075,0.023,0.164,0.07,0.267c0.046,0.104,0.079,0.211,0.098,0.323c-0.019,0.038-0.038,0.07-0.056,0.099
		c-0.019,0.028-0.047,0.062-0.084,0.099c-0.019-0.057-0.038-0.117-0.056-0.183c-0.019-0.065-0.028-0.107-0.028-0.127
		C30.262,16.551,30.046,16.846,29.747,17.192z M30.998,15.393c0.028-0.084,0.052-0.126,0.07-0.126
		c0.057,0.112,0.052,0.225-0.014,0.337c-0.066,0.113-0.174,0.244-0.324,0.394C30.88,15.679,30.97,15.478,30.998,15.393z
		 M32.502,12.666c0.019-0.01,0.169-0.117,0.45-0.323c-0.225-0.019-0.351-0.028-0.379-0.028s-0.089,0.104-0.183,0.31
		C32.446,12.661,32.483,12.676,32.502,12.666z M32.432,13.509c0.009-0.009,0.117-0.079,0.323-0.21
		c-0.168-0.019-0.263-0.023-0.281-0.015c-0.019,0.01-0.047,0.07-0.084,0.183C32.408,13.505,32.422,13.519,32.432,13.509z"/>
	<path d="M51.592,13.383c-0.019,0-0.122-0.047-0.309-0.141c-0.188-0.094-0.413-0.178-0.675-0.253c0-0.094-0.014-0.197-0.042-0.31
		c-0.028-0.112-0.042-0.196-0.042-0.253c0.019-0.057,0.126-0.487,0.324-1.293c0.197-0.806,0.295-1.435,0.295-1.884
		c0-0.169-0.056-0.661-0.168-1.477c-0.113-0.815-0.478-1.223-1.097-1.223c-0.787,0-1.326,0.192-1.617,0.576
		c-0.291,0.385-0.455,0.604-0.492,0.661c-0.112,0.112-0.258,0.234-0.436,0.365C47.155,8.284,47.047,8.35,47.01,8.35
		c-0.019,0-0.131-0.014-0.337-0.042c-0.207-0.028-0.441-0.042-0.703-0.042c-0.168,0-0.389-0.337-0.661-1.012
		c-0.272-0.675-0.417-1.041-0.436-1.097c0-0.244,0.229-0.408,0.689-0.492c0.459-0.085,0.726-0.127,0.801-0.127
		c0.019,0,0.103,0.015,0.253,0.042c0.149,0.028,0.318,0.043,0.506,0.043c0.094,0,0.164,0,0.211,0c0.046,0,0.089-0.01,0.126-0.028
		c0.019-0.019,0.037-0.052,0.056-0.099c0.019-0.047,0.038-0.107,0.056-0.183c0.019-0.019,0.019-0.019,0,0
		c0.244-0.037,0.675-0.079,1.293-0.127c0.619-0.046,0.984-0.07,1.097-0.07c0.262,0,0.473-0.014,0.632-0.042s0.267-0.042,0.324-0.042
		c0.112,0,0.44,0.183,0.984,0.548c0.543,0.366,0.825,0.587,0.843,0.661c0.094,0.188,0.173,0.408,0.239,0.661
		c0.065,0.253,0.183,0.548,0.352,0.886l-0.31,2.305c-0.094,0.095-0.126,0.268-0.098,0.521c0.028,0.253-0.005,0.482-0.099,0.688
		c0,0.02-0.084,0.296-0.253,0.83c-0.169,0.534-0.272,0.896-0.31,1.082c0.019,0,0.009-0.004-0.028-0.014
		c-0.038-0.01-0.104-0.015-0.197-0.015c-0.113,0-0.197,0.015-0.253,0.043c-0.057,0.027-0.104,0.061-0.141,0.098
		C51.63,13.346,51.611,13.364,51.592,13.383z M55.782,15.59c-0.263,1.003-0.413,1.86-0.45,2.572c0.768-0.506,1.41-0.946,1.926-1.321
		s1.139-0.563,1.87-0.563c0.412,0,0.886,0.216,1.42,0.647c0.534,0.431,0.923,1.096,1.167,1.996c0.093,0.318,0.215,0.66,0.365,1.026
		c0.15,0.365,0.225,0.67,0.225,0.913c0,0.356-0.277,0.773-0.83,1.251c-0.553,0.479-0.989,0.718-1.307,0.718
		c-0.638,0-1.401-0.141-2.292-0.422c-0.891-0.281-1.42-0.506-1.588-0.675c0.037-0.02,0.281-0.075,0.731-0.169
		c0.45-0.094,0.768-0.178,0.956-0.253c0.188-0.037,0.314-0.084,0.38-0.141c0.065-0.057,0.145-0.159,0.239-0.31
		c0.225,0,0.431-0.023,0.619-0.07c0.187-0.046,0.45-0.136,0.787-0.267c0.131-0.731-0.084-1.373-0.646-1.926s-1.134-0.83-1.715-0.83
		c-1.406,0-2.109,0.633-2.109,1.898c0,1.265,0,2.188,0,2.77c-0.094,0.149-0.141,0.299-0.141,0.449c0,0.188,0.056,0.436,0.168,0.745
		c0.113,0.31,0.169,0.474,0.169,0.492l0.197,0.141c-0.244,0.188-0.408,0.365-0.492,0.534c-0.084,0.169-0.136,0.253-0.154,0.253
		c-0.019,0-0.141-0.042-0.366-0.126c-0.225-0.085-0.356-0.165-0.394-0.239c-0.244,0-0.403,0.019-0.478,0.056
		c-0.075,0.038-0.131,0.075-0.168,0.113c-0.094-0.038-0.244-0.306-0.45-0.802c-0.207-0.497-0.319-0.764-0.337-0.802
		c0-0.094,0.056-0.473,0.169-1.139c0.112-0.665,0.159-1.231,0.141-1.7c0-0.263,0.042-0.643,0.126-1.139
		c0.084-0.497,0.155-0.933,0.211-1.308c0.112-0.15,0.243-0.3,0.394-0.45c0.056-0.169,0.009-0.305-0.141-0.407
		c-0.15-0.104-0.235-0.155-0.253-0.155c0.018-0.019,0.159-0.141,0.421-0.365s0.516-0.6,0.759-1.125
		c0.019-0.037,0.061-0.112,0.126-0.225c0.065-0.112,0.099-0.178,0.099-0.196c0.037-0.019,0.061-0.033,0.07-0.043
		c0.009-0.009,0.023-0.022,0.042-0.042c0.038-0.019,0.08-0.051,0.126-0.099c0.047-0.046,0.108-0.116,0.183-0.21
		c0.057-0.057,0.412-0.356,1.069-0.9c0.656-0.543,0.984-1.068,0.984-1.574c0-0.037,0.019-0.539,0.056-1.504
		c0.038-0.966,0.019-1.579-0.056-1.842c-0.019-0.075-0.024-0.178-0.014-0.31c0.009-0.131-0.023-0.281-0.098-0.45
		c0-0.056-0.066-0.481-0.197-1.279c-0.131-0.796-0.319-1.194-0.563-1.194c-0.019-0.037-0.089-0.248-0.211-0.633
		c-0.122-0.384-0.173-0.642-0.155-0.773c0.038-0.149,0.108-0.323,0.211-0.52c0.103-0.197,0.229-0.352,0.38-0.464
		c0.149-0.113,0.365-0.229,0.646-0.352s0.431-0.183,0.45-0.183s0.281,0.201,0.788,0.604c0.506,0.403,0.777,0.623,0.815,0.66
		c0.019,0.02,0.065,0.146,0.141,0.38c0.075,0.234,0.113,0.37,0.113,0.407c-0.019,0.075-0.089,0.559-0.211,1.448
		c-0.122,0.891-0.183,1.467-0.183,1.729c0,0.412-0.042,1.171-0.126,2.277c-0.084,1.106,0.014,1.874,0.295,2.306
		c-0.3,0.881-0.708,1.288-1.223,1.223s-0.876-0.079-1.083-0.042C56.578,13.945,56.044,14.587,55.782,15.59z"/>
	<path d="M79.287,20.187c-0.019,0.095-0.089,0.361-0.211,0.802c-0.122,0.44-0.417,0.643-0.886,0.604c-0.094,0-0.15-0.023-0.168-0.07
		c-0.019-0.047-0.047-0.07-0.084-0.07c-0.075,0.056-0.15,0.126-0.225,0.211c-0.075,0.084-0.141,0.173-0.197,0.267
		c-0.281,0.057-0.408,0.08-0.379,0.07c0.028-0.01-0.089-0.023-0.352-0.042c-0.094,0-0.197,0.019-0.309,0.057
		c-0.113,0.037-0.216,0.056-0.31,0.056c-0.094-0.019-0.146-0.042-0.154-0.07c-0.01-0.027-0.033-0.052-0.07-0.07
		c-0.225,0.226-0.511,0.347-0.858,0.366c-0.347,0.019-0.651,0.019-0.914,0c-0.075,0-0.188,0.037-0.337,0.112
		c-0.15,0.074-0.272,0.141-0.366,0.196c-0.131,0-0.281,0.028-0.45,0.085c-0.168,0.056-0.3,0.074-0.394,0.056
		c-0.094-0.019-0.126-0.028-0.099-0.028c0.028,0-0.005-0.009-0.098-0.027c-0.075,0-0.155,0.037-0.239,0.112
		c-0.084,0.074-0.173,0.103-0.267,0.084c-0.094,0-0.154,0-0.183,0c-0.028,0-0.089-0.01-0.183-0.028
		c-0.356-0.037-0.68-0.206-0.97-0.506s-0.455-0.628-0.492-0.983c0.206-0.038,0.403-0.164,0.59-0.38
		c0.187-0.216,0.347-0.398,0.478-0.549c0.093-0.037,0.178-0.065,0.253-0.084c0.075-0.019,0.122-0.084,0.141-0.196
		c0.093-0.038,0.248-0.127,0.464-0.268c0.215-0.141,0.313-0.276,0.295-0.407c0.131-0.019,0.225-0.033,0.281-0.043
		c0.057-0.009,0.15-0.004,0.281,0.015l0.197-0.197c-0.019-0.037-0.066-0.046-0.141-0.028c-0.075,0.02-0.141,0.02-0.197,0
		l0.028-0.141c0.15-0.131,0.286-0.229,0.408-0.295c0.122-0.065,0.183-0.183,0.183-0.352c0.15-0.019,0.309,0,0.478,0.057
		c0.168,0.056,0.206-0.085,0.112-0.422c0.056-0.019,0.229-0.234,0.521-0.646c0.29-0.412,0.436-0.806,0.436-1.181
		c0-0.075-0.024-0.244-0.07-0.507c-0.047-0.262-0.117-0.637-0.211-1.124c-0.019-0.188-0.15-0.291-0.394-0.31
		s-0.394-0.028-0.45-0.028c-0.207-0.037-0.567,0.066-1.083,0.31c-0.516,0.244-0.848,0.365-0.998,0.365
		c-0.075,0.132-0.23,0.258-0.464,0.38c-0.235,0.122-0.417,0.192-0.548,0.211c-0.3,0.094-0.844,0.318-1.631,0.675
		s-1.209,0.524-1.265,0.506c-0.094,0-0.117-0.009-0.07-0.028c0.046-0.019,0.023-0.037-0.07-0.056
		c-0.075-0.019-0.178,0.023-0.309,0.126c-0.131,0.104-0.244,0.174-0.337,0.211c-0.15,0.019-0.281,0.052-0.394,0.099
		c-0.112,0.047-0.215,0.061-0.309,0.042s-0.146-0.028-0.155-0.028s-0.061,0-0.154,0c-0.169-0.037-0.45-0.267-0.844-0.688
		s-0.619-0.698-0.675-0.829l0.169-1.35l0.197-0.141c0.075,0.019,0.271,0.15,0.59,0.394c0.318,0.243,0.572,0.384,0.759,0.422
		c0.093,0,0.173,0.005,0.239,0.014c0.065,0.01,0.155,0.023,0.267,0.042c0.094,0,0.633-0.112,1.617-0.337
		c0.984-0.226,1.514-0.338,1.589-0.338c0.093,0.02,0.14,0.038,0.14,0.057s0.038,0.037,0.113,0.056c0.056,0,0.107-0.009,0.154-0.027
		s0.108-0.113,0.183-0.281c0.093-0.038,0.229-0.061,0.408-0.07c0.178-0.01,0.323-0.023,0.436-0.042
		c0.169-0.057,0.577-0.249,1.223-0.577c0.646-0.327,1.036-0.52,1.167-0.576c0.093-0.037,0.225-0.206,0.394-0.506
		c0.168-0.3,0.412-0.431,0.731-0.394c0.768,0.075,1.434,0.117,1.996,0.126c0.563,0.01,0.581,0.512,0.056,1.505
		c0.075,0.206,0.117,0.646,0.126,1.321s-0.004,1.134-0.042,1.378c-0.019,0.075-0.047,0.192-0.084,0.351
		c-0.038,0.16-0.103,0.286-0.197,0.38c-0.112,0.112-0.225,0.253-0.337,0.422c-0.112,0.169-0.244,0.319-0.394,0.45
		c-0.038,0.037-0.122,0.08-0.253,0.126c-0.131,0.047-0.235,0.07-0.309,0.07c-0.075-0.019-0.113-0.014-0.113,0.015
		c0,0.027-0.047,0.042-0.141,0.042c-0.056-0.019-0.108,0-0.154,0.056c-0.047,0.057-0.089,0.113-0.127,0.169
		c-0.038-0.037-0.065-0.07-0.084-0.099c-0.019-0.027-0.075-0.051-0.169-0.07c-0.131-0.019-0.281,0.09-0.45,0.323
		c-0.169,0.235-0.263,0.352-0.281,0.352c-0.131-0.019-0.216-0.037-0.253-0.056c-0.038-0.019-0.188,0.047-0.45,0.196
		c0,0.02,0,0.042,0,0.07s0.018,0.062,0.056,0.099c0.037-0.019,0.08-0.057,0.126-0.112c0.046-0.057,0.107-0.094,0.183-0.112
		l-0.028,0.309c-0.075,0.02-0.131,0.028-0.169,0.028s-0.103,0.02-0.197,0.057c0.037,0.019,0.07,0.052,0.099,0.099
		c0.028,0.047,0.098,0.089,0.21,0.126c-0.131,0.132-0.263,0.244-0.394,0.338c-0.131,0.094-0.159,0.141-0.084,0.141
		c0.019,0.168-0.089,0.309-0.323,0.421c-0.234,0.113-0.351,0.244-0.351,0.394c0.037,0.02,0.056,0.075,0.056,0.169
		s0.037,0.15,0.112,0.169c0.206,0.019,1.036-0.094,2.488-0.338c1.452-0.243,2.46-0.431,3.022-0.562
		c0.262-0.057,0.454-0.117,0.576-0.183s0.314-0.089,0.577-0.07L79.287,20.187z M74.211,9.32c-0.421-0.234-0.736-0.361-0.942-0.38
		c-0.469-0.019-0.815,0.192-1.04,0.633c-0.225,0.44-0.366,0.904-0.422,1.392c-0.019,0-0.15,0.047-0.394,0.141
		c-0.244,0.094-0.384,0.225-0.422,0.394c-0.019,0.225-0.019,0.422,0,0.591c-0.038,0.037-0.075,0.023-0.112-0.043
		c-0.038-0.065-0.131-0.116-0.281-0.154l-0.141,0.141h-0.365c-0.131,0-0.314,0.01-0.548,0.028c-0.235,0.019-0.427,0.028-0.577,0.028
		c0-0.019-0.042-0.089-0.126-0.211s-0.136-0.192-0.154-0.211c0-0.656,0.539-1.589,1.616-2.798s1.617-2.188,1.617-2.938V5.707
		c0.019-0.112,0.028-0.225,0.028-0.337h-0.45c-0.244,0-0.591,0.196-1.041,0.59s-1.068,0.591-1.855,0.591
		c-0.619,0-1.055-0.361-1.308-1.083c-0.253-0.721-0.379-1.119-0.379-1.194c0-0.057,0.009-0.146,0.028-0.268
		C66.962,3.885,66.981,3.823,67,3.823c0.168,0.094,0.36,0.211,0.576,0.352c0.215,0.141,0.417,0.211,0.604,0.211h0.59
		c0.206,0,0.844-0.122,1.912-0.365c1.068-0.244,1.612-0.366,1.631-0.366c0.656,0,1.105,0.291,1.349,0.872s0.366,1.031,0.366,1.35
		c0,0.243-0.061,0.52-0.183,0.829c-0.122,0.31-0.249,0.708-0.38,1.195c0.375,0.112,0.769,0.141,1.181,0.084
		C75.06,7.929,75.359,7.9,75.547,7.9c0.019,0.019,0.159,0.08,0.422,0.183c0.262,0.104,0.478,0.154,0.647,0.154
		c0.206,0,0.281-0.019,0.225-0.056c0.056,0,0.183,0.098,0.38,0.295c0.197,0.196,0.407,0.361,0.632,0.492
		c-0.056,0.094-0.136,0.221-0.239,0.379c-0.104,0.16-0.174,0.259-0.211,0.296c-0.188,0.019-0.371,0.061-0.548,0.126
		c-0.178,0.066-0.277,0.099-0.295,0.099s-0.215-0.032-0.59-0.099c-0.375-0.065-0.675-0.098-0.899-0.098
		C74.919,9.672,74.633,9.555,74.211,9.32z M73.846,19.02c0.103-0.121,0.201-0.22,0.295-0.295c-0.019,0.075-0.07,0.234-0.154,0.479
		c-0.084,0.243-0.211,0.3-0.38,0.168C73.663,19.259,73.743,19.143,73.846,19.02z M74.549,18.43c0.103-0.047,0.164-0.032,0.183,0.042
		c-0.15,0.132-0.272,0.188-0.366,0.169C74.385,18.547,74.446,18.477,74.549,18.43z"/>
	<path d="M94.188,17.038c-0.038,0.225-0.028,0.337,0.028,0.337c-0.038,0.132-0.16,0.408-0.366,0.83
		c-0.206,0.421-0.328,0.66-0.365,0.717c-0.019-0.038-0.066,0.056-0.141,0.281c-0.075,0.225-0.131,0.3-0.168,0.225
		c0,0.094-0.01,0.159-0.028,0.196c-0.019,0.038-0.019,0.057,0,0.057c0.019,0.019,0.046,0.042,0.084,0.07
		c0.037,0.028,0.075,0.052,0.112,0.07l3.711-1.49c0.019,0,0.032,0.005,0.042,0.015c0.009,0.009,0.023,0.014,0.042,0.014
		c0.037,0,0.084-0.028,0.14-0.084c0.057-0.057,0.094-0.094,0.113-0.113c0.019,0,0.032,0.015,0.042,0.043
		c0.009,0.027,0.023,0.061,0.042,0.098c0.019-0.074,0.061-0.107,0.127-0.098c0.065,0.009,0.136-0.005,0.21-0.043
		c0.038,0.038,0.061,0.085,0.07,0.141c0.009,0.057,0.014,0.095,0.014,0.112c0.075-0.056,0.131-0.084,0.169-0.084
		c0.018,0.132,0.107,0.216,0.267,0.253c0.159,0.038,0.267,0.132,0.323,0.281l-0.056,0.085v0.14c0.168,0.038,0.286,0.08,0.352,0.127
		c0.065,0.047,0.079,0.154,0.042,0.323c0,0.019,0,0.038,0,0.057s0.019,0.027,0.056,0.027s0.07-0.014,0.099-0.042
		c0.028-0.027,0.07,0.005,0.126,0.099c-0.094,0.132-0.146,0.253-0.155,0.365c-0.01,0.113-0.033,0.253-0.07,0.422
		c-0.019,0-0.056,0-0.112,0s-0.113,0.01-0.169,0.028c0-0.019,0.004-0.032,0.014-0.042c0.009-0.01,0.004-0.015-0.014-0.015
		c-0.038,0-0.066,0.015-0.084,0.043c-0.019,0.027-0.038,0.061-0.056,0.098c-0.15-0.019-0.253-0.019-0.309,0
		c-0.056,0.02-0.16,0.075-0.309,0.169l-0.028-0.028c-0.038,0-0.066,0.024-0.084,0.07c-0.019,0.047-0.038,0.09-0.056,0.127
		c-0.094-0.019-0.164-0.019-0.211,0s-0.08,0.028-0.098,0.028c-0.019-0.057-0.028-0.113-0.028-0.169
		c-0.019,0.056-0.168,0.159-0.45,0.31c-0.281,0.149-0.432,0.243-0.45,0.281c-0.019-0.019-0.038-0.038-0.056-0.057
		s-0.028-0.037-0.028-0.057c-0.019,0-0.038,0.005-0.056,0.015c-0.019,0.01-0.028,0.032-0.028,0.07c-0.019,0-0.033-0.015-0.042-0.042
		c-0.01-0.028-0.033-0.043-0.07-0.043l-2.418,0.787c-0.038,0.019-0.075,0.052-0.113,0.099s-0.075,0.061-0.112,0.042
		c-0.019,0-0.042-0.014-0.07-0.042s-0.061-0.042-0.099-0.042c-0.019,0-0.056,0.023-0.112,0.07s-0.103,0.07-0.141,0.07
		c-0.019,0-0.033-0.01-0.042-0.028c-0.01-0.019-0.033-0.037-0.07-0.056c-0.019,0-0.066,0.014-0.141,0.042
		c-0.075,0.028-0.131,0.042-0.168,0.042c-0.244-0.019-0.492-0.038-0.745-0.057c-0.253-0.019-0.511-0.037-0.773-0.056
		c-0.019-0.019-0.075-0.127-0.168-0.323c-0.094-0.197-0.188-0.38-0.281-0.549c-0.019-0.056-0.084-0.276-0.197-0.66
		c-0.113-0.384-0.169-0.586-0.169-0.604c0.019-0.3,0.122-0.586,0.31-0.857c0.187-0.271,0.262-0.455,0.225-0.549
		c0.094-0.094,0.211-0.271,0.352-0.534c0.141-0.262,0.276-0.431,0.408-0.506c0.15-0.075,0.37-0.412,0.661-1.013
		c0.291-0.6,0.445-0.899,0.464-0.899c0.038,0,0.229-0.29,0.577-0.871c0.347-0.581,0.529-0.956,0.548-1.125
		c0.018-0.206-0.16-0.243-0.535-0.112s-0.581,0.196-0.618,0.196c-0.019,0-0.028-0.018-0.028-0.056c0-0.037-0.01-0.057-0.028-0.057
		c-0.038,0.02-0.066,0.062-0.084,0.127c-0.019,0.065-0.056,0.089-0.113,0.07c-0.131,0.075-0.271,0.183-0.421,0.323
		c-0.15,0.141-0.244,0.229-0.281,0.267c0.019-0.093,0.028-0.173,0.028-0.238s-0.028-0.099-0.084-0.099s-0.104,0.033-0.141,0.099
		c-0.038,0.065-0.056,0.126-0.056,0.183c-0.019,0-0.047,0.005-0.084,0.014c-0.038,0.01-0.075,0.023-0.112,0.042
		c0,0.075,0.042,0.099,0.126,0.07c0.084-0.027,0.136-0.022,0.154,0.015c0,0.075-0.07,0.136-0.21,0.183
		c-0.141,0.047-0.211,0.117-0.211,0.211c0-0.019-0.01-0.052-0.028-0.099c-0.019-0.047-0.028-0.079-0.028-0.099
		c0.018,0,0.018-0.065,0-0.196c-0.075,0-0.131,0.037-0.169,0.112s-0.047,0.15-0.028,0.225c-0.056,0.057-0.164,0.062-0.323,0.015
		s-0.258-0.005-0.295,0.126c0.018,0.02,0.103,0.024,0.253,0.015c0.15-0.01,0.234-0.015,0.253-0.015
		c-0.038,0.038-0.141,0.112-0.309,0.226c-0.169,0.112-0.281,0.168-0.337,0.168l-0.084-0.028c-0.019,0.02-0.028,0.048-0.028,0.085
		c0,0.038,0,0.065,0,0.084c-0.019,0-0.047,0.005-0.084,0.015c-0.038,0.01-0.075,0.014-0.113,0.014v-0.141
		c0.038-0.037,0.089-0.07,0.155-0.099c0.065-0.027,0.136-0.051,0.211-0.07v-0.084c-0.075-0.112-0.122-0.149-0.141-0.112
		c-0.019,0.037-0.047,0.075-0.084,0.112c-0.019,0-0.042-0.005-0.07-0.014c-0.028-0.01-0.061-0.015-0.098-0.015
		c0-0.037,0.004-0.079,0.014-0.126c0.009-0.047,0.004-0.108-0.014-0.184c-0.131-0.037-0.179,0.024-0.141,0.184
		c0.037,0.159,0,0.229-0.112,0.211c-0.019,0.056-0.019,0.112,0,0.168c0.018,0.057,0.046,0.095,0.084,0.112h0.084v0.113
		c-0.038,0.056-0.084,0.098-0.141,0.126s-0.112,0.07-0.168,0.127c0.018-0.038,0.032-0.159,0.042-0.366
		c0.009-0.206-0.07-0.309-0.239-0.309c-0.075-0.019-0.131,0.056-0.169,0.225s-0.103,0.272-0.197,0.31l0.028,0.112l0.337,0.084
		c-0.019,0.169-0.3,0.328-0.844,0.479c-0.544,0.15-0.815,0.328-0.815,0.534c-0.112,0.037-0.202,0.037-0.267,0
		c-0.066-0.037-0.164,0.047-0.295,0.253c-0.019,0-0.033,0-0.042,0c-0.01,0-0.023-0.01-0.042-0.028
		c-0.019,0.019-0.033,0.042-0.042,0.07c-0.01,0.028-0.024,0.052-0.042,0.07c-0.019-0.019-0.038-0.047-0.056-0.084
		c-0.019-0.038-0.047-0.057-0.084-0.057c-0.019,0-0.033,0.005-0.042,0.014c-0.01,0.01-0.024,0.015-0.042,0.015
		c-0.038-0.019-0.065-0.032-0.084-0.042c-0.019-0.01-0.047-0.015-0.084-0.015c-0.075,0-0.112,0.033-0.112,0.099
		c0,0.066,0,0.127,0,0.183c-0.019,0-0.042,0.005-0.07,0.015c-0.028,0.01-0.061,0.014-0.099,0.014c-0.019,0-0.023-0.023-0.014-0.07
		s0.004-0.07-0.014-0.07c-0.094-0.019-0.155,0.047-0.183,0.197c-0.028,0.149-0.098,0.215-0.211,0.196
		c-0.019,0-0.042-0.028-0.07-0.084c-0.028-0.057-0.061-0.085-0.098-0.085c-0.019,0-0.141,0.005-0.366,0.015
		c-0.225,0.01-0.356,0.014-0.394,0.014c-0.094-0.019-0.178-0.074-0.253-0.169c-0.075-0.093-0.178-0.112-0.309-0.056
		c-0.038-0.15-0.084-0.248-0.141-0.295s-0.131-0.07-0.225-0.07c-0.019-0.432-0.131-0.638-0.337-0.619
		c-0.207,0.02-0.403-0.103-0.59-0.365c0.094-0.169,0.136-0.352,0.126-0.549c-0.01-0.196,0.08-0.407,0.267-0.632
		c-0.019-0.019-0.038-0.047-0.056-0.085c-0.019-0.037-0.038-0.065-0.056-0.084c0.075-0.094,0.192-0.183,0.351-0.268
		c0.159-0.084,0.249-0.126,0.267-0.126c0.038,0,0.052,0.005,0.042,0.014c-0.01,0.01,0.004,0.015,0.042,0.015
		c0.019,0,0.056-0.047,0.113-0.141c0.056-0.094,0.112-0.131,0.168-0.112c0.038,0,0.056,0.009,0.056,0.027
		c0,0.02,0.019,0.028,0.056,0.028c0.15,0,0.201-0.074,0.155-0.225c-0.047-0.15-0.005-0.226,0.126-0.226
		c0.038,0,0.089,0.053,0.155,0.155c0.065,0.104,0.117,0.154,0.155,0.154h0.197c0.056,0,0.122-0.047,0.197-0.141
		c0.075-0.094,0.141-0.159,0.197-0.196h0.084c-0.019,0.019-0.08,0.094-0.183,0.225c-0.103,0.132-0.164,0.281-0.183,0.45
		c0,0.056,0.004,0.122,0.014,0.196c0.009,0.075,0.051,0.122,0.126,0.141c0.037,0,0.065-0.004,0.084-0.014
		c0.018-0.01,0.056-0.015,0.112-0.015c0.206,0.02,0.379,0.033,0.52,0.043c0.141,0.009,0.305,0.014,0.492,0.014
		c0.037,0,0.061,0.005,0.07,0.014c0.009,0.01,0.023,0.033,0.042,0.07c0.038,0,0.061-0.023,0.07-0.07
		c0.009-0.046,0.023-0.089,0.042-0.126c0.093,0,0.136,0.01,0.126,0.028c-0.01,0.019-0.014-0.01-0.014-0.085
		c0.131,0,0.229,0.028,0.295,0.085c0.066,0.056,0.127-0.01,0.183-0.197c0.037,0.057,0.056,0.094,0.056,0.112
		c0.037,0,0.056-0.023,0.056-0.07c0-0.046,0.009-0.079,0.028-0.099h0.084c0,0.02,0.07,0.057,0.211,0.113
		c0.141,0.056,0.229,0.103,0.267,0.141c0-0.019,0.009-0.065,0.028-0.141c0.019-0.075,0.065-0.122,0.141-0.141
		c0.056-0.038,0.107-0.047,0.154-0.028s0.08,0.028,0.099,0.028c0,0.019,0,0.042,0,0.07c0,0.027,0.009,0.042,0.028,0.042
		c0.037-0.019,0.075-0.042,0.112-0.07c0.037-0.028,0.094-0.08,0.168-0.155c0.038,0.075,0.103,0.095,0.197,0.057
		c0.094-0.037,0.178-0.057,0.253-0.057c0.037,0,0.065,0.01,0.084,0.028c0.019,0,0.023-0.009,0.014-0.028
		c-0.01-0.018-0.014-0.037-0.014-0.056c0.225-0.037,0.511-0.131,0.858-0.281c0.347-0.149,0.501-0.197,0.464-0.141
		c0.037,0.019,0.056,0.038,0.056,0.057s0.009,0.027,0.028,0.027c0.018-0.037,0.032-0.084,0.042-0.141
		c0.009-0.056,0.042-0.074,0.098-0.056c0.038,0,0.108-0.032,0.211-0.099c0.103-0.065,0.164-0.145,0.183-0.239
		c0.018,0.02,0.032,0.057,0.042,0.113c0.009,0.056,0.014,0.094,0.014,0.112c0.093-0.075,0.154-0.107,0.183-0.099
		c0.028,0.01,0.051-0.07,0.07-0.239c0.094,0.094,0.187,0.112,0.281,0.057c0.093-0.057,0.178-0.094,0.253-0.112l0.028,0.225
		c-0.019-0.037-0.047-0.057-0.084-0.057c0,0.02-0.005,0.043-0.014,0.07c-0.01,0.028-0.023,0.07-0.042,0.127
		c0,0.038,0.028,0.08,0.084,0.126c0.057,0.048,0.094,0.08,0.113,0.099c0-0.074,0.032-0.136,0.098-0.183
		c0.065-0.047,0.108-0.042,0.126,0.015c0.15-0.132,0.286-0.263,0.408-0.395c0.122-0.131,0.267-0.178,0.436-0.141l0.028-0.056
		l0.113-0.084c0-0.113,0-0.174,0-0.184c0-0.009-0.01-0.022-0.028-0.042h-0.197c-0.019-0.094,0.009-0.159,0.084-0.196
		c0.075-0.038,0.141-0.057,0.197-0.057c0.019,0,0.141-0.061,0.366-0.183c0.225-0.122,0.384-0.22,0.478-0.295
		c0.057-0.057,0.103-0.085,0.141-0.085s0.075-0.009,0.113-0.028c0.056-0.056,0.088-0.112,0.098-0.168
		c0.009-0.057,0.051-0.104,0.126-0.141c0.038-0.037,0.075-0.103,0.113-0.197c0.037-0.094,0.093-0.159,0.168-0.196
		c0.094-0.038,0.197-0.075,0.31-0.112c0.037,0,0.093,0.014,0.168,0.042c0.075,0.028,0.122,0.042,0.141,0.042
		c0.037,0,0.051-0.005,0.042-0.014c-0.01-0.01,0.014-0.015,0.07-0.015c0.094,0.019,0.295,0.164,0.604,0.436
		c0.31,0.272,0.501,0.492,0.577,0.661c0.037,0.057,0.051,0.127,0.042,0.211c-0.01,0.084-0.014,0.174-0.014,0.267
		c0.038,0.075,0.099,0.16,0.183,0.254c0.084,0.094,0.145,0.188,0.183,0.28c-0.113,0.113-0.178,0.249-0.197,0.408
		c-0.019,0.159-0.084,0.229-0.197,0.211h-0.056c-0.019,0-0.094,0.042-0.225,0.126c-0.131,0.085-0.216,0.127-0.253,0.127
		c-0.019,0-0.024-0.009-0.014-0.028c0.009-0.019-0.005-0.028-0.042-0.028c-0.281-0.019-0.482,0.099-0.604,0.352
		s-0.305,0.483-0.548,0.689c0,0.019,0.009,0.042,0.028,0.07c0.019,0.027,0.038,0.061,0.056,0.098l-0.084,0.085
		c-0.019,0-0.033-0.01-0.042-0.028c-0.01-0.019-0.033-0.037-0.07-0.057c-0.019,0.02-0.023,0.038-0.014,0.057
		s0.014,0.047,0.014,0.084c-0.019,0.15-0.089,0.268-0.211,0.352c-0.122,0.085-0.21,0.127-0.267,0.127
		c-0.019,0.225-0.061,0.436-0.126,0.633c-0.066,0.196-0.136,0.389-0.211,0.576h-0.197c0.038-0.094,0.042-0.159,0.014-0.197
		c-0.028-0.037-0.052-0.046-0.07-0.028C94.253,16.691,94.226,16.813,94.188,17.038z M92.304,10.923
		c-0.15,0.01-0.234,0.014-0.253,0.014c0.038-0.149,0.019-0.337-0.056-0.563c0.038-0.094,0.122-0.196,0.253-0.309
		c0.131-0.113,0.225-0.234,0.281-0.366c0.15-0.374,0.234-0.754,0.253-1.139c0.019-0.384,0.028-0.613,0.028-0.688
		c0-0.019,0-0.141,0-0.365c0-0.226-0.112-0.432-0.337-0.619c-0.188,0.075-0.483,0.108-0.886,0.099
		c-0.403-0.009-0.632-0.014-0.689-0.014c-0.843,0-1.64-0.244-2.39-0.731c-0.75-0.487-1.125-0.824-1.125-1.012
		c0-0.057-0.005-0.104-0.014-0.141c-0.01-0.038-0.024-0.065-0.042-0.085c-0.038-0.019-0.084-0.028-0.141-0.028
		c0-0.149,0.056-0.267,0.168-0.351c0.112-0.085,0.225-0.127,0.337-0.127c0.206,0.094,0.394,0.159,0.563,0.197
		c0.281,0.019,0.712-0.065,1.293-0.254c0.581-0.187,0.928-0.28,1.041-0.28c0.281,0,0.75-0.005,1.406-0.015
		c0.656-0.009,1.049,0.005,1.181,0.042c0.712,0.132,1.223,0.479,1.532,1.041c0.309,0.562,0.464,1.068,0.464,1.518
		c0,0.207,0.014,0.455,0.042,0.745c0.028,0.291-0.136,0.689-0.492,1.195c-0.075,0.131-0.407,0.502-0.998,1.11
		c-0.59,0.609-0.97,0.961-1.139,1.055C92.548,10.89,92.454,10.913,92.304,10.923z M89.605,14.563l0.028,0.169
		c0.019,0,0.075-0.037,0.169-0.112c0.093-0.075,0.15-0.141,0.168-0.197L89.605,14.563z M91.742,13.692
		c0,0.019,0.014,0.042,0.042,0.07c0.028,0.027,0.042,0.061,0.042,0.098c0-0.037,0.023-0.079,0.07-0.126
		c0.046-0.047,0.079-0.08,0.098-0.099L91.742,13.692z M93.218,12.567c0.046-0.019,0.08-0.028,0.098-0.028
		c-0.019,0.132-0.084,0.234-0.197,0.31c-0.112,0.075-0.207,0.112-0.281,0.112c-0.019,0-0.033-0.009-0.042-0.028
		c-0.01-0.019-0.023-0.037-0.042-0.056c-0.038,0.019-0.052,0.056-0.042,0.112c0.009,0.056,0.014,0.104,0.014,0.141
		c-0.038,0.019-0.089,0.019-0.155,0c-0.065-0.019-0.117-0.028-0.154-0.028c-0.019-0.057-0.028-0.094-0.028-0.112
		c0.075-0.094,0.15-0.169,0.225-0.225c0.075-0.057,0.122-0.085,0.141-0.085c0.037,0,0.056,0.01,0.056,0.028s0.019,0.028,0.056,0.028
		c0.019,0,0.061-0.023,0.126-0.07c0.065-0.047,0.099-0.08,0.099-0.099C93.129,12.586,93.171,12.586,93.218,12.567z M92.642,14.001
		c0.113-0.131,0.178-0.206,0.197-0.225c0.018,0.019,0.028,0.047,0.028,0.084c0,0.038,0,0.066,0,0.085L92.642,14.001z M94.048,12.469
		c0.131-0.028,0.187-0.089,0.168-0.183c-0.019,0-0.075,0.005-0.168,0.014c-0.094,0.01-0.188,0.07-0.281,0.184
		C93.823,12.502,93.917,12.497,94.048,12.469z M97.562,18.021c0.056,0,0.131,0,0.225,0c-0.075,0.113-0.141,0.16-0.197,0.141
		c-0.056-0.019-0.104-0.027-0.141-0.027C97.468,18.06,97.506,18.021,97.562,18.021z"/>
	<path d="M117.791,24.137c-0.028-0.027-0.07-0.052-0.126-0.07c-0.488,0-0.83-0.126-1.026-0.379s-0.295-0.539-0.295-0.857
		c0-0.263,0.159-0.765,0.478-1.505c0.318-0.74,0.524-1.194,0.619-1.363c0.168-0.318,0.614-0.956,1.335-1.912
		c0.721-0.956,1.12-1.611,1.195-1.968c0.15-0.6,0.188-1.026,0.113-1.279c-0.075-0.253-0.272-0.492-0.591-0.717
		c-0.075,0.019-0.249,0.056-0.52,0.112c-0.272,0.056-0.492,0.122-0.661,0.196c-0.094-0.149-0.263-0.262-0.506-0.337
		c-0.168,0.094-0.244,0.225-0.225,0.394c-0.356,0.038-0.815,0.154-1.378,0.352c-0.562,0.196-0.938,0.427-1.125,0.688l-1.377,0.76
		c-0.075-0.019-0.141-0.028-0.197-0.028c-0.225,0-0.506,0.099-0.843,0.295c-0.337,0.197-0.815,0.295-1.434,0.295
		c-0.038,0-0.337-0.116-0.899-0.351c-0.563-0.234-0.844-0.417-0.844-0.549V15.21c0.113-0.037,0.244-0.126,0.394-0.267
		s0.234-0.239,0.253-0.295c0.412,0.019,0.759,0.027,1.04,0.027s0.478,0,0.59,0c0.244,0,0.422-0.065,0.534-0.196h0.028
		c0.019,0,0.028,0.01,0.028,0.028c0.018,0.019,0.046,0.027,0.084,0.027s0.094,0,0.169,0c0.394,0,0.707-0.004,0.942-0.014
		c0.234-0.009,0.566-0.127,0.998-0.352c0.075,0.057,0.164,0.047,0.267-0.028c0.103-0.074,0.164-0.121,0.183-0.141
		c0.094-0.037,0.759-0.253,1.997-0.646c1.237-0.394,1.977-0.769,2.221-1.124l0.225,0.084c0.262,0,0.459-0.061,0.59-0.183
		s0.3-0.229,0.506-0.323c0.131,0.019,0.299,0.047,0.506,0.084c0.337,0.244,0.614,0.38,0.83,0.407
		c0.215,0.028,0.379,0.09,0.492,0.184c0.037,0.037,0.088,0.126,0.154,0.267c0.065,0.141,0.099,0.314,0.099,0.521
		c-0.263,0.524-0.342,0.998-0.239,1.42s0.164,0.651,0.183,0.688c0,0.15-0.108,0.295-0.323,0.436
		c-0.216,0.141-0.333,0.221-0.352,0.239c-0.3,0.112-0.534,0.239-0.703,0.38c-0.168,0.141-0.3,0.258-0.394,0.352
		c-0.431,0.337-0.896,1.101-1.392,2.291c-0.497,1.19-0.783,2.029-0.857,2.517c0,0.131,0.117,0.243,0.351,0.337
		s0.445,0.141,0.633,0.141c0.206,0,0.45-0.047,0.731-0.141s0.515-0.206,0.703-0.337l0.618-0.31c0.15-0.094,0.305-0.243,0.464-0.45
		c0.159-0.205,0.239-0.384,0.239-0.534c0-0.187-0.258-0.52-0.773-0.998c-0.516-0.478-0.811-0.735-0.885-0.772
		c-0.038-0.094-0.047-0.141-0.028-0.141c0.038,0,0.056-0.015,0.056-0.042c0-0.028,0-0.108,0-0.239c0.225,0,0.431-0.047,0.619-0.141
		c0-0.057,0-0.089,0-0.099c0-0.009-0.019-0.014-0.056-0.014c-0.038,0-0.047-0.028-0.028-0.085c0.375-0.037,0.937,0.296,1.687,0.998
		c0.75,0.703,1.125,1.187,1.125,1.448c0,0.319-0.019,0.567-0.056,0.745c-0.038,0.179-0.075,0.286-0.112,0.323
		c-0.131,0.132-0.258,0.277-0.379,0.436c-0.123,0.159-0.295,0.492-0.521,0.998c-0.263,0.132-0.792,0.352-1.588,0.661
		c-0.797,0.31-1.223,0.482-1.279,0.521c-0.225-0.095-0.394-0.179-0.506-0.253c-0.131,0.187-0.432,0.332-0.9,0.436
		c-0.469,0.103-0.722,0.154-0.759,0.154h-0.028C117.842,24.197,117.819,24.165,117.791,24.137z M121.292,2.839
		c0.112,0.132,0.168,0.235,0.168,0.31c0,0.075-0.028,0.244-0.084,0.506c-0.056,0.263-0.112,0.413-0.168,0.45
		c-0.432,0.244-0.834,0.38-1.209,0.407c-0.375,0.028-0.778,0.127-1.209,0.296c-0.469,0.15-1.279,0.347-2.432,0.59
		c-1.153,0.244-1.776,0.376-1.87,0.394c-0.319,0-0.694-0.145-1.125-0.436c-0.432-0.29-0.685-0.501-0.759-0.633
		c0.375-0.187,1.246-0.417,2.615-0.688c1.368-0.271,2.324-0.482,2.868-0.633c0.188-0.037,0.31-0.121,0.366-0.253
		c0.394-0.057,0.843-0.159,1.35-0.31c0.506-0.149,0.937-0.225,1.293-0.225C121.113,2.633,121.179,2.708,121.292,2.839z
		 M119.604,5.342c0.018,0,0.061,0.01,0.126,0.028c0.065,0.019,0.173,0.027,0.323,0.027c0.131,0,0.22-0.014,0.267-0.042
		c0.046-0.028,0.08-0.061,0.099-0.099c0.018,0,0.183,0.141,0.492,0.422c0.31,0.281,0.473,0.432,0.492,0.45
		c0.037,0.019,0.051,0.094,0.042,0.225c-0.01,0.132,0.08,0.356,0.267,0.675c-0.056,0.169-0.136,0.385-0.239,0.646
		c-0.104,0.263-0.211,0.469-0.323,0.619c0.112,0.094,0.257,0.263,0.436,0.506c0.178,0.244,0.333,0.403,0.464,0.478l-0.141,0.395
		c-0.131,0.094-0.239,0.188-0.323,0.28c-0.084,0.095-0.136,0.179-0.155,0.254c-0.112,0.037-0.286,0.014-0.52-0.07
		c-0.234-0.085-0.539-0.052-0.914,0.098c-0.375,0.132-1.265,0.38-2.671,0.745c-1.406,0.366-2.156,0.567-2.25,0.604
		c-0.394,0-0.727-0.243-0.998-0.73c-0.272-0.487-0.436-0.787-0.492-0.9c0.019,0,0.178-0.027,0.478-0.084s0.628-0.122,0.984-0.196
		c0.337-0.075,0.642-0.141,0.914-0.197c0.271-0.057,0.417-0.084,0.436-0.084s0.07,0.014,0.155,0.042s0.164,0.089,0.239,0.183
		c0.131-0.094,0.22-0.164,0.267-0.211c0.046-0.047,0.07-0.079,0.07-0.099h-0.057V9.138c0.094-0.019,0.206-0.047,0.337-0.085
		c0.131-0.037,0.188-0.149,0.169-0.337c0.037,0,0.15,0.01,0.337,0.027c0.187,0.02,0.328,0.028,0.422,0.028
		c0.187,0,0.323-0.046,0.407-0.141c0.084-0.094,0.136-0.187,0.155-0.281c0.038-0.093,0.047-0.253,0.028-0.478
		c0.037-0.057,0.145-0.117,0.323-0.183c0.178-0.065,0.342-0.201,0.492-0.408l-0.253-0.253c0.075-0.169,0.131-0.375,0.169-0.618
		c0.037-0.243,0.056-0.534,0.056-0.872c-0.094-0.056-0.164-0.098-0.211-0.126s-0.089-0.052-0.126-0.07H119.604z M117.355,7.45
		c-0.019,0.075-0.014,0.146,0.014,0.211s0.107,0.154,0.239,0.268c-0.019,0.019-0.197,0.103-0.534,0.253
		c-0.337,0.149-0.506,0.253-0.506,0.309c-0.075,0-0.197,0.02-0.366,0.057c-0.337,0-0.727-0.243-1.167-0.731
		c-0.441-0.487-0.652-0.815-0.633-0.983V6.551l0.984-0.028c0.15,0,0.459,0.141,0.928,0.422c0.468,0.281,0.777,0.469,0.928,0.563
		l0.112-0.085V7.45z"/>
	<path d="M138.555,8.505c-0.038-0.01-0.075-0.023-0.112-0.042c-0.019-0.019-0.033-0.033-0.042-0.043
		c-0.009-0.009-0.023-0.014-0.042-0.014V8.378h-0.028c-0.038-0.037-0.094-0.065-0.168-0.084c-0.075-0.019-0.16-0.037-0.253-0.057
		c-0.469-0.037-1.167-0.009-2.095,0.085s-1.542,0.469-1.842,1.124c-0.075,0.075-0.126,0.146-0.154,0.211
		c-0.028,0.066-0.033,0.117-0.014,0.154c0.019,0.038,0.075,0.123,0.168,0.254c-0.188,0.188-0.286,0.355-0.295,0.506
		c-0.01,0.15-0.014,0.234-0.014,0.253c-0.15,0.169-0.281,0.319-0.394,0.45l0.028,0.056c0.019,0.02,0.014,0.02-0.014,0
		c-0.028-0.019-0.127-0.028-0.295-0.028c-0.169,0-0.263,0.015-0.281,0.043c-0.019,0.027-0.047,0.061-0.084,0.098l-0.084-0.225
		c0,0.057-0.075,0.094-0.225,0.112c-0.15,0.02-0.272,0.038-0.366,0.057c-0.019-0.15-0.07-0.384-0.154-0.703
		c-0.084-0.318-0.126-0.496-0.126-0.534c0.037-0.487,0.365-1.204,0.984-2.151c0.619-0.946,1.021-1.419,1.209-1.419
		c0.225-0.487,0.492-1.106,0.801-1.856c0.309-0.749,0.585-1.377,0.83-1.884c0.187,0.095,0.431,0.38,0.731,0.857
		c0.299,0.479,0.431,0.934,0.394,1.364c0,0.038-0.066,0.188-0.197,0.45c-0.131,0.263-0.244,0.487-0.337,0.674
		c0.225,0.132,0.422,0.207,0.59,0.226c0.169,0.019,0.262,0.028,0.281,0.028c0.112,0,0.553,0.019,1.321,0.056
		c0.769,0.038,1.2,0.066,1.293,0.085c0.206,0.019,0.52,0.098,0.942,0.238s0.623,0.343,0.604,0.604
		c-0.112,0.15-0.197,0.272-0.253,0.366c-0.038,0.074-0.08,0.145-0.126,0.21c-0.047,0.066-0.08,0.118-0.099,0.155
		c0.038-0.037,0.075-0.057,0.112-0.057c-0.394,0.469-0.628,0.76-0.703,0.872c-0.075,0.112-0.16,0.281-0.253,0.506
		c-0.075,0.188-0.113,0.319-0.113,0.394c0,0.075-0.009,0.15-0.028,0.225c-0.075,0.15-0.286,0.479-0.633,0.984
		c-0.347,0.506-0.604,0.891-0.773,1.153c0.018,0.019,0.042,0.065,0.07,0.14c0.028,0.075,0.126,0.113,0.295,0.113h0.113
		c0.468,0.019,1.26-0.117,2.375-0.408c1.115-0.29,1.71-0.445,1.786-0.464c0.187,0.019,0.375,0.122,0.562,0.31
		s0.271,0.412,0.253,0.675c0,0.094-0.042,0.196-0.127,0.309c-0.084,0.113-0.333,0.281-0.745,0.507c-0.019,0-0.099,0.01-0.239,0.028
		s-0.295,0.084-0.464,0.196c-0.094,0.019-0.192,0.042-0.295,0.07s-0.202,0.062-0.295,0.099c-0.75,0.544-1.542,1.177-2.376,1.897
		c-0.834,0.722-1.251,1.242-1.251,1.561l-0.59,0.872c1.143-0.3,2.033-0.567,2.671-0.802c0.637-0.234,1.462-0.352,2.474-0.352
		c0.563,0,1.063,0.164,1.504,0.492c0.44,0.328,0.726,0.792,0.857,1.392c0.037,0.169,0.093,0.323,0.168,0.464
		c0.075,0.141,0.113,0.239,0.113,0.295v2.953c-0.038,0.131-0.075,0.243-0.113,0.337c-0.038,0.074-0.094,0.197-0.168,0.365
		c-0.019-0.037-0.117-0.098-0.295-0.183c-0.178-0.084-0.37-0.126-0.576-0.126c-0.15,0-0.244,0.014-0.281,0.042
		c-0.038,0.028-0.066,0.051-0.084,0.07l-0.028-0.085c0-0.037-0.028-0.079-0.084-0.126s-0.197-0.07-0.422-0.07h-0.394
		c0.075-0.075,0.131-0.132,0.169-0.169c-0.075-0.038-0.169-0.084-0.281-0.141c-0.113-0.056-0.225-0.122-0.337-0.196
		c0.15-0.113,0.225-0.244,0.225-0.394c-0.15-0.15-0.258-0.221-0.323-0.211c-0.066,0.01-0.117,0.014-0.155,0.014
		c0-0.019,0.033-0.145,0.099-0.38c0.065-0.233,0.099-0.436,0.099-0.604c0-0.262,0.004-0.745,0.014-1.447
		c0.009-0.703-0.417-1.055-1.279-1.055c-1.087,0-2.024,0.258-2.812,0.773c-0.787,0.516-1.284,0.772-1.49,0.772
		s-0.412-0.136-0.618-0.407c-0.207-0.271-0.31-0.445-0.31-0.521c0-0.262,0.684-1.072,2.053-2.432
		c1.368-1.358,2.108-2.132,2.221-2.319h-0.028c-0.319,0.075-1.762,0.553-4.33,1.434s-3.89,1.313-3.964,1.293
		c-0.319-0.037-0.59-0.173-0.815-0.407c-0.225-0.234-0.328-0.521-0.31-0.857c0.019-0.263,0.065-0.417,0.141-0.464
		c0.075-0.047,0.234-0.107,0.478-0.183c0.581-0.188,1.303-0.502,2.165-0.942c0.862-0.44,1.499-0.819,1.912-1.139
		c0.581-0.487,1.041-0.951,1.378-1.392s0.571-0.764,0.703-0.97c0.057-0.112,0.244-0.305,0.563-0.577
		c0.318-0.271,0.665-0.679,1.041-1.223c-0.019-0.019-0.052-0.037-0.099-0.057c-0.047-0.018-0.089-0.037-0.126-0.056
		C138.62,8.528,138.592,8.515,138.555,8.505z M138.611,8.547c-0.056-0.037-0.112-0.065-0.168-0.084
		c-0.019-0.019-0.033-0.033-0.042-0.043c-0.009-0.009-0.023-0.014-0.042-0.014l-0.028-0.028c0.094,0.02,0.197,0.033,0.31,0.042
		c0.112,0.01,0.243,0.005,0.394-0.014c0.375-0.019,0.708-0.061,0.998-0.127c0.291-0.065,0.492-0.107,0.604-0.126
		c-0.244,0.432-0.511,0.628-0.801,0.59c-0.291-0.037-0.689-0.103-1.195-0.196H138.611z"/>
	<path d="M152.303,6.185c-0.075-0.037-0.141-0.056-0.197-0.056c-0.019,0-0.028,0.01-0.028,0.028h-0.197
		c-0.413,0.356-0.928,0.642-1.546,0.857s-1.162,0.379-1.631,0.492c-0.3,0.094-0.572,0.196-0.815,0.309
		c-0.244,0.113-0.403,0.16-0.478,0.141c-0.244-0.056-0.366-0.238-0.366-0.548s0.019-0.501,0.056-0.576
		c0.019-0.094,0.689-0.643,2.01-1.646c1.322-1.002,2.245-1.653,2.77-1.954c0.094-0.074,0.155-0.126,0.183-0.154
		c0.028-0.028,0.052-0.052,0.07-0.07c0.038-0.094,0.075-0.188,0.113-0.281c0-0.094-0.155-0.468-0.464-1.124
		c-0.31-0.656-0.436-1.031-0.38-1.125c0-0.094,0.052-0.159,0.155-0.197c0.103-0.037,0.192-0.131,0.267-0.28
		c0.281,0.019,0.83,0.323,1.645,0.913c0.815,0.591,1.148,1.11,0.998,1.561c-0.056,0.169-0.249,0.408-0.577,0.717
		c-0.328,0.31-0.548,0.455-0.661,0.437c-0.112-0.075-0.244-0.122-0.394-0.141c-0.45-0.113-0.979,0.014-1.588,0.379
		c-0.609,0.366-1.017,0.643-1.223,0.83c-0.188,0.188-0.394,0.384-0.619,0.59c-0.225,0.207-0.44,0.432-0.646,0.675l-0.084,0.591
		c0.543-0.169,0.89-0.276,1.04-0.323s0.459-0.146,0.928-0.296c0.149-0.037,0.792-0.304,1.926-0.801
		c1.134-0.497,1.87-0.698,2.207-0.604c0.206,0.038,0.328,0.188,0.366,0.449c0.037,0.263,0.037,0.432,0,0.507
		c-0.075,0.188-0.619,0.642-1.631,1.363s-1.622,1.448-1.828,2.179c-0.075,0.188-0.112,0.356-0.112,0.507
		c0,0.149-0.019,0.328-0.056,0.534c0.056,0.149,0.141,0.253,0.253,0.309c0.112,0.057,0.187,0.104,0.225,0.141
		c0.543,0.281,1.007,0.272,1.392-0.028c0.384-0.299,0.698-0.486,0.942-0.562c0.112-0.412,0.009-0.797-0.31-1.153
		c-0.319-0.355-0.469-0.571-0.45-0.646c0.038-0.149,0.211-0.225,0.52-0.225c0.31,0,0.473,0,0.492,0
		c0.543,0.131,1.049,0.59,1.518,1.377c0.469,0.788,0.581,1.481,0.337,2.081c-0.075,0.188-0.108,0.356-0.098,0.506
		c0.009,0.15,0.004,0.216-0.014,0.197c0,0.037-0.038,0.094-0.112,0.169c-0.075,0.074-0.104,0.188-0.084,0.337
		c-0.131,0.188-0.197,0.328-0.197,0.422s-0.066,0.206-0.197,0.337c-0.019,0.02,0.74-0.347,2.277-1.096
		c1.537-0.75,2.315-1.472,2.333-2.165c0.019-0.6-0.154-1.298-0.52-2.095s-0.567-1.224-0.604-1.279c0-0.131,0.094-0.347,0.281-0.646
		c0.187-0.3,0.291-0.656,0.309-1.069c0.094-0.018,0.169-0.037,0.225-0.056c0.037-0.019,0.103-0.037,0.197-0.057
		c0.412,0.02,0.96,0.797,1.645,2.334s1.111,2.821,1.279,3.852c0.094-0.056,0.249-0.131,0.464-0.225
		c0.215-0.094,0.333-0.141,0.351-0.141c0.15,0,0.708,0.169,1.673,0.506c0.965,0.338,1.438,0.638,1.42,0.9
		c0,0.112-0.183,0.225-0.548,0.337c-0.365,0.112-0.623,0.253-0.773,0.422c-0.188-0.075-0.478-0.234-0.872-0.479
		c-0.394-0.243-0.947-0.552-1.659-0.928l-0.703,6.664c0,0.075,0.009,0.126,0.028,0.154c0.018,0.028,0.037,0.042,0.056,0.042
		c0.037,0.02,0.065,0.028,0.084,0.028c0,0.713,0.07,1.396,0.21,2.053s0.249,1.284,0.324,1.884c0.225,0,0.384,0.084,0.478,0.253
		s0.141,0.262,0.141,0.281c-0.019,0.112,0.009,0.3,0.084,0.563c-0.131,0.074-0.221,0.126-0.267,0.154
		c-0.047,0.028-0.07,0.052-0.07,0.07c-0.019,0.057-0.038,0.103-0.056,0.141h-0.281c-0.619-0.019-1.101-0.506-1.448-1.462
		c-0.347-0.956-0.539-1.556-0.577-1.8c-0.019-0.187-0.042-0.595-0.07-1.223c-0.028-0.628-0.098-1.148-0.211-1.561
		c-0.038-0.112-0.061-0.352-0.07-0.717c-0.01-0.366-0.005-0.586,0.014-0.661l0.337-3.458l0.028-1.378
		c-0.3-0.056-0.53-0.023-0.689,0.099s-0.249,0.192-0.267,0.211c0.094,0.244,0.009,0.482-0.253,0.717
		c-0.263,0.234-0.553,0.464-0.872,0.688c-0.356,0.281-0.778,0.559-1.265,0.83c-0.488,0.271-0.966,0.52-1.434,0.745
		c-0.263,0.131-0.896,0.417-1.898,0.857c-1.003,0.44-1.542,0.876-1.617,1.308c-0.131,0.074-0.272,0.136-0.421,0.183
		c-0.15,0.047-0.235,0.07-0.253,0.07c-0.019-0.019-0.103-0.075-0.253-0.169c-0.15-0.094-0.281-0.149-0.394-0.169
		c-0.038-0.112-0.108-0.248-0.211-0.407s-0.164-0.248-0.183-0.268c0-0.094,0.356-0.313,1.068-0.66
		c0.712-0.347,1.19-0.661,1.434-0.942c0.412-0.506,0.665-1.026,0.759-1.561s0.15-0.819,0.169-0.857
		c0.037-0.131,0.051-0.31,0.042-0.534c-0.01-0.225-0.089-0.45-0.239-0.675c-0.225,0.15-0.544,0.328-0.956,0.534
		c-0.413,0.207-0.778,0.328-1.097,0.365h-0.843c-0.075-0.037-0.178-0.074-0.31-0.112c-0.131-0.037-0.244-0.065-0.337-0.084
		c-0.356-0.094-0.614-0.347-0.773-0.759c-0.16-0.412-0.202-0.731-0.126-0.956c0.131-0.432,0.548-1.068,1.251-1.912
		c0.703-0.844,1.148-1.34,1.335-1.49V6.185H152.303z"/>
</g>
</svg>
