<?xml version="1.0" encoding="utf-8"?>
<!-- Generator: Adobe Illustrator 16.0.0, SVG Export Plug-In . SVG Version: 6.00 Build 0)  -->
<!DOCTYPE svg PUBLIC "-//W3C//DTD SVG 1.1//EN" "http://www.w3.org/Graphics/SVG/1.1/DTD/svg11.dtd">
<svg version="1.1" id="Layer_1" xmlns="http://www.w3.org/2000/svg" xmlns:xlink="http://www.w3.org/1999/xlink" x="0px" y="0px"
	 width="292.143px" height="43.692px" viewBox="0 0 292.143 43.692" enable-background="new 0 0 292.143 43.692"
	 xml:space="preserve">
<g>
	<g>
		<g>
			<g>
				<g>
					<g>
						<g>
							<path fill="#003964" d="M33.73,20.851c-3.796-2.581-8.654-1.527-11.205,2.352c-2.13,3.24-5.346,3.643-6.593,3.643
								c-4.058,0-6.838-2.855-7.66-5.811H8.271c-0.008-0.029-0.016-0.054-0.023-0.082c-0.007-0.033-0.017-0.065-0.025-0.102
								c-0.324-1.23-0.403-1.82-0.403-3.131c0-7.066,7.251-14.934,17.691-14.934c10.693,0,16.811,8.141,18.384,12.664
								c-0.024-0.08-0.051-0.158-0.078-0.24C40.78,6.363,32.393,0,22.513,0C10.082,0,0,10.08,0,22.514
								c0,11.114,8.018,20.629,19.138,20.629c8.869,0,14.828-4.972,17.562-11.823C38.2,27.57,37.137,23.166,33.73,20.851z"/>
						</g>
						<g>
							<path fill="#ED1A3B" d="M44.036,15.889c-1.315-4.413-7.479-13.103-18.525-13.103c-10.44,0-17.691,7.867-17.691,14.934
								c0,1.311,0.079,1.9,0.403,3.131c-0.137-0.538-0.205-1.08-0.205-1.605c0-7.358,7.365-12.458,14.938-12.458
								c10.254,0,18.566,8.313,18.566,18.563c0,8.037-4.625,14.991-11.346,18.336v0.004c8.663-3.138,14.851-11.432,14.851-21.177
								C45.027,20.208,44.718,18.175,44.036,15.889z"/>
						</g>
					</g>
				</g>
			</g>
		</g>
	</g>
	<path fill="#030404" d="M63.018,17.12v-2.544h-6.911v-1.904h16.027v1.904h-6.933v2.544h5.65v6.091h-2.164v-4.188H57.188V17.12
		H63.018z M70.812,6.082v5.188h-2.164V7.984H57.349V6.082H70.812z"/>
	<path fill="#030404" d="M84.434,15.136h-9.416V9.807h7.052V8.064h-7.052V6.221h9.216v5.349h-7.072v1.764h7.272V15.136z M76,16.058
		h2.123V17.5h9.416v-1.441h2.124v6.771H76V16.058z M87.539,19.263h-9.416v1.764h9.416V19.263z M87.499,5.72h2.164v9.736h-2.164V5.72
		z"/>
	<path fill="#030404" d="M92.988,6.802h7.332v1.903h-5.148v10.157h5.369v1.902h-7.553V6.802z M106.21,5.72h2.084v17.449h-2.084
		v-8.414h-2.323v8.314h-2.023V5.74h2.023v7.152h2.323V5.72z"/>
	<path fill="#030404" d="M110.577,8.886V7.023h4.107V5.36h2.304v1.663h4.127v1.863H110.577z M111.358,22.83v-5.309h2.184v3.405
		h11.88v1.903H111.358z M119.893,13.093c0,0.521-0.106,1.005-0.32,1.452s-0.501,0.845-0.861,1.192
		c-0.374,0.334-0.805,0.601-1.292,0.801c-0.488,0.2-1.012,0.301-1.573,0.301c-0.561,0-1.085-0.101-1.572-0.301
		s-0.918-0.467-1.292-0.801c-0.36-0.348-0.648-0.745-0.861-1.192c-0.214-0.447-0.321-0.932-0.321-1.452
		c0-0.521,0.107-1.009,0.321-1.463c0.213-0.454,0.501-0.854,0.861-1.202c0.374-0.333,0.805-0.601,1.292-0.802
		c0.487-0.199,1.012-0.301,1.572-0.301c0.562,0,1.085,0.102,1.573,0.301c0.487,0.201,0.918,0.469,1.292,0.802
		c0.36,0.348,0.647,0.748,0.861,1.202S119.893,12.572,119.893,13.093z M117.789,13.073c0-0.534-0.187-0.991-0.561-1.372
		s-0.828-0.571-1.362-0.571s-0.992,0.19-1.372,0.571c-0.381,0.381-0.571,0.838-0.571,1.372s0.19,0.989,0.571,1.362
		c0.38,0.374,0.838,0.561,1.372,0.561s0.988-0.187,1.362-0.561C117.603,14.062,117.789,13.607,117.789,13.073z M125.062,10.468
		h2.505v1.903h-2.505V16.9h-2.163V5.72h2.163V10.468z"/>
	<path fill="#030404" d="M129.829,15.197V6.221h8.976v8.976H129.829z M130.33,22.83V17h2.164v3.906h12.141v1.924H130.33z
		 M136.681,8.105h-4.708v5.229h4.708V8.105z M142.311,16.9V5.72h2.164V16.9H142.311z"/>
	<path fill="#030404" d="M154.371,17.12v-2.544h-6.911v-1.904h16.027v1.904h-6.933v2.544h5.65v6.091h-2.164v-4.188h-11.499V17.12
		H154.371z M162.165,6.082v5.188h-2.164V7.984h-11.299V6.082H162.165z"/>
	<path fill="#030404" d="M175.527,10.289c0,0.613-0.124,1.188-0.371,1.723s-0.584,1.002-1.012,1.402
		c-0.414,0.4-0.905,0.718-1.473,0.951c-0.567,0.234-1.172,0.351-1.813,0.351c-0.642,0-1.246-0.116-1.813-0.351
		c-0.567-0.233-1.059-0.551-1.473-0.951c-0.428-0.4-0.765-0.868-1.012-1.402s-0.37-1.109-0.37-1.723c0-0.615,0.123-1.192,0.37-1.733
		s0.584-1.012,1.012-1.413c0.414-0.4,0.905-0.717,1.473-0.951c0.567-0.233,1.172-0.351,1.813-0.351c0.641,0,1.245,0.117,1.813,0.351
		c0.567,0.234,1.059,0.551,1.473,0.951c0.428,0.401,0.765,0.872,1.012,1.413S175.527,9.673,175.527,10.289z M167.354,15.857h13.663
		v6.973h-13.663V15.857z M173.443,10.289c0-0.709-0.25-1.316-0.751-1.824c-0.501-0.507-1.105-0.761-1.813-0.761
		s-1.315,0.254-1.823,0.761c-0.508,0.508-0.761,1.115-0.761,1.824c0,0.707,0.253,1.312,0.761,1.813s1.115,0.752,1.823,0.752
		s1.313-0.251,1.813-0.752S173.443,10.996,173.443,10.289z M178.872,17.701h-9.375v3.266h9.375V17.701z M178.853,5.72h2.164v9.236
		h-2.164V5.72z"/>
	<path fill="#030404" d="M189.29,5.84l5.709,14.104l-1.923,0.841l-3.786-9.576l-3.747,9.717l-1.963-0.862L189.29,5.84z
		 M197.123,5.72h2.164v17.449h-2.164V5.72z"/>
	<path fill="#030404" d="M202.211,8.084V6.221h10.018v1.863h-4.268l4.447,5.429l-1.522,1.242l-3.565-4.447l-3.547,4.748
		l-1.582-1.282l4.428-5.689H202.211z M216.074,19.463c0,0.588-0.12,1.14-0.36,1.653s-0.561,0.965-0.962,1.352
		c-0.414,0.388-0.897,0.695-1.452,0.922s-1.139,0.341-1.753,0.341s-1.202-0.114-1.763-0.341c-0.562-0.227-1.049-0.534-1.463-0.922
		c-0.4-0.387-0.721-0.838-0.961-1.352c-0.241-0.514-0.361-1.065-0.361-1.653c0-0.587,0.12-1.142,0.361-1.663
		c0.24-0.521,0.561-0.975,0.961-1.361c0.414-0.388,0.901-0.695,1.463-0.922c0.561-0.227,1.148-0.341,1.763-0.341
		s1.198,0.114,1.753,0.341s1.038,0.534,1.452,0.922c0.401,0.387,0.722,0.841,0.962,1.361
		C215.954,18.322,216.074,18.876,216.074,19.463z M213.951,19.443c0-0.654-0.24-1.218-0.722-1.692
		c-0.48-0.474-1.048-0.711-1.702-0.711c-0.655,0-1.22,0.237-1.693,0.711c-0.475,0.475-0.711,1.038-0.711,1.692
		c0,0.655,0.236,1.217,0.711,1.684c0.474,0.467,1.038,0.701,1.693,0.701c0.654,0,1.222-0.234,1.702-0.701
		C213.711,20.66,213.951,20.098,213.951,19.443z M215.394,14.976v-3.787h-3.245V9.326h3.245V5.72h2.164v9.256H215.394z"/>
	<path fill="#030404" d="M220.542,16.759h16.027v1.923h-6.933v4.487h-2.184v-4.487h-6.911V16.759z M223.968,8.224h9.176V6.021h2.144
		v8.395h-13.463V6.021h2.144V8.224z M233.144,10.108h-9.176v2.403h9.176V10.108z"/>
	<path fill="#030404" d="M247.567,20.886h-2.164V8.746h-6.691V6.802h8.855V20.886z M251.935,5.72h2.164v17.449h-2.164V5.72z"/>
	<path fill="#030404" d="M267.14,14.635h-9.336V6.121h2.184v6.652h7.152V14.635z M258.706,15.857h13.663v6.973h-13.663V15.857z
		 M270.225,17.701h-9.375v3.266h9.375V17.701z M270.205,5.72h2.164v9.236h-2.164v-2.926h-4.748v-1.683h4.748V8.986h-4.748V7.263
		h4.748V5.72z"/>
	<path fill="#030404" d="M286.393,14.275v1.903h-11.318v-1.903h3.546v-3.906h2.144v3.906H286.393z M283.288,12.612V7.964h-7.433
		V6.082h9.576v6.53H283.288z M276.316,22.869V17.64h2.163v3.326h11.74v1.902H276.316z M289.898,17.179h-2.163V5.72h2.163v4.688
		h2.244v1.984h-2.244V17.179z"/>
	<path fill="#575656" d="M59.709,36.917l-2.323-5.038v5.038h-1.035v-6.182h1.525l2.332,5.056v-5.056h1.025v6.182H59.709z"/>
	<path fill="#575656" d="M64.419,34.049c0.34,0,0.69,0,1.054,0c0-0.285-0.113-0.5-0.34-0.645c-0.228-0.146-0.553-0.219-0.977-0.219
		h-0.027c-0.398,0-0.826,0.094-1.28,0.282l-0.253-0.791c0.466-0.199,0.98-0.302,1.543-0.308h0.018c0.745,0,1.316,0.144,1.716,0.431
		c0.399,0.288,0.6,0.743,0.6,1.366v2.751h-0.963v-0.49c-0.188,0.188-0.419,0.334-0.694,0.439c-0.275,0.106-0.556,0.159-0.839,0.159
		c-0.527,0-0.955-0.141-1.285-0.422s-0.494-0.628-0.494-1.039c0-0.454,0.205-0.829,0.616-1.126
		C63.188,34.179,63.724,34.049,64.419,34.049z M64.147,36.228c0.26,0,0.518-0.064,0.771-0.191s0.438-0.275,0.554-0.445v-0.754
		c-0.333,0-0.632,0-0.898,0c-0.508,0-0.862,0.067-1.063,0.2c-0.199,0.146-0.299,0.321-0.299,0.527c0,0.193,0.083,0.353,0.249,0.477
		C63.629,36.166,63.857,36.228,64.147,36.228z"/>
	<path fill="#575656" d="M69.004,31.044v1.434h0.961v0.809h-0.961v2.26c0,0.218,0.051,0.365,0.154,0.444
		c0.103,0.079,0.247,0.118,0.436,0.118h0.371v0.809h-0.607c-0.479,0-0.825-0.107-1.044-0.322c-0.217-0.215-0.326-0.531-0.326-0.948
		v-2.36h-0.763v-0.809h0.763v-1.434H69.004z"/>
	<path fill="#575656" d="M72.054,31.089c0,0.17-0.064,0.317-0.19,0.445c-0.128,0.127-0.279,0.19-0.454,0.19
		c-0.176,0-0.328-0.063-0.454-0.19c-0.127-0.128-0.19-0.275-0.19-0.445c0-0.175,0.063-0.327,0.19-0.454
		c0.126-0.126,0.278-0.19,0.454-0.19c0.175,0,0.326,0.064,0.454,0.19C71.989,30.762,72.054,30.915,72.054,31.089z M70.909,36.917
		v-4.439h1.017v4.439H70.909z"/>
	<path fill="#575656" d="M75.267,37.026c-0.647,0-1.2-0.225-1.66-0.672s-0.69-0.998-0.69-1.652c0-0.659,0.23-1.213,0.69-1.66
		c0.46-0.448,1.013-0.672,1.66-0.672c0.654,0,1.209,0.224,1.666,0.672c0.457,0.447,0.686,1.001,0.686,1.66
		c0,0.654-0.229,1.205-0.686,1.652S75.921,37.026,75.267,37.026z M75.267,36.191c0.37,0,0.685-0.142,0.944-0.422
		c0.261-0.281,0.391-0.638,0.391-1.067s-0.13-0.785-0.391-1.07c-0.26-0.284-0.574-0.427-0.944-0.427
		c-0.363,0-0.676,0.143-0.938,0.427c-0.264,0.285-0.396,0.641-0.396,1.07s0.132,0.786,0.396,1.067
		C74.591,36.049,74.903,36.191,75.267,36.191z"/>
	<path fill="#575656" d="M79.56,34.684v2.233h-1.008v-4.439h0.972v0.591c0.115-0.207,0.285-0.374,0.513-0.504
		c0.227-0.131,0.471-0.195,0.73-0.195c0.521,0,0.94,0.179,1.257,0.535c0.318,0.356,0.478,0.835,0.478,1.435v2.578h-1.008v-2.324
		c0-0.473-0.077-0.821-0.231-1.048c-0.154-0.228-0.392-0.341-0.713-0.341c-0.163,0-0.323,0.055-0.48,0.163
		c-0.158,0.108-0.278,0.258-0.363,0.444C79.608,34.031,79.56,34.321,79.56,34.684z"/>
	<path fill="#575656" d="M85.65,34.049c0.339,0,0.689,0,1.054,0c0-0.285-0.113-0.5-0.34-0.645c-0.228-0.146-0.554-0.219-0.977-0.219
		H85.36c-0.399,0-0.826,0.094-1.28,0.282l-0.253-0.791c0.466-0.199,0.979-0.302,1.542-0.308h0.019c0.744,0,1.316,0.144,1.716,0.431
		c0.399,0.288,0.599,0.743,0.599,1.366v2.751H86.74v-0.49c-0.188,0.188-0.419,0.334-0.694,0.439
		c-0.275,0.106-0.556,0.159-0.84,0.159c-0.526,0-0.955-0.141-1.284-0.422c-0.33-0.281-0.495-0.628-0.495-1.039
		c0-0.454,0.206-0.829,0.617-1.126C84.419,34.179,84.955,34.049,85.65,34.049z M85.379,36.228c0.26,0,0.518-0.064,0.771-0.191
		c0.255-0.127,0.439-0.275,0.555-0.445v-0.754c-0.334,0-0.632,0-0.899,0c-0.508,0-0.861,0.067-1.062,0.2
		c-0.2,0.146-0.3,0.321-0.3,0.527c0,0.193,0.083,0.353,0.249,0.477C84.859,36.166,85.088,36.228,85.379,36.228z"/>
	<path fill="#575656" d="M88.937,36.917v-6.59h1.008v6.59H88.937z"/>
	<path fill="#575656" d="M100.137,30.736v6.182h-0.989v-4.976l-1.615,4.976H96.57l-1.607-4.976v4.976h-0.998v-6.182h1.525
		l1.561,4.811l1.562-4.811H100.137z"/>
	<path fill="#575656" d="M102.152,35.138c0.061,0.272,0.188,0.496,0.382,0.672c0.283,0.26,0.659,0.39,1.125,0.39
		c0.49,0,0.95-0.182,1.38-0.544l0.3,0.744c-0.479,0.417-1.048,0.626-1.707,0.626c-0.75,0-1.359-0.213-1.829-0.64
		c-0.469-0.427-0.703-0.984-0.703-1.674c0-0.686,0.208-1.246,0.626-1.685c0.417-0.439,0.962-0.658,1.635-0.658
		c0.665,0,1.208,0.218,1.629,0.653c0.42,0.436,0.631,0.978,0.631,1.625c0,0.176-0.015,0.339-0.045,0.49H102.152z M102.135,34.348
		h2.468c-0.012-0.291-0.132-0.555-0.362-0.794c-0.229-0.239-0.523-0.358-0.88-0.358c-0.364,0-0.663,0.13-0.899,0.39
		C102.285,33.78,102.177,34.034,102.135,34.348z"/>
	<path fill="#575656" d="M111.266,32.37c0.521,0,0.927,0.179,1.217,0.535c0.291,0.356,0.436,0.835,0.436,1.435v2.578h-0.998v-2.324
		c0-0.473-0.064-0.821-0.19-1.048c-0.127-0.228-0.336-0.341-0.626-0.341c-0.17,0-0.318,0.049-0.445,0.146
		c-0.128,0.097-0.229,0.239-0.309,0.427c-0.079,0.193-0.117,0.465-0.117,0.816v2.324h-0.999v-2.324c0-0.473-0.065-0.821-0.196-1.048
		c-0.13-0.228-0.337-0.341-0.621-0.341c-0.17,0-0.315,0.049-0.436,0.146c-0.121,0.097-0.225,0.239-0.309,0.427
		c-0.085,0.218-0.127,0.508-0.127,0.871v-0.009v2.278h-0.999v-4.439h0.944v0.591c0.248-0.467,0.633-0.699,1.153-0.699
		c0.556,0,0.965,0.27,1.225,0.808c0.151-0.267,0.334-0.468,0.549-0.604C110.632,32.437,110.915,32.37,111.266,32.37z"/>
	<path fill="#575656" d="M116.177,37.026c-0.648,0-1.201-0.225-1.661-0.672s-0.689-0.998-0.689-1.652
		c0-0.659,0.229-1.213,0.689-1.66c0.46-0.448,1.013-0.672,1.661-0.672c0.653,0,1.208,0.224,1.666,0.672
		c0.456,0.447,0.685,1.001,0.685,1.66c0,0.654-0.229,1.205-0.685,1.652C117.385,36.801,116.83,37.026,116.177,37.026z
		 M116.177,36.191c0.369,0,0.684-0.142,0.944-0.422c0.26-0.281,0.39-0.638,0.39-1.067s-0.13-0.785-0.39-1.07
		c-0.261-0.284-0.575-0.427-0.944-0.427c-0.363,0-0.677,0.143-0.939,0.427c-0.264,0.285-0.396,0.641-0.396,1.07
		s0.132,0.786,0.396,1.067C115.5,36.049,115.813,36.191,116.177,36.191z"/>
	<path fill="#575656" d="M119.462,36.917v-4.439h0.954v0.663c0.145-0.219,0.323-0.388,0.535-0.509
		c0.254-0.151,0.554-0.227,0.898-0.227h0.072v0.898h-0.108c-0.418,0-0.75,0.127-0.998,0.381c-0.23,0.249-0.345,0.636-0.345,1.163
		v2.069H119.462z"/>
	<path fill="#575656" d="M123.865,31.089c0,0.17-0.064,0.317-0.19,0.445c-0.128,0.127-0.279,0.19-0.454,0.19
		c-0.176,0-0.327-0.063-0.454-0.19c-0.127-0.128-0.19-0.275-0.19-0.445c0-0.175,0.063-0.327,0.19-0.454
		c0.127-0.126,0.278-0.19,0.454-0.19c0.175,0,0.326,0.064,0.454,0.19C123.801,30.762,123.865,30.915,123.865,31.089z
		 M122.721,36.917v-4.439h1.017v4.439H122.721z"/>
	<path fill="#575656" d="M126.95,34.049c0.339,0,0.689,0,1.054,0c0-0.285-0.113-0.5-0.34-0.645
		c-0.228-0.146-0.554-0.219-0.977-0.219h-0.027c-0.399,0-0.826,0.094-1.28,0.282l-0.253-0.791c0.465-0.199,0.979-0.302,1.542-0.308
		h0.019c0.744,0,1.316,0.144,1.716,0.431c0.399,0.288,0.599,0.743,0.599,1.366v2.751h-0.962v-0.49
		c-0.188,0.188-0.419,0.334-0.694,0.439c-0.275,0.106-0.556,0.159-0.84,0.159c-0.526,0-0.955-0.141-1.284-0.422
		c-0.33-0.281-0.495-0.628-0.495-1.039c0-0.454,0.206-0.829,0.617-1.126C125.719,34.179,126.255,34.049,126.95,34.049z
		 M126.679,36.228c0.26,0,0.518-0.064,0.771-0.191c0.255-0.127,0.439-0.275,0.555-0.445v-0.754c-0.334,0-0.633,0-0.899,0
		c-0.508,0-0.861,0.067-1.062,0.2c-0.2,0.146-0.3,0.321-0.3,0.527c0,0.193,0.083,0.353,0.249,0.477
		C126.159,36.166,126.388,36.228,126.679,36.228z"/>
	<path fill="#575656" d="M130.236,36.917v-6.59h1.009v6.59H130.236z"/>
	<path fill="#575656" d="M137.19,37.026c-0.648,0-1.201-0.225-1.661-0.672s-0.689-0.998-0.689-1.652c0-0.659,0.229-1.213,0.689-1.66
		c0.46-0.448,1.013-0.672,1.661-0.672c0.653,0,1.208,0.224,1.666,0.672c0.456,0.447,0.685,1.001,0.685,1.66
		c0,0.654-0.229,1.205-0.685,1.652C138.398,36.801,137.844,37.026,137.19,37.026z M137.19,36.191c0.369,0,0.684-0.142,0.944-0.422
		c0.26-0.281,0.39-0.638,0.39-1.067s-0.13-0.785-0.39-1.07c-0.261-0.284-0.575-0.427-0.944-0.427c-0.363,0-0.677,0.143-0.939,0.427
		c-0.264,0.285-0.396,0.641-0.396,1.07s0.132,0.786,0.396,1.067C136.514,36.049,136.827,36.191,137.19,36.191z"/>
	<path fill="#575656" d="M140.712,31.598c0-0.418,0.115-0.733,0.349-0.948s0.589-0.322,1.067-0.322h0.49v0.808h-0.3
		c-0.188,0-0.333,0.039-0.436,0.117c-0.104,0.079-0.154,0.228-0.154,0.444v0.781h0.89v0.809h-0.89v3.631h-1.017v-3.631h-0.763
		v-0.809h0.763V31.598z"/>
	<path fill="#575656" d="M147.528,31.044v1.434h0.962v0.809h-0.962v2.26c0,0.218,0.051,0.365,0.154,0.444
		c0.103,0.079,0.248,0.118,0.436,0.118h0.372v0.809h-0.607c-0.479,0-0.826-0.107-1.044-0.322s-0.327-0.531-0.327-0.948v-2.36h-0.763
		v-0.809h0.763v-1.434H147.528z"/>
	<path fill="#575656" d="M150.415,36.917h-1.009v-6.59h1.009v2.677c0.114-0.181,0.279-0.332,0.494-0.453s0.452-0.182,0.712-0.182
		c0.521,0,0.94,0.179,1.258,0.535c0.318,0.356,0.477,0.835,0.477,1.435v2.578h-1.007v-2.324c0-0.473-0.077-0.821-0.232-1.048
		c-0.154-0.228-0.392-0.341-0.712-0.341c-0.164,0-0.324,0.055-0.481,0.163s-0.278,0.258-0.363,0.444
		c-0.097,0.219-0.145,0.509-0.145,0.872V36.917z"/>
	<path fill="#575656" d="M155.334,35.138c0.061,0.272,0.188,0.496,0.383,0.672c0.283,0.26,0.658,0.39,1.125,0.39
		c0.49,0,0.95-0.182,1.38-0.544l0.3,0.744c-0.479,0.417-1.048,0.626-1.707,0.626c-0.751,0-1.36-0.213-1.829-0.64
		c-0.47-0.427-0.703-0.984-0.703-1.674c0-0.686,0.208-1.246,0.626-1.685c0.417-0.439,0.962-0.658,1.634-0.658
		c0.666,0,1.209,0.218,1.629,0.653c0.421,0.436,0.632,0.978,0.632,1.625c0,0.176-0.016,0.339-0.046,0.49H155.334z M155.316,34.348
		h2.469c-0.012-0.291-0.133-0.555-0.362-0.794c-0.23-0.239-0.524-0.358-0.881-0.358c-0.363,0-0.663,0.13-0.898,0.39
		C155.468,33.78,155.358,34.034,155.316,34.348z"/>
	<path fill="#575656" d="M163.441,33.613l2.567-2.877h1.244l-2.75,3.068l2.741,3.113h-1.28l-2.522-2.878v2.878h-1.035v-6.182h1.035
		V33.613z"/>
	<path fill="#575656" d="M169.567,37.026c-0.647,0-1.201-0.225-1.661-0.672c-0.459-0.447-0.689-0.998-0.689-1.652
		c0-0.659,0.23-1.213,0.689-1.66c0.46-0.448,1.014-0.672,1.661-0.672c0.654,0,1.209,0.224,1.666,0.672
		c0.457,0.447,0.685,1.001,0.685,1.66c0,0.654-0.228,1.205-0.685,1.652S170.222,37.026,169.567,37.026z M169.567,36.191
		c0.369,0,0.685-0.142,0.944-0.422c0.261-0.281,0.391-0.638,0.391-1.067s-0.13-0.785-0.391-1.07
		c-0.26-0.284-0.575-0.427-0.944-0.427c-0.363,0-0.676,0.143-0.938,0.427c-0.264,0.285-0.396,0.641-0.396,1.07
		s0.132,0.786,0.396,1.067C168.892,36.049,169.204,36.191,169.567,36.191z"/>
	<path fill="#575656" d="M172.853,36.917v-4.439h0.953v0.663c0.146-0.219,0.324-0.388,0.536-0.509
		c0.254-0.151,0.554-0.227,0.898-0.227h0.072v0.898h-0.108c-0.418,0-0.75,0.127-0.999,0.381c-0.229,0.249-0.345,0.636-0.345,1.163
		v2.069H172.853z"/>
	<path fill="#575656" d="M176.747,35.138c0.061,0.272,0.188,0.496,0.382,0.672c0.283,0.26,0.658,0.39,1.125,0.39
		c0.49,0,0.95-0.182,1.38-0.544l0.3,0.744c-0.479,0.417-1.048,0.626-1.707,0.626c-0.75,0-1.359-0.213-1.829-0.64
		c-0.469-0.427-0.703-0.984-0.703-1.674c0-0.686,0.208-1.246,0.626-1.685c0.417-0.439,0.962-0.658,1.634-0.658
		c0.666,0,1.209,0.218,1.63,0.653c0.42,0.436,0.631,0.978,0.631,1.625c0,0.176-0.016,0.339-0.046,0.49H176.747z M176.729,34.348
		h2.468c-0.012-0.291-0.133-0.555-0.362-0.794c-0.23-0.239-0.523-0.358-0.881-0.358c-0.363,0-0.663,0.13-0.898,0.39
		C176.88,33.78,176.771,34.034,176.729,34.348z"/>
	<path fill="#575656" d="M183.056,34.049c0.339,0,0.689,0,1.054,0c0-0.285-0.113-0.5-0.341-0.645
		c-0.227-0.146-0.553-0.219-0.976-0.219h-0.027c-0.399,0-0.826,0.094-1.28,0.282l-0.254-0.791c0.466-0.199,0.98-0.302,1.543-0.308
		h0.019c0.744,0,1.316,0.144,1.716,0.431c0.399,0.288,0.599,0.743,0.599,1.366v2.751h-0.963v-0.49
		c-0.187,0.188-0.418,0.334-0.693,0.439c-0.275,0.106-0.556,0.159-0.84,0.159c-0.526,0-0.955-0.141-1.284-0.422
		c-0.33-0.281-0.495-0.628-0.495-1.039c0-0.454,0.206-0.829,0.617-1.126C181.824,34.179,182.359,34.049,183.056,34.049z
		 M182.783,36.228c0.261,0,0.519-0.064,0.771-0.191c0.255-0.127,0.439-0.275,0.555-0.445v-0.754c-0.334,0-0.633,0-0.899,0
		c-0.508,0-0.862,0.067-1.062,0.2c-0.2,0.146-0.3,0.321-0.3,0.527c0,0.193,0.083,0.353,0.249,0.477
		C182.265,36.166,182.493,36.228,182.783,36.228z"/>
	<path fill="#575656" d="M187.35,34.684v2.233h-1.008v-4.439h0.972v0.591c0.114-0.207,0.285-0.374,0.513-0.504
		c0.227-0.131,0.47-0.195,0.73-0.195c0.52,0,0.939,0.179,1.257,0.535c0.318,0.356,0.477,0.835,0.477,1.435v2.578h-1.007v-2.324
		c0-0.473-0.077-0.821-0.231-1.048c-0.155-0.228-0.393-0.341-0.713-0.341c-0.164,0-0.324,0.055-0.481,0.163
		s-0.278,0.258-0.363,0.444C187.398,34.031,187.35,34.321,187.35,34.684z"/>
	<path fill="#575656" d="M198.604,32.696c0,0.576-0.201,1.046-0.604,1.412c-0.402,0.365-0.976,0.549-1.72,0.549h-0.962v2.261h-1.035
		v-6.182h1.997c0.744,0,1.317,0.183,1.72,0.549S198.604,32.122,198.604,32.696z M197.561,32.696c0-0.344-0.118-0.614-0.354-0.808
		c-0.236-0.193-0.621-0.29-1.152-0.29h-0.735v2.196h0.735c0.531,0,0.916-0.098,1.152-0.294
		C197.442,33.303,197.561,33.035,197.561,32.696z"/>
	<path fill="#575656" d="M199.566,36.917v-4.439h0.953v0.663c0.146-0.219,0.324-0.388,0.536-0.509
		c0.254-0.151,0.554-0.227,0.898-0.227h0.072v0.898h-0.108c-0.418,0-0.75,0.127-0.998,0.381c-0.23,0.249-0.346,0.636-0.346,1.163
		v2.069H199.566z"/>
	<path fill="#575656" d="M204.759,37.026c-0.647,0-1.2-0.225-1.66-0.672s-0.69-0.998-0.69-1.652c0-0.659,0.23-1.213,0.69-1.66
		c0.46-0.448,1.013-0.672,1.66-0.672c0.654,0,1.209,0.224,1.666,0.672c0.457,0.447,0.686,1.001,0.686,1.66
		c0,0.654-0.229,1.205-0.686,1.652S205.413,37.026,204.759,37.026z M204.759,36.191c0.37,0,0.685-0.142,0.944-0.422
		c0.261-0.281,0.391-0.638,0.391-1.067s-0.13-0.785-0.391-1.07c-0.26-0.284-0.574-0.427-0.944-0.427
		c-0.363,0-0.676,0.143-0.938,0.427c-0.264,0.285-0.396,0.641-0.396,1.07s0.132,0.786,0.396,1.067
		C204.083,36.049,204.396,36.191,204.759,36.191z"/>
	<path fill="#575656" d="M209.633,36.074l1.189-3.596h1.044l-1.544,4.439h-1.379l-1.543-4.439h1.043L209.633,36.074z"/>
	<path fill="#575656" d="M213.69,31.089c0,0.17-0.063,0.317-0.19,0.445c-0.127,0.127-0.278,0.19-0.454,0.19
		c-0.175,0-0.327-0.063-0.454-0.19c-0.126-0.128-0.19-0.275-0.19-0.445c0-0.175,0.064-0.327,0.19-0.454
		c0.127-0.126,0.279-0.19,0.454-0.19c0.176,0,0.327,0.064,0.454,0.19C213.627,30.762,213.69,30.915,213.69,31.089z M212.547,36.917
		v-4.439h1.017v4.439H212.547z"/>
	<path fill="#575656" d="M214.453,36.091l0.635-0.645c0.176,0.242,0.369,0.43,0.581,0.563c0.206,0.128,0.427,0.19,0.663,0.19
		c0.229,0,0.421-0.046,0.575-0.14c0.155-0.094,0.232-0.217,0.232-0.368s-0.074-0.271-0.223-0.358s-0.328-0.168-0.54-0.24
		c-0.242-0.079-0.49-0.166-0.744-0.264c-0.339-0.121-0.589-0.28-0.749-0.477c-0.161-0.196-0.24-0.419-0.24-0.668
		c0-0.363,0.171-0.673,0.513-0.931c0.342-0.257,0.746-0.385,1.212-0.385c0.496,0,0.901,0.118,1.216,0.354
		c0.164,0.121,0.291,0.275,0.381,0.463l-0.616,0.6c-0.085-0.14-0.182-0.254-0.291-0.345c-0.199-0.169-0.444-0.255-0.735-0.255
		c-0.175,0-0.327,0.043-0.453,0.128c-0.127,0.085-0.191,0.188-0.191,0.309c0,0.127,0.071,0.234,0.214,0.322
		c0.142,0.087,0.353,0.174,0.631,0.259c0.103,0.03,0.218,0.066,0.345,0.108c0.43,0.14,0.756,0.321,0.98,0.544
		c0.224,0.225,0.336,0.494,0.336,0.809c0,0.369-0.179,0.688-0.536,0.958c-0.357,0.269-0.808,0.403-1.353,0.403
		c-0.466,0-0.874-0.108-1.226-0.326C214.834,36.56,214.628,36.357,214.453,36.091z"/>
	<path fill="#575656" d="M220.217,31.089c0,0.17-0.063,0.317-0.19,0.445c-0.128,0.127-0.278,0.19-0.454,0.19
		s-0.327-0.063-0.454-0.19c-0.127-0.128-0.19-0.275-0.19-0.445c0-0.175,0.063-0.327,0.19-0.454c0.127-0.126,0.278-0.19,0.454-0.19
		s0.326,0.064,0.454,0.19C220.153,30.762,220.217,30.915,220.217,31.089z M219.073,36.917v-4.439h1.017v4.439H219.073z"/>
	<path fill="#575656" d="M223.431,37.026c-0.648,0-1.201-0.225-1.661-0.672s-0.689-0.998-0.689-1.652
		c0-0.659,0.229-1.213,0.689-1.66c0.46-0.448,1.013-0.672,1.661-0.672c0.653,0,1.208,0.224,1.666,0.672
		c0.456,0.447,0.685,1.001,0.685,1.66c0,0.654-0.229,1.205-0.685,1.652C224.639,36.801,224.084,37.026,223.431,37.026z
		 M223.431,36.191c0.369,0,0.684-0.142,0.944-0.422c0.26-0.281,0.39-0.638,0.39-1.067s-0.13-0.785-0.39-1.07
		c-0.261-0.284-0.575-0.427-0.944-0.427c-0.363,0-0.677,0.143-0.939,0.427c-0.264,0.285-0.396,0.641-0.396,1.07
		s0.132,0.786,0.396,1.067C222.754,36.049,223.067,36.191,223.431,36.191z"/>
	<path fill="#575656" d="M227.724,34.684v2.233h-1.008v-4.439h0.972v0.591c0.115-0.207,0.285-0.374,0.513-0.504
		c0.227-0.131,0.47-0.195,0.73-0.195c0.52,0,0.939,0.179,1.257,0.535c0.318,0.356,0.477,0.835,0.477,1.435v2.578h-1.007v-2.324
		c0-0.473-0.077-0.821-0.231-1.048c-0.154-0.228-0.393-0.341-0.713-0.341c-0.164,0-0.324,0.055-0.48,0.163
		c-0.158,0.108-0.279,0.258-0.364,0.444C227.772,34.031,227.724,34.321,227.724,34.684z"/>
	<path fill="#575656" d="M233.814,34.049c0.339,0,0.689,0,1.053,0c0-0.285-0.113-0.5-0.34-0.645
		c-0.228-0.146-0.553-0.219-0.977-0.219h-0.027c-0.398,0-0.826,0.094-1.279,0.282l-0.254-0.791c0.466-0.199,0.98-0.302,1.543-0.308
		h0.018c0.745,0,1.316,0.144,1.716,0.431c0.399,0.288,0.6,0.743,0.6,1.366v2.751h-0.963v-0.49c-0.188,0.188-0.419,0.334-0.694,0.439
		c-0.275,0.106-0.556,0.159-0.839,0.159c-0.527,0-0.955-0.141-1.285-0.422s-0.494-0.628-0.494-1.039
		c0-0.454,0.206-0.829,0.617-1.126C232.583,34.179,233.118,34.049,233.814,34.049z M233.542,36.228c0.261,0,0.518-0.064,0.771-0.191
		s0.438-0.275,0.554-0.445v-0.754c-0.333,0-0.632,0-0.898,0c-0.508,0-0.862,0.067-1.063,0.2c-0.199,0.146-0.299,0.321-0.299,0.527
		c0,0.193,0.083,0.353,0.249,0.477C233.023,36.166,233.252,36.228,233.542,36.228z"/>
	<path fill="#575656" d="M237.1,36.917v-6.59h1.008v6.59H237.1z"/>
	<path fill="#575656" d="M242.892,33.831c0,0.66,0.212,1.217,0.636,1.67c0.423,0.437,0.928,0.654,1.516,0.654
		c0.326,0,0.627-0.06,0.902-0.177c0.275-0.118,0.468-0.244,0.577-0.377v-1.207h-1.861v-0.862h2.887V35.9
		c-0.242,0.328-0.584,0.597-1.025,0.808c-0.442,0.213-0.936,0.318-1.479,0.318c-0.89,0-1.644-0.307-2.261-0.921
		s-0.926-1.373-0.926-2.274c0-0.908,0.309-1.668,0.926-2.282c0.617-0.615,1.371-0.922,2.261-0.922c0.961,0,1.709,0.248,2.241,0.744
		l-0.417,0.754c-0.521-0.417-1.129-0.627-1.824-0.627c-0.588,0-1.093,0.218-1.516,0.654
		C243.104,32.612,242.892,33.171,242.892,33.831z"/>
	<path fill="#575656" d="M250.807,37.026c-0.647,0-1.201-0.225-1.661-0.672s-0.689-0.998-0.689-1.652
		c0-0.659,0.229-1.213,0.689-1.66c0.46-0.448,1.014-0.672,1.661-0.672c0.654,0,1.209,0.224,1.666,0.672
		c0.457,0.447,0.685,1.001,0.685,1.66c0,0.654-0.228,1.205-0.685,1.652S251.461,37.026,250.807,37.026z M250.807,36.191
		c0.369,0,0.684-0.142,0.944-0.422c0.26-0.281,0.391-0.638,0.391-1.067s-0.131-0.785-0.391-1.07
		c-0.261-0.284-0.575-0.427-0.944-0.427c-0.363,0-0.677,0.143-0.939,0.427c-0.263,0.285-0.395,0.641-0.395,1.07
		s0.132,0.786,0.395,1.067C250.13,36.049,250.443,36.191,250.807,36.191z"/>
	<path fill="#575656" d="M255.681,36.074l1.188-3.596h1.045l-1.544,4.439h-1.38l-1.542-4.439h1.043L255.681,36.074z"/>
	<path fill="#575656" d="M259.266,35.138c0.061,0.272,0.188,0.496,0.382,0.672c0.284,0.26,0.659,0.39,1.126,0.39
		c0.49,0,0.949-0.182,1.379-0.544l0.3,0.744c-0.478,0.417-1.047,0.626-1.707,0.626c-0.75,0-1.359-0.213-1.828-0.64
		c-0.47-0.427-0.704-0.984-0.704-1.674c0-0.686,0.209-1.246,0.627-1.685c0.417-0.439,0.961-0.658,1.634-0.658
		c0.665,0,1.208,0.218,1.629,0.653s0.631,0.978,0.631,1.625c0,0.176-0.015,0.339-0.045,0.49H259.266z M259.248,34.348h2.469
		c-0.012-0.291-0.133-0.555-0.363-0.794c-0.229-0.239-0.523-0.358-0.88-0.358c-0.363,0-0.663,0.13-0.899,0.39
		C259.399,33.78,259.29,34.034,259.248,34.348z"/>
	<path fill="#575656" d="M263.659,36.917v-4.439h0.954v0.663c0.145-0.219,0.323-0.388,0.535-0.509
		c0.254-0.151,0.554-0.227,0.898-0.227h0.072v0.898h-0.108c-0.418,0-0.75,0.127-0.998,0.381c-0.23,0.249-0.346,0.636-0.346,1.163
		v2.069H263.659z"/>
	<path fill="#575656" d="M267.898,34.684v2.233h-1.008v-4.439h0.972v0.591c0.115-0.207,0.285-0.374,0.513-0.504
		c0.227-0.131,0.471-0.195,0.73-0.195c0.521,0,0.939,0.179,1.257,0.535c0.318,0.356,0.478,0.835,0.478,1.435v2.578h-1.008v-2.324
		c0-0.473-0.077-0.821-0.231-1.048c-0.154-0.228-0.392-0.341-0.713-0.341c-0.163,0-0.323,0.055-0.48,0.163
		c-0.158,0.108-0.278,0.258-0.363,0.444C267.947,34.031,267.898,34.321,267.898,34.684z"/>
	<path fill="#575656" d="M276.793,32.37c0.521,0,0.927,0.179,1.217,0.535c0.291,0.356,0.436,0.835,0.436,1.435v2.578h-0.998v-2.324
		c0-0.473-0.064-0.821-0.19-1.048c-0.127-0.228-0.336-0.341-0.627-0.341c-0.169,0-0.317,0.049-0.444,0.146
		c-0.128,0.097-0.23,0.239-0.309,0.427c-0.079,0.193-0.118,0.465-0.118,0.816v2.324h-0.998v-2.324c0-0.473-0.065-0.821-0.196-1.048
		c-0.13-0.228-0.337-0.341-0.621-0.341c-0.17,0-0.315,0.049-0.436,0.146c-0.121,0.097-0.225,0.239-0.309,0.427
		c-0.085,0.218-0.127,0.508-0.127,0.871v-0.009v2.278h-0.999v-4.439h0.944v0.591c0.248-0.467,0.633-0.699,1.152-0.699
		c0.557,0,0.966,0.27,1.226,0.808c0.151-0.267,0.334-0.468,0.549-0.604C276.159,32.437,276.442,32.37,276.793,32.37z"/>
	<path fill="#575656" d="M280.406,35.138c0.061,0.272,0.188,0.496,0.382,0.672c0.283,0.26,0.659,0.39,1.125,0.39
		c0.49,0,0.95-0.182,1.38-0.544l0.3,0.744c-0.479,0.417-1.047,0.626-1.707,0.626c-0.75,0-1.359-0.213-1.829-0.64
		c-0.469-0.427-0.703-0.984-0.703-1.674c0-0.686,0.208-1.246,0.626-1.685c0.417-0.439,0.962-0.658,1.635-0.658
		c0.665,0,1.208,0.218,1.629,0.653c0.42,0.436,0.631,0.978,0.631,1.625c0,0.176-0.015,0.339-0.045,0.49H280.406z M280.389,34.348
		h2.468c-0.012-0.291-0.132-0.555-0.362-0.794c-0.229-0.239-0.523-0.358-0.88-0.358c-0.364,0-0.663,0.13-0.899,0.39
		C280.54,33.78,280.431,34.034,280.389,34.348z"/>
	<path fill="#575656" d="M285.807,34.684v2.233h-1.008v-4.439h0.972v0.591c0.115-0.207,0.286-0.374,0.513-0.504
		c0.227-0.131,0.471-0.195,0.73-0.195c0.521,0,0.94,0.179,1.258,0.535s0.477,0.835,0.477,1.435v2.578h-1.008v-2.324
		c0-0.473-0.077-0.821-0.231-1.048c-0.154-0.228-0.392-0.341-0.712-0.341c-0.164,0-0.324,0.055-0.481,0.163
		s-0.278,0.258-0.363,0.444C285.855,34.031,285.807,34.321,285.807,34.684z"/>
	<path fill="#575656" d="M291.181,31.044v1.434h0.962v0.809h-0.962v2.26c0,0.218,0.052,0.365,0.154,0.444s0.248,0.118,0.436,0.118
		h0.372v0.809h-0.607c-0.479,0-0.826-0.107-1.044-0.322s-0.327-0.531-0.327-0.948v-2.36h-0.763v-0.809h0.763v-1.434H291.181z"/>
</g>
</svg>
