<?xml version="1.0" encoding="utf-8"?>
<!-- Generator: Adobe Illustrator 16.0.0, SVG Export Plug-In . SVG Version: 6.00 Build 0)  -->
<!DOCTYPE svg PUBLIC "-//W3C//DTD SVG 1.1//EN" "http://www.w3.org/Graphics/SVG/1.1/DTD/svg11.dtd">
<svg version="1.1" id="Layer_1" xmlns="http://www.w3.org/2000/svg" xmlns:xlink="http://www.w3.org/1999/xlink" x="0px" y="0px"
	 width="282.737px" height="43.71px" viewBox="0 0 282.737 43.71" enable-background="new 0 0 282.737 43.71" xml:space="preserve">
<g>
	<g>
		<circle fill="#FFFFFF" cx="21.855" cy="21.855" r="21.855"/>
		<g>
			<g>
				<g>
					<g>
						<g>
							<g>
								<path fill="#003964" d="M31.577,20.477c-3.289-2.236-7.498-1.324-9.709,2.036c-1.845,2.809-4.63,3.156-5.712,3.156
									c-3.516,0-5.925-2.473-6.637-5.034H9.519c-0.007-0.024-0.014-0.045-0.02-0.07c-0.008-0.028-0.016-0.057-0.022-0.088
									c-0.28-1.066-0.35-1.578-0.35-2.713c0-6.123,6.283-12.938,15.328-12.938c9.265,0,14.565,7.053,15.928,10.973
									c-0.021-0.07-0.044-0.138-0.067-0.208c-2.63-7.666-9.896-13.18-18.459-13.18c-10.769,0-19.505,8.734-19.505,19.508
									c0,9.629,6.946,17.874,16.581,17.874c7.686,0,12.848-4.31,15.216-10.246C35.45,26.298,34.527,22.481,31.577,20.477z"/>
							</g>
							<g>
								<path fill="#ED1A3B" d="M40.507,16.178c-1.14-3.824-6.479-11.353-16.052-11.353c-9.045,0-15.328,6.815-15.328,12.938
									c0,1.135,0.069,1.646,0.35,2.713c-0.119-0.466-0.179-0.937-0.179-1.392c0-6.375,6.383-10.793,12.943-10.793
									c8.885,0,16.088,7.202,16.088,16.084c0,6.964-4.009,12.989-9.831,15.887v0.004c7.507-2.719,12.867-9.906,12.867-18.349
									C41.365,19.919,41.097,18.157,40.507,16.178z"/>
							</g>
						</g>
					</g>
				</g>
			</g>
		</g>
	</g>
	<g>
		<path fill="#FFFFFF" d="M57.668,14.574v-1.862h-5.06v-1.394h11.732v1.394h-5.074v1.862h4.136v4.459h-1.584v-3.065H53.4v-1.394
			H57.668z M63.373,6.494v3.798h-1.584V7.887h-8.271V6.494H63.373z"/>
		<path fill="#FFFFFF" d="M73.346,13.123h-6.893V9.222h5.162V7.945h-5.162V6.597h6.746v3.916h-5.178v1.29h5.324V13.123z
			 M67.171,13.797h1.555v1.057h6.893v-1.057h1.555v4.957H67.171V13.797z M75.618,16.144h-6.893v1.291h6.893V16.144z M75.589,6.229
			h1.584v7.128h-1.584V6.229z"/>
		<path fill="#FFFFFF" d="M79.607,7.021h5.368v1.394h-3.77v7.436h3.931v1.394h-5.529V7.021z M89.287,6.229h1.525v12.774h-1.525
			v-6.16h-1.701v6.087h-1.481V6.244h1.481v5.236h1.701V6.229z"/>
		<path fill="#FFFFFF" d="M92.483,8.547V7.184h3.006V5.966h1.687v1.218h3.021v1.363H92.483z M93.055,18.754v-3.886h1.599v2.493
			h8.697v1.393H93.055z M99.303,11.627c0,0.381-0.078,0.735-0.234,1.063c-0.157,0.327-0.367,0.618-0.631,0.872
			c-0.274,0.245-0.589,0.44-0.946,0.587c-0.356,0.146-0.74,0.22-1.151,0.22c-0.41,0-0.794-0.073-1.151-0.22
			c-0.356-0.146-0.672-0.342-0.945-0.587c-0.265-0.254-0.475-0.545-0.631-0.872c-0.156-0.328-0.234-0.683-0.234-1.063
			c0-0.382,0.078-0.738,0.234-1.07c0.156-0.333,0.366-0.626,0.631-0.88c0.273-0.245,0.589-0.44,0.945-0.587
			c0.357-0.146,0.741-0.22,1.151-0.22c0.411,0,0.795,0.073,1.151,0.22c0.357,0.146,0.672,0.342,0.946,0.587
			c0.264,0.254,0.474,0.547,0.631,0.88C99.225,10.889,99.303,11.245,99.303,11.627z M97.763,11.612c0-0.391-0.137-0.727-0.411-1.005
			c-0.273-0.278-0.605-0.418-0.997-0.418c-0.391,0-0.726,0.14-1.004,0.418c-0.279,0.278-0.418,0.614-0.418,1.005
			s0.139,0.724,0.418,0.997c0.278,0.273,0.613,0.411,1.004,0.411c0.392,0,0.724-0.138,0.997-0.411
			C97.626,12.336,97.763,12.003,97.763,11.612z M103.086,9.706h1.834v1.393h-1.834v3.314h-1.584V6.229h1.584V9.706z"/>
		<path fill="#FFFFFF" d="M106.577,13.167v-6.57h6.569v6.57H106.577z M106.943,18.754v-4.268h1.584v2.86h8.887v1.407H106.943z
			 M111.593,7.975h-3.447v3.828h3.447V7.975z M115.713,14.413V6.229h1.584v8.184H115.713z"/>
		<path fill="#FFFFFF" d="M124.542,14.574v-1.862h-5.06v-1.394h11.732v1.394h-5.074v1.862h4.136v4.459h-1.584v-3.065h-8.418v-1.394
			H124.542z M130.247,6.494v3.798h-1.584V7.887h-8.271V6.494H130.247z"/>
		<path fill="#FFFFFF" d="M140.029,9.573c0,0.45-0.091,0.871-0.271,1.262c-0.182,0.391-0.428,0.733-0.741,1.026
			c-0.303,0.293-0.662,0.525-1.077,0.696c-0.416,0.172-0.858,0.257-1.328,0.257c-0.469,0-0.911-0.085-1.327-0.257
			c-0.415-0.171-0.774-0.403-1.077-0.696c-0.313-0.293-0.561-0.636-0.741-1.026s-0.271-0.812-0.271-1.262
			c0-0.449,0.091-0.872,0.271-1.269c0.181-0.396,0.428-0.74,0.741-1.033c0.303-0.294,0.662-0.525,1.077-0.697
			c0.416-0.171,0.858-0.256,1.327-0.256c0.47,0,0.912,0.085,1.328,0.256c0.415,0.172,0.774,0.403,1.077,0.697
			c0.313,0.293,0.56,0.638,0.741,1.033C139.938,8.701,140.029,9.124,140.029,9.573z M134.045,13.65h10.002v5.104h-10.002V13.65z
			 M138.504,9.573c0-0.518-0.184-0.963-0.55-1.334c-0.367-0.372-0.81-0.558-1.328-0.558c-0.518,0-0.963,0.186-1.334,0.558
			c-0.372,0.371-0.558,0.816-0.558,1.334c0,0.519,0.186,0.961,0.558,1.327c0.371,0.367,0.816,0.551,1.334,0.551
			c0.519,0,0.961-0.184,1.328-0.551C138.32,10.534,138.504,10.092,138.504,9.573z M142.478,15h-6.863v2.391h6.863V15z
			 M142.463,6.229h1.584v6.761h-1.584V6.229z"/>
		<path fill="#FFFFFF" d="M150.104,6.318l4.18,10.324l-1.408,0.616l-2.771-7.011l-2.743,7.113l-1.437-0.631L150.104,6.318z
			 M155.837,6.229h1.584v12.774h-1.584V6.229z"/>
		<path fill="#FFFFFF" d="M159.563,7.96V6.597h7.333V7.96h-3.124l3.256,3.975l-1.114,0.909l-2.611-3.256l-2.596,3.477l-1.158-0.939
			l3.241-4.165H159.563z M169.711,16.29c0,0.431-0.088,0.834-0.264,1.21c-0.176,0.377-0.411,0.707-0.704,0.99
			c-0.304,0.283-0.658,0.509-1.063,0.675s-0.834,0.249-1.283,0.249c-0.45,0-0.88-0.083-1.29-0.249
			c-0.411-0.166-0.769-0.392-1.071-0.675c-0.293-0.283-0.527-0.613-0.704-0.99c-0.176-0.376-0.264-0.779-0.264-1.21
			c0-0.43,0.088-0.836,0.264-1.217c0.177-0.381,0.411-0.714,0.704-0.997c0.303-0.283,0.66-0.509,1.071-0.675
			c0.41-0.166,0.84-0.249,1.29-0.249c0.449,0,0.878,0.083,1.283,0.249s0.76,0.392,1.063,0.675c0.293,0.283,0.528,0.616,0.704,0.997
			S169.711,15.86,169.711,16.29z M168.156,16.275c0-0.479-0.176-0.892-0.527-1.239c-0.353-0.347-0.769-0.521-1.247-0.521
			c-0.479,0-0.893,0.174-1.239,0.521c-0.347,0.348-0.521,0.761-0.521,1.239c0,0.479,0.174,0.891,0.521,1.232s0.76,0.513,1.239,0.513
			c0.479,0,0.895-0.171,1.247-0.513C167.98,17.166,168.156,16.755,168.156,16.275z M169.212,13.006v-2.772h-2.375V8.87h2.375V6.229
			h1.584v6.776H169.212z"/>
		<path fill="#FFFFFF" d="M172.981,14.311h11.732v1.408h-5.074v3.285h-1.599v-3.285h-5.06V14.311z M175.489,8.063h6.717V6.45h1.569
			v6.145h-9.855V6.45h1.569V8.063z M182.206,9.441h-6.717v1.76h6.717V9.441z"/>
		<path fill="#FFFFFF" d="M192.766,17.332h-1.584V8.444h-4.898V7.021h6.482V17.332z M195.962,6.229h1.584v12.774h-1.584V6.229z"/>
		<path fill="#FFFFFF" d="M207.094,12.756h-6.834V6.523h1.599v4.869h5.235V12.756z M200.919,13.65h10.002v5.104h-10.002V13.65z
			 M209.352,15h-6.863v2.391h6.863V15z M209.337,6.229h1.584v6.761h-1.584V10.85h-3.476V9.617h3.476V8.62h-3.476V7.359h3.476V6.229z
			"/>
		<path fill="#FFFFFF" d="M221.187,12.492v1.394H212.9v-1.394h2.596v-2.86h1.569v2.86H221.187z M218.913,11.274V7.872h-5.441V6.494
			h7.011v4.78H218.913z M213.81,18.783v-3.827h1.584v2.435h8.594v1.393H213.81z M223.753,14.618h-1.584V6.229h1.584v3.433h1.643
			v1.451h-1.643V14.618z"/>
		<path fill="#FFFFFF" d="M238.228,11.583c0,0.519-0.103,1.005-0.309,1.459c-0.205,0.455-0.483,0.854-0.836,1.195
			c-0.352,0.343-0.765,0.613-1.239,0.813c-0.474,0.201-0.979,0.301-1.518,0.301s-1.044-0.1-1.518-0.301
			c-0.475-0.2-0.888-0.471-1.239-0.813c-0.353-0.342-0.631-0.74-0.836-1.195c-0.205-0.454-0.309-0.94-0.309-1.459
			s0.104-1.005,0.309-1.459c0.205-0.455,0.483-0.854,0.836-1.195c0.352-0.343,0.765-0.614,1.239-0.814
			c0.474-0.2,0.979-0.301,1.518-0.301s1.044,0.101,1.518,0.301c0.475,0.2,0.888,0.472,1.239,0.814
			c0.353,0.342,0.631,0.74,0.836,1.195C238.125,10.578,238.228,11.064,238.228,11.583z M236.658,11.583
			c0-0.323-0.062-0.631-0.184-0.924c-0.122-0.294-0.286-0.543-0.491-0.748c-0.215-0.215-0.465-0.384-0.748-0.506
			s-0.587-0.184-0.909-0.184s-0.626,0.062-0.909,0.184s-0.533,0.291-0.748,0.506c-0.205,0.205-0.369,0.454-0.491,0.748
			c-0.122,0.293-0.184,0.601-0.184,0.924c0,0.322,0.062,0.631,0.184,0.924s0.286,0.543,0.491,0.748
			c0.215,0.215,0.465,0.384,0.748,0.506s0.587,0.184,0.909,0.184s0.626-0.062,0.909-0.184s0.533-0.291,0.748-0.506
			c0.205-0.205,0.369-0.455,0.491-0.748S236.658,11.905,236.658,11.583z M241.233,19.004h-1.584V6.229h1.584v4.562h1.834v1.584
			h-1.834V19.004z"/>
		<path fill="#FFFFFF" d="M243.874,7.021h6.438v10.311h-1.584v-4.649h-4.78v-1.394h4.78V8.444h-4.854V7.021z M254.608,11.187h1.834
			v1.584h-1.834v6.233h-1.584V6.229h1.584V11.187z"/>
		<path fill="#FFFFFF" d="M265.183,11.583c0,0.519-0.105,1.007-0.315,1.467c-0.21,0.459-0.491,0.86-0.843,1.202
			c-0.353,0.343-0.766,0.613-1.239,0.813c-0.475,0.201-0.98,0.301-1.519,0.301c-0.537,0-1.044-0.1-1.518-0.301
			c-0.475-0.2-0.888-0.471-1.239-0.813c-0.352-0.342-0.633-0.743-0.843-1.202c-0.211-0.46-0.315-0.948-0.315-1.467
			s0.104-1.007,0.315-1.467c0.21-0.459,0.491-0.86,0.843-1.202c0.352-0.343,0.765-0.614,1.239-0.814
			c0.474-0.2,0.98-0.301,1.518-0.301c0.538,0,1.044,0.101,1.519,0.301c0.474,0.2,0.887,0.472,1.239,0.814
			c0.352,0.342,0.633,0.743,0.843,1.202C265.077,10.576,265.183,11.064,265.183,11.583z M263.613,11.583
			c0-0.323-0.062-0.631-0.184-0.924c-0.122-0.294-0.285-0.548-0.491-0.763c-0.215-0.215-0.467-0.384-0.755-0.506
			c-0.289-0.122-0.594-0.184-0.917-0.184c-0.322,0-0.628,0.062-0.916,0.184c-0.289,0.122-0.541,0.291-0.756,0.506
			c-0.205,0.215-0.369,0.469-0.491,0.763c-0.122,0.293-0.183,0.601-0.183,0.924c0,0.322,0.061,0.631,0.183,0.924
			s0.286,0.548,0.491,0.763c0.215,0.215,0.467,0.384,0.756,0.506c0.288,0.122,0.594,0.184,0.916,0.184
			c0.323,0,0.628-0.062,0.917-0.184c0.288-0.122,0.54-0.291,0.755-0.506c0.206-0.215,0.369-0.47,0.491-0.763
			S263.613,11.905,263.613,11.583z M267.235,6.229h1.584v12.774h-1.584V6.229z"/>
		<path fill="#FFFFFF" d="M282.737,16.657v1.408h-11.732v-1.408H282.737z M280.229,8.826V6.772h1.569v7.45h-9.855v-7.45h1.569v2.054
			H280.229z M280.229,12.829v-2.625h-6.717v2.625H280.229z"/>
	</g>
	<g>
		<path fill="#FFFFFF" d="M56.437,25.49l4.032,6.512l-1.29,0.807l-2.742-4.575l-2.714,4.678l-1.319-0.807L56.437,25.49z
			 M53.444,38.088V33.82h1.584v2.86h8.887v1.407H53.444z M62.214,33.747v-8.184h1.584v8.184H62.214z"/>
		<path fill="#FFFFFF" d="M77.716,31.943v1.394H72.7v1.979h-1.599v-1.979h-5.118v-1.394H77.716z M66.922,30.638v-4.912h9.855v4.912
			H66.922z M68.521,34.363v2.361h8.418v1.393H66.922v-3.754H68.521z M75.208,27.104h-6.717v2.171h6.717V27.104z"/>
		<path fill="#FFFFFF" d="M82.79,31.504c0,0.293-0.107,0.545-0.322,0.755c-0.216,0.21-0.47,0.315-0.763,0.315
			c-0.294,0-0.548-0.105-0.763-0.315s-0.323-0.462-0.323-0.755c0-0.294,0.108-0.545,0.323-0.756c0.215-0.21,0.469-0.315,0.763-0.315
			c0.293,0,0.547,0.105,0.763,0.315C82.683,30.959,82.79,31.21,82.79,31.504z"/>
		<path fill="#FFFFFF" d="M85.444,27.294v-1.363h7.332v1.363h-3.123l3.256,4.063l-1.145,0.88l-2.581-3.314l-2.566,3.418l-1.188-0.91
			l3.241-4.136H85.444z M86.207,32.691h1.554v1.202h6.746v-1.202h1.555v5.396h-9.854V32.691z M94.507,35.185h-6.746v1.584h6.746
			V35.185z M96.062,32.324h-1.584v-6.761h1.584v2.479h1.834v1.569h-1.834V32.324z"/>
		<path fill="#FFFFFF" d="M98.922,27.749v-1.394h7.685v1.394h-3.212l3.52,8.359l-1.393,0.602l-2.685-6.526l-2.669,6.629
			l-1.451-0.616l3.534-8.447H98.922z M108.688,25.563h1.584v12.774h-1.584V25.563z"/>
		<path fill="#FFFFFF" d="M117.077,25.931h6.277v5.47h-1.569v-1.539h-4.635v-1.335h4.635v-1.232h-4.708V25.931z M118.016,32.222
			h10.031v3.491H119.6v1.085h8.595v1.29h-10.179v-3.563h8.447v-1.056h-8.447V32.222z M126.463,25.563h1.584v6.058h-1.584v-2.435
			h-2.097v-1.394h2.097V25.563z"/>
		<path fill="#FFFFFF" d="M136.201,32.691h-5.749v-4.033h4.077v-1.379h-4.077v-1.349h5.603v4.033h-4.077v1.422h4.224V32.691z
			 M131.142,33.791h10.428v4.43h-1.584v-3.021h-8.844V33.791z M137.609,25.578h1.496v7.304h-1.496v-2.728h-1.159v-1.408h1.159
			V25.578z M140.044,25.563h1.525v7.392h-1.525V25.563z"/>
		<path fill="#FFFFFF" d="M147.435,25.49l4.032,6.512l-1.29,0.807l-2.742-4.575l-2.714,4.678l-1.319-0.807L147.435,25.49z
			 M144.442,38.088V33.82h1.584v2.86h8.887v1.407H144.442z M153.212,33.747V30.8h-2.17v-1.306h2.17v-1.202h-2.214v-1.306h2.214
			v-1.423h1.584v8.184H153.212z"/>
	</g>
</g>
</svg>
