<?xml version="1.0" encoding="utf-8"?>
<!-- Generator: Adobe Illustrator 16.0.0, SVG Export Plug-In . SVG Version: 6.00 Build 0)  -->
<!DOCTYPE svg PUBLIC "-//W3C//DTD SVG 1.1//EN" "http://www.w3.org/Graphics/SVG/1.1/DTD/svg11.dtd">
<svg version="1.1" id="Layer_1" xmlns="http://www.w3.org/2000/svg" xmlns:xlink="http://www.w3.org/1999/xlink" x="0px" y="0px"
	 width="374.685px" height="178.939px" viewBox="0 0 374.685 178.939" enable-background="new 0 0 374.685 178.939"
	 xml:space="preserve">
<g>
	<path d="M29.122,45.301c-0.19,0.509-0.286,0.826-0.286,0.952c-0.19-0.062-0.366-0.095-0.523-0.095c-0.159,0-0.302,0-0.428,0
		c-0.635,0-1.175,0.271-1.618,0.809c-0.445,0.54-0.699,0.842-0.761,0.904c-0.064,0-0.238-0.253-0.523-0.761
		c-0.286-0.507-0.778-0.762-1.476-0.762c-0.254-0.316-0.238-0.935,0.048-1.855c0.286-0.919,0.428-1.856,0.428-2.808
		c-0.064-2.22,0.015-4.647,0.238-7.281c0.222-2.632,0.333-4.235,0.333-4.806c-0.063-2.03-0.428-3.426-1.094-4.188
		s-2.236-1.078-4.711-0.952c-1.777,0.064-3.426,0.476-4.949,1.237c-1.523,0.761-2.348,1.175-2.475,1.237c-0.254,0-0.556,0-0.904,0
		c-0.349,0-0.683-0.031-0.999-0.095c-0.254-0.317-1.396-1.047-3.426-2.189c-2.031-1.142-3.045-2.061-3.045-2.76
		c0.443-0.571,0.666-0.919,0.666-1.047c1.84-0.126,3.981-0.316,6.424-0.571c2.441-0.253,3.791-0.412,4.044-0.476
		c0.507,0,1.538-0.269,3.093-0.809c1.554-0.539,2.394-0.809,2.522-0.809c2.665-0.126,5.028,0.523,7.09,1.951
		c2.061,1.427,3.124,3.538,3.188,6.329l1.047,2.76c-0.19,0.064-0.349,0.175-0.476,0.333c-0.128,0.159-0.19,0.461-0.19,0.904
		c0,0.128,0.079,0.286,0.238,0.476c0.158,0.19,0.396,0.699,0.714,1.522c-0.128,0.128-0.19,0.271-0.19,0.429
		c0,0.159,0.031,0.492,0.095,0.999c-0.508,0.381-0.889,0.699-1.142,0.952c0.063,0.318,0.143,0.683,0.238,1.095
		c0.095,0.413,0.143,0.777,0.143,1.094c-0.128,0.064-0.254,0.238-0.381,0.523c-0.128,0.286-0.254,0.714-0.38,1.285
		c0.126,0.064,0.269,0.128,0.428,0.19c0.158,0.064,0.269,0.128,0.333,0.19c-0.064,0.19-0.143,0.381-0.238,0.571
		c-0.095,0.19-0.176,0.413-0.238,0.666c0.063-0.063,0.11-0.095,0.143-0.095c0.031,0,0.079,0,0.143,0l-0.856,4.092
		C29.408,44.509,29.313,44.794,29.122,45.301z M52.867,35.927c-0.033,0.033-0.08,0.111-0.143,0.238
		c-0.064,0.254-0.254,0.604-0.571,1.047c-0.128,0.128-0.159,0.397-0.095,0.809c0.063,0.413,0.126,0.777,0.19,1.094
		c0.063,0.318,0.048,0.509-0.047,0.571c-0.095,0.064-0.302,0.159-0.619,0.285c0.126,0.381,0.238,1,0.333,1.856
		s0.143,1.317,0.143,1.38c0,0.064-0.033,0.333-0.095,0.809c-0.064,0.476-0.159,0.968-0.286,1.475
		c-0.128,0.571-0.254,1.206-0.381,1.903h0.19c0,0.128-0.064,0.128-0.19,0c-0.128-0.126-0.318-0.205-0.571-0.238
		c-0.254-0.031-0.635-0.047-1.142-0.047c-0.128,0.254-0.223,0.476-0.286,0.666c-0.064,0.19-0.159,0.35-0.286,0.476
		c-0.128,0.127-0.271,0.254-0.428,0.38c-0.159,0.128-0.428,0.35-0.809,0.667c-0.445-0.063-0.699-0.095-0.762-0.095
		c-0.064,0-0.128,0-0.19,0h-0.761c0.126-2.094,0.174-4.124,0.143-6.091c-0.033-1.966-0.017-3.933,0.047-5.9
		c0.063-0.381,0.11-0.904,0.143-1.57c0.031-0.666,0.079-1.316,0.143-1.951c0.063-0.507,0.079-0.856,0.047-1.047
		c-0.033-0.19-0.111-0.348-0.238-0.476c-0.064-0.063-0.223-0.095-0.476-0.095c0.507-2.347,0.459-4.203-0.143-5.567
		c-0.604-1.364-1.158-2.617-1.666-3.759c-1.08-2.537-2.3-4.393-3.664-5.568c-1.365-1.173-2.015-2.077-1.951-2.712
		c0.063-1.268,1.078-2.299,3.045-3.093c1.966-0.792,2.982-1.189,3.046-1.189c0.888,0.063,2.189,0.92,3.902,2.569
		c1.713,1.651,2.696,3.49,2.95,5.52c0.063,0.508,0.079,1.237,0.048,2.189c-0.033,0.952,0.238,1.746,0.809,2.379
		c0,0.064-0.016,0.349-0.047,0.856c-0.033,0.508-0.176,0.825-0.428,0.952c0.252,3.109,0.507,5.187,0.761,6.233
		c0.253,1.047,0.317,2.681,0.19,4.901l0.095-0.095v0.095C52.882,35.848,52.898,35.896,52.867,35.927z"/>
	<path d="M95.503,28.028c4.345,1.047,6.52,2.84,6.52,5.377c0,0.38-0.667,0.92-1.999,1.618c-1.333,0.699-2.063,1.08-2.189,1.142
		c-1.396,0-2.824-0.919-4.283-2.76c-1.46-1.84-3.681-2.76-6.662-2.76c-1.206,0-2.015,0.254-2.427,0.761
		c-0.414,0.509-0.747,1.047-1,1.618c-0.635,1.841-1.142,3.902-1.522,6.186c-0.381,2.284-1.333,3.426-2.855,3.426v-0.19h-0.095
		c-0.254-0.063-0.666-0.095-1.237-0.095c-0.699,0-1.301,0.286-1.809,0.856c-0.508-0.761-1.016-1.68-1.522-2.76
		c-0.509-1.078-0.761-2.03-0.761-2.855c0-0.126,0.919-2.87,2.76-8.232c1.839-5.361,2.981-8.359,3.426-8.994
		c0.507-0.633,1.078-1.823,1.713-3.569c0.633-1.745,1.3-3.029,1.999-3.854c0.507-0.507,0.983-1.252,1.428-2.236
		c0.443-0.983,0.761-1.476,0.952-1.476c0.126,0,0.364,0.159,0.714,0.476c0.348,0.318,0.586,0.54,0.714,0.666
		c0.697-0.888,1.109-1.522,1.237-1.903V8.185c1.142,1.206,1.918,2.206,2.332,2.998c0.412,0.794,0.619,1.603,0.619,2.427
		c0,1.206-0.842,3.157-2.522,5.853c-1.682,2.698-2.872,5.125-3.569,7.281C87.81,26.553,91.157,26.981,95.503,28.028z
		 M128.433,62.623c-1.746,0.318-3.378,0.73-4.901,1.237c-3.997,1.396-7.979,2.981-11.944,4.758
		c-3.966,1.776-6.107,2.665-6.424,2.665c-0.064,0-0.667-0.095-1.809-0.286c-1.142-0.19-1.999-0.571-2.569-1.142
		c-0.254-0.318-0.461-1.142-0.619-2.475c-0.159-1.332-0.238-2.315-0.238-2.95c0.633,0.254,1.427-0.412,2.379-1.999
		c0.952-1.585,1.523-2.632,1.713-3.141c1.649-1.775,3.521-4.6,5.615-8.47c2.094-3.869,4.028-6.629,5.805-8.28
		c-0.064-0.126-0.143-0.205-0.238-0.238c-0.095-0.031-0.207-0.048-0.333-0.048c0.697-1.458,1.792-3.426,3.283-5.9
		c1.49-2.475,2.584-4.473,3.283-5.996c-0.254-0.19-0.428-0.428-0.523-0.713c-0.095-0.286-0.333-0.428-0.713-0.428
		c-0.318,0-1.396,0.366-3.236,1.094c-1.841,0.73-2.919,1.094-3.236,1.094c-1.651,0-2.824-0.602-3.521-1.808
		c-0.699-1.205-1.175-1.808-1.428-1.808c-0.254-0.317-0.523-1.903-0.809-4.759c-0.286-2.855-0.523-4.377-0.714-4.568
		c-0.19-0.507-0.238-1.126-0.143-1.856c0.095-0.729,0.079-1.347-0.047-1.856c-0.445-1.269-0.54-2.775-0.286-4.521
		c0.253-1.744-1.175-3.631-4.283-5.663c1.333-1.014,2.22-2.03,2.665-3.045C105.606,0.509,107.003,0,109.351,0
		c1.966,0,3.458,1.127,4.473,3.378c1.014,2.253,1.522,3.918,1.522,4.997l-0.571,3.331c-0.254,0.064-0.428,0.286-0.523,0.666
		c-0.095,0.381-0.017,0.667,0.238,0.857v0.952l-0.571-0.476c-0.254,0.064-0.461,0.223-0.618,0.476
		c-0.159,0.254-0.271,0.476-0.333,0.666c0.126,0.254,0.317,0.476,0.571,0.667c0.253,0.19,0.602,0.444,1.047,0.761
		c-0.064,0.318-0.223,0.794-0.476,1.427c-0.254,0.635-0.19,1.175,0.19,1.618c0,0.128-0.095,0.333-0.286,0.619
		c-0.19,0.286-0.349,0.492-0.476,0.619c0,0.128,0.079,0.271,0.238,0.428c0.158,0.159,0.269,0.207,0.333,0.143
		c0.063,0.128,0.126,0.428,0.19,0.904c0.063,0.476,0.158,0.904,0.286,1.285c-0.128,0.128-0.271,0.223-0.428,0.286
		c-0.159,0.064-0.397,0.095-0.714,0.095v2.284c0.253-0.19,0.538-0.286,0.856-0.286c0.317,0,0.539,0.19,0.666,0.571
		c0.126,0.381,0.348,0.571,0.667,0.571c0.063,0,1.538-0.745,4.425-2.237c2.886-1.49,5.123-2.236,6.709-2.236
		c1.142,0,2.094,0.54,2.855,1.618c0.761,1.08,1.142,1.746,1.142,1.999c0,0.318-0.143,0.635-0.429,0.952
		c-0.285,0.318-0.587,0.635-0.904,0.952c0,0.128,0.063,0.302,0.19,0.523c0.126,0.223,0.316,0.397,0.571,0.523
		c-0.064,0.254-0.238,0.492-0.523,0.714c-0.286,0.223-0.556,0.366-0.809,0.428c-0.508,0.635-0.873,1.127-1.094,1.475
		c-0.223,0.35-0.397,0.904-0.523,1.666c-0.825,0.761-1.793,1.634-2.903,2.617c-1.111,0.984-1.825,1.793-2.141,2.427
		c-0.254,0.445-0.54,1.063-0.857,1.856c-0.318,0.794-0.699,1.539-1.142,2.236c-0.254,0.509-0.714,1.189-1.38,2.046
		c-0.666,0.856-1.285,1.698-1.855,2.522c-0.254,0.444-0.651,1.158-1.19,2.141c-0.54,0.984-1.063,1.729-1.57,2.237
		c-0.064,0.064-0.159,0.095-0.286,0.095c-0.127,0-0.254,0.064-0.38,0.19c0.063,1.016-0.635,2.855-2.094,5.52
		c-1.46,2.665-2.189,4.442-2.189,5.33c0,0.318,0.063,0.476,0.19,0.476c0.126,0,0.221,0.159,0.285,0.476h0.952
		c0.252,0,1.125-0.364,2.617-1.094c1.49-0.729,2.807-1.316,3.949-1.761c0.507-0.126,1.776-0.761,3.807-1.903
		c2.03-1.142,3.933-1.713,5.71-1.713c0.443,0,1.285-0.031,2.522-0.095c1.237-0.062,2.237,0.254,2.998,0.952
		c-0.128,0.127-0.19,0.366-0.19,0.713c0,0.35,0.286,0.683,0.856,1c-0.127,0.318-0.285,0.571-0.476,0.761s-0.254,0.445-0.19,0.761
		C131.462,61.766,130.177,62.306,128.433,62.623z M110.778,51.535c-1.016,1.175-1.522,1.92-1.522,2.236
		c0,0.318,0.063,0.492,0.19,0.523c0.126,0.033,0.158,0.143,0.095,0.333c-0.064,0.19-0.254,0.444-0.571,0.761
		c-0.318,0.318-0.54,0.604-0.666,0.856c0.126-0.253,0.316-0.428,0.571-0.523c0.253-0.095,0.443-0.174,0.571-0.238
		c0.126,0.064,0.19,0.207,0.19,0.428c0,0.223,0,0.397,0,0.523c1.014-0.698,2.061-2.046,3.141-4.045
		c1.078-1.999,1.935-3.536,2.569-4.616c0.19-0.317,0.364-0.809,0.523-1.475c0.158-0.666,0.523-1.031,1.095-1.095
		c0-0.316,0-0.602,0-0.856c0-0.252-0.128-0.443-0.381-0.571c0.126-0.126,0.205-0.238,0.238-0.333
		c0.031-0.095,0.079-0.174,0.143-0.238c0.19,0,0.396,0.033,0.619,0.095c0.221,0.064,0.364,0.095,0.428,0.095
		c0.19-0.317,0.3-0.697,0.333-1.142c0.031-0.443-0.207-0.792-0.714-1.047c0.126-0.126,0.238-0.19,0.333-0.19s0.174-0.063,0.238-0.19
		l0.667,0.285l0.19-2.855c-0.064,0-0.238-0.015-0.523-0.047c-0.286-0.031-0.492-0.079-0.619-0.143
		c-0.128,0.635-0.271,1.317-0.428,2.046c-0.159,0.73-0.238,1.444-0.238,2.141c-0.19,0-0.444,0.048-0.761,0.143
		c-0.318,0.095-0.571,0.207-0.761,0.333v0.856c0.126,0.128,0.285,0.286,0.476,0.476c-0.38,0-0.714,0.033-0.999,0.095
		c-0.286,0.064-0.587,0.159-0.904,0.286c-0.064,0.699-0.271,1.206-0.619,1.523c-0.349,0.318-0.523,0.635-0.523,0.952
		c0,0.254,0.079,0.556,0.238,0.904c0.158,0.35,0.27,0.714,0.333,1.095c-0.064,0.128-0.128,0.238-0.19,0.333
		c-0.064,0.095-0.159,0.207-0.286,0.333c-0.064-0.19-0.128-0.396-0.19-0.619c-0.064-0.221-0.095-0.364-0.095-0.428
		C112.523,49.363,111.792,50.362,110.778,51.535z M115.014,45.444c0.095-0.286,0.174-0.428,0.238-0.428
		c0.19,0.38,0.174,0.761-0.047,1.142c-0.223,0.38-0.587,0.825-1.095,1.332C114.617,46.412,114.918,45.729,115.014,45.444z
		 M120.105,36.212c0.063-0.031,0.571-0.396,1.522-1.094c-0.761-0.063-1.189-0.095-1.285-0.095s-0.302,0.35-0.619,1.047
		C119.915,36.198,120.042,36.245,120.105,36.212z M119.867,39.068c0.031-0.031,0.396-0.27,1.095-0.714
		c-0.571-0.063-0.889-0.079-0.952-0.048c-0.064,0.033-0.159,0.238-0.286,0.619C119.787,39.053,119.834,39.101,119.867,39.068z"/>
	<path d="M199,38.64c-0.064,0-0.414-0.158-1.047-0.476c-0.635-0.317-1.396-0.602-2.284-0.856c0-0.317-0.047-0.666-0.143-1.047
		s-0.143-0.666-0.143-0.856c0.063-0.19,0.429-1.649,1.095-4.378c0.666-2.728,0.999-4.854,0.999-6.376
		c0-0.571-0.19-2.237-0.571-4.997s-1.618-4.14-3.712-4.14c-2.665,0-4.489,0.651-5.472,1.951c-0.984,1.301-1.539,2.046-1.666,2.237
		c-0.38,0.38-0.873,0.794-1.475,1.237c-0.604,0.445-0.968,0.667-1.094,0.667c-0.064,0-0.445-0.048-1.142-0.143
		c-0.699-0.095-1.492-0.143-2.379-0.143c-0.571,0-1.317-1.142-2.236-3.426c-0.921-2.284-1.413-3.521-1.475-3.711
		c0-0.824,0.776-1.38,2.332-1.666c1.554-0.286,2.458-0.428,2.712-0.428c0.063,0,0.348,0.047,0.856,0.143
		c0.507,0.095,1.078,0.143,1.713,0.143c0.317,0,0.555,0,0.714,0c0.158,0,0.3-0.031,0.428-0.095c0.063-0.063,0.126-0.174,0.19-0.333
		c0.063-0.157,0.126-0.364,0.19-0.619c0.063-0.062,0.063-0.062,0,0c0.824-0.126,2.284-0.269,4.378-0.428
		c2.094-0.157,3.331-0.238,3.711-0.238c0.888,0,1.602-0.047,2.142-0.143c0.538-0.095,0.904-0.143,1.094-0.143
		c0.381,0,1.49,0.619,3.331,1.856c1.839,1.237,2.791,1.984,2.855,2.236c0.317,0.635,0.586,1.38,0.809,2.237
		c0.222,0.856,0.619,1.856,1.189,2.998l-1.047,7.804c-0.318,0.318-0.428,0.904-0.333,1.761s-0.016,1.634-0.333,2.332
		c0,0.064-0.286,1-0.856,2.808c-0.571,1.808-0.92,3.031-1.047,3.664c0.063,0,0.031-0.015-0.095-0.047
		c-0.128-0.031-0.35-0.048-0.666-0.048c-0.381,0-0.667,0.048-0.857,0.143c-0.19,0.095-0.349,0.207-0.476,0.333
		C199.127,38.513,199.063,38.577,199,38.64z M213.181,46.11c-0.89,3.395-1.396,6.298-1.523,8.708
		c2.602-1.713,4.773-3.203,6.52-4.473c1.744-1.269,3.854-1.904,6.329-1.904c1.396,0,2.998,0.73,4.806,2.189
		c1.809,1.46,3.125,3.712,3.95,6.757c0.316,1.08,0.729,2.236,1.237,3.474c0.507,1.237,0.762,2.27,0.762,3.093
		c0,1.206-0.938,2.617-2.809,4.235c-1.871,1.618-3.347,2.427-4.425,2.427c-2.157,0-4.743-0.476-7.757-1.427
		s-4.807-1.713-5.377-2.284c0.127-0.064,0.951-0.253,2.475-0.571c1.522-0.316,2.601-0.602,3.236-0.856
		c0.633-0.126,1.061-0.285,1.284-0.476c0.222-0.19,0.491-0.539,0.81-1.047c0.761,0,1.458-0.079,2.094-0.238
		c0.633-0.157,1.521-0.459,2.664-0.904c0.443-2.475-0.285-4.647-2.189-6.52c-1.902-1.871-3.839-2.807-5.805-2.807
		c-4.759,0-7.139,2.141-7.139,6.424s0,7.407,0,9.375c-0.317,0.507-0.475,1.014-0.475,1.522c0,0.634,0.189,1.475,0.57,2.522
		s0.571,1.602,0.571,1.666l0.666,0.476c-0.825,0.633-1.38,1.237-1.665,1.808c-0.286,0.571-0.461,0.856-0.523,0.856
		c-0.064,0-0.477-0.143-1.238-0.428c-0.761-0.286-1.205-0.556-1.332-0.809c-0.826,0-1.365,0.063-1.618,0.19
		c-0.254,0.126-0.444,0.253-0.571,0.381c-0.318-0.128-0.826-1.032-1.523-2.712c-0.699-1.682-1.08-2.586-1.142-2.712
		c0-0.318,0.19-1.603,0.571-3.854c0.38-2.251,0.538-4.171,0.476-5.758c0-0.888,0.143-2.172,0.428-3.854
		c0.286-1.68,0.523-3.155,0.714-4.425c0.381-0.507,0.824-1.014,1.333-1.523c0.19-0.571,0.031-1.03-0.476-1.38
		c-0.508-0.348-0.794-0.523-0.856-0.523c0.063-0.063,0.539-0.476,1.428-1.237c0.888-0.761,1.744-2.03,2.569-3.807
		c0.063-0.126,0.206-0.381,0.429-0.761c0.222-0.381,0.333-0.603,0.333-0.667c0.127-0.063,0.205-0.11,0.238-0.143
		c0.031-0.031,0.078-0.079,0.143-0.143c0.127-0.063,0.27-0.174,0.428-0.333c0.158-0.157,0.365-0.396,0.619-0.713
		c0.19-0.19,1.395-1.205,3.617-3.046c2.22-1.839,3.33-3.616,3.33-5.329c0-0.126,0.063-1.823,0.191-5.092
		c0.125-3.267,0.062-5.345-0.191-6.234c-0.063-0.253-0.08-0.602-0.047-1.047c0.031-0.443-0.08-0.952-0.334-1.522
		c0-0.19-0.223-1.633-0.666-4.331c-0.444-2.696-1.079-4.044-1.902-4.044c-0.064-0.126-0.303-0.84-0.715-2.142
		c-0.413-1.3-0.587-2.172-0.523-2.617c0.127-0.507,0.365-1.094,0.715-1.761c0.348-0.666,0.775-1.189,1.284-1.57
		c0.507-0.38,1.237-0.776,2.188-1.189c0.952-0.412,1.459-0.619,1.523-0.619c0.063,0,0.951,0.683,2.664,2.046
		c1.713,1.365,2.633,2.11,2.76,2.237c0.063,0.064,0.223,0.492,0.477,1.285c0.252,0.794,0.381,1.253,0.381,1.38
		c-0.064,0.254-0.303,1.889-0.714,4.901c-0.413,3.014-0.618,4.965-0.618,5.853c0,1.396-0.144,3.966-0.429,7.709
		c-0.286,3.744,0.048,6.345,0.999,7.804c-1.016,2.983-2.396,4.363-4.14,4.14c-1.746-0.222-2.967-0.269-3.665-0.143
		C215.876,40.543,214.069,42.717,213.181,46.11z"/>
	<path d="M299.881,61.671c-0.063,0.318-0.302,1.222-0.714,2.712c-0.413,1.491-1.412,2.174-2.998,2.046
		c-0.318,0-0.508-0.079-0.57-0.238c-0.064-0.158-0.16-0.238-0.286-0.238c-0.254,0.19-0.509,0.428-0.761,0.714
		c-0.255,0.285-0.477,0.586-0.666,0.904c-0.952,0.19-1.381,0.27-1.285,0.238c0.095-0.033-0.303-0.081-1.189-0.143
		c-0.318,0-0.666,0.063-1.047,0.19c-0.381,0.126-0.73,0.19-1.047,0.19c-0.318-0.064-0.492-0.143-0.523-0.238
		c-0.033-0.095-0.111-0.176-0.238-0.238c-0.762,0.762-1.729,1.173-2.902,1.237c-1.176,0.063-2.205,0.063-3.094,0
		c-0.254,0-0.635,0.126-1.142,0.381c-0.509,0.252-0.921,0.476-1.237,0.666c-0.445,0-0.951,0.095-1.523,0.286
		c-0.57,0.19-1.016,0.253-1.332,0.19c-0.318-0.064-0.428-0.095-0.333-0.095s-0.017-0.033-0.333-0.095
		c-0.254,0-0.523,0.126-0.809,0.38c-0.285,0.253-0.588,0.348-0.904,0.286c-0.318,0-0.523,0-0.619,0
		c-0.095,0-0.301-0.033-0.618-0.095c-1.206-0.128-2.3-0.699-3.284-1.713c-0.984-1.016-1.539-2.126-1.664-3.331
		c0.697-0.126,1.363-0.555,1.998-1.285c0.633-0.729,1.174-1.347,1.617-1.856c0.317-0.126,0.604-0.222,0.857-0.286
		c0.252-0.063,0.412-0.285,0.476-0.666c0.317-0.126,0.841-0.428,1.57-0.904c0.729-0.476,1.062-0.935,0.999-1.38
		c0.443-0.063,0.762-0.11,0.952-0.143c0.19-0.031,0.507-0.015,0.952,0.047l0.666-0.666c-0.064-0.126-0.224-0.158-0.477-0.095
		c-0.254,0.064-0.476,0.064-0.666,0l0.096-0.476c0.506-0.443,0.967-0.776,1.379-0.999c0.412-0.222,0.619-0.619,0.619-1.19
		c0.508-0.062,1.047,0,1.618,0.19s0.697-0.285,0.38-1.427c0.191-0.063,0.777-0.793,1.762-2.189c0.982-1.395,1.475-2.728,1.475-3.998
		c0-0.252-0.08-0.824-0.238-1.713c-0.158-0.888-0.396-2.156-0.713-3.807c-0.064-0.634-0.51-0.983-1.333-1.047
		c-0.825-0.063-1.332-0.095-1.522-0.095c-0.699-0.126-1.92,0.223-3.664,1.047c-1.746,0.825-2.871,1.237-3.379,1.237
		c-0.254,0.444-0.777,0.873-1.57,1.285c-0.794,0.414-1.412,0.651-1.855,0.714c-1.016,0.318-2.855,1.08-5.52,2.284
		c-2.666,1.206-4.093,1.777-4.283,1.713c-0.318,0-0.396-0.031-0.238-0.095c0.158-0.063,0.079-0.126-0.238-0.19
		c-0.254-0.063-0.604,0.081-1.047,0.428c-0.443,0.35-0.824,0.587-1.142,0.714c-0.509,0.064-0.952,0.175-1.332,0.333
		c-0.381,0.159-0.73,0.207-1.047,0.143c-0.318-0.063-0.492-0.095-0.523-0.095c-0.032,0-0.207,0-0.523,0
		c-0.571-0.126-1.522-0.904-2.855-2.332c-1.332-1.427-2.094-2.363-2.284-2.807l0.571-4.568l0.666-0.476
		c0.253,0.064,0.919,0.509,1.999,1.333c1.078,0.825,1.935,1.301,2.569,1.428c0.317,0,0.586,0.016,0.81,0.047
		c0.221,0.033,0.523,0.081,0.903,0.143c0.317,0,2.142-0.381,5.473-1.142c3.331-0.762,5.122-1.142,5.377-1.142
		c0.317,0.064,0.476,0.128,0.476,0.19c0,0.064,0.127,0.127,0.381,0.19c0.19,0,0.364-0.031,0.523-0.095
		c0.158-0.062,0.365-0.38,0.619-0.952c0.316-0.126,0.775-0.205,1.379-0.238c0.604-0.031,1.096-0.079,1.477-0.143
		c0.57-0.19,1.95-0.84,4.139-1.951c2.189-1.109,3.506-1.761,3.95-1.951c0.317-0.126,0.761-0.697,1.333-1.713
		c0.57-1.014,1.395-1.459,2.474-1.333c2.601,0.254,4.854,0.397,6.757,0.428c1.904,0.033,1.967,1.729,0.191,5.092
		c0.252,0.699,0.395,2.189,0.428,4.473c0.031,2.284-0.017,3.839-0.143,4.663c-0.064,0.254-0.159,0.651-0.285,1.19
		c-0.129,0.54-0.35,0.968-0.667,1.285c-0.38,0.381-0.761,0.856-1.142,1.428c-0.381,0.571-0.826,1.08-1.332,1.522
		c-0.129,0.128-0.414,0.271-0.857,0.428c-0.444,0.159-0.794,0.238-1.047,0.238c-0.254-0.063-0.381-0.048-0.381,0.047
		s-0.158,0.143-0.476,0.143c-0.19-0.063-0.366,0-0.523,0.19c-0.159,0.19-0.302,0.381-0.429,0.571
		c-0.127-0.126-0.223-0.238-0.285-0.333c-0.063-0.095-0.254-0.174-0.57-0.238c-0.445-0.063-0.952,0.302-1.523,1.095
		c-0.57,0.794-0.889,1.189-0.951,1.189c-0.445-0.063-0.73-0.126-0.857-0.19c-0.127-0.063-0.635,0.159-1.521,0.667
		c0,0.064,0,0.143,0,0.238s0.063,0.207,0.189,0.333c0.127-0.063,0.27-0.19,0.429-0.38c0.157-0.19,0.364-0.317,0.618-0.381
		l-0.095,1.047c-0.255,0.064-0.444,0.095-0.571,0.095c-0.128,0-0.35,0.064-0.666,0.19c0.127,0.064,0.238,0.175,0.333,0.333
		c0.095,0.159,0.333,0.302,0.714,0.428c-0.445,0.445-0.889,0.825-1.332,1.142c-0.445,0.318-0.541,0.476-0.286,0.476
		c0.063,0.571-0.302,1.047-1.095,1.428s-1.189,0.825-1.189,1.333c0.127,0.064,0.19,0.254,0.19,0.571
		c0,0.318,0.126,0.509,0.381,0.571c0.697,0.064,3.505-0.317,8.423-1.142c4.916-0.824,8.327-1.459,10.23-1.903
		c0.888-0.19,1.537-0.396,1.951-0.619c0.412-0.222,1.062-0.301,1.951-0.238L299.881,61.671z M282.703,24.887
		c-1.428-0.792-2.49-1.221-3.188-1.285c-1.587-0.063-2.76,0.651-3.521,2.141c-0.762,1.492-1.237,3.062-1.428,4.711
		c-0.064,0-0.508,0.159-1.332,0.476c-0.826,0.318-1.301,0.761-1.428,1.333c-0.064,0.761-0.064,1.427,0,1.999
		c-0.128,0.128-0.254,0.08-0.381-0.143c-0.128-0.221-0.445-0.396-0.951-0.523l-0.477,0.476h-1.236c-0.445,0-1.064,0.033-1.856,0.095
		c-0.794,0.064-1.444,0.095-1.951,0.095c0-0.063-0.143-0.3-0.429-0.714c-0.285-0.412-0.461-0.65-0.523-0.714
		c0-2.22,1.824-5.377,5.473-9.469c3.648-4.093,5.473-7.407,5.473-9.946v-0.761c0.063-0.38,0.096-0.761,0.096-1.142h-1.523
		c-0.825,0-1.998,0.667-3.521,1.999c-1.522,1.333-3.616,1.999-6.281,1.999c-2.094,0-3.568-1.221-4.426-3.665
		c-0.855-2.441-1.284-3.79-1.284-4.044c0-0.19,0.031-0.491,0.095-0.904c0.063-0.412,0.127-0.619,0.19-0.619
		c0.571,0.318,1.222,0.714,1.951,1.19c0.729,0.476,1.411,0.713,2.046,0.713h1.999c0.697,0,2.854-0.412,6.472-1.237
		c3.616-0.824,5.455-1.237,5.52-1.237c2.221,0,3.743,0.984,4.568,2.95c0.824,1.967,1.237,3.49,1.237,4.568
		c0,0.825-0.206,1.76-0.618,2.808c-0.414,1.047-0.842,2.396-1.285,4.044c1.269,0.381,2.601,0.476,3.997,0.286
		c1.396-0.19,2.411-0.286,3.046-0.286c0.063,0.064,0.538,0.271,1.428,0.619c0.887,0.35,1.617,0.523,2.188,0.523
		c0.697,0,0.952-0.063,0.761-0.19c0.191,0,0.619,0.333,1.285,1c0.666,0.666,1.38,1.222,2.142,1.666
		c-0.19,0.318-0.461,0.747-0.81,1.285c-0.35,0.54-0.587,0.873-0.713,1c-0.635,0.064-1.254,0.207-1.856,0.428
		c-0.604,0.223-0.937,0.333-0.999,0.333c-0.064,0-0.73-0.11-1.998-0.333c-1.271-0.222-2.285-0.333-3.046-0.333
		C285.097,26.077,284.13,25.681,282.703,24.887z M281.466,57.721c0.348-0.412,0.681-0.745,0.999-0.999
		c-0.063,0.254-0.238,0.794-0.523,1.618c-0.286,0.825-0.714,1.016-1.285,0.571C280.847,58.53,281.117,58.135,281.466,57.721z
		 M283.845,55.723c0.348-0.158,0.555-0.11,0.619,0.143c-0.51,0.445-0.921,0.635-1.238,0.571
		C283.289,56.12,283.496,55.882,283.845,55.723z"/>
	<path d="M357.46,51.012c-0.129,0.761-0.096,1.142,0.094,1.142c-0.127,0.444-0.539,1.38-1.236,2.808
		c-0.699,1.427-1.111,2.236-1.238,2.427c-0.063-0.126-0.223,0.19-0.475,0.952c-0.254,0.761-0.445,1.016-0.572,0.761
		c0,0.318-0.031,0.54-0.094,0.667c-0.064,0.128-0.064,0.19,0,0.19c0.063,0.064,0.156,0.143,0.285,0.238
		c0.127,0.095,0.252,0.175,0.381,0.238l12.563-5.044c0.063,0,0.109,0.016,0.143,0.047c0.031,0.033,0.078,0.048,0.143,0.048
		c0.127,0,0.285-0.095,0.477-0.286c0.189-0.19,0.316-0.317,0.379-0.381c0.063,0,0.111,0.048,0.145,0.143
		c0.031,0.095,0.078,0.207,0.143,0.333c0.063-0.253,0.205-0.364,0.428-0.333c0.221,0.033,0.459-0.015,0.713-0.143
		c0.127,0.128,0.205,0.286,0.238,0.476c0.031,0.19,0.049,0.318,0.049,0.381c0.252-0.19,0.441-0.286,0.57-0.286
		c0.063,0.444,0.363,0.73,0.904,0.856c0.537,0.128,0.904,0.445,1.094,0.952l-0.189,0.286v0.476c0.57,0.128,0.967,0.271,1.189,0.428
		c0.221,0.159,0.27,0.523,0.143,1.095c0,0.064,0,0.128,0,0.19c0,0.064,0.063,0.095,0.189,0.095s0.238-0.048,0.334-0.143
		s0.238,0.017,0.428,0.333c-0.318,0.445-0.492,0.857-0.523,1.237c-0.033,0.381-0.111,0.856-0.238,1.428c-0.063,0-0.189,0-0.381,0
		c-0.189,0-0.379,0.033-0.57,0.095c0-0.063,0.016-0.11,0.047-0.143c0.031-0.031,0.016-0.048-0.047-0.048
		c-0.127,0-0.223,0.048-0.285,0.143c-0.064,0.095-0.129,0.207-0.191,0.333c-0.508-0.063-0.855-0.063-1.047,0
		c-0.189,0.064-0.539,0.254-1.047,0.571l-0.094-0.095c-0.129,0-0.223,0.081-0.285,0.238c-0.064,0.159-0.129,0.302-0.191,0.429
		c-0.318-0.063-0.557-0.063-0.713,0c-0.16,0.063-0.271,0.095-0.334,0.095c-0.064-0.19-0.096-0.38-0.096-0.571
		c-0.063,0.19-0.57,0.54-1.521,1.047c-0.953,0.509-1.461,0.825-1.523,0.952c-0.064-0.063-0.127-0.126-0.189-0.19
		c-0.064-0.063-0.096-0.126-0.096-0.19c-0.064,0-0.129,0.017-0.191,0.048c-0.063,0.033-0.094,0.111-0.094,0.238
		c-0.064,0-0.111-0.047-0.143-0.143c-0.033-0.095-0.111-0.143-0.238-0.143l-8.186,2.665c-0.127,0.063-0.254,0.174-0.381,0.333
		c-0.127,0.158-0.254,0.205-0.381,0.143c-0.063,0-0.143-0.047-0.236-0.143c-0.096-0.095-0.207-0.143-0.334-0.143
		c-0.064,0-0.189,0.079-0.381,0.238c-0.189,0.158-0.35,0.238-0.475,0.238c-0.064,0-0.113-0.033-0.145-0.095
		c-0.031-0.064-0.111-0.128-0.236-0.19c-0.064,0-0.225,0.047-0.477,0.143c-0.254,0.095-0.445,0.143-0.57,0.143
		c-0.826-0.064-1.666-0.128-2.523-0.19c-0.855-0.063-1.729-0.127-2.617-0.19c-0.063-0.064-0.254-0.428-0.57-1.095
		c-0.318-0.666-0.635-1.285-0.951-1.856c-0.064-0.19-0.286-0.935-0.667-2.236c-0.38-1.3-0.571-1.982-0.571-2.046
		c0.063-1.014,0.412-1.982,1.047-2.902c0.634-0.919,0.889-1.538,0.762-1.856c0.316-0.317,0.714-0.919,1.189-1.808
		c0.477-0.888,0.936-1.459,1.381-1.713c0.506-0.252,1.252-1.395,2.236-3.426c0.982-2.03,1.506-3.046,1.57-3.046
		c0.127,0,0.775-0.983,1.951-2.95c1.172-1.966,1.791-3.236,1.855-3.807c0.063-0.698-0.539-0.824-1.809-0.381
		c-1.27,0.445-1.967,0.667-2.094,0.667c-0.064,0-0.096-0.063-0.096-0.19c0-0.126-0.031-0.19-0.094-0.19
		c-0.129,0.064-0.225,0.207-0.287,0.428c-0.063,0.223-0.189,0.302-0.379,0.238c-0.445,0.254-0.922,0.619-1.429,1.095
		c-0.509,0.476-0.825,0.778-0.952,0.904c0.063-0.316,0.096-0.586,0.096-0.809c0-0.222-0.096-0.333-0.285-0.333
		c-0.19,0-0.35,0.112-0.477,0.333c-0.127,0.223-0.189,0.428-0.189,0.619c-0.064,0-0.16,0.016-0.286,0.047
		c-0.128,0.033-0.254,0.08-0.38,0.143c0,0.254,0.143,0.333,0.428,0.238s0.459-0.079,0.523,0.047c0,0.254-0.238,0.461-0.714,0.619
		c-0.476,0.159-0.714,0.397-0.714,0.714c0-0.063-0.033-0.174-0.096-0.333c-0.063-0.158-0.095-0.27-0.095-0.333
		c0.063,0,0.063-0.221,0-0.666c-0.254,0-0.444,0.128-0.571,0.381c-0.127,0.254-0.158,0.508-0.095,0.761
		c-0.19,0.19-0.556,0.207-1.095,0.047c-0.539-0.157-0.873-0.015-0.999,0.429c0.063,0.064,0.349,0.08,0.856,0.047
		c0.508-0.031,0.793-0.047,0.856-0.047c-0.128,0.128-0.476,0.38-1.047,0.761s-0.952,0.571-1.142,0.571l-0.285-0.095
		c-0.064,0.064-0.096,0.159-0.096,0.286c0,0.128,0,0.223,0,0.286c-0.064,0-0.159,0.016-0.285,0.047
		c-0.129,0.033-0.255,0.048-0.381,0.048v-0.476c0.126-0.126,0.301-0.238,0.523-0.333c0.221-0.095,0.459-0.174,0.713-0.238V44.54
		c-0.254-0.381-0.412-0.507-0.475-0.381c-0.064,0.128-0.16,0.254-0.286,0.381c-0.063,0-0.143-0.015-0.237-0.047
		c-0.096-0.031-0.207-0.048-0.334-0.048c0-0.126,0.016-0.269,0.048-0.428c0.031-0.158,0.015-0.364-0.048-0.619
		c-0.444-0.126-0.604,0.081-0.476,0.619c0.126,0.54,0,0.778-0.381,0.714c-0.063,0.19-0.063,0.381,0,0.571
		c0.063,0.19,0.157,0.318,0.286,0.381h0.285v0.381c-0.128,0.19-0.285,0.333-0.477,0.428c-0.189,0.095-0.38,0.238-0.57,0.428
		c0.063-0.126,0.109-0.539,0.143-1.237c0.031-0.697-0.238-1.047-0.809-1.047c-0.254-0.063-0.445,0.19-0.571,0.761
		c-0.128,0.571-0.35,0.92-0.666,1.047l0.095,0.381l1.143,0.286c-0.064,0.571-1.016,1.111-2.855,1.618
		c-1.841,0.509-2.76,1.111-2.76,1.808c-0.381,0.128-0.683,0.128-0.904,0c-0.223-0.126-0.557,0.159-0.999,0.857
		c-0.063,0-0.112,0-0.144,0c-0.032,0-0.08-0.031-0.143-0.095c-0.063,0.064-0.111,0.143-0.143,0.238
		c-0.033,0.095-0.08,0.175-0.143,0.238c-0.064-0.063-0.128-0.158-0.19-0.286c-0.063-0.126-0.159-0.19-0.285-0.19
		c-0.063,0-0.112,0.016-0.144,0.047c-0.032,0.033-0.08,0.048-0.143,0.048c-0.127-0.063-0.223-0.11-0.285-0.143
		c-0.064-0.031-0.159-0.047-0.285-0.047c-0.254,0-0.381,0.111-0.381,0.333c0,0.223,0,0.428,0,0.619
		c-0.064,0-0.143,0.016-0.238,0.047c-0.095,0.033-0.207,0.048-0.333,0.048c-0.063,0-0.08-0.079-0.048-0.238
		c0.031-0.157,0.016-0.238-0.047-0.238c-0.318-0.063-0.523,0.159-0.619,0.667c-0.095,0.508-0.333,0.73-0.713,0.666
		c-0.064,0-0.144-0.095-0.238-0.286c-0.096-0.19-0.207-0.286-0.334-0.286c-0.063,0-0.475,0.017-1.236,0.048
		c-0.762,0.033-1.207,0.047-1.332,0.047c-0.318-0.063-0.604-0.252-0.857-0.571c-0.254-0.317-0.604-0.381-1.047-0.19
		c-0.128-0.507-0.285-0.84-0.476-0.999c-0.19-0.158-0.444-0.238-0.761-0.238c-0.064-1.458-0.445-2.156-1.143-2.094
		c-0.699,0.064-1.365-0.348-1.998-1.237c0.316-0.571,0.459-1.189,0.428-1.855c-0.033-0.667,0.27-1.38,0.904-2.142
		c-0.064-0.063-0.129-0.158-0.191-0.286c-0.063-0.126-0.127-0.221-0.189-0.285c0.252-0.317,0.649-0.619,1.189-0.904
		c0.538-0.286,0.84-0.428,0.904-0.428c0.127,0,0.174,0.017,0.143,0.047c-0.033,0.033,0.015,0.048,0.143,0.048
		c0.063,0,0.19-0.158,0.381-0.476c0.19-0.316,0.381-0.443,0.57-0.38c0.127,0,0.191,0.033,0.191,0.095
		c0,0.064,0.063,0.095,0.189,0.095c0.508,0,0.682-0.253,0.523-0.762c-0.158-0.507-0.016-0.761,0.429-0.761
		c0.126,0,0.3,0.175,0.523,0.523c0.222,0.35,0.396,0.523,0.523,0.523h0.667c0.189,0,0.411-0.158,0.666-0.476
		c0.252-0.316,0.476-0.538,0.666-0.666h0.285c-0.064,0.064-0.271,0.318-0.619,0.761c-0.35,0.445-0.556,0.952-0.618,1.523
		c0,0.19,0.015,0.414,0.048,0.666c0.031,0.254,0.174,0.414,0.428,0.476c0.127,0,0.223-0.015,0.286-0.048
		c0.062-0.031,0.19-0.047,0.38-0.047c0.697,0.064,1.285,0.111,1.762,0.143c0.476,0.033,1.029,0.048,1.665,0.048
		c0.126,0,0.205,0.016,0.237,0.047c0.031,0.033,0.08,0.112,0.144,0.238c0.126,0,0.205-0.079,0.237-0.238
		c0.031-0.158,0.079-0.3,0.143-0.428c0.317,0,0.46,0.033,0.429,0.095c-0.032,0.064-0.048-0.031-0.048-0.286
		c0.443,0,0.777,0.095,1,0.286c0.221,0.19,0.428-0.031,0.618-0.666c0.126,0.19,0.19,0.318,0.19,0.38c0.127,0,0.19-0.079,0.19-0.238
		c0-0.158,0.031-0.269,0.095-0.333h0.286c0,0.064,0.237,0.19,0.714,0.38c0.476,0.19,0.775,0.35,0.904,0.476
		c0-0.063,0.031-0.222,0.095-0.476c0.063-0.252,0.222-0.412,0.476-0.476c0.19-0.126,0.365-0.158,0.523-0.095
		c0.158,0.064,0.27,0.095,0.334,0.095c0,0.064,0,0.143,0,0.238s0.031,0.143,0.095,0.143c0.126-0.063,0.253-0.143,0.38-0.238
		s0.317-0.269,0.572-0.523c0.126,0.254,0.348,0.318,0.666,0.19c0.316-0.126,0.602-0.19,0.855-0.19c0.127,0,0.223,0.033,0.286,0.095
		c0.063,0,0.079-0.031,0.048-0.095c-0.033-0.063-0.048-0.126-0.048-0.19c0.761-0.126,1.728-0.443,2.903-0.952
		c1.173-0.507,1.696-0.666,1.57-0.476c0.126,0.064,0.189,0.128,0.189,0.19c0,0.064,0.031,0.095,0.096,0.095
		c0.063-0.126,0.109-0.286,0.143-0.476c0.031-0.19,0.143-0.253,0.333-0.19c0.126,0,0.364-0.11,0.714-0.333
		c0.348-0.222,0.555-0.491,0.619-0.809c0.063,0.064,0.109,0.19,0.143,0.381c0.031,0.19,0.047,0.318,0.047,0.381
		c0.316-0.253,0.523-0.365,0.619-0.333c0.095,0.033,0.174-0.238,0.238-0.809c0.316,0.318,0.633,0.38,0.951,0.19
		c0.316-0.19,0.602-0.316,0.856-0.38l0.095,0.761c-0.063-0.126-0.158-0.19-0.285-0.19c0,0.064-0.016,0.143-0.047,0.238
		c-0.033,0.095-0.081,0.238-0.144,0.428c0,0.128,0.095,0.271,0.286,0.428c0.189,0.159,0.316,0.271,0.381,0.333
		c0-0.253,0.109-0.459,0.332-0.619c0.223-0.158,0.365-0.143,0.43,0.047c0.506-0.443,0.965-0.888,1.379-1.332
		c0.412-0.443,0.904-0.603,1.475-0.476l0.096-0.19l0.381-0.285c0-0.381,0-0.586,0-0.619c0-0.031-0.033-0.079-0.096-0.143h-0.666
		c-0.064-0.316,0.031-0.538,0.285-0.666c0.254-0.126,0.477-0.19,0.666-0.19c0.063,0,0.477-0.205,1.238-0.619
		c0.762-0.412,1.299-0.745,1.617-0.999c0.191-0.19,0.348-0.286,0.477-0.286c0.127,0,0.252-0.031,0.381-0.095
		c0.189-0.19,0.301-0.381,0.332-0.571c0.031-0.19,0.174-0.348,0.43-0.476c0.125-0.126,0.252-0.348,0.381-0.666
		c0.125-0.317,0.316-0.539,0.57-0.667c0.316-0.126,0.666-0.252,1.047-0.38c0.127,0,0.316,0.047,0.57,0.143s0.412,0.143,0.477,0.143
		c0.127,0,0.174-0.015,0.143-0.047c-0.033-0.031,0.047-0.048,0.238-0.048c0.316,0.064,0.998,0.556,2.045,1.476
		c1.047,0.92,1.697,1.665,1.951,2.236c0.127,0.19,0.174,0.428,0.143,0.714s-0.047,0.587-0.047,0.904
		c0.127,0.254,0.334,0.54,0.619,0.857c0.285,0.318,0.49,0.635,0.619,0.952c-0.381,0.38-0.605,0.841-0.668,1.38
		c-0.063,0.54-0.285,0.778-0.666,0.714h-0.189c-0.064,0-0.318,0.143-0.762,0.428c-0.445,0.286-0.73,0.428-0.855,0.428
		c-0.064,0-0.082-0.031-0.049-0.095c0.031-0.063-0.016-0.095-0.143-0.095c-0.951-0.063-1.635,0.333-2.047,1.189
		c-0.412,0.857-1.031,1.634-1.855,2.332c0,0.064,0.031,0.143,0.096,0.238c0.063,0.095,0.127,0.207,0.189,0.333l-0.285,0.286
		c-0.063,0-0.111-0.031-0.143-0.095c-0.033-0.063-0.111-0.126-0.238-0.19c-0.063,0.064-0.08,0.128-0.047,0.19
		c0.031,0.064,0.047,0.159,0.047,0.286c-0.063,0.508-0.301,0.904-0.713,1.189c-0.414,0.286-0.715,0.428-0.904,0.428
		c-0.064,0.762-0.207,1.475-0.428,2.142c-0.223,0.666-0.461,1.317-0.715,1.951h-0.666c0.127-0.316,0.143-0.538,0.049-0.666
		c-0.096-0.126-0.176-0.158-0.238-0.095C357.681,49.838,357.585,50.25,357.46,51.012z M351.083,30.312
		c-0.509,0.033-0.795,0.047-0.857,0.047c0.127-0.507,0.063-1.142-0.189-1.903c0.126-0.316,0.412-0.666,0.855-1.047
		c0.443-0.38,0.762-0.792,0.952-1.237c0.507-1.268,0.792-2.553,0.856-3.854c0.063-1.3,0.096-2.078,0.096-2.332
		c0-0.063,0-0.476,0-1.237c0-0.761-0.381-1.458-1.143-2.094c-0.635,0.254-1.634,0.366-2.998,0.333
		c-1.365-0.031-2.141-0.048-2.331-0.048c-2.855,0-5.553-0.824-8.09-2.475c-2.538-1.649-3.807-2.791-3.807-3.426
		c0-0.19-0.017-0.348-0.048-0.476c-0.033-0.126-0.08-0.222-0.143-0.286c-0.128-0.062-0.285-0.095-0.476-0.095
		c0-0.507,0.19-0.904,0.571-1.19s0.761-0.428,1.142-0.428c0.697,0.318,1.333,0.54,1.903,0.666c0.951,0.064,2.41-0.221,4.378-0.856
		c1.966-0.633,3.141-0.952,3.521-0.952c0.952,0,2.536-0.015,4.759-0.047c2.221-0.031,3.553,0.016,3.996,0.143
		c2.412,0.445,4.141,1.618,5.188,3.521s1.57,3.616,1.57,5.139c0,0.699,0.047,1.539,0.143,2.522c0.096,0.984-0.461,2.332-1.666,4.045
		c-0.254,0.444-1.379,1.698-3.377,3.759c-2,2.063-3.285,3.252-3.855,3.569C351.907,30.202,351.59,30.281,351.083,30.312z
		 M341.947,42.637l0.096,0.571c0.063,0,0.252-0.126,0.57-0.38c0.316-0.253,0.508-0.476,0.571-0.667L341.947,42.637z M349.179,39.687
		c0,0.064,0.048,0.143,0.143,0.238c0.096,0.095,0.144,0.207,0.144,0.333c0-0.126,0.079-0.269,0.237-0.428
		c0.158-0.158,0.27-0.269,0.334-0.333L349.179,39.687z M354.175,35.879c0.158-0.063,0.27-0.095,0.334-0.095
		c-0.064,0.445-0.285,0.794-0.666,1.047c-0.381,0.254-0.699,0.381-0.951,0.381c-0.064,0-0.111-0.031-0.143-0.095
		c-0.033-0.063-0.082-0.126-0.145-0.19c-0.127,0.064-0.174,0.19-0.143,0.381s0.049,0.35,0.049,0.476
		c-0.129,0.064-0.303,0.064-0.523,0c-0.224-0.062-0.397-0.095-0.523-0.095c-0.064-0.19-0.096-0.317-0.096-0.381
		c0.253-0.317,0.507-0.571,0.762-0.761c0.252-0.19,0.412-0.286,0.475-0.286c0.127,0,0.191,0.033,0.191,0.095
		c0,0.064,0.063,0.095,0.189,0.095c0.063,0,0.205-0.079,0.43-0.238c0.221-0.157,0.332-0.269,0.332-0.333
		C353.875,35.943,354.017,35.943,354.175,35.879z M352.226,40.733c0.379-0.443,0.602-0.698,0.666-0.762
		c0.063,0.064,0.094,0.159,0.094,0.286c0,0.128,0,0.223,0,0.286L352.226,40.733z M356.984,35.546c0.443-0.095,0.633-0.3,0.57-0.619
		c-0.063,0-0.254,0.017-0.57,0.048c-0.318,0.033-0.635,0.238-0.951,0.619C356.222,35.658,356.539,35.642,356.984,35.546z
		 M368.88,54.343c0.189,0,0.443,0,0.762,0c-0.256,0.38-0.477,0.54-0.666,0.476c-0.191-0.063-0.35-0.095-0.477-0.095
		C368.562,54.471,368.689,54.343,368.88,54.343z"/>
	<path d="M28.123,178.607c-0.095-0.096-0.238-0.176-0.428-0.238c-1.651,0-2.808-0.429-3.474-1.285
		c-0.666-0.856-0.999-1.824-0.999-2.902c0-0.89,0.538-2.586,1.618-5.092c1.078-2.506,1.776-4.045,2.094-4.615
		c0.571-1.078,2.078-3.236,4.521-6.473c2.442-3.235,3.791-5.455,4.045-6.662c0.507-2.029,0.633-3.473,0.381-4.33
		c-0.254-0.856-0.92-1.665-1.999-2.427c-0.254,0.063-0.842,0.19-1.761,0.381c-0.92,0.19-1.666,0.413-2.237,0.666
		c-0.318-0.507-0.889-0.888-1.713-1.142c-0.571,0.318-0.825,0.762-0.761,1.332c-1.206,0.128-2.76,0.523-4.664,1.189
		s-3.173,1.444-3.807,2.332l-4.664,2.569c-0.254-0.062-0.476-0.095-0.666-0.095c-0.761,0-1.713,0.333-2.855,0.999
		c-1.142,0.666-2.76,0.999-4.854,0.999c-0.128,0-1.142-0.395-3.045-1.189C0.952,151.832,0,151.213,0,150.769v-2.379
		c0.38-0.127,0.824-0.429,1.332-0.904c0.507-0.477,0.793-0.81,0.857-1c1.395,0.064,2.569,0.096,3.521,0.096s1.618,0,1.999,0
		c0.824,0,1.428-0.222,1.809-0.666h0.095c0.063,0,0.095,0.032,0.095,0.095c0.062,0.063,0.157,0.095,0.285,0.095
		c0.126,0,0.317,0,0.571,0c1.332,0,2.394-0.015,3.188-0.047c0.792-0.031,1.918-0.429,3.378-1.189
		c0.253,0.189,0.555,0.158,0.904-0.096c0.348-0.253,0.555-0.412,0.619-0.476c0.317-0.126,2.57-0.856,6.757-2.188
		c4.188-1.333,6.693-2.602,7.519-3.808l0.761,0.286c0.888,0,1.554-0.205,1.999-0.619c0.443-0.412,1.014-0.776,1.713-1.094
		c0.443,0.063,1.014,0.158,1.713,0.285c1.142,0.825,2.077,1.285,2.808,1.38c0.729,0.095,1.285,0.302,1.665,0.618
		c0.126,0.128,0.301,0.429,0.523,0.904c0.222,0.477,0.333,1.063,0.333,1.761c-0.89,1.776-1.159,3.378-0.809,4.806
		c0.348,1.428,0.555,2.205,0.619,2.332c0,0.509-0.366,1-1.095,1.475c-0.73,0.477-1.127,0.747-1.189,0.81
		c-1.016,0.381-1.808,0.81-2.379,1.284c-0.571,0.477-1.016,0.873-1.332,1.19c-1.46,1.142-3.031,3.728-4.711,7.757
		c-1.682,4.029-2.65,6.868-2.902,8.518c0,0.443,0.396,0.824,1.189,1.142c0.792,0.317,1.506,0.476,2.142,0.476
		c0.697,0,1.522-0.158,2.474-0.476s1.745-0.698,2.379-1.142l2.094-1.047c0.507-0.316,1.031-0.824,1.57-1.523
		c0.538-0.697,0.809-1.299,0.809-1.809c0-0.633-0.873-1.76-2.617-3.378c-1.746-1.618-2.745-2.489-2.998-2.617
		c-0.128-0.317-0.159-0.476-0.095-0.476c0.126,0,0.19-0.048,0.19-0.143c0-0.096,0-0.365,0-0.809c0.761,0,1.459-0.158,2.094-0.477
		c0-0.19,0-0.301,0-0.333c0-0.031-0.064-0.048-0.19-0.048c-0.128,0-0.159-0.096-0.095-0.285c1.269-0.127,3.172,0.999,5.71,3.379
		c2.537,2.379,3.807,4.014,3.807,4.9c0,1.08-0.064,1.92-0.19,2.522c-0.127,0.604-0.254,0.968-0.38,1.095
		c-0.445,0.444-0.873,0.937-1.285,1.475c-0.414,0.539-1,1.666-1.761,3.379c-0.89,0.443-2.681,1.189-5.377,2.236
		c-2.697,1.047-4.14,1.633-4.33,1.761c-0.761-0.318-1.333-0.604-1.713-0.856c-0.444,0.633-1.46,1.125-3.045,1.475
		c-1.586,0.349-2.443,0.523-2.569,0.523h-0.095C28.297,178.812,28.218,178.702,28.123,178.607z M39.972,106.514
		c0.381,0.444,0.571,0.794,0.571,1.047c0,0.255-0.095,0.825-0.285,1.714c-0.19,0.889-0.381,1.396-0.571,1.521
		c-1.46,0.826-2.824,1.285-4.092,1.381c-1.27,0.095-2.633,0.428-4.092,0.999c-1.587,0.509-4.331,1.175-8.232,1.999
		s-6.012,1.27-6.329,1.332c-1.08,0-2.348-0.49-3.807-1.475c-1.46-0.983-2.317-1.697-2.569-2.143c1.268-0.633,4.219-1.41,8.851-2.331
		c4.631-0.919,7.867-1.633,9.708-2.142c0.634-0.126,1.047-0.412,1.237-0.856c1.333-0.19,2.855-0.538,4.568-1.047
		c1.713-0.507,3.172-0.761,4.378-0.761C39.368,105.817,39.591,106.072,39.972,106.514z M34.261,114.984
		c0.063,0,0.206,0.033,0.428,0.096c0.222,0.064,0.586,0.096,1.095,0.096c0.443,0,0.745-0.048,0.904-0.143
		c0.157-0.096,0.269-0.205,0.333-0.334c0.063,0,0.619,0.477,1.666,1.428s1.602,1.461,1.666,1.523
		c0.126,0.063,0.174,0.318,0.143,0.761c-0.033,0.444,0.269,1.206,0.904,2.284c-0.19,0.57-0.461,1.301-0.809,2.189
		c-0.35,0.889-0.714,1.586-1.095,2.094c0.381,0.318,0.872,0.889,1.475,1.713c0.603,0.825,1.126,1.365,1.57,1.617l-0.476,1.333
		c-0.445,0.317-0.809,0.635-1.095,0.952c-0.285,0.317-0.461,0.604-0.523,0.855c-0.38,0.129-0.968,0.048-1.76-0.237
		c-0.794-0.286-1.825-0.175-3.093,0.333c-1.27,0.444-4.283,1.285-9.041,2.521c-4.759,1.238-7.297,1.92-7.614,2.047
		c-1.333,0-2.459-0.824-3.379-2.475c-0.92-1.649-1.475-2.665-1.665-3.045c0.062,0,0.602-0.096,1.618-0.286
		c1.014-0.19,2.125-0.412,3.331-0.666c1.142-0.253,2.172-0.476,3.093-0.667c0.919-0.189,1.412-0.285,1.476-0.285
		c0.062,0,0.238,0.048,0.523,0.143c0.285,0.096,0.555,0.303,0.809,0.619c0.443-0.316,0.745-0.555,0.904-0.714
		c0.158-0.157,0.238-0.269,0.238-0.333h-0.19v-0.571c0.317-0.063,0.698-0.157,1.142-0.286c0.443-0.125,0.634-0.506,0.571-1.141
		c0.126,0,0.507,0.032,1.142,0.094c0.633,0.064,1.109,0.096,1.427,0.096c0.634,0,1.095-0.157,1.38-0.476
		c0.285-0.317,0.459-0.634,0.523-0.952c0.126-0.316,0.157-0.855,0.095-1.617c0.126-0.191,0.491-0.396,1.095-0.619
		c0.602-0.221,1.157-0.681,1.666-1.38l-0.856-0.856c0.252-0.57,0.443-1.269,0.571-2.094c0.126-0.824,0.19-1.809,0.19-2.95
		c-0.318-0.19-0.556-0.333-0.714-0.429c-0.159-0.095-0.302-0.174-0.428-0.238H34.261z M26.647,122.123
		c-0.063,0.254-0.047,0.492,0.048,0.713c0.095,0.224,0.364,0.523,0.809,0.904c-0.064,0.064-0.667,0.35-1.809,0.857
		s-1.713,0.855-1.713,1.047c-0.254,0-0.666,0.063-1.237,0.189c-1.142,0-2.459-0.823-3.95-2.475c-1.491-1.648-2.205-2.76-2.141-3.33
		v-0.951l3.331-0.096c0.507,0,1.554,0.476,3.141,1.428c1.585,0.951,2.632,1.586,3.141,1.902l0.38-0.285V122.123z"/>
	<path d="M105.544,125.691c-0.128-0.031-0.254-0.078-0.38-0.143c-0.064-0.063-0.112-0.109-0.143-0.143
		c-0.033-0.031-0.08-0.047-0.143-0.047v-0.096h-0.095c-0.128-0.127-0.318-0.222-0.571-0.285c-0.254-0.063-0.54-0.127-0.857-0.191
		c-1.586-0.126-3.949-0.031-7.09,0.286c-3.141,0.318-5.22,1.587-6.234,3.807c-0.254,0.255-0.428,0.492-0.523,0.714
		c-0.095,0.223-0.111,0.396-0.047,0.523c0.063,0.128,0.252,0.414,0.571,0.856c-0.635,0.636-0.968,1.206-0.999,1.714
		c-0.033,0.508-0.048,0.793-0.048,0.855c-0.509,0.571-0.952,1.08-1.333,1.523l0.095,0.189c0.063,0.064,0.048,0.064-0.047,0
		c-0.095-0.063-0.428-0.095-1-0.095c-0.571,0-0.889,0.048-0.952,0.144c-0.064,0.095-0.159,0.206-0.286,0.332l-0.285-0.761
		c0,0.19-0.254,0.317-0.762,0.38c-0.508,0.064-0.92,0.129-1.237,0.191c-0.064-0.508-0.238-1.301-0.523-2.38
		c-0.286-1.078-0.429-1.681-0.429-1.808c0.126-1.649,1.237-4.076,3.331-7.281c2.094-3.203,3.458-4.807,4.092-4.807
		c0.762-1.648,1.666-3.742,2.712-6.281c1.047-2.536,1.982-4.662,2.808-6.376c0.634,0.318,1.459,1.285,2.475,2.903
		c1.014,1.617,1.458,3.156,1.333,4.615c0,0.128-0.223,0.635-0.667,1.523c-0.444,0.889-0.825,1.65-1.142,2.283
		c0.762,0.445,1.428,0.699,1.999,0.762c0.571,0.064,0.888,0.096,0.952,0.096c0.38,0,1.871,0.063,4.473,0.189
		c2.601,0.129,4.06,0.223,4.378,0.285c0.697,0.064,1.761,0.334,3.188,0.81c1.427,0.476,2.108,1.159,2.046,2.046
		c-0.38,0.509-0.666,0.921-0.856,1.238c-0.128,0.254-0.271,0.492-0.428,0.713c-0.159,0.223-0.271,0.397-0.333,0.523
		c0.126-0.126,0.252-0.189,0.38-0.189c-1.332,1.586-2.126,2.568-2.379,2.949c-0.254,0.381-0.54,0.952-0.857,1.713
		c-0.254,0.636-0.38,1.08-0.38,1.333c0,0.255-0.033,0.509-0.095,0.761c-0.254,0.51-0.968,1.619-2.142,3.332
		c-1.175,1.713-2.046,3.014-2.617,3.901c0.063,0.063,0.143,0.224,0.238,0.476c0.095,0.255,0.428,0.381,0.999,0.381h0.381
		c1.585,0.064,4.266-0.396,8.042-1.38c3.774-0.983,5.789-1.507,6.043-1.57c0.633,0.063,1.268,0.413,1.903,1.047
		c0.633,0.636,0.919,1.396,0.856,2.284c0,0.318-0.143,0.666-0.428,1.047s-1.127,0.951-2.522,1.713c-0.064,0-0.333,0.033-0.809,0.096
		c-0.476,0.063-1,0.285-1.57,0.666c-0.318,0.064-0.651,0.143-1,0.238c-0.349,0.095-0.682,0.206-0.999,0.332
		c-2.539,1.842-5.22,3.982-8.042,6.425c-2.824,2.442-4.235,4.204-4.235,5.282l-1.999,2.949c3.87-1.014,6.884-1.918,9.042-2.712
		c2.156-0.792,4.949-1.189,8.375-1.189c1.903,0,3.6,0.556,5.092,1.665c1.49,1.111,2.458,2.682,2.902,4.711
		c0.126,0.572,0.317,1.096,0.571,1.57c0.253,0.477,0.38,0.81,0.38,1v9.992c-0.127,0.443-0.254,0.824-0.38,1.143
		c-0.128,0.253-0.318,0.666-0.571,1.237c-0.064-0.128-0.397-0.333-0.999-0.618c-0.604-0.286-1.254-0.429-1.951-0.429
		c-0.508,0-0.825,0.048-0.952,0.143c-0.128,0.095-0.223,0.175-0.286,0.238l-0.095-0.286c0-0.127-0.095-0.27-0.285-0.428
		c-0.19-0.159-0.667-0.238-1.428-0.238h-1.333c0.253-0.254,0.443-0.444,0.571-0.57c-0.254-0.129-0.571-0.286-0.952-0.477
		c-0.381-0.189-0.762-0.413-1.142-0.666c0.507-0.381,0.761-0.825,0.761-1.332c-0.509-0.509-0.873-0.745-1.094-0.714
		c-0.223,0.032-0.397,0.048-0.524,0.048c0-0.063,0.11-0.491,0.333-1.285c0.221-0.793,0.333-1.475,0.333-2.047
		c0-0.887,0.015-2.521,0.047-4.9c0.031-2.379-1.413-3.569-4.33-3.569c-3.681,0-6.853,0.873-9.517,2.617
		c-2.665,1.746-4.347,2.617-5.044,2.617c-0.699,0-1.396-0.46-2.094-1.38c-0.699-0.919-1.047-1.506-1.047-1.761
		c0-0.888,2.315-3.632,6.947-8.232c4.631-4.599,7.138-7.216,7.519-7.852h-0.095c-1.08,0.255-5.964,1.872-14.656,4.854
		c-8.693,2.982-13.167,4.441-13.419,4.377c-1.08-0.126-1.999-0.586-2.76-1.38c-0.761-0.792-1.111-1.761-1.047-2.902
		c0.063-0.888,0.222-1.411,0.476-1.57c0.252-0.157,0.792-0.364,1.618-0.618c1.966-0.635,4.409-1.697,7.328-3.189
		c2.918-1.489,5.075-2.774,6.472-3.854c1.966-1.649,3.521-3.22,4.664-4.711c1.142-1.49,1.935-2.585,2.379-3.283
		c0.19-0.381,0.824-1.031,1.903-1.951c1.078-0.92,2.251-2.299,3.521-4.141c-0.064-0.063-0.175-0.126-0.333-0.189
		c-0.159-0.063-0.302-0.127-0.428-0.191C105.766,125.771,105.67,125.724,105.544,125.691z M105.734,125.833
		c-0.19-0.126-0.38-0.221-0.571-0.285c-0.064-0.063-0.112-0.109-0.143-0.143c-0.033-0.031-0.08-0.047-0.143-0.047l-0.095-0.096
		c0.317,0.064,0.666,0.111,1.047,0.143c0.381,0.033,0.824,0.017,1.333-0.047c1.269-0.063,2.394-0.206,3.378-0.43
		c0.983-0.221,1.666-0.363,2.046-0.428c-0.826,1.461-1.729,2.127-2.712,1.998c-0.984-0.125-2.332-0.348-4.045-0.666H105.734z"/>
	<path d="M159.22,117.839c-0.254-0.126-0.476-0.189-0.666-0.189c-0.064,0-0.095,0.032-0.095,0.095h-0.667
		c-1.396,1.206-3.141,2.174-5.234,2.903s-3.935,1.284-5.52,1.664c-1.016,0.318-1.937,0.667-2.76,1.047
		c-0.825,0.381-1.365,0.541-1.618,0.477c-0.825-0.19-1.237-0.809-1.237-1.855s0.063-1.697,0.19-1.951
		c0.063-0.316,2.332-2.173,6.805-5.568c4.473-3.393,7.597-5.598,9.374-6.613c0.317-0.254,0.523-0.429,0.619-0.523
		c0.095-0.096,0.174-0.174,0.238-0.238c0.126-0.316,0.252-0.634,0.38-0.951c0-0.317-0.523-1.586-1.57-3.808
		c-1.047-2.22-1.475-3.488-1.285-3.807c0-0.317,0.174-0.538,0.523-0.666c0.348-0.126,0.65-0.443,0.904-0.952
		c0.952,0.064,2.808,1.095,5.567,3.094c2.76,1.998,3.886,3.759,3.378,5.281c-0.19,0.571-0.842,1.381-1.951,2.428
		c-1.111,1.047-1.856,1.539-2.237,1.475c-0.38-0.253-0.825-0.412-1.333-0.477c-1.522-0.38-3.316,0.049-5.377,1.285
		c-2.063,1.237-3.442,2.174-4.14,2.808c-0.635,0.636-1.332,1.302-2.094,1.999c-0.761,0.699-1.491,1.46-2.189,2.283l-0.285,2
		c1.839-0.572,3.013-0.936,3.521-1.096c0.507-0.157,1.554-0.49,3.141-0.999c0.507-0.126,2.68-1.03,6.52-2.712
		c3.838-1.681,6.329-2.363,7.471-2.047c0.698,0.129,1.109,0.635,1.237,1.523c0.126,0.889,0.126,1.46,0,1.713
		c-0.254,0.635-2.094,2.174-5.52,4.615c-3.426,2.443-5.489,4.902-6.186,7.377c-0.254,0.635-0.381,1.205-0.381,1.713
		s-0.063,1.11-0.19,1.808c0.19,0.509,0.476,0.856,0.856,1.047c0.38,0.19,0.633,0.35,0.761,0.476c1.839,0.952,3.41,0.921,4.711-0.095
		c1.3-1.015,2.363-1.649,3.188-1.903c0.38-1.395,0.031-2.696-1.047-3.902c-1.08-1.204-1.587-1.935-1.523-2.189
		c0.126-0.506,0.714-0.761,1.761-0.761s1.602,0,1.666,0c1.839,0.444,3.552,1.999,5.139,4.663c1.585,2.665,1.966,5.014,1.142,7.043
		c-0.254,0.635-0.366,1.206-0.333,1.713c0.031,0.509,0.015,0.73-0.048,0.666c0,0.129-0.128,0.318-0.38,0.571
		c-0.254,0.255-0.35,0.636-0.286,1.142c-0.445,0.636-0.666,1.111-0.666,1.428c0,0.318-0.223,0.699-0.667,1.143
		c-0.064,0.064,2.506-1.174,7.709-3.712c5.202-2.536,7.835-4.979,7.899-7.328c0.063-2.03-0.523-4.393-1.76-7.091
		c-1.237-2.695-1.92-4.139-2.046-4.33c0-0.443,0.317-1.173,0.952-2.188c0.633-1.015,0.983-2.22,1.047-3.616
		c0.317-0.063,0.571-0.127,0.761-0.19c0.126-0.063,0.348-0.126,0.667-0.19c1.395,0.064,3.25,2.697,5.567,7.898
		c2.315,5.204,3.759,9.551,4.33,13.039c0.317-0.19,0.84-0.443,1.57-0.762c0.729-0.316,1.126-0.476,1.19-0.476
		c0.507,0,2.394,0.571,5.663,1.714c3.267,1.142,4.869,2.157,4.806,3.045c0,0.381-0.619,0.762-1.856,1.143
		c-1.237,0.38-2.11,0.855-2.617,1.427c-0.635-0.253-1.618-0.792-2.95-1.618c-1.333-0.823-3.205-1.87-5.615-3.141l-2.379,22.557
		c0,0.254,0.031,0.428,0.095,0.523c0.063,0.094,0.126,0.143,0.19,0.143c0.126,0.063,0.222,0.095,0.286,0.095
		c0,2.412,0.238,4.728,0.714,6.947c0.476,2.222,0.84,4.347,1.094,6.376c0.761,0,1.3,0.286,1.618,0.857
		c0.316,0.57,0.476,0.888,0.476,0.951c-0.064,0.381,0.031,1.015,0.286,1.904c-0.445,0.252-0.747,0.428-0.904,0.523
		c-0.159,0.095-0.238,0.174-0.238,0.237c-0.064,0.19-0.128,0.349-0.19,0.476h-0.952c-2.094-0.063-3.728-1.713-4.901-4.949
		c-1.175-3.235-1.825-5.266-1.951-6.09c-0.064-0.634-0.143-2.014-0.238-4.141c-0.095-2.125-0.333-3.885-0.714-5.281
		c-0.127-0.381-0.207-1.19-0.238-2.428c-0.033-1.236-0.016-1.982,0.048-2.236l1.142-11.706l0.095-4.663
		c-1.016-0.19-1.793-0.079-2.332,0.333c-0.54,0.413-0.842,0.651-0.904,0.714c0.316,0.825,0.031,1.635-0.857,2.427
		c-0.889,0.794-1.872,1.57-2.95,2.331c-1.206,0.952-2.633,1.889-4.283,2.809c-1.65,0.92-3.269,1.76-4.854,2.521
		c-0.889,0.445-3.031,1.412-6.424,2.902c-3.395,1.492-5.219,2.967-5.472,4.426c-0.445,0.254-0.92,0.461-1.428,0.619
		c-0.508,0.158-0.794,0.237-0.856,0.237c-0.064-0.062-0.349-0.253-0.856-0.571c-0.509-0.316-0.952-0.506-1.333-0.57
		c-0.128-0.381-0.366-0.84-0.714-1.381c-0.349-0.537-0.556-0.84-0.618-0.903c0-0.317,1.204-1.062,3.616-2.237
		c2.411-1.173,4.028-2.236,4.854-3.188c1.395-1.713,2.251-3.474,2.569-5.282c0.317-1.808,0.507-2.774,0.571-2.902
		c0.126-0.443,0.174-1.047,0.143-1.809c-0.033-0.761-0.302-1.522-0.809-2.284c-0.761,0.509-1.841,1.111-3.236,1.809
		c-1.396,0.699-2.633,1.111-3.711,1.237h-2.855c-0.254-0.126-0.604-0.253-1.047-0.381c-0.444-0.126-0.825-0.222-1.142-0.286
		c-1.206-0.316-2.079-1.173-2.617-2.568c-0.54-1.396-0.683-2.475-0.429-3.236c0.443-1.459,1.856-3.617,4.235-6.472
		s3.886-4.536,4.521-5.044v-1.143H159.22z"/>
</g>
</svg>
