<?xml version="1.0" encoding="utf-8"?>
<!-- Generator: Adobe Illustrator 16.0.0, SVG Export Plug-In . SVG Version: 6.00 Build 0)  -->
<!DOCTYPE svg PUBLIC "-//W3C//DTD SVG 1.1//EN" "http://www.w3.org/Graphics/SVG/1.1/DTD/svg11.dtd">
<svg version="1.1" id="Layer_1" xmlns="http://www.w3.org/2000/svg" xmlns:xlink="http://www.w3.org/1999/xlink" x="0px" y="0px"
	 width="103px" height="26.877px" viewBox="0 0 103 26.877" enable-background="new 0 0 103 26.877" xml:space="preserve">
<g>
	<circle fill="#FFFFFF" cx="13.438" cy="13.438" r="13.438"/>
	<g>
		<g>
			<g>
				<g>
					<g>
						<path fill="#003964" d="M19.667,12.465c-2.1-1.428-4.789-0.845-6.201,1.302c-1.179,1.793-2.959,2.016-3.649,2.016
							c-2.247,0-3.784-1.581-4.239-3.216H5.576c-0.004-0.016-0.008-0.03-0.013-0.046c-0.004-0.018-0.009-0.036-0.014-0.055
							c-0.179-0.683-0.224-1.008-0.224-1.734c0-3.911,4.012-8.264,9.792-8.264c5.918,0,9.304,4.505,10.176,7.009
							c-0.015-0.044-0.028-0.088-0.043-0.133c-1.68-4.897-6.324-8.418-11.791-8.418c-6.88,0-12.461,5.579-12.461,12.46
							c0,6.152,4.437,11.417,10.591,11.417c4.909,0,8.208-2.753,9.721-6.545C22.14,16.185,21.553,13.746,19.667,12.465z"/>
					</g>
					<g>
						<path fill="#ED1A3B" d="M25.371,9.719c-0.728-2.442-4.139-7.251-10.253-7.251c-5.78,0-9.792,4.354-9.792,8.264
							c0,0.726,0.044,1.052,0.224,1.734c-0.075-0.298-0.115-0.598-0.115-0.89c0-4.072,4.078-6.895,8.269-6.895
							c5.675,0,10.275,4.6,10.275,10.274c0,4.448-2.56,8.298-6.279,10.147l0.001,0.004c4.794-1.736,8.218-6.329,8.218-11.721
							C25.919,12.11,25.748,10.985,25.371,9.719z"/>
					</g>
				</g>
			</g>
		</g>
	</g>
	<g>
		<path fill="#FFFFFF" d="M36.756,14.877v-1.449h-3.948v-1.093h9.144v1.093h-3.958v1.449h3.223v3.469h-1.238V15.96h-6.546v-1.083
			H36.756z M41.194,8.577v2.966h-1.238V9.67h-6.435V8.577H41.194z"/>
		<path fill="#FFFFFF" d="M45.863,8.443l3.256,8.041l-1.093,0.48l-2.164-5.454l-2.13,5.531l-1.126-0.49L45.863,8.443z
			 M51.138,18.323h-1.226V8.376h1.226v3.837h1.428v1.238h-1.428V18.323z"/>
		<path fill="#FFFFFF" d="M58.439,12.826h0.892v1.015h-5.898v-1.015h0.947V9.704h-0.947V8.667h5.898v1.037h-0.892V12.826z
			 M54.001,18.123V14.8h1.227v2.23h6.926v1.093H54.001z M57.257,9.704h-1.694v3.123h1.694V9.704z M60.825,14.744v-2.04h-1.449
			v-0.982h1.449v-0.914h-1.449V9.826h1.449v-1.45h1.238v6.368H60.825z"/>
		<path fill="#FFFFFF" d="M63.376,10.272V9.235h2.331v-0.97h1.305v0.97h2.22v1.037H66.8l2.521,3.189l-0.881,0.669l-2.086-2.677
			l-2.052,2.755l-0.903-0.691l2.509-3.246H63.376z M65.238,14.8v2.23h6.691v1.093h-7.929V14.8H65.238z M71.673,14.744h-1.227V8.376
			h1.227v2.353h1.428v1.216h-1.428V14.744z"/>
		<path fill="#FFFFFF" d="M80.446,15.313h-2.743V18h-1.227v-2.688h-2.644v-1.104h6.613V15.313z M79.767,11.075
			c0,0.342-0.071,0.666-0.213,0.971c-0.141,0.305-0.334,0.568-0.579,0.792c-0.245,0.23-0.532,0.413-0.858,0.546
			c-0.328,0.134-0.674,0.201-1.037,0.201c-0.365,0-0.711-0.067-1.037-0.201c-0.327-0.133-0.614-0.316-0.859-0.546
			c-0.245-0.224-0.438-0.487-0.58-0.792c-0.141-0.305-0.211-0.628-0.211-0.971c0-0.342,0.07-0.665,0.211-0.97
			c0.142-0.304,0.335-0.572,0.58-0.803c0.245-0.23,0.532-0.412,0.859-0.546c0.326-0.134,0.672-0.201,1.037-0.201
			c0.363,0,0.709,0.067,1.037,0.201c0.326,0.134,0.613,0.316,0.858,0.546c0.245,0.231,0.438,0.499,0.579,0.803
			C79.695,10.41,79.767,10.733,79.767,11.075z M78.55,11.075c0-0.401-0.144-0.743-0.434-1.026c-0.291-0.282-0.636-0.423-1.037-0.423
			c-0.402,0-0.746,0.142-1.031,0.423c-0.287,0.283-0.43,0.625-0.43,1.026c0,0.395,0.143,0.735,0.43,1.021
			c0.285,0.286,0.629,0.429,1.031,0.429c0.401,0,0.746-0.143,1.037-0.429C78.406,11.81,78.55,11.469,78.55,11.075z M81.238,8.376
			h1.227v9.947h-1.227V8.376z"/>
		<path fill="#FFFFFF" d="M90.714,14.354h-2.632v1.506h-1.237v-1.506h-2.744v-1.093h6.613V14.354z M84.781,18.157v-2.845h1.227
			v1.763h6.847v1.082H84.781z M89.833,10.562c0,0.32-0.067,0.617-0.201,0.892c-0.134,0.275-0.308,0.521-0.523,0.736
			c-0.23,0.208-0.497,0.372-0.798,0.491c-0.302,0.119-0.622,0.178-0.964,0.178c-0.343,0-0.664-0.059-0.965-0.178
			s-0.567-0.283-0.798-0.491c-0.216-0.215-0.391-0.461-0.524-0.736c-0.133-0.275-0.201-0.572-0.201-0.892
			c0-0.319,0.068-0.619,0.201-0.897c0.134-0.279,0.309-0.526,0.524-0.742c0.23-0.208,0.497-0.372,0.798-0.491
			c0.301-0.118,0.622-0.178,0.965-0.178c0.342,0,0.662,0.06,0.964,0.178c0.301,0.119,0.567,0.283,0.798,0.491
			c0.216,0.216,0.39,0.462,0.523,0.742C89.766,9.943,89.833,10.243,89.833,10.562z M88.64,10.562c0-0.357-0.129-0.655-0.385-0.897
			c-0.256-0.242-0.56-0.363-0.908-0.363c-0.351,0-0.652,0.121-0.91,0.363c-0.256,0.242-0.384,0.541-0.384,0.897
			c0,0.349,0.128,0.645,0.384,0.887c0.258,0.242,0.56,0.362,0.91,0.362c0.349,0,0.652-0.121,0.908-0.362S88.64,10.911,88.64,10.562z
			 M91.506,8.376h1.227v7.595h-1.227v-3.669h-1.383v-1.07h1.383V8.376z"/>
		<path fill="#FFFFFF" d="M100.056,12.837c0,0.305-0.063,0.595-0.189,0.87s-0.297,0.517-0.513,0.725
			c-0.224,0.2-0.483,0.36-0.78,0.479c-0.098,0.037-0.209,0.07-0.335,0.101v1.26h2.743v1.083h-6.613v-1.083h2.643v-1.26
			c-0.126-0.03-0.237-0.063-0.334-0.101c-0.298-0.119-0.557-0.279-0.781-0.479c-0.215-0.208-0.386-0.45-0.512-0.725
			c-0.127-0.275-0.189-0.565-0.189-0.87c0-0.305,0.063-0.593,0.189-0.865c0.126-0.271,0.297-0.511,0.512-0.719
			c0.225-0.208,0.483-0.368,0.781-0.48c0.297-0.11,0.613-0.167,0.947-0.167c0.336,0,0.651,0.056,0.949,0.167
			c0.297,0.112,0.557,0.272,0.78,0.48c0.216,0.208,0.386,0.448,0.513,0.719C99.993,12.245,100.056,12.532,100.056,12.837z
			 M96.956,9.369V8.31h1.326v1.06h2.365v1.059h-6.066V9.369H96.956z M98.862,12.837c0-0.328-0.121-0.608-0.362-0.843
			c-0.241-0.234-0.533-0.351-0.876-0.351c-0.342,0-0.629,0.117-0.863,0.351c-0.234,0.235-0.352,0.515-0.352,0.843
			c0,0.327,0.117,0.609,0.352,0.848c0.234,0.238,0.521,0.356,0.863,0.356c0.343,0,0.635-0.119,0.876-0.356
			C98.741,13.446,98.862,13.164,98.862,12.837z M101.773,8.376H103v9.947h-1.227V8.376z"/>
	</g>
</g>
</svg>
