<svg width="103" height="30" viewBox="0 0 103 30" fill="none" xmlns="http://www.w3.org/2000/svg">
<path d="M17.1593 24.7131L11.4656 17.7213L19.7311 7.54155H15.2231C13.1965 7.54155 11.8128 8.1625 10.5831 9.59754L6.22663 14.9539V0.244141H1.86041C0.83364 0.244141 0 1.07778 0 2.107V29.556H4.36622C5.39544 29.556 6.22663 28.7224 6.22663 27.6932V20.3909L9.76899 24.7302L12.776 28.4339C13.3847 29.2015 14.1841 29.5536 15.0006 29.5536H21.1001L17.1593 24.7106V24.7131Z" fill="#221E1F"/>
<path d="M28.3587 29.556C24.9997 29.556 22.6675 27.236 22.6675 23.8672V2.10455C22.6675 1.07534 23.5036 0.244141 24.5352 0.244141H28.9063V22.7011C28.9063 23.6252 29.6569 24.3757 30.5761 24.3757H35.0278V27.6956C35.0278 28.7248 34.1918 29.5585 33.1601 29.5585H28.3587V29.556Z" fill="#221E1F"/>
<path d="M6.82081 14.2011L6.82814 14.1913C6.82814 14.1913 6.82081 14.1986 6.81592 14.2011H6.82081ZM35.9273 5.92578L35.546 6.32916C35.5215 6.33649 34.3603 7.53439 30.9939 7.53439H15.1108C12.6025 7.53439 11.4217 8.55627 10.5196 9.66127L10.0209 10.2749C10.0087 10.292 9.99646 10.3018 9.98424 10.314L6.83059 14.1937C7.9747 13.3308 9.55153 12.8125 11.1528 12.8125H30.9939C33.4044 12.8125 35.7146 12.0962 35.9053 10.2969C35.9298 10.1527 35.9273 10.0646 35.9273 10.0646V5.92823V5.92578Z" fill="#EC1B23"/>
<path d="M44.2563 12.8361C44.2563 12.2176 44.5473 11.89 45.2024 11.89H48.1018V12.8679C49.3071 12.0856 50.8057 11.6309 52.3067 11.6309C54.2967 11.6309 55.5019 12.2494 56.4798 13.3568C57.5579 12.6087 59.3792 11.6309 61.8264 11.6309C65.3809 11.6309 67.2682 13.7162 67.2682 17.0727V28.3843C67.2682 28.9368 66.9773 29.1984 66.4542 29.1984H63.4252V17.6595C63.4252 15.9629 62.6404 15.0852 60.9781 15.0852C59.8046 15.0852 58.5651 15.6059 57.6533 16.3565C57.6875 16.5838 57.6875 16.8112 57.6875 17.0727V28.3843C57.6875 28.9368 57.3966 29.1984 56.8734 29.1984H53.8395V17.6595C53.8395 15.9629 53.0548 15.0852 51.3924 15.0852C50.219 15.0852 48.9819 15.6059 48.1018 16.3222V28.3501C48.1018 28.9051 47.7767 29.1984 47.124 29.1984H44.2563V12.8361Z" fill="#EC1B23"/>
<path d="M92.3066 28.6744C91.9814 28.4446 91.6245 28.0559 91.6245 27.567L91.6563 25.1198C93.0253 25.8044 94.7831 26.1637 96.4797 26.1637C98.367 26.1637 99.0882 25.3814 99.0882 24.4035C99.0882 23.4257 98.697 22.8072 97.4258 22.35L95.7585 21.7633C93.348 20.915 91.7199 19.5459 91.7199 16.7101C91.7199 13.158 94.2281 11.8867 98.1078 11.8867C99.6382 11.8867 101.105 11.8207 101.824 11.5273V14.395C101.824 15.0819 100.259 15.2775 98.2692 15.2775C96.509 15.2775 95.6314 15.6662 95.6314 16.7761C95.6314 17.4948 95.9272 18.0473 97.0664 18.4385L98.697 18.9934C101.107 19.81 103 21.2743 103 24.2397C103 27.5988 101.076 29.5545 96.2816 29.5545C94.9811 29.5545 93.1524 29.1951 92.3066 28.6744Z" fill="#EC1B23"/>
<path d="M79.2475 19.0506C78.9981 18.7353 79.069 18.5788 79.4724 18.5788H82.0197C82.3107 18.5788 82.538 18.6204 82.6945 18.7059C82.8534 18.7866 83.005 18.9382 83.1541 19.1435L89.9821 28.338C90.1288 28.5703 90.0677 28.6827 89.7939 28.6827H86.8676C86.5718 28.6827 86.2784 28.5043 85.9826 28.1498L84.7578 26.5118C83.9388 27.6022 82.9194 28.4163 81.7044 28.9516C80.4869 29.487 79.1546 29.7559 77.7073 29.7559C76.5558 29.7559 75.5169 29.5995 74.5928 29.2841C73.6662 28.9688 72.8839 28.5287 72.2459 27.9615C71.6078 27.3944 71.1115 26.7123 70.7644 25.9153C70.4197 25.1208 70.2461 24.2481 70.2461 23.3044C70.2461 22.2312 70.4368 21.2875 70.8157 20.471C71.1946 19.652 71.6762 18.9186 72.2654 18.2683C72.8497 17.618 73.5073 17.0411 74.2309 16.535C74.9546 16.0314 75.6513 15.5718 76.3212 15.1538C76.595 14.9827 76.9446 14.77 77.3748 14.5206C77.8075 14.2713 78.2256 13.9877 78.6363 13.6723C79.047 13.3569 79.3917 13.0269 79.6899 12.6798C79.9809 12.3351 80.1275 11.9732 80.1275 11.5968C80.1275 11.0932 79.9295 10.6898 79.5335 10.3842C79.135 10.0786 78.5972 9.92704 77.9249 9.92704C77.0472 9.92704 76.4409 10.1251 76.1207 10.5089C75.7931 10.9 75.6293 11.3327 75.6293 11.8168C75.6293 12.1737 75.6782 12.4793 75.7858 12.7287C75.8909 12.9805 75.996 13.2005 76.1011 13.3887C76.2258 13.577 76.1867 13.6723 75.9765 13.6723H74.6221C73.8251 13.6723 73.2677 13.4107 72.9499 12.8851C72.637 12.3595 72.4805 11.7312 72.4805 10.9954C72.4805 10.3646 72.6199 9.79014 72.8864 9.26697C73.1602 8.74136 73.5391 8.29398 74.0207 7.92972C74.5023 7.56302 75.0866 7.28188 75.7687 7.09364C76.4483 6.9054 77.1866 6.8125 77.986 6.8125C78.871 6.8125 79.6582 6.93718 80.3476 7.18898C81.0419 7.44079 81.6286 7.78304 82.1102 8.21331C82.5894 8.64113 82.9585 9.13985 83.2127 9.70702C83.4621 10.2717 83.5892 10.8829 83.5892 11.5308C83.5892 12.2862 83.4181 12.9756 83.071 13.5941C82.7238 14.2126 82.296 14.77 81.7802 15.2736C81.2668 15.7772 80.6996 16.2368 80.0835 16.6451C79.465 17.0533 78.8807 17.4249 78.3356 17.7623C77.7049 18.1608 77.1132 18.5568 76.5583 18.9431C76.0009 19.3342 75.5169 19.7425 75.111 20.1703C74.6979 20.5981 74.3752 21.0675 74.1356 21.5687C73.8936 22.0723 73.7713 22.6297 73.7713 23.2408C73.7713 23.7836 73.874 24.2578 74.072 24.6563C74.2701 25.0548 74.5463 25.3775 74.9057 25.6317C75.2626 25.8811 75.6806 26.0669 76.1647 26.1818C76.6463 26.2967 77.1572 26.3554 77.7049 26.3554C78.2109 26.3554 78.7218 26.282 79.245 26.1354C79.7706 25.9887 80.2571 25.7882 80.7094 25.5364C81.1617 25.2846 81.5601 24.9937 81.9073 24.6685C82.2495 24.3434 82.4965 24.006 82.6456 23.6467L79.245 19.0531L79.2475 19.0506Z" fill="#EC1B23"/>
</svg>
