<svg width="103" height="30" viewBox="0 0 103 30" fill="none" xmlns="http://www.w3.org/2000/svg">
<path d="M11.5595 17.5315L15.2656 13.0138H10.9262C9.32448 13.0138 7.7474 13.3752 6.60648 14.374L6.27628 14.7696V0.0761719H1.87524C0.842751 0.0761719 0 0.908893 0 1.93453V29.3556H4.40596C5.43846 29.3556 6.27628 28.518 6.27628 27.4899V20.1957L9.84688 24.5376L12.8803 28.2372C13.4939 28.9966 14.2947 29.3532 15.1202 29.3532H21.2635L17.2912 24.5205L11.557 17.5266L11.5595 17.5315ZM29.1341 22.5058V13.0163H22.8529V23.678C22.8529 27.0455 25.1914 29.3605 28.5919 29.3605H33.4242C34.4567 29.3605 35.3044 28.5229 35.3044 27.4948V24.1835H30.822C29.893 24.1835 29.1365 23.4338 29.1365 22.5083L29.1341 22.5058ZM36.3517 9.66342V5.53401L35.9623 5.93694C35.95 5.95159 34.7696 7.14328 31.3814 7.14328H29.1365V0.0786162H24.7306C23.6981 0.0786162 22.8529 0.91133 22.8529 1.93696V7.14328H15.3716C12.8458 7.14328 11.6556 8.16403 10.7463 9.26293L7.07221 13.7562C7.07221 13.7562 8.80946 12.1249 11.3574 12.1249H31.3814C33.5745 12.1249 35.0752 11.7 35.849 10.8624C36.4034 10.2617 36.3517 9.67074 36.3517 9.6683V9.66342Z" fill="white"/>
<path d="M44.2578 13.006C44.2578 12.3875 44.5487 12.0599 45.2039 12.0599H48.1032V13.0378C49.3084 12.2555 50.807 11.8008 52.308 11.8008C54.2979 11.8008 55.5031 12.4193 56.481 13.5267C57.5591 12.7786 59.3803 11.8008 61.8274 11.8008C65.3819 11.8008 67.2692 13.8861 67.2692 17.2425V28.5539C67.2692 29.1064 66.9782 29.3679 66.4551 29.3679H63.4262V17.8293C63.4262 16.1327 62.6415 15.2551 60.9791 15.2551C59.8057 15.2551 58.5663 15.7758 57.6544 16.5263C57.6886 16.7536 57.6886 16.981 57.6886 17.2425V28.5539C57.6886 29.1064 57.3953 29.3679 56.8746 29.3679H53.8408V17.8293C53.8408 16.1327 53.0561 15.2551 51.3937 15.2551C50.2203 15.2551 48.9833 15.7758 48.1032 16.492V28.5196C48.1032 29.0746 47.7781 29.3679 47.1254 29.3679H44.2578V13.006Z" fill="white"/>
<path d="M92.307 28.8439C91.9819 28.6141 91.6249 28.2254 91.6249 27.7365L91.6567 25.2894C93.0257 25.9739 94.7834 26.3333 96.48 26.3333C98.3672 26.3333 99.0884 25.551 99.0884 24.5732C99.0884 23.5953 98.6973 22.9768 97.4285 22.5197L95.7613 21.9329C93.3508 21.0847 91.7227 19.7157 91.7227 16.8799C91.7227 13.3278 94.2309 12.0566 98.1106 12.0566C99.6409 12.0566 101.108 11.9906 101.826 11.6973V14.5648C101.826 15.2518 100.262 15.4473 98.2719 15.4473C96.5118 15.4473 95.6317 15.836 95.6317 16.9459C95.6317 17.6646 95.9275 18.2171 97.0667 18.6082L98.6973 19.1632C101.108 19.9797 103 21.444 103 24.4094C103 27.7683 101.076 29.724 96.282 29.724C94.9814 29.724 93.1528 29.3646 92.307 28.8439Z" fill="white"/>
<path d="M79.2476 19.2203C78.9983 18.9049 79.0691 18.7485 79.4725 18.7485H82.0198C82.3107 18.7485 82.5381 18.79 82.6945 18.8756C82.8534 18.9562 83.005 19.1078 83.1541 19.3132L89.982 28.5074C90.1287 28.7397 90.0676 28.8521 89.7938 28.8521H86.8675C86.5717 28.8521 86.2784 28.6737 85.9826 28.3192L84.7578 26.6813C83.9389 27.7716 82.9194 28.5857 81.7045 29.121C80.487 29.6564 79.1547 29.9253 77.7075 29.9253C76.5561 29.9253 75.5171 29.7689 74.593 29.4535C73.6665 29.1381 72.8842 28.6981 72.2462 28.131C71.6081 27.5638 71.1119 26.8818 70.7647 26.0848C70.42 25.2903 70.2465 24.4176 70.2465 23.4739C70.2465 22.4007 70.4371 21.4571 70.8161 20.6406C71.195 19.8216 71.6766 19.0883 72.2657 18.438C72.85 17.7877 73.5076 17.2108 74.2312 16.7047C74.9573 16.2011 75.6515 15.7415 76.3214 15.3235C76.5952 15.1524 76.9448 14.9397 77.375 14.6904C77.8077 14.441 78.2257 14.1574 78.6364 13.8421C79.0447 13.5267 79.3918 13.1967 79.6901 12.8495C79.981 12.5049 80.1277 12.143 80.1277 11.7666C80.1277 11.263 79.9297 10.8596 79.5336 10.554C79.1351 10.2485 78.5973 10.0969 77.9251 10.0969C77.0474 10.0969 76.4412 10.2949 76.1209 10.6787C75.7933 11.0698 75.6296 11.5026 75.6296 11.9866C75.6296 12.3435 75.6784 12.6491 75.786 12.8984C75.8911 13.1502 75.9962 13.3703 76.1014 13.5585C76.226 13.7467 76.1869 13.8421 75.9767 13.8421H74.6224C73.8254 13.8421 73.268 13.5805 72.9502 13.0549C72.6373 12.5293 72.4809 11.901 72.4809 11.1652C72.4809 10.5345 72.6202 9.95999 72.8867 9.43684C73.1605 8.91124 73.5394 8.46387 74.021 8.09962C74.5026 7.73293 75.0868 7.45179 75.7689 7.26355C76.4485 7.07532 77.1868 6.98242 77.9862 6.98242C78.8711 6.98242 79.6583 7.1071 80.3477 7.3589C81.042 7.6107 81.6287 7.95294 82.1103 8.3832C82.5894 8.81101 82.9586 9.30971 83.2128 9.87687C83.4622 10.4416 83.5893 11.0527 83.5893 11.7006C83.5893 12.456 83.4181 13.1454 83.071 13.7638C82.7239 14.3823 82.2961 14.9397 81.7802 15.4433C81.2669 15.9469 80.6997 16.4065 80.0837 16.8147C79.4652 17.223 78.8809 17.5946 78.3358 17.9319C77.705 18.3304 77.1134 18.7264 76.5585 19.1127C76.0011 19.5038 75.5171 19.9121 75.1113 20.3399C74.6981 20.7677 74.3754 21.2371 74.1359 21.7382C73.8939 22.2418 73.7716 22.7992 73.7716 23.4104C73.7716 23.9531 73.8743 24.4273 74.0723 24.8258C74.2703 25.2243 74.5466 25.547 74.9059 25.8012C75.2628 26.0506 75.6809 26.2364 76.1649 26.3513C76.6465 26.4662 77.1574 26.5248 77.705 26.5248C78.2111 26.5248 78.722 26.4515 79.2452 26.3048C79.7732 26.1581 80.2572 25.9577 80.7119 25.7059C81.1642 25.4541 81.5627 25.1632 81.9098 24.838C82.2521 24.5129 82.499 24.1755 82.6481 23.8162L79.2476 19.2227V19.2203Z" fill="white"/>
</svg>
