<svg width="23" height="15" viewBox="0 0 23 15" fill="none" xmlns="http://www.w3.org/2000/svg">
<path d="M22.4882 3.1514C22.2349 2.29113 21.4903 1.61337 20.543 1.38302C18.8278 0.964844 11.9482 0.964844 11.9482 0.964844C11.9482 0.964844 5.06874 0.964844 3.35349 1.38302C2.40718 1.61337 1.66163 2.29025 1.40824 3.1514C0.948242 4.7107 0.948242 7.96484 0.948242 7.96484C0.948242 7.96484 0.948242 11.219 1.40824 12.7783C1.66163 13.6386 2.4062 14.3163 3.35349 14.5467C5.06874 14.9648 11.9482 14.9648 11.9482 14.9648C11.9482 14.9648 18.8278 14.9648 20.543 14.5467C21.4893 14.3163 22.2349 13.6386 22.4882 12.7783C22.9482 11.219 22.9482 7.96484 22.9482 7.96484C22.9482 7.96484 22.9482 4.7107 22.4882 3.1514ZM9.74863 10.9647V4.96497L15.4635 7.96484L9.74863 10.9647Z" fill="white"/>
</svg>
