<svg width="23" height="19" viewBox="0 0 23 19" fill="none" xmlns="http://www.w3.org/2000/svg">
<path fill-rule="evenodd" clip-rule="evenodd" d="M23 3.51246V11.7512C23 13.6851 21.4332 15.2534 19.4993 15.2534H14.358L12.5282 18.2049C12.2709 18.6197 11.6667 18.6197 11.4094 18.2049L9.57956 15.2534H4.4383C2.50581 15.2534 0.937561 13.6851 0.937561 11.7512V3.51246C0.937561 1.57997 2.50581 0.0117188 4.4383 0.0117188H19.4993C21.4332 0.0117188 23 1.57997 23 3.51246Z" fill="white"/>
<path fill-rule="evenodd" clip-rule="evenodd" d="M8.05862 5.41948V4.26172C9.09931 4.3629 10.0446 4.99309 10.0446 6.32285V10.1242H8.76109V6.32285C8.76109 5.80684 8.49947 5.50476 8.05862 5.41948ZM4.61859 6.24624C4.90044 5.92103 5.31961 5.72446 5.89343 5.72446C7.01505 5.72446 7.9401 6.70877 7.9401 7.98505C7.9401 9.26133 7.01505 10.2442 5.89343 10.2442C5.32105 10.2442 4.90044 10.0476 4.61859 9.72241V10.1242H3.33508V4.41782H4.61859V6.24624ZM4.53476 7.98505C4.53476 8.68028 4.99873 9.11535 5.63759 9.11535C6.27646 9.11535 6.74043 8.68028 6.74043 7.98505C6.74043 7.28982 6.2779 6.85475 5.63759 6.85475C4.99728 6.85475 4.53476 7.28982 4.53476 7.98505ZM10.8049 7.98505C10.8049 6.71021 11.8152 5.72446 13.0727 5.72446C14.3302 5.72446 15.3405 6.70877 15.3405 7.98361C15.3405 9.25844 14.3302 10.2428 13.0727 10.2428C11.8152 10.2428 10.8049 9.25844 10.8049 7.98361V7.98505ZM12.0074 7.98505C12.0074 8.6427 12.47 9.07777 13.0727 9.07777C13.6754 9.07777 14.1379 8.64126 14.1379 7.98505C14.1379 7.32884 13.6754 6.89233 13.0727 6.89233C12.47 6.89233 12.0074 7.3274 12.0074 7.98505ZM20.5497 5.84442H19.3009V6.28093C19.019 5.9297 18.6071 5.72446 18.0521 5.72446C16.8365 5.72446 15.9461 6.71744 15.9461 7.89833C15.9461 9.07921 16.8365 10.0722 18.0521 10.0722C18.6085 10.0722 19.019 9.86695 19.3023 9.51572V9.91031C19.3023 10.5188 18.9338 10.8267 18.3354 10.8267H18.2934V11.957C19.4324 11.957 20.5526 11.3485 20.5526 9.91176V5.84587L20.5497 5.84442ZM18.2645 8.9737C17.6069 8.9737 17.1444 8.53864 17.1444 7.89977C17.1444 7.26091 17.6069 6.82585 18.2645 6.82585C18.9222 6.82585 19.3847 7.26091 19.3847 7.89977C19.3847 8.53864 18.9222 8.9737 18.2645 8.9737Z" fill="#212121"/>
</svg>
