<svg width="20" height="20" viewBox="0 0 20 20" fill="none" xmlns="http://www.w3.org/2000/svg">
<path d="M9.99967 1.8006C12.6702 1.8006 12.9864 1.81092 14.0411 1.85877C15.016 1.90288 15.5462 2.06615 15.8981 2.20315C16.3654 2.38424 16.6985 2.601 17.0485 2.951C17.3985 3.301 17.6152 3.63411 17.7963 4.10141C17.9333 4.45422 18.0966 4.98345 18.1407 5.95838C18.1886 7.01307 18.1989 7.3293 18.1989 9.99981C18.1989 12.6703 18.1886 12.9865 18.1407 14.0412C18.0966 15.0162 17.9333 15.5463 17.7963 15.8982C17.6152 16.3655 17.3985 16.6986 17.0485 17.0486C16.6985 17.3986 16.3654 17.6154 15.8981 17.7965C15.5453 17.9335 15.016 18.0967 14.0411 18.1408C12.9864 18.1887 12.6702 18.199 9.99967 18.199C7.32916 18.199 7.01293 18.1887 5.95824 18.1408C4.9833 18.0967 4.45314 17.9335 4.10126 17.7965C3.63397 17.6154 3.30087 17.3986 2.95086 17.0486C2.60086 16.6986 2.3841 16.3655 2.203 15.8982C2.066 15.5454 1.90274 15.0162 1.85864 14.0412C1.81078 12.9865 1.80046 12.6703 1.80046 9.99981C1.80046 7.3293 1.81078 7.01307 1.85864 5.95838C1.90274 4.98345 2.066 4.45328 2.203 4.10141C2.3841 3.63411 2.60086 3.301 2.95086 2.951C3.30087 2.601 3.63397 2.38424 4.10126 2.20315C4.45407 2.06615 4.9833 1.90288 5.95824 1.85877C7.01293 1.81092 7.32916 1.8006 9.99967 1.8006ZM9.99967 -0.00195312C7.28318 -0.00195312 6.94255 0.0093069 5.87566 0.0581006C4.81065 0.106894 4.08437 0.275796 3.44818 0.522579C2.7904 0.777808 2.23303 1.1203 1.67659 1.6758C1.12016 2.23223 0.778609 2.78961 0.52338 3.44738C0.276597 4.08358 0.106751 4.81079 0.0588954 5.87487C0.0101018 6.94176 -0.00115967 7.28238 -0.00115967 9.99887C-0.00115967 12.7154 0.0101018 13.056 0.0588954 14.1229C0.107689 15.1879 0.276597 15.9142 0.52338 16.5504C0.778609 17.2081 1.1211 17.7655 1.67659 18.3219C2.23303 18.8784 2.7904 19.2199 3.44818 19.4752C4.08437 19.7219 4.81158 19.8918 5.87566 19.9396C6.94255 19.9884 7.28318 19.9997 9.99967 19.9997C12.7162 19.9997 13.0568 19.9884 14.1237 19.9396C15.1887 19.8909 15.915 19.7219 16.5512 19.4752C17.2089 19.2199 17.7663 18.8774 18.3227 18.3219C18.8792 17.7655 19.2207 17.2081 19.476 16.5504C19.7227 15.9142 19.8926 15.187 19.9404 14.1229C19.9892 13.056 20.0005 12.7154 20.0005 9.99887C20.0005 7.28238 19.9892 6.94176 19.9404 5.87487C19.8916 4.80985 19.7227 4.08358 19.476 3.44738C19.2207 2.78961 18.8782 2.23223 18.3227 1.6758C17.7663 1.11936 17.2089 0.777808 16.5512 0.522579C15.915 0.275796 15.1877 0.105956 14.1237 0.0581006C13.0568 0.0093069 12.7162 -0.00195312 9.99967 -0.00195312Z" fill="white"/>
<path d="M9.99871 4.86523C7.16211 4.86523 4.86224 7.1651 4.86224 10.0017C4.86224 12.8383 7.16211 15.1382 9.99871 15.1382C12.8353 15.1382 15.1352 12.8383 15.1352 10.0017C15.1352 7.1651 12.8353 4.86523 9.99871 4.86523ZM9.99871 13.3356C8.15769 13.3356 6.66479 11.8427 6.66479 10.0017C6.66479 8.16068 8.15769 6.66778 9.99871 6.66778C11.8397 6.66778 13.3326 8.16068 13.3326 10.0017C13.3326 11.8427 11.8397 13.3356 9.99871 13.3356Z" fill="white"/>
<path d="M15.3378 5.86121C16.0006 5.86121 16.538 5.32389 16.538 4.66107C16.538 3.99826 16.0006 3.46094 15.3378 3.46094C14.675 3.46094 14.1377 3.99826 14.1377 4.66107C14.1377 5.32389 14.675 5.86121 15.3378 5.86121Z" fill="white"/>
</svg>
