<svg width="22" height="22" viewBox="0 0 22 22" fill="none" xmlns="http://www.w3.org/2000/svg">
<path d="M11.1461 18.1006C10.4922 18.1061 9.84019 18.0751 9.19181 17.9828C9.09318 17.9691 9.01555 17.9874 8.93154 18.0468C7.64483 18.9499 6.35903 19.8549 5.03031 20.696C4.86867 20.7983 4.70065 20.8887 4.53444 20.9836C4.476 21.0174 4.41207 21.0394 4.34449 21.0485C4.13263 21.0768 4.00752 20.9517 4.05227 20.7407C4.1308 20.37 4.2413 20.0083 4.3454 19.644C4.60749 18.7253 4.86959 17.8066 5.13442 16.8879C5.15725 16.8075 5.14994 16.7692 5.06593 16.7272C3.813 16.0925 2.70803 15.2651 1.80577 14.1811C0.914483 13.11 0.312671 11.9 0.0980672 10.5155C-0.146673 8.93385 0.131854 7.43802 0.895297 6.03441C1.6423 4.66003 2.71989 3.59523 4.02212 2.74869C5.41203 1.84553 6.9371 1.28299 8.56261 0.989848C9.77352 0.771591 10.9954 0.718625 12.2209 0.830036C14.5277 1.03916 16.6555 1.74963 18.5321 3.13315C19.7777 4.05184 20.7795 5.18331 21.3886 6.61887C22.3639 8.91742 22.1594 11.1392 20.8626 13.2579C20.0307 14.6167 18.8636 15.635 17.4938 16.4286C16.1852 17.1865 14.777 17.665 13.2876 17.9143C12.5789 18.0331 11.8657 18.0952 11.147 18.1006H11.1461Z" fill="white"/>
<path d="M16.2494 8.84237C16.2731 8.80858 16.2932 8.77023 16.3215 8.74192C16.8621 8.19947 17.4046 7.65702 17.947 7.11549C18.1507 6.91184 18.4009 6.88171 18.6438 7.02783C18.8876 7.17485 19.0091 7.45977 18.9351 7.71182C18.9068 7.80862 18.8475 7.8835 18.7771 7.95382C18.3333 8.39673 17.8913 8.84237 17.4448 9.28253C17.3827 9.34372 17.3854 9.37934 17.4356 9.44509C17.9315 10.0962 18.4237 10.7501 18.915 11.4048C19.1296 11.6907 19.1004 12.0569 18.8493 12.2788C18.568 12.529 18.1498 12.4888 17.916 12.1811C17.474 11.6021 17.0375 11.0195 16.5982 10.4377C16.5873 10.4231 16.5781 10.4058 16.5644 10.393C16.5133 10.3437 16.4987 10.246 16.4183 10.2414C16.3562 10.2378 16.2119 10.4624 16.2119 10.5364C16.2119 10.972 16.2156 11.4076 16.2092 11.8441C16.2055 12.1482 15.9909 12.3884 15.6859 12.4477C15.411 12.5016 15.1225 12.3491 15.0028 12.0852C14.9636 11.9984 14.9453 11.908 14.9453 11.8121C14.9453 10.3729 14.9453 8.93461 14.9462 7.49539C14.9462 7.13376 15.2257 6.8534 15.5772 6.85157C15.927 6.84975 16.2074 7.12827 16.211 7.49082C16.2147 7.90359 16.2119 8.31728 16.2119 8.73096V8.81771C16.2247 8.82593 16.2375 8.83507 16.2503 8.84329L16.2494 8.84237Z" fill="#212121"/>
<path d="M8.67775 11.3537C8.38461 11.3537 8.09147 11.3555 7.79833 11.3519C7.73166 11.3519 7.69969 11.3702 7.67686 11.435C7.60198 11.6432 7.51979 11.8487 7.44126 12.0551C7.3198 12.3729 7.09789 12.5007 6.75544 12.4505C6.31162 12.3847 6.15911 12.1592 6.25317 11.7044C6.31162 11.4204 6.43581 11.1574 6.53718 10.888C6.96456 9.75652 7.39468 8.62505 7.8248 7.4945C7.95082 7.163 8.18369 6.94018 8.53528 6.86986C8.93344 6.79042 9.3526 7.04703 9.51241 7.46162C9.75167 8.07987 9.98454 8.70085 10.2201 9.32091C10.485 10.0177 10.7507 10.7136 11.0146 11.4113C11.0877 11.6058 11.1352 11.8058 11.1151 12.0167C11.0987 12.1975 11.0119 12.3263 10.8366 12.3893C10.7087 12.4359 10.5772 12.4642 10.4402 12.456C10.1873 12.4404 9.99733 12.3445 9.91514 12.0797C9.84847 11.866 9.7535 11.6606 9.67862 11.4487C9.65396 11.3784 9.62383 11.351 9.54438 11.3528C9.25489 11.3592 8.96632 11.3555 8.67683 11.3555L8.67775 11.3537Z" fill="#212121"/>
<path d="M4.2908 10.0151C4.2908 9.41422 4.28897 8.81333 4.29263 8.21244C4.29263 8.11747 4.27618 8.08276 4.17116 8.0855C3.88989 8.09372 3.60771 8.09007 3.32644 8.08825C2.95751 8.08642 2.68538 7.82706 2.68264 7.47822C2.6799 7.12389 2.95021 6.84903 3.32097 6.84811C4.39125 6.84446 5.46153 6.84537 6.53182 6.84811C6.86879 6.84903 7.13453 7.08463 7.16832 7.39877C7.20211 7.70835 7.0085 7.98688 6.70532 8.06999C6.64231 8.08734 6.5793 8.08825 6.51537 8.08825C6.2341 8.08825 5.95192 8.09281 5.67066 8.08642C5.57842 8.08459 5.56016 8.11473 5.56016 8.20057C5.5629 9.3987 5.56199 10.5959 5.56199 11.794C5.56199 12.1137 5.40309 12.3447 5.12639 12.4315C4.70448 12.5639 4.29445 12.2707 4.29171 11.8278C4.28806 11.2233 4.2908 10.6187 4.2908 10.0142V10.0151Z" fill="#212121"/>
<path d="M11.451 9.62847C11.451 8.91525 11.4492 8.20113 11.451 7.48791C11.4519 7.15277 11.6912 6.89706 12.0336 6.85414C12.3386 6.81579 12.6391 7.02491 12.7231 7.32992C12.7441 7.40754 12.7423 7.48608 12.7423 7.56462C12.7423 8.73992 12.7441 9.91522 12.7405 11.0905C12.7405 11.191 12.766 11.2156 12.8647 11.2138C13.2774 11.2083 13.6911 11.2083 14.1039 11.2129C14.4253 11.2165 14.6847 11.4595 14.6975 11.759C14.7112 12.075 14.4628 12.3608 14.1441 12.3654C13.4308 12.3736 12.7167 12.3736 12.0035 12.3654C11.6939 12.3617 11.4528 12.0941 11.4519 11.78C11.4501 11.0631 11.4519 10.3453 11.4519 9.62847H11.451Z" fill="#212121"/>
<path d="M8.67575 8.43164C8.89218 9.04623 9.09765 9.63068 9.3086 10.2288H8.50954C8.38535 10.2288 8.26115 10.2243 8.13787 10.2307C8.05751 10.2343 8.04564 10.2142 8.07212 10.1384C8.23559 9.68364 8.39539 9.22796 8.55612 8.77227C8.59265 8.66999 8.62827 8.56771 8.67575 8.43255V8.43164Z" fill="white"/>
</svg>
