<svg width="43" height="42" viewBox="0 0 43 42" fill="none" xmlns="http://www.w3.org/2000/svg">
<path d="M25.5629 32.6559V25.735C25.5629 23.6304 23.8524 21.9199 21.7477 21.9199C19.6431 21.9199 17.9326 23.6304 17.9326 25.735V32.6559H25.5629Z" stroke="black" stroke-width="1.5" stroke-linecap="round" stroke-linejoin="round"/>
<path d="M21.7461 32.6553H29.0846C31.1104 32.6553 32.75 31.0158 32.75 28.99V17.3003C32.75 16.0469 32.1115 14.8803 31.0474 14.2103L23.7088 9.56754C22.5107 8.81082 20.9893 8.81082 19.7912 9.56754L12.4526 14.2182C11.3964 14.8882 10.75 16.0548 10.75 17.3081V28.9979C10.75 31.0236 12.3896 32.6632 14.4154 32.6632H21.7539L21.7461 32.6553Z" stroke="black" stroke-width="1.5" stroke-linecap="round" stroke-linejoin="round"/>
</svg>
