<svg width="43" height="42" viewBox="0 0 43 42" fill="none" xmlns="http://www.w3.org/2000/svg">
<path d="M30.2 27.7375C30.2 27.7375 29.513 31.2707 24.0547 31.2707" stroke="#EC1B23" stroke-width="1.5" stroke-linecap="round" stroke-linejoin="round"/>
<path d="M11.5149 19.5549H12.7454C13.1606 19.5549 13.5004 19.8947 13.5004 20.3099V26.9836C13.5004 27.3989 13.1606 27.7386 12.7454 27.7386H11.5149C10.2616 27.7386 9.25 26.727 9.25 25.4737V21.8198C9.25 20.5666 10.2616 19.5549 11.5149 19.5549Z" stroke="#EC1B23" stroke-width="1.5" stroke-linecap="round" stroke-linejoin="round"/>
<path d="M30.1922 27.7295H28.9616C28.5464 27.7295 28.2067 27.3898 28.2067 26.9745V20.3008C28.2067 19.8856 28.5464 19.5458 28.9616 19.5458H30.1922C31.4454 19.5458 32.457 20.5575 32.457 21.8107V25.4646C32.457 26.7179 31.4454 27.7295 30.1922 27.7295Z" stroke="#EC1B23" stroke-width="1.5" stroke-linecap="round" stroke-linejoin="round"/>
<path d="M30.3364 19.5542V18.4822C30.3364 13.2428 26.0936 9 20.8543 9C15.6149 9 11.3796 13.2428 11.3796 18.4822V19.5542" stroke="#EC1B23" stroke-width="1.5" stroke-linecap="round" stroke-linejoin="round"/>
<path d="M19.3812 29.5422C18.4299 29.5422 17.6523 30.3123 17.6523 31.2711C17.6523 32.2299 18.4224 32.9999 19.3812 32.9999H22.3255C23.2767 32.9999 24.0543 32.2299 24.0543 31.2711C24.0543 30.3123 23.2843 29.5422 22.3255 29.5422H19.3812Z" stroke="#EC1B23" stroke-width="1.5" stroke-linecap="round" stroke-linejoin="round"/>
</svg>
