<svg width="43" height="42" viewBox="0 0 43 42" fill="none" xmlns="http://www.w3.org/2000/svg">
<path d="M25.5629 32.6551V25.7343C25.5629 23.6297 23.8524 21.9192 21.7477 21.9192C19.6431 21.9192 17.9326 23.6297 17.9326 25.7343V32.6551H25.5629Z" stroke="#EC1B23" stroke-width="1.5" stroke-linecap="round" stroke-linejoin="round"/>
<path d="M21.7461 32.6552H29.0846C31.1104 32.6552 32.75 31.0156 32.75 28.9898V17.3001C32.75 16.0468 32.1115 14.8802 31.0474 14.2102L23.7088 9.56742C22.5107 8.8107 20.9893 8.8107 19.7912 9.56742L12.4526 14.2181C11.3964 14.8881 10.75 16.0547 10.75 17.308V28.9977C10.75 31.0235 12.3896 32.6631 14.4154 32.6631H21.7539L21.7461 32.6552Z" stroke="#EC1B23" stroke-width="1.5" stroke-linecap="round" stroke-linejoin="round"/>
</svg>
