<svg width="20" height="20" viewBox="0 0 20 20" fill="none" xmlns="http://www.w3.org/2000/svg">
<path d="M12.9163 14.1667C13.3766 14.1667 13.7497 13.7936 13.7497 13.3333C13.7497 12.8731 13.3766 12.5 12.9163 12.5C12.4561 12.5 12.083 12.8731 12.083 13.3333C12.083 13.7936 12.4561 14.1667 12.9163 14.1667Z" fill="#103147"/>
<path d="M7.08333 14.1667C7.54357 14.1667 7.91667 13.7936 7.91667 13.3333C7.91667 12.8731 7.54357 12.5 7.08333 12.5C6.6231 12.5 6.25 12.8731 6.25 13.3333C6.25 13.7936 6.6231 14.1667 7.08333 14.1667Z" fill="#103147"/>
<path d="M5.84199 7.49984H14.1753V11.6665H5.84199V7.49984ZM14.8337 2.33317C13.3337 1.7415 11.5503 1.6665 10.0003 1.6665C8.45033 1.6665 6.66699 1.7415 5.16699 2.33317C2.94199 3.19984 1.66699 5.0415 1.66699 7.38317V18.3332H18.3337V7.38317C18.3337 5.0415 17.0587 3.19984 14.8337 2.33317ZM15.0003 13.2332C15.0003 14.4415 14.017 15.4165 12.8087 15.4165L13.7503 16.3498V16.6665H12.5003L11.2503 15.4165H8.89199L7.64199 16.6665H6.25033V16.3498L7.18366 15.4165C5.98366 15.4165 5.00033 14.4332 5.00033 13.2332V7.49984C5.00033 5.30817 7.50033 4.99984 10.0003 4.99984C12.767 4.99984 15.0003 5.3165 15.0003 7.49984V13.2332Z" fill="#103147"/>
</svg>
