<svg width="20" height="20" viewBox="0 0 20 20" fill="none" xmlns="http://www.w3.org/2000/svg">
<path fill-rule="evenodd" clip-rule="evenodd" d="M1.70234 4.54516L8.82234 11.6702C9.214 11.9943 9.6065 12.156 9.99984 12.156C10.3932 12.156 10.7857 11.9952 11.179 11.6718L18.2998 4.5585C18.3223 4.69433 18.334 4.84183 18.334 4.99933V14.9993C18.334 16.1102 17.7782 16.666 16.6673 16.666H3.33317C2.22234 16.666 1.6665 16.1102 1.6665 14.9993V5.00016C1.6665 4.836 1.67817 4.68433 1.70234 4.54516ZM2.88067 3.36933C3.01984 3.34516 3.17067 3.3335 3.33317 3.3335H16.6665C16.8282 3.3335 16.9773 3.34516 17.1157 3.3685L9.99984 10.4902L2.88067 3.36933V3.36933Z" fill="#3A3A47"/>
</svg>
