<svg width="32" height="32" viewBox="0 0 32 32" fill="none" xmlns="http://www.w3.org/2000/svg">
<path fill-rule="evenodd" clip-rule="evenodd" d="M2.72433 7.27198L14.1163 18.672C14.743 19.1906 15.371 19.4493 16.0003 19.4493C16.6297 19.4493 17.2577 19.192 17.887 18.6746L29.2803 7.29331C29.3163 7.51065 29.335 7.74665 29.335 7.99865V23.9986C29.335 25.776 28.4457 26.6653 26.6683 26.6653H5.33366C3.55633 26.6653 2.66699 25.776 2.66699 23.9986V7.99998C2.66699 7.73731 2.68566 7.49465 2.72433 7.27198ZM4.60966 5.39065C4.83233 5.35198 5.07366 5.33331 5.33366 5.33331H26.667C26.9257 5.33331 27.1643 5.35198 27.3857 5.38931L16.0003 16.784L4.60966 5.39065Z" fill="white"/>
</svg>
