<svg width="38" height="38" viewBox="0 0 38 38" fill="none" xmlns="http://www.w3.org/2000/svg">
<circle cx="19" cy="19" r="19" fill="#103148"/>
<rect width="15.8333" height="15.8333" transform="translate(11.0835 11.083)" fill="#103148"/>
<path d="M22.4087 17.6325C22.409 18.5776 22.1288 19.5015 21.6036 20.2874C21.0784 21.0733 20.3318 21.6859 19.4582 22.0477C18.5847 22.4095 17.6234 22.5043 16.6959 22.3201C15.7685 22.1358 14.9165 21.6808 14.2478 21.0127C13.5791 20.3445 13.1237 19.4931 12.9391 18.5662C12.7546 17.6393 12.8492 16.6785 13.211 15.8054C13.5728 14.9322 14.1856 14.1859 14.9718 13.6608C15.758 13.1357 16.6824 12.8555 17.628 12.8555C18.2561 12.854 18.8783 12.9766 19.4589 13.2161C20.0396 13.4557 20.5671 13.8075 21.0113 14.2513C21.4555 14.6952 21.8077 15.2224 22.0475 15.8026C22.2873 16.3829 22.41 17.0047 22.4087 17.6325V17.6325Z" stroke="white" stroke-width="1.83232" stroke-linecap="square"/>
<path d="M24.388 24.3886L21.041 21.0435" stroke="white" stroke-width="1.83232" stroke-linecap="square"/>
</svg>
