<svg width="32" height="32" viewBox="0 0 32 32" fill="none" xmlns="http://www.w3.org/2000/svg">
<path d="M9.33946 13.3869C8.63129 13.3869 8.15918 13.8253 8.15918 14.5335C8.15918 15.2416 8.59757 15.7475 9.30574 15.7475C10.0139 15.7475 10.486 15.3091 10.486 14.6009C10.486 13.8927 10.0476 13.3869 9.33946 13.3869Z" fill="white"/>
<path d="M17.1968 13.4205C16.5561 13.4205 16.084 13.9263 16.084 14.567C16.084 15.2415 16.5561 15.7136 17.2305 15.7136C17.8713 15.7136 18.3434 15.2415 18.3434 14.567C18.3434 13.8926 17.8713 13.4205 17.2305 13.4205H17.1968Z" fill="white"/>
<path d="M22.694 13.3528C22.0195 13.3528 21.5137 13.8249 21.5137 14.4993C21.5137 15.1738 22.0195 15.6459 22.694 15.6459C23.4021 15.6459 23.8742 15.1738 23.8742 14.4993C23.8742 13.8249 23.4021 13.3528 22.694 13.3528Z" fill="white"/>
<path d="M28.9326 8.22696C28.5953 5.96755 26.7406 4.34888 24.4812 4.34888C18.8158 4.34888 13.1167 4.34888 7.45136 4.34888C4.98962 4.34888 3 6.3385 3 8.80024C3 12.3411 3 15.882 3 19.4228C3 19.7263 3 19.9961 3.10117 20.2996C3.53956 22.4241 5.36057 23.8742 7.51881 23.9079C9.40726 23.9079 11.262 23.9079 13.1505 23.9079H13.5214C13.5214 23.9079 13.69 24.1777 13.7575 24.3126C14.3307 25.3242 14.904 26.3022 15.4773 27.3139C15.5447 27.4488 15.6122 27.5836 15.7808 27.6511C15.9157 27.6511 16.0506 27.6511 16.2866 27.6511C17.0285 26.4708 17.703 25.1894 18.4449 23.9416H18.8495C20.738 23.9416 22.6265 23.9416 24.5149 23.9416C24.8184 23.9416 25.1219 23.9416 25.4254 23.8405C27.5499 23.4021 29 21.5473 29 19.3891C29 15.9157 29 12.4423 29 8.96885C29 8.7328 29 8.49674 28.9663 8.2944L28.9326 8.22696ZM10.4527 16.7925C9.74449 17.096 9.07004 17.096 8.42931 16.5901C8.42931 16.5901 8.36187 16.5564 8.36187 16.5227C8.36187 16.5227 8.36187 16.5227 8.32815 16.5227C8.32815 16.6238 8.32815 16.725 8.32815 16.8599H6.97925V10.7899H8.32815V12.6109H8.39559C9.44099 11.8353 10.7562 12.105 11.4306 13.2179C12.1388 14.3982 11.8016 16.1517 10.4864 16.7587L10.4527 16.7925ZM13.9598 16.8599H12.6109C12.6109 16.8599 12.5772 16.6238 12.5772 16.489C12.5772 15.275 12.5772 14.0947 12.5772 12.8807C12.5772 12.3411 12.4086 12.0039 11.9027 11.869V10.655C13.0156 10.7561 13.7237 11.3294 13.9261 12.3074C13.9261 12.4085 13.9598 12.5097 13.9598 12.6109C13.9598 13.9598 13.9598 15.3087 13.9598 16.6913C13.9598 16.7587 13.9598 16.7925 13.9598 16.8599ZM17.1971 16.9611C15.8482 16.9611 14.8029 15.9157 14.8029 14.5668C14.8029 13.2179 15.8482 12.1725 17.1971 12.1725C18.546 12.1725 19.5914 13.2179 19.5914 14.5668C19.5914 15.9157 18.546 16.9611 17.1971 16.9611ZM25.0882 12.5097C25.0882 13.8923 25.0882 15.275 25.0882 16.6576C25.0882 17.939 24.0428 18.8495 22.7614 18.7484V17.6018C23.0986 17.5681 23.4358 17.5006 23.6381 17.1971C23.8067 16.9274 23.8067 16.6238 23.773 16.2529C23.4021 16.6238 22.9637 16.7925 22.4578 16.7925C21.2438 16.7925 20.2659 15.8145 20.2322 14.6005C20.1984 13.5214 20.8729 12.5097 21.8846 12.2737C22.5253 12.105 23.1323 12.1725 23.6719 12.6446C23.6719 12.6446 23.7056 12.712 23.773 12.6446C23.8405 12.5434 23.773 12.4085 23.8405 12.2737H25.0545C25.0545 12.2737 25.0882 12.4423 25.0882 12.5097Z" fill="white"/>
</svg>
