<svg width="24" height="18" viewBox="0 0 24 18" fill="none" xmlns="http://www.w3.org/2000/svg">
<path id="&#226;&#128;&#156;" d="M9.09961 17.8125H0.867188V11.9238C0.867188 9.54102 1.07227 7.66602 1.48242 6.29883C1.91211 4.91211 2.69336 3.67188 3.82617 2.57812C4.95898 1.48438 6.4043 0.625 8.16211 0L9.77344 3.39844C8.13281 3.94531 6.95117 4.70703 6.22852 5.68359C5.52539 6.66016 5.1543 7.95898 5.11523 9.58008H9.09961V17.8125ZM22.8398 17.8125H14.6074V11.9238C14.6074 9.52148 14.8125 7.63672 15.2227 6.26953C15.6523 4.90234 16.4336 3.67188 17.5664 2.57812C18.7188 1.48438 20.1641 0.625 21.9023 0L23.5137 3.39844C21.873 3.94531 20.6914 4.70703 19.9688 5.68359C19.2656 6.66016 18.8945 7.95898 18.8555 9.58008H22.8398V17.8125Z" fill="white"/>
</svg>
