<svg width="32" height="32" viewBox="0 0 32 32" fill="none" xmlns="http://www.w3.org/2000/svg">
<path d="M26.8891 14.0161C26.8891 21.5783 16.0002 29.3334 16.0002 29.3334C16.0002 29.3334 5.11133 21.3792 5.11133 14.0161C5.11133 7.51523 9.98645 2.66675 16.0002 2.66675C22.014 2.66675 26.8891 7.51523 26.8891 14.0161Z" stroke="#333D4B" stroke-width="2.2" stroke-linejoin="round"/>
<path d="M21.3332 13.3248C21.3334 14.3791 21.0208 15.4097 20.4349 16.2865C19.849 17.1632 19.0162 17.8466 18.0417 18.2502C17.0671 18.6539 15.9947 18.7596 14.9601 18.5541C13.9255 18.3485 12.975 17.841 12.229 17.0956C11.483 16.3501 10.975 15.4004 10.7691 14.3663C10.5632 13.3323 10.6687 12.2605 11.0724 11.2864C11.476 10.3124 12.1596 9.4798 13.0367 8.89403C13.9138 8.30827 14.9449 7.99562 15.9998 7.99562C16.7006 7.994 17.3947 8.13073 18.0424 8.39796C18.6902 8.66519 19.2787 9.05765 19.7742 9.55281C20.2698 10.048 20.6626 10.6361 20.9301 11.2834C21.1977 11.9307 21.3346 12.6244 21.3332 13.3248V13.3248Z" stroke="#333D4B" stroke-width="2.2" stroke-linecap="square"/>
</svg>
