<svg width="32" height="32" viewBox="0 0 32 32" fill="none" xmlns="http://www.w3.org/2000/svg">
<path d="M24.6668 4.00008L23.3515 3.34241C22.8475 3.09042 22.5955 2.96443 22.3314 2.87558C22.0969 2.79666 21.8555 2.73969 21.6105 2.70538C21.3345 2.66675 21.0528 2.66675 20.4893 2.66675H11.511C10.9475 2.66675 10.6658 2.66675 10.3899 2.70538C10.1448 2.73969 9.90343 2.79666 9.66889 2.87558C9.4048 2.96443 9.15281 3.09042 8.64883 3.34241L7.3335 4.00008M14.6668 8.00008L12.0002 2.66675M17.3335 8.00008L20.0002 2.66675M5.3335 17.3334H26.6668M22.6668 26.6667L24.0002 29.3334M9.3335 26.6667L8.00037 29.3334M11.3335 22.0001H11.3468M20.6668 22.0001H20.6802M11.7335 26.6667H20.2668C22.507 26.6667 23.6271 26.6667 24.4828 26.2308C25.2354 25.8473 25.8474 25.2354 26.2309 24.4827C26.6668 23.6271 26.6668 22.507 26.6668 20.2667V14.4001C26.6668 12.1599 26.6668 11.0398 26.2309 10.1841C25.8474 9.43147 25.2354 8.81955 24.4828 8.43606C23.6271 8.00008 22.507 8.00008 20.2668 8.00008H11.7335C9.49329 8.00008 8.37318 8.00008 7.51753 8.43606C6.76489 8.81955 6.15296 9.43147 5.76947 10.1841C5.3335 11.0398 5.3335 12.1599 5.3335 14.4001V20.2667C5.3335 22.507 5.3335 23.6271 5.76947 24.4827C6.15296 25.2354 6.76489 25.8473 7.51753 26.2308C8.37318 26.6667 9.49329 26.6667 11.7335 26.6667ZM12.0002 22.0001C12.0002 22.3683 11.7017 22.6667 11.3335 22.6667C10.9653 22.6667 10.6668 22.3683 10.6668 22.0001C10.6668 21.6319 10.9653 21.3334 11.3335 21.3334C11.7017 21.3334 12.0002 21.6319 12.0002 22.0001ZM21.3335 22.0001C21.3335 22.3683 21.035 22.6667 20.6668 22.6667C20.2986 22.6667 20.0002 22.3683 20.0002 22.0001C20.0002 21.6319 20.2986 21.3334 20.6668 21.3334C21.035 21.3334 21.3335 21.6319 21.3335 22.0001Z" stroke="#333D4B" stroke-width="2.2" stroke-linecap="round" stroke-linejoin="round"/>
</svg>
