<svg width="33" height="32" viewBox="0 0 33 32" fill="none" xmlns="http://www.w3.org/2000/svg">
<path d="M19.2327 8.00008C20.535 8.25417 21.7319 8.89109 22.6701 9.82933C23.6084 10.7676 24.2453 11.9644 24.4994 13.2667M19.2327 2.66675C21.9384 2.96733 24.4615 4.17898 26.3877 6.10276C28.3139 8.02654 29.5287 10.5481 29.8327 13.2534M14.1354 18.4842C12.5333 16.8821 11.2682 15.0705 10.3402 13.1377C10.2604 12.9715 10.2205 12.8883 10.1898 12.7832C10.0808 12.4093 10.1591 11.9503 10.3858 11.6338C10.4496 11.5447 10.5258 11.4685 10.6782 11.3161C11.1443 10.8499 11.3774 10.6168 11.5298 10.3825C12.1045 9.49862 12.1045 8.35918 11.5298 7.47532C11.3774 7.24095 11.1444 7.00788 10.6782 6.54174L10.4184 6.28191C9.70979 5.57332 9.3555 5.21903 8.97499 5.02657C8.21824 4.64381 7.32455 4.64381 6.56781 5.02657C6.1873 5.21903 5.833 5.57332 5.12441 6.28191L4.91423 6.49209C4.20807 7.19826 3.85499 7.55134 3.58532 8.03138C3.2861 8.56406 3.07095 9.39138 3.07277 10.0023C3.0744 10.5529 3.18121 10.9292 3.39482 11.6818C4.54278 15.7264 6.70874 19.5428 9.89272 22.7268C13.0767 25.9108 16.8932 28.0768 20.9377 29.2247C21.6903 29.4383 22.0666 29.5451 22.6172 29.5468C23.2282 29.5486 24.0555 29.3334 24.5881 29.0342C25.0682 28.7645 25.4213 28.4115 26.1274 27.7053L26.3376 27.4951C27.0462 26.7865 27.4005 26.4322 27.593 26.0517C27.9757 25.295 27.9757 24.4013 27.593 23.6445C27.4005 23.264 27.0462 22.9097 26.3376 22.2012L26.0778 21.9413C25.6117 21.4752 25.3786 21.2421 25.1442 21.0897C24.2604 20.5151 23.1209 20.5151 22.2371 21.0897C22.0027 21.2421 21.7696 21.4752 21.3035 21.9413C21.1511 22.0937 21.0749 22.1699 20.9858 22.2337C20.6692 22.4604 20.2102 22.5387 19.8364 22.4297C19.7312 22.3991 19.6481 22.3591 19.4818 22.2793C17.549 21.3513 15.7375 20.0863 14.1354 18.4842Z" stroke="#333D4B" stroke-width="2.2" stroke-linecap="round" stroke-linejoin="round"/>
</svg>
