<svg width="33" height="32" viewBox="0 0 33 32" fill="none" xmlns="http://www.w3.org/2000/svg">
<path d="M29.1665 23.9999L20.3094 15.9999M12.6903 15.9999L3.83322 23.9999M3.1665 9.33325L14.0531 16.9538C14.9346 17.5709 15.3754 17.8795 15.8549 17.999C16.2784 18.1046 16.7213 18.1046 17.1448 17.999C17.6243 17.8795 18.065 17.5709 18.9466 16.9538L29.8332 9.33325M9.5665 26.6666H23.4332C25.6734 26.6666 26.7935 26.6666 27.6491 26.2306C28.4018 25.8471 29.0137 25.2352 29.3972 24.4825C29.8332 23.6269 29.8332 22.5068 29.8332 20.2666V11.7333C29.8332 9.49304 29.8332 8.37294 29.3972 7.51729C29.0137 6.76464 28.4018 6.15272 27.6491 5.76923C26.7935 5.33325 25.6734 5.33325 23.4332 5.33325H9.5665C7.32629 5.33325 6.20619 5.33325 5.35054 5.76923C4.59789 6.15272 3.98597 6.76464 3.60248 7.51729C3.1665 8.37294 3.1665 9.49304 3.1665 11.7333V20.2666C3.1665 22.5068 3.1665 23.6269 3.60248 24.4825C3.98597 25.2352 4.59789 25.8471 5.35054 26.2306C6.20619 26.6666 7.32629 26.6666 9.5665 26.6666Z" stroke="#333D4B" stroke-width="2.2" stroke-linecap="round" stroke-linejoin="round"/>
</svg>
