<svg width="89" height="88" viewBox="0 0 89 88" fill="none" xmlns="http://www.w3.org/2000/svg">
<path d="M50.1072 48.2004C50.1072 48.2004 42.1272 59.9604 31.8672 24.7471L27.9302 26.5471C27.9302 26.5471 35.9234 51.2671 42.9225 52.8937C47.9332 54.4137 51.6978 51.7871 51.6978 51.7871L50.1204 48.1871L50.1072 48.2004Z" fill="#D7DDE2"/>
<path d="M54.0049 29.4803C54.0049 29.4803 49.6968 29.1603 47.6156 34.4403C46.5286 36.0803 47.2179 42.6936 47.2179 42.6936C47.2179 42.6936 49.2461 44.7336 51.0489 42.5336C49.551 32.1203 55.304 33.187 55.304 33.187L54.0182 29.4803H54.0049Z" fill="#B5BEC7"/>
<path d="M60.8311 45.1732L60.0225 43.1199C57.2786 38.2799 52.7583 36.4932 45.9581 37.4132C45.229 26.9465 51.8702 28.0799 51.8702 28.0799L50.6507 24.0132C50.6507 24.0132 48.8876 24.1999 46.833 25.3732C46.5149 24.5999 46.2232 23.2799 47.7874 20.2932L45.9846 20.0132C45.9846 20.0132 43.519 24.0265 45.0037 26.6665C44.9507 26.7065 44.8976 26.7599 44.8579 26.7999C43.7444 26.8399 42.3923 25.9199 43.983 20.9999L42.1272 20.8932C42.1272 20.8932 39.7279 28.0399 42.4983 28.3065C42.9225 28.4132 43.1876 28.3332 43.1876 28.4132C42.0874 29.1199 39.7676 30.0665 40.1388 23.2399L38.4553 23.4399C38.4553 23.4399 36.8646 28.9332 40.0328 30.6932C40.8149 31.1999 41.4246 31.2932 41.9018 31.2265C41.4511 33.0932 41.5174 35.6132 41.9283 38.4532C36.8779 40.6265 31.3104 44.8532 33.9749 54.7732C36.4139 63.8532 46.0907 68.9732 53.1693 67.3599C59.2007 65.9732 63.5486 53.0399 60.8311 45.1999V45.1732Z" fill="#426984"/>
</svg>
