<svg width="89" height="88" viewBox="0 0 89 88" fill="none" xmlns="http://www.w3.org/2000/svg">
<path d="M59.8577 56.7202L46.8272 43.6135V24.8002C46.8272 23.9868 46.1777 23.3335 45.3691 23.3335C44.5605 23.3335 43.9109 23.9868 43.9109 24.8002V43.6135L30.907 56.7068C30.337 57.2668 30.337 58.2002 30.907 58.7602C31.4637 59.3335 32.3784 59.3335 32.9484 58.7602L45.3823 46.2402L57.8296 58.7602C58.3996 59.3335 59.3142 59.3335 59.8709 58.7602C60.4409 58.1868 60.4409 57.2668 59.8709 56.7068L59.8577 56.7202Z" fill="#D7DDE2"/>
<path d="M42.8237 38.9204C42.8237 38.9204 40.7161 24.1337 30.7212 34.907C30.7212 34.907 25.2598 40.4137 20.6335 58.9604C20.6335 58.9604 19.5465 64.6004 24.1595 64.467C24.1595 64.467 36.6863 64.8404 39.2844 62.9604C39.2844 62.9604 42.9828 61.2004 43.3142 55.4404L42.8105 38.907L42.8237 38.9204Z" fill="#426984"/>
<path d="M70.1173 58.9599C65.491 40.4132 60.0296 34.8932 60.0296 34.8932C50.0215 24.1066 47.9271 38.9066 47.9271 38.9066L47.4233 55.4532C47.7547 61.2132 51.4531 62.9732 51.4531 62.9732C54.0645 64.8532 66.578 64.4799 66.578 64.4799C71.2043 64.5999 70.104 58.9599 70.104 58.9599H70.1173Z" fill="#426984"/>
</svg>
