<svg width="89" height="88" viewBox="0 0 89 88" fill="none" xmlns="http://www.w3.org/2000/svg">
<g clip-path="url(#clip0_155_3259)">
<path d="M62.438 31.725C61.5131 31.3728 59.2813 30.7992 56.1446 32.8925C53.5106 34.6536 50.8464 39.5748 49.3283 42.6141C49.1373 43.0066 48.4336 42.3625 47.8304 42.8657C47.7198 42.9563 46.2319 45.2508 46.1615 45.3515C44.6133 47.3542 43.3867 48.0586 44.5027 51.4703C45.1059 53.3321 46.443 53.3019 47.579 52.5974C50.7559 50.6249 56.597 46.0258 57.2304 45.4924C57.9341 44.8986 62.4481 31.725 62.4481 31.725H62.438Z" fill="#D0D8DF"/>
<path d="M74.1898 67.6518C72.9432 57.3364 68.9721 55.8268 68.9721 55.8268C69.3641 52.8177 55.4301 57.0244 55.4301 57.0244C55.4301 57.0244 52.5045 67.7122 51.2478 76.2262C49.8102 85.9076 52.3939 94.5726 52.3939 94.5726C52.3939 94.5726 52.5749 96.6759 56.174 96.6658C58.9387 96.6558 61.2108 94.4015 61.2108 94.4015L60.497 80.7851L62.4273 74.4348C62.4273 74.4348 64.1967 83.2206 65.7952 88.806C68.1778 97.1389 68.3789 104.053 68.3789 104.053C68.3789 104.053 73.0538 105.723 76.2508 104.123C79.4478 102.523 78.8244 100.732 78.8244 100.732C78.8244 100.732 78.8647 94.0794 74.7427 84.8107C74.4009 77.776 74.6724 71.7377 74.1797 67.6518H74.1898Z" fill="#D0D8DF"/>
<path d="M72.612 57.3171C72.6823 60.5979 73.4464 62.1377 73.6475 64.2209C70.8225 66.7268 66.5598 67.2099 62.4379 66.5356C59.5927 66.0626 55.6719 65.1669 53.4199 63.4158C53.621 61.5439 54.556 61.4232 54.4856 57.9511C54.375 52.094 53.1987 45.2606 53.8522 41.8993C54.8676 36.6863 58.3863 33.3853 58.3863 33.3853C62.7093 31.6845 66.8916 34.915 66.8916 34.915C66.8916 34.915 71.7373 36.5353 73.4665 37.8335C74.7232 38.7795 74.0496 40.0174 74.2004 41.1143C74.4115 42.6642 72.4913 50.7958 72.622 57.3171H72.612Z" fill="#D0D8DF"/>
<path d="M66.8918 34.9256L69.0432 36.0125C69.0432 36.0125 68.058 37.6126 66.2182 39.2229C64.3784 40.8331 62.0058 42.8559 59.1708 41.4168C57.0394 40.3299 57.4717 37.5925 58.9496 35.8716C60.4274 34.1607 61.0005 33.7783 61.0005 33.7783L66.8818 34.9256H66.8918Z" fill="#D0D8DF"/>
<path d="M60.93 32.3685L60.176 35.7097C60.176 35.7097 58.1955 39.222 60.6083 40.2082C63.2021 41.2649 67.6457 35.6191 67.6457 35.6191C67.6457 35.6191 67.0727 33.1233 66.8012 28.8965C65.0519 28.1618 60.93 32.3786 60.93 32.3786V32.3685Z" fill="#D7DDE2"/>
<path d="M67.0922 22.2949C65.5138 20.2822 60.9898 18.5914 58.0441 22.9591C54.9577 27.5382 57.8732 35.0257 60.5776 34.5929C62.0957 34.3514 65.5038 32.9626 67.0017 30.5171C68.6907 27.7596 68.3087 23.8548 67.0822 22.2949H67.0922Z" fill="#D7DDE2"/>
<path d="M65.3838 19.8395C62.7196 16.6191 56.9288 19.4973 56.4563 22.1542C56.0609 24.3414 55.4041 25.8644 54.4858 26.7231C58.849 29.6215 64.1573 25.4249 64.1774 25.4148C63.926 27.8302 65.2833 28.6755 65.5748 28.5648C65.8462 27.5182 66.2986 27.2767 66.8114 27.7094C67.3945 28.2126 67.304 30.1247 67.304 30.1247C67.304 30.1247 69.4856 28.2327 69.4755 25.0827C69.4755 23.1102 69.003 20.1112 65.3838 19.8294V19.8395Z" fill="#B5BEC7"/>
<path d="M59.3311 58.0011C59.2909 55.9481 60.437 54.4285 61.382 53.8045C62.3471 53.1604 63.4028 53.8649 63.4028 53.8649C63.4028 53.8649 63.3324 52.3755 64.3981 51.8924C64.9208 49.4871 66.7807 44.9584 68.4194 42.6538C71.0333 38.9604 73.1144 37.6118 73.1144 37.6118C73.1144 37.6118 77.6586 39.8259 75.5373 45.1798C74.0092 49.0443 71.0132 53.0397 68.9422 56.2098C68.6808 57.659 68.6306 58.2225 67.3638 58.4138C66.5294 58.5345 67.4744 59.8026 65.2928 59.5107C63.1414 61.5839 59.3914 61.0303 59.3311 58.0213V58.0011Z" fill="#D0D8DF"/>
<path d="M49.2672 31.0003C49.6291 29.8732 49.0962 28.6655 49.9608 27.327C50.2926 26.8138 50.5942 26.1898 50.8757 25.5357C51.3884 24.318 51.3784 22.426 51.8006 21.49C52.253 20.4937 53.0473 20.1918 53.751 20.4736C55.1484 21.0371 55.3797 21.329 55.3797 22.7782C55.3797 25.3646 54.3643 26.6125 54.0828 27.9611C53.7309 29.6216 52.7758 31.1614 52.444 31.8658C51.5091 33.8283 51.1471 37.884 50.9461 41.2353C50.8355 43.0568 50.3127 48.7831 47.7893 50.8261C44.7833 53.2615 44.4817 50.3933 43.7277 49.1052C42.662 47.3037 44.351 41.4667 45.859 38.196C47.367 34.9252 48.8147 32.3992 49.2772 31.0003H49.2672Z" fill="#D7DDE2"/>
<path d="M53.188 27.8298C53.3086 27.7895 54.3643 26.2095 54.9071 25.5352C55.45 24.8509 55.9929 24.8106 55.8723 25.3541C55.7516 25.8975 55.7516 26.6523 55.3696 27.4071C54.9876 28.1619 54.2134 29.7419 53.6102 30.2551C53.007 30.7684 52.8964 30.9898 52.8964 30.9898C52.8964 30.9898 51.308 28.9569 51.68 28.8764C52.062 28.7959 53.188 27.8298 53.188 27.8298Z" fill="#D7DDE2"/>
<path d="M65.3535 38.8902C65.7657 37.7832 65.2831 36.5454 66.198 35.2572C66.5499 34.754 66.8816 34.1502 67.1832 33.5061C67.7462 32.3186 67.8065 30.4165 68.2791 29.5007C68.7717 28.5245 69.586 28.2528 70.2696 28.5647C71.647 29.1887 71.8681 29.4805 71.8078 30.9398C71.6972 33.5262 71.3152 34.6433 70.6416 36.334C70.0183 37.914 68.8622 39.2022 68.5002 39.8866C67.4848 41.8087 66.952 45.8443 66.6102 49.1855C66.4292 50.997 65.6652 56.7032 63.0613 58.6355C59.9548 60.9401 59.7738 58.0618 59.0701 56.7535C58.0849 54.9119 60.0151 49.1453 61.6538 45.945C63.2925 42.7447 64.8508 40.279 65.3636 38.9003L65.3535 38.8902Z" fill="#D7DDE2"/>
<path d="M67.2035 34.4722C67.2035 34.4722 67.1533 32.7111 66.5903 32.1374C66.0273 31.5738 65.9268 31.9563 66.0072 33.1639C66.0474 33.7174 65.4442 34.5628 65.3235 35.6094C65.1929 36.6561 65.5849 37.3807 65.5849 37.3807C65.5849 37.3807 67.2438 34.8446 67.2236 34.4722H67.2035Z" fill="#D7DDE2"/>
<path d="M54.1984 39.7742C52.439 38.5162 51.6247 38.315 50.7098 40.0258C50.2976 40.4887 49.1716 40.1566 49.423 42.1191C49.5939 43.4676 48.9505 44.7357 48.0456 45.9232C47.0504 47.2315 44.5571 49.8682 42.9586 51.5489C39.6611 50.8746 36.7154 50.4821 36.7154 50.4821L35.519 56.45C35.519 56.45 39.9627 56.7921 43.6422 57.0739C44.7682 57.2651 46.7488 56.3896 48.0456 54.2661C49.2018 52.3641 51.4136 46.9397 51.9162 46.3258C52.1977 45.9735 54.2486 44.6552 55.0931 42.8839C55.7265 41.5454 54.9624 40.3076 54.2084 39.7641L54.1984 39.7742Z" fill="#B5BEC7"/>
<path d="M32.6946 66.805C32.6946 66.805 36.6858 76.1744 37.9726 84.779C38.8071 90.3543 40.9082 94.8629 40.2849 99.1099C38.425 111.871 38.9579 125.246 38.9579 125.246C38.9579 125.246 35.9217 128.275 33.8407 128.275C30.2717 128.275 28.824 126.071 28.824 126.071C28.824 126.071 28.3414 108.862 30.7643 99.281C29.5981 95.2856 28.5525 91.089 26.6022 85.4432C26.572 88.3416 27.2054 93.0213 26.9641 96.1813C26.6122 100.841 23.7068 113.733 23.1538 117.869C21.676 119.66 16.9307 120.053 14.6084 117.426C14.7894 115.373 16.2471 103.407 17.5742 94.6617C17.4837 90.6261 16.1667 85.2922 15.6137 73.3263C15.3524 67.6403 32.6845 66.7949 32.6845 66.7949L32.6946 66.805Z" fill="#426984"/>
<path d="M28.7638 26.299C27.0447 25.1114 23.7472 25.4838 22.3196 28.503C21.5253 30.1836 22.4201 32.3876 22.591 35.5476C22.7318 38.1039 21.4248 41.0526 21.4248 41.0526C21.4248 41.0526 22.1084 41.8778 24.3001 42.7735C26.4917 43.6792 28.7638 42.7735 28.7638 42.7735L28.6935 38.8788C28.6935 38.8788 31.046 38.5265 31.4582 38.1542C32.4534 37.2484 32.9762 34.5312 32.5138 31.039C31.8301 25.836 29.3871 26.7217 28.7638 26.2889V26.299Z" fill="#B5BEC7"/>
<path d="M29.4169 32.7195C29.4169 32.7195 30.1206 32.7195 30.4826 32.3874C30.6937 31.6427 31.0154 30.6061 31.0858 29.2777C32.3425 28.5027 33.6494 26.5 33.1568 24.8697C29.9296 24.5879 23.9277 21.5688 22.0477 25.232C20.1778 25.232 17.7247 28.1404 19.2327 32.9811C20.6101 37.3992 22.0477 36.4129 23.2441 39.3918C23.6261 39.2006 23.978 38.9893 24.2997 38.7779C26.8633 37.0671 27.5268 34.9335 27.5268 34.9335C27.5268 34.9335 26.3305 32.5685 27.2554 31.7232C28.1803 30.8778 29.1253 32.0855 29.427 32.7094L29.4169 32.7195Z" fill="#191F28"/>
<path d="M39.9729 49.5566C39.9729 49.5566 38.7463 47.8156 37.1378 46.2959C35.861 45.0782 34.5641 44.3234 33.4683 44.3536C32.8349 43.4982 31.5078 42.8138 30.4221 42.361C30.1506 41.2036 28.7331 40.6702 28.7331 40.6702C28.7331 40.6702 24.4101 41.3244 22.691 38.9091C22.7714 38.5971 22.8317 38.2348 22.8317 37.792C22.1079 37.792 21.4343 38.0134 20.7205 38.4562C18.0061 40.1369 14.7789 42.5924 14.8895 60.9992C14.9096 64.7027 14.8895 68.7685 15.372 74.5552C18.1669 77.4435 25.5361 77.8058 29.1151 76.8396C31.2565 76.266 34.4233 75.5012 35.861 73.74C35.5292 72.16 34.0011 67.8929 33.9408 64.0385C33.9006 61.9653 34.2927 58.9965 34.6546 57.1447C35.8912 57.9901 37.4997 57.7385 37.4997 57.7385C37.4997 57.7385 37.8415 57.4567 39.4903 54.7697C41.1391 52.0826 39.993 49.5465 39.993 49.5465L39.9729 49.5566Z" fill="#426984"/>
<path d="M37.6226 23.9384L43.725 13.8947L45.2129 17.246L52.934 10L44.861 22.0967L43.3028 19.1782L37.6226 23.9384Z" fill="#426984"/>
<path d="M34.9883 21.8745L36.5767 13.1895L39.4017 13.4209L34.9883 21.8745Z" fill="#426984"/>
</g>
<defs>
<clipPath id="clip0_155_3259">
<rect x="0.0908203" width="87.9093" height="88" rx="43.9546" fill="white"/>
</clipPath>
</defs>
</svg>
