<svg width="88" height="88" viewBox="0 0 88 88" fill="none" xmlns="http://www.w3.org/2000/svg">
<g clip-path="url(#clip0_155_3244)">
<path d="M53.6765 37.6754L50.5187 36.0102C50.4638 34.1785 50.0107 32.4578 49.2144 30.9314L52.3173 26.7269C52.3859 26.0469 51.9054 25.4502 51.2464 25.367L46.5096 27.4901C45.068 26.2273 43.3243 25.3254 41.3884 24.9091L40.139 20.0801C39.6585 19.5944 38.8896 19.5944 38.4228 20.0801L37.2009 24.8119C35.2101 25.1311 33.384 25.9498 31.86 27.157L28.6747 25.2005C28.002 25.2005 27.4528 25.7278 27.439 26.4077L29.3749 29.8491C28.7022 30.8759 28.1942 31.9999 27.8647 33.221L22.1256 34.4699C21.6039 34.9278 21.5353 35.691 21.9609 36.1906L27.5626 37.8835C27.796 39.6042 28.3864 41.2138 29.2788 42.6015L26.7937 45.7792C26.6976 46.4452 27.1644 47.0697 27.8372 47.1668L31.8737 45.4739C33.0819 46.4314 34.4824 47.1391 36.0064 47.5553L36.8713 51.3714C37.3382 51.8987 38.0933 51.9542 38.5738 51.5101L39.5898 47.93C41.5669 47.8329 43.4204 47.2223 45.0131 46.2371L49.6812 48.9291C50.3539 48.9291 50.8894 48.3602 50.8894 47.6941L48.2533 43.2537C49.0908 42.1158 49.7224 40.8253 50.1205 39.4238L53.3058 39.3266C53.8687 38.9659 54.0472 38.2027 53.6902 37.6337L53.6765 37.6754Z" fill="#B5BEC7"/>
<path d="M68.2585 58.4922L65.967 57.3421C65.9338 56.0643 65.6017 54.8823 65.0372 53.828L67.2954 50.9209C67.3618 50.4417 66.9965 50.0264 66.5316 49.9945L63.111 51.464C62.0815 50.6015 60.7864 49.9625 59.3916 49.675L58.4949 46.3207C58.1628 46.0012 57.5983 46.0012 57.233 46.3207L56.3363 49.5792C54.8751 49.8028 53.5799 50.3778 52.4508 51.2084L50.1262 49.8667C49.628 49.8667 49.2295 50.2181 49.2295 50.6973L50.6243 53.0933C50.1262 53.7961 49.7609 54.5947 49.5284 55.4254L45.344 56.2879C44.9787 56.6074 44.9123 57.1505 45.2112 57.4699L49.2627 58.6519C49.4288 59.8339 49.8605 60.9521 50.5247 61.9105L48.7314 64.1147C48.6649 64.5939 48.997 65.0092 49.4952 65.0731L52.4176 63.8911C53.281 64.562 54.3105 65.0412 55.4064 65.3287L56.0374 67.9802C56.3695 68.3317 56.9341 68.3956 57.2662 68.0761L57.9968 65.6162C59.4248 65.5523 60.7864 65.137 61.9155 64.4342L65.3028 66.2871C65.801 66.2871 66.1663 65.9037 66.1663 65.4245L64.2733 62.3577C64.8711 61.559 65.336 60.6965 65.6349 59.7062L67.9596 59.6423C68.3581 59.3867 68.4909 58.8756 68.2252 58.4602L68.2585 58.4922Z" fill="#426984"/>
</g>
<defs>
<clipPath id="clip0_155_3244">
<rect width="56.7273" height="48" fill="white" transform="translate(16 20)"/>
</clipPath>
</defs>
</svg>
