<svg width="89" height="88" viewBox="0 0 89 88" fill="none" xmlns="http://www.w3.org/2000/svg">
<g clip-path="url(#clip0_155_3269)">
<path d="M49.8521 58.9399C49.8452 59.1095 49.885 59.2774 49.9659 59.4203C50.0468 59.5633 50.1649 59.6742 50.3039 59.7379C50.3912 59.7813 50.4854 59.8038 50.5808 59.8039C50.6826 59.803 50.7831 59.778 50.8759 59.7306C50.9687 59.6833 51.0518 59.6145 51.1199 59.5288C51.6057 58.9454 53.1163 56.9531 53.2426 55.8029C53.2777 55.273 53.24 54.7402 53.1309 54.2234C52.8646 53.0356 52.98 51.7793 53.4563 50.6791C53.5231 50.512 53.5388 50.3244 53.5009 50.146C53.4631 49.9676 53.3739 49.8086 53.2474 49.694C53.1198 49.5859 52.9648 49.5275 52.8054 49.5275C52.6461 49.5275 52.491 49.5859 52.3634 49.694C51.0082 50.7947 48.7301 53.8767 49.7744 57.6631C49.8373 58.0847 49.8633 58.5124 49.8521 58.9399Z" fill="#D7DDE2"/>
<path d="M43.1538 87.8993C42.796 87.9002 42.4435 87.8013 42.1273 87.6115C41.8112 87.4216 41.5412 87.1464 41.341 86.8104C41.1409 86.4743 41.0168 86.0876 40.9797 85.6843C40.9426 85.2811 40.9936 84.8737 41.1283 84.4981L41.1915 84.3165L41.1989 84.2957C41.7256 82.8175 42.2205 81.4284 42.0707 80.5246C41.9492 79.8091 40.8563 77.7728 40.1277 76.5015C40.0464 76.3679 40.002 76.2099 40.0001 76.0475C39.9981 75.8852 40.0387 75.7259 40.1167 75.5898C40.1948 75.4536 40.3067 75.3468 40.4384 75.2828C40.57 75.2188 40.7155 75.2005 40.8563 75.2302C42.0701 75.5004 43.1834 76.18 44.0503 77.1798C44.9171 78.1796 45.4969 79.453 45.7137 80.8328C45.7379 81.0419 45.8235 81.2357 45.9565 81.3831C46.078 81.5098 46.2177 81.6122 46.3694 81.6858C46.486 80.9539 46.1363 79.2368 45.5194 77.6793L45.2279 76.9528C43.727 73.2269 41.2158 66.986 46.4326 60.9927C46.5475 60.8611 46.698 60.7771 46.8601 60.7542C47.0222 60.7312 47.1864 60.7706 47.3263 60.8661C47.4558 60.9672 47.5534 61.1124 47.6049 61.2807C47.6565 61.449 47.6593 61.6315 47.6129 61.8017C46.6123 65.39 46.5054 67.8996 47.302 69.2699C47.5466 69.6529 47.8667 69.9658 48.237 70.1837C48.6072 70.4016 49.0173 70.5184 49.4344 70.5247C50.163 70.6073 50.469 70.4862 50.537 70.4037C50.707 70.178 50.503 69.1268 50.367 68.4279C49.9979 66.5347 49.4927 63.9371 51.4016 61.9778C51.5117 61.8639 51.6503 61.7916 51.7983 61.7709C51.9462 61.7502 52.0962 61.7821 52.2274 61.8622C52.3599 61.941 52.4679 62.064 52.5365 62.2147C52.6052 62.3653 52.6312 62.5363 52.6111 62.7043C52.446 64.0636 53.0969 67.2777 54.0683 68.1692C54.1281 68.2442 54.206 68.2978 54.2923 68.3232C54.3786 68.3486 54.4696 68.3448 54.5541 68.3123C55.171 68.0702 54.5541 65.0873 54.1995 63.4803C53.8449 61.8732 53.5146 60.2497 53.6117 59.1325C53.8255 56.711 55.0447 54.2454 55.9384 52.4458C56.0696 52.1816 56.191 51.9339 56.2979 51.7083C57.5802 49.0336 56.259 44.5537 56.2493 44.4822C56.1968 44.3166 56.1928 44.1362 56.2378 43.9678C56.2828 43.7993 56.3744 43.6517 56.4991 43.5469C56.6238 43.442 56.775 43.3853 56.9303 43.3853C57.0857 43.3852 57.2369 43.4418 57.3616 43.5466C57.4102 43.5851 62.0976 47.4926 59.0568 55.1315C57.6015 59.3362 58.3603 59.671 58.909 59.9131L58.9111 59.914C59.01 59.9711 59.1211 59.9959 59.2317 59.9855C59.2523 59.9085 59.2653 59.8291 59.2706 59.7489V58.8518C59.2414 57.2503 59.1977 54.8288 61.3447 52.8475C61.4754 52.7249 61.6397 52.6578 61.8094 52.6578C61.9791 52.6578 62.1434 52.7249 62.2741 52.8476C62.4048 52.9702 62.4936 53.1406 62.5252 53.3295C62.5568 53.5184 62.5293 53.7138 62.4473 53.8822C61.4321 55.9955 61.4758 60.2992 61.5001 62.6107V63.1115C61.5001 64.2948 60.9464 65.7257 60.3538 67.2447C59.0568 70.5467 58.3525 72.8032 60.2615 74.0029C60.8249 74.3552 61.505 74.4928 61.6701 74.3552C61.7187 74.3056 61.8304 73.9864 61.6701 73.1279C61.1844 70.7889 61.1844 67.074 62.8213 64.3223C62.9046 64.1809 63.0243 64.0721 63.1642 64.0107C63.3041 63.9493 63.4573 63.9383 63.6029 63.9792C63.7485 64.0202 63.8794 64.1111 63.9777 64.2394C64.076 64.3678 64.137 64.5274 64.1522 64.6965V64.7461C64.1862 64.0361 64.1522 63.2326 64.1522 62.4456C64.1036 59.9195 64.0502 57.0522 65.5026 55.3516C65.6125 55.2233 65.7562 55.1389 65.9122 55.1111C66.0681 55.0833 66.2278 55.1136 66.3672 55.1975C66.5065 55.2788 66.6187 55.4092 66.687 55.5689C66.7554 55.7287 66.7761 55.9093 66.7461 56.0836C66.2166 59.2701 67.1104 60.8001 67.9021 62.1374C68.2858 62.7207 68.5857 63.3689 68.791 64.0581C69.2059 65.7251 68.4087 67.7233 67.703 69.4919L67.6884 69.5286C67.2026 70.7339 66.542 72.3849 66.8723 72.8307L66.8751 72.8344C66.9307 72.9091 67.0784 73.1075 67.4844 72.8802C68.2178 72.473 69.0582 70.9925 68.621 68.9838C68.5834 68.8068 68.5984 68.6207 68.6638 68.4544C68.7292 68.2881 68.8413 68.151 68.9826 68.0644C69.1238 67.9777 69.2865 67.9464 69.4451 67.9754C69.6037 68.0043 69.7494 68.0918 69.8596 68.2243C72.8549 71.8266 71.0867 75.2207 69.9111 77.4772L69.9033 77.4922C69.5115 78.1417 69.204 78.8515 68.9902 79.6C68.791 81.3831 68.9902 80.8328 68.621 83.038L68.6638 87.8993H43.1538Z" fill="#D7DDE2"/>
<g clip-path="url(#clip1_155_3269)">
<path d="M35.0601 41.2898C35.0601 41.2898 39.7601 39.5198 45.3801 37.2398C48.1601 36.1098 50.8101 34.5898 53.5201 33.1798C55.1001 32.3598 59.0501 30.6998 61.2701 29.5798C66.1001 27.1198 70.5701 24.3698 70.5601 25.3198C70.5401 26.5898 68.3101 27.1298 67.0801 28.0998C67.1401 29.5498 68.1701 30.1698 67.1201 32.1398C66.0701 34.1198 62.7901 33.4298 60.8901 33.7998C60.2201 34.6398 55.5501 39.0998 52.8401 40.5598C50.1301 42.0198 46.8001 42.8498 43.8501 44.7598C41.1601 46.4998 34.4401 49.7998 32.7501 49.9998C31.0601 50.1898 35.0701 41.2898 35.0701 41.2898H35.0601Z" fill="#B5BEC7"/>
<path d="M38.1499 60.1799C38.1499 60.1799 42.1199 69.4899 43.3999 78.0399C44.2299 83.5799 46.3199 88.0599 45.6999 92.2799C43.8499 104.96 44.3799 118.25 44.3799 118.25C44.3799 118.25 41.3599 121.26 39.2899 121.26C35.7399 121.26 34.2999 119.07 34.2999 119.07C34.2999 119.07 33.8199 101.97 36.2299 92.4499C35.0699 88.4799 34.0299 84.3099 32.0899 78.6999C32.0599 81.5799 32.6899 86.2299 32.4499 89.3699C32.0999 93.9999 29.2099 106.81 28.6499 110.92C27.1799 112.7 22.4599 113.09 20.1499 110.48C20.3299 108.44 21.7799 96.5499 23.0999 87.8599C23.0099 83.8499 21.6999 78.5499 21.1499 66.6599C20.8899 61.0099 38.1299 60.1699 38.1299 60.1699L38.1499 60.1799Z" fill="#426984"/>
<path d="M34.8498 18.9898C33.0798 17.7598 29.6698 18.1398 28.1898 21.2698C27.3698 22.9998 28.2898 25.2798 28.4698 28.5498C28.6198 31.1898 27.7598 34.5498 27.7598 34.5498C27.7598 34.5498 27.9698 35.0798 30.2298 36.0098C32.4898 36.9398 34.8498 36.0098 34.8498 36.0098L34.7798 31.9898C34.7798 31.9898 37.2098 31.6298 37.6398 31.2398C38.6698 30.2998 39.2098 27.4998 38.7298 23.8998C38.0198 18.5298 35.4998 19.4498 34.8498 18.9898Z" fill="#B5BEC7"/>
<path d="M40.6898 47.0896C40.6898 42.6196 39.9698 40.0296 39.1498 38.2396C38.3298 36.4496 34.2398 35.2996 34.2398 35.2996C34.2398 35.2996 29.4798 35.1696 27.5498 34.1996C27.6198 33.5296 28.3198 32.9396 28.3298 31.3496C27.6098 31.3496 26.9398 31.5696 26.2298 32.0096C23.5298 33.6896 20.3198 36.1196 20.4398 54.4096C20.4598 58.0896 20.4398 62.1296 20.9198 67.8796C23.6998 70.7496 31.0298 71.1096 34.5898 70.1496C36.7198 69.5796 39.8698 68.8196 41.2998 67.0696C40.9698 65.4996 39.4498 61.2596 39.3898 57.4296C39.3198 53.5996 40.6998 50.1796 40.6998 47.0896H40.6898Z" fill="#426984"/>
<path d="M34.2097 34.2097C34.2097 34.2097 29.9097 34.8597 28.1997 32.4597C26.2397 32.0197 26.2397 34.5197 26.2397 34.5197C26.2397 34.5197 27.3597 36.0797 29.5697 36.7797C31.7797 37.4797 33.7797 37.3497 35.9597 36.2797C35.9697 34.8497 34.2197 34.2097 34.2197 34.2097H34.2097Z" fill="#426984"/>
<path d="M31.3797 41.6496C32.2797 44.6096 34.2197 46.6296 37.9297 46.5196C42.0197 46.3996 45.6597 45.7596 45.6597 45.7596C45.6597 45.7596 46.4697 42.6796 45.0097 39.9096C43.5497 37.1296 42.0397 36.3896 42.0397 36.3896C42.0397 36.3896 37.1897 37.2596 35.0697 37.8596C32.5297 38.5796 30.8197 39.8396 31.3697 41.6496H31.3797Z" fill="#426984"/>
<path d="M25.9697 22.7698C26.1797 20.1498 28.0097 18.2998 29.7097 17.4798C31.2097 16.7498 32.8597 16.9798 34.6097 17.3498C36.4897 17.7398 38.6697 18.7098 38.9097 20.5698C39.2897 23.4898 37.0797 25.4198 35.4597 27.7098C34.2397 29.4298 30.2697 32.6198 29.0997 33.0098C27.7697 30.5898 25.5797 27.7098 25.9697 22.7698Z" fill="#191F28"/>
<path d="M37.1897 26.9296C37.1897 26.9296 37.0797 23.9096 35.4597 25.4296C34.3197 26.4996 35.7997 28.9096 35.7997 28.9096L37.1897 26.9296Z" fill="#B5BEC7"/>
</g>
</g>
<path d="M43.7594 22.662L52.6798 15.0056L53.0574 18.6535L62.6514 14.1592L51.2194 23.1563L50.6407 19.8981L43.7594 22.662Z" fill="#426984"/>
<path d="M41.8917 19.8821L46.0948 12.1172L48.7118 13.2136L41.8917 19.8821Z" fill="#426984"/>
<defs>
<clipPath id="clip0_155_3269">
<rect x="0.817871" width="88" height="88" rx="44" fill="white"/>
</clipPath>
<clipPath id="clip1_155_3269">
<rect width="50.55" height="107.96" fill="white" transform="translate(20 17)"/>
</clipPath>
</defs>
</svg>
