<svg width="89" height="88" viewBox="0 0 89 88" fill="none" xmlns="http://www.w3.org/2000/svg">
<path d="M53.1919 23.8875C46.3839 19.1781 37.6984 20.8282 32.8973 25.7733C28.8226 29.9705 29.6406 36.7239 31.2036 41.0898C32.6661 45.1751 31.392 48.5449 31.0364 52.9644C30.6809 57.3839 31.6892 62.8202 34.6128 65.0786C37.2154 67.0881 44.6326 68.782 47.9571 62.5131C51.3925 56.0357 58.1518 48.7441 59.5054 42.6301C60.9294 36.1957 59.9999 28.597 53.1919 23.8875Z" fill="#D7DDE2"/>
<path d="M50.5641 47.7121C50.5641 47.7121 53.7207 45.2894 54.5815 38.5598C55.4423 31.8301 51.1647 26.3668 46.2701 25.564C41.3762 24.7606 36.2378 28.5106 34.8567 32.5622C33.4751 36.6137 34.6682 40.5473 35.6817 41.0842C36.6952 41.6211 39.4007 42.9829 39.5974 43.9614C39.7941 44.9393 39.4529 45.6584 38.2848 47.028C37.1168 48.3975 36.5758 51.1042 37.862 53.1494C39.1475 55.1946 40.7127 55.2977 41.6394 54.2725C42.5662 53.248 42.8006 50.1464 43.9309 49.1322C45.0613 48.1187 47.3427 45.6707 46.2739 44.1845C45.2051 42.6976 39.5735 42.3824 38.0813 40.8099C36.589 39.2374 35.4235 36.3997 39.2732 34.813C43.1229 33.2262 46.4731 34.7481 47.7831 38.3724C47.7831 38.3724 47.9415 35.9821 45.4873 34.0653C43.033 32.1485 37.4913 32.9104 35.8306 36.4212C35.8306 36.4212 34.8373 30.4988 40.7818 27.7597C46.7263 25.02 51.3796 28.6507 52.6589 32.9046C53.9369 37.1584 54.2027 42.1165 50.5641 47.7121Z" fill="#B5BEC7" stroke="#B5BEC7" stroke-width="0.6"/>
</svg>
