<svg width="88" height="88" viewBox="0 0 88 88" fill="none" xmlns="http://www.w3.org/2000/svg">
<path d="M58.8907 56.7202L45.6316 43.6135V24.8002C45.6316 23.9868 44.9707 23.3335 44.1479 23.3335C43.3251 23.3335 42.6642 23.9868 42.6642 24.8002V43.6135L29.4321 56.7068C28.8521 57.2668 28.8521 58.2002 29.4321 58.7602C29.9986 59.3335 30.9293 59.3335 31.5093 58.7602L44.1614 46.2402L56.827 58.7602C57.407 59.3335 58.3377 59.3335 58.9042 58.7602C59.4842 58.1868 59.4842 57.2668 58.9042 56.7068L58.8907 56.7202Z" fill="#D7DDE2"/>
<path d="M41.5578 38.9204C41.5578 38.9204 39.4131 24.1337 29.2429 34.907C29.2429 34.907 23.6857 40.4137 18.9782 58.9604C18.9782 58.9604 17.8722 64.6004 22.5661 64.467C22.5661 64.467 35.3126 64.8404 37.9564 62.9604C37.9564 62.9604 41.7196 61.2004 42.0568 55.4404L41.5443 38.907L41.5578 38.9204Z" fill="#B5BEC7"/>
<path d="M69.3299 58.9599C64.6224 40.4132 59.0652 34.8932 59.0652 34.8932C48.8815 24.1066 46.7504 38.9066 46.7504 38.9066L46.2378 55.4532C46.575 61.2132 50.3383 62.9732 50.3383 62.9732C52.9955 64.8532 65.7285 64.4799 65.7285 64.4799C70.4359 64.5999 69.3164 58.9599 69.3164 58.9599H69.3299Z" fill="#B5BEC7"/>
<path d="M68.6786 43.1017L66.8248 42.1348C66.7979 41.0604 66.5292 40.0667 66.0724 39.1803L67.8995 36.7361C67.9532 36.3333 67.6577 35.9841 67.2815 35.9572L64.5141 37.1927C63.6812 36.4676 62.6333 35.9304 61.5049 35.6886L60.7794 32.8684C60.5107 32.5998 60.054 32.5998 59.7584 32.8684L59.033 35.6081C57.8508 35.7961 56.8029 36.2795 55.8894 36.9779L54.0087 35.8498C53.6056 35.8498 53.2832 36.1452 53.2832 36.5481L54.4117 38.5626C54.0087 39.1535 53.7131 39.8249 53.525 40.5233L50.1396 41.2485C49.8441 41.517 49.7904 41.9737 50.0322 42.2422L53.3101 43.236C53.4444 44.2298 53.7937 45.1699 54.3311 45.9757L52.8802 47.8289C52.8265 48.2318 53.0951 48.581 53.4982 48.6347L55.8626 47.6409C56.5611 48.205 57.394 48.6078 58.2807 48.8496L58.7912 51.0789C59.0599 51.3743 59.5166 51.428 59.7853 51.1595L60.3764 49.0913C61.5317 49.0376 62.6333 48.6884 63.5468 48.0975L66.2874 49.6553C66.6904 49.6553 66.986 49.333 66.986 48.9301L65.4545 46.3517C65.9381 45.6802 66.3143 44.955 66.5561 44.1224L68.4368 44.0687C68.7593 43.8538 68.8667 43.424 68.6518 43.0749L68.6786 43.1017Z" fill="#426984"/>
<path d="M50.5545 34C51.6719 34 52.5778 33.1046 52.5778 32C52.5778 30.8954 51.6719 30 50.5545 30C49.4371 30 48.5312 30.8954 48.5312 32C48.5312 33.1046 49.4371 34 50.5545 34Z" fill="#426984"/>
<path d="M56.6242 27.3337C57.3692 27.3337 57.9731 26.7367 57.9731 26.0003C57.9731 25.2639 57.3692 24.667 56.6242 24.667C55.8793 24.667 55.2754 25.2639 55.2754 26.0003C55.2754 26.7367 55.8793 27.3337 56.6242 27.3337Z" fill="#426984"/>
<path d="M63.3684 31.3337C64.1133 31.3337 64.7172 30.7367 64.7172 30.0003C64.7172 29.2639 64.1133 28.667 63.3684 28.667C62.6234 28.667 62.0195 29.2639 62.0195 30.0003C62.0195 30.7367 62.6234 31.3337 63.3684 31.3337Z" fill="#426984"/>
<path d="M37.7404 28.6667C38.4854 28.6667 39.0893 28.0697 39.0893 27.3333C39.0893 26.597 38.4854 26 37.7404 26C36.9955 26 36.3916 26.597 36.3916 27.3333C36.3916 28.0697 36.9955 28.6667 37.7404 28.6667Z" fill="#426984"/>
</svg>
