<svg width="89" height="88" viewBox="0 0 89 88" fill="none" xmlns="http://www.w3.org/2000/svg">
<g clip-path="url(#clip0_155_3264)">
<path d="M48.461 23.4404L52.5223 12.8074L48.7435 13.0557L48.2138 7L45 15.7643L48.4727 15.7879L48.461 23.4404Z" fill="#426984"/>
<path d="M50 26.2675L54.2509 20L57.0762 21.7505L50 26.2675Z" fill="#426984"/>
<path d="M32.5093 26.6577C32.5093 26.6577 31.956 27.9114 30.7553 31.4124C29.5899 34.7833 28.9542 37.3499 29.3427 38.9348C30.5199 43.6895 32.6035 48.5388 34.487 46.9302C36.3705 45.3217 36.4412 43.0981 36.606 42.3529C36.7708 41.6078 38.0539 37.6456 36.7002 34.2865C35.3464 30.9275 32.5093 26.6695 32.5093 26.6695V26.6577Z" fill="#B5BEC7"/>
<path d="M28.7773 39.0055C28.7773 38.8636 30.3901 36.1787 32.6503 36.1432C34.9106 36.1077 36.229 36.912 36.229 36.912L37.3827 42.6484C37.3827 42.6484 35.6286 45.9956 33.7216 47.0838C31.8145 48.1719 30.5902 48.9052 30.5902 48.9052C30.5902 48.9052 28.7891 42.9441 28.7773 38.9937V39.0055Z" fill="#426984"/>
<path d="M54.3935 43.6773C58.5137 45.3449 57.5249 47.2728 57.6897 50.0878C57.8192 52.4297 55.8533 66.9185 55.8533 66.9185C55.8533 66.9185 57.7015 65.0734 59.1612 64.6594C60.0441 64.4111 61.1507 65.3691 61.5862 66.4809C62.2926 68.2669 60.9035 69.7217 58.6432 70.9162C56.383 72.1108 54.6054 73.2226 52.9338 72.4657C51.5447 71.8388 52.2393 67.1196 52.0391 66.0551C51.839 64.9788 50.7207 54.8425 50.7207 54.8425C50.7207 54.8425 46.2356 54.9371 46.5652 52.2286C46.9419 49.1653 51.945 42.6956 54.3818 43.6891L54.3935 43.6773Z" fill="#B5BEC7"/>
<path d="M51.627 57.3737L54.1462 59.7511C54.1462 59.7511 56.3593 53.8373 56.8066 50.3481C55.2292 53.9201 53.7695 55.8716 51.627 57.3737Z" fill="#9DA7B1"/>
<path d="M45.0228 28.1006C41.4205 22.589 35.1931 23.7126 33.8158 27.6867C33.0506 29.8866 35.0519 35.3746 35.6993 39.3132L35.358 44.4464L38.2068 45.2861C41.0556 46.1259 42.5977 44.0088 42.5977 44.0088L41.9856 39.1476C41.9856 39.1476 44.2458 38.4734 44.858 38.1304C45.9763 37.5154 47.4713 31.85 45.0228 28.1006Z" fill="#B5BEC7"/>
<path d="M29.6723 61.6789C28.707 67.2024 28.3656 66.4218 28.3421 70.6915C28.3185 74.7839 29.7076 77.0903 35.8173 79.2311C39.6079 80.5676 44.7052 80.2128 47.8483 77.8827C50.5912 75.8484 51.6742 73.27 53.0162 67.9594C54.2052 63.2283 55.2293 58.8403 55.2293 58.8403C55.2293 58.8403 53.9697 55.6587 52.7925 54.6533C48.5546 51.0341 45.8941 52.0867 45.8941 52.0867L42.5509 63.0509L29.6606 61.6907L29.6723 61.6789Z" fill="#D7DDE2"/>
<path d="M27 69.0124C28.3773 70.7156 33.1568 73.0693 38.619 73.9445C41.8445 74.4649 46.8711 72.7617 48.2838 69.0597C48.2838 59.5621 50.7794 51.4484 48.7076 47.0958C47.5421 44.6475 46.412 43.7959 45.2937 43.4056C44.4226 43.0981 43.5632 43.0626 42.7038 42.7551C40.6084 42.01 33.1803 42.1992 33.1803 42.1992C33.1803 42.1992 30.5198 43.2873 30.3079 49.9699C29.9077 62.1287 27.6475 63.1932 27.0118 69.0124H27Z" fill="#426984"/>
<path d="M43.5868 32.9144C43.5868 32.9144 44.4109 32.8197 44.7876 32.3939C44.9406 31.495 45.1878 30.2413 45.1054 28.6919C46.471 27.6274 47.7424 25.12 46.9654 23.2867C43.1748 23.3695 35.8056 20.59 34.0751 25.1081C31.8973 25.3447 29.4134 29.0586 31.7795 34.5229C33.9338 39.5142 35.4759 38.1776 37.2535 41.5012C37.6773 41.2292 38.054 40.9453 38.4072 40.6496C41.1854 38.3314 41.6798 35.753 41.6798 35.753C41.6798 35.753 39.9964 33.1391 40.9617 32.0391C41.9388 30.9391 43.1748 32.2284 43.6104 32.9262L43.5868 32.9144Z" fill="#191F28"/>
<path d="M46.8709 42.1869C44.9403 42.6837 43.928 43.5826 43.7043 45.4158C43.5395 46.776 44.0104 51.0103 46.8709 51.9447C50.897 53.2575 56.6653 49.7447 56.6653 49.7447C56.6653 49.7447 58.6547 46.6341 56.7359 43.5826C54.817 40.531 53.5928 40.2354 53.5928 40.2354C53.5928 40.2354 48.5426 41.7611 46.8709 42.1869Z" fill="#426984"/>
<path d="M33.0509 23.7717C33.0509 23.7717 34.593 22.861 35.5466 23.4997C36.4883 24.1383 36.5472 24.8835 35.2052 25.6405C33.8632 26.3974 32.427 25.9361 32.427 25.9361C32.427 25.9361 32.3799 25.2738 33.0509 23.7599V23.7717Z" fill="#B5BEC7"/>
<path d="M55.7943 48.0891C58.4547 46.4806 60.9269 44.6709 63.1282 42.6957C63.5167 41.2882 63.8345 39.8926 64.0464 38.4969C64.0935 38.1894 64.1406 37.8937 64.1759 37.6098C64.223 37.2905 64.2583 36.9712 64.2937 36.6636C64.3172 36.4153 64.3407 36.1669 64.3643 35.9303C64.3643 35.8948 64.3643 35.8475 64.3643 35.812C64.3878 35.5282 64.3996 35.2443 64.4232 34.9723C64.4232 34.6766 64.4467 34.3927 64.4467 34.1089C64.4467 33.8841 64.4467 33.6713 64.4585 33.4584C64.4585 33.3519 64.4585 33.2455 64.4585 33.139C64.4585 32.9261 64.4585 32.725 64.4467 32.524C64.4467 32.2283 64.4349 31.9326 64.4114 31.6487C64.4114 31.424 64.3878 31.1756 64.3643 30.9391C64.3643 30.8563 64.3643 30.7735 64.3407 30.6789C64.329 30.4423 64.3054 30.2058 64.2701 29.9574C64.2466 29.6735 64.223 29.4015 64.1642 29.1176C64.1406 28.9402 64.1171 28.7628 64.0935 28.5736C64.0935 28.5381 64.0818 28.5144 64.07 28.4789C64.07 28.3607 64.0464 28.2306 64.0111 28.1004C63.9758 27.8876 63.9405 27.6628 63.8816 27.4499C63.8346 27.1897 63.7875 26.9177 63.7168 26.6457C63.6462 26.2908 63.552 25.936 63.4578 25.5693C63.3754 25.2263 63.2813 24.8833 63.1635 24.5285C63.1635 24.493 63.1635 24.4694 63.14 24.4457C62.1865 24.15 61.28 23.8662 60.4207 23.606L60.1617 25.1909L59.9145 26.6575L59.8674 26.9768L59.7614 27.5919L59.6202 28.4671L59.526 29.1176L59.4789 29.3897L59.3612 30.0875L59.2199 30.9391L59.1022 31.6606L59.0669 31.8971L58.9727 32.5121L58.8079 33.4938L58.7137 34.1444L58.6902 34.3099L58.5489 35.1497L58.4194 35.9658L58.3017 36.6991L58.2546 36.9357L57.9956 38.5206L57.8661 39.3367L52.6982 41.714L55.1468 46.7644L55.7943 48.0891Z" fill="#B5BEC7"/>
<path d="M59.8911 26.9887L63.9054 27.45C63.8583 27.1898 63.8112 26.9177 63.7406 26.6457C63.6699 26.2909 63.5757 25.9361 63.4816 25.5694L62.0336 25.4038H62.0218L61.0565 25.2974L60.1854 25.1909L59.9382 26.6575L59.8911 26.9769V26.9887Z" fill="white"/>
<path d="M59.6436 28.4789H64.0934C64.0934 28.337 64.0698 28.2187 64.0345 28.0886C63.9992 27.8757 63.9639 27.651 63.905 27.4381C63.8579 27.1779 63.8108 26.9058 63.7402 26.6338L59.9379 26.6574L59.8908 26.9768L59.7848 27.5918L59.6436 28.4671V28.4789Z" fill="#D7DDE2"/>
<path d="M59.4907 29.4017L63.8581 29.9103L64.2937 29.9576C64.2702 29.6737 64.2466 29.4017 64.1877 29.1178C64.1642 28.9404 64.1407 28.763 64.1171 28.5738C64.1171 28.5383 64.1053 28.5146 64.0936 28.4791C64.0936 28.3609 64.07 28.2308 64.0347 28.1007L59.785 27.6157L59.6438 28.491L59.5496 29.1415L59.5025 29.4135L59.4907 29.4017Z" fill="white"/>
<path d="M59.2433 30.9511L63.6578 30.9274H64.3759C64.3759 30.8328 64.3759 30.7618 64.3523 30.6672C64.3405 30.4306 64.317 30.1941 64.2817 29.9457C64.2581 29.6619 64.2346 29.3898 64.1757 29.106H63.9874L59.5258 29.1296L59.4787 29.4016L59.361 30.0995L59.2197 30.9511H59.2433Z" fill="#D7DDE2"/>
<path d="M59.0787 31.8973L63.3754 32.3941L64.4467 32.5123C64.4467 32.2166 64.4349 31.921 64.4114 31.6371C64.4114 31.4124 64.3878 31.164 64.3643 30.9274C64.3643 30.8446 64.3643 30.7618 64.3407 30.6672L63.7051 30.5963L59.3612 30.1113L59.2199 30.9629L59.1022 31.6844L59.0669 31.921L59.0787 31.8973Z" fill="white"/>
<path d="M58.8198 33.494L63.1755 33.4704H64.4704C64.4704 33.3521 64.4704 33.2457 64.4704 33.1392C64.4704 32.9263 64.4704 32.7252 64.4586 32.5242C64.4586 32.2285 64.4468 31.9328 64.4233 31.6489H63.5286L59.1259 31.6844L59.0906 31.921L58.9964 32.536L58.8316 33.5177L58.8198 33.494Z" fill="#D7DDE2"/>
<path d="M58.6904 34.2982L62.9283 34.7831L64.4352 34.9605C64.4352 34.6648 64.4587 34.381 64.4587 34.0971C64.4587 33.8724 64.4587 33.6595 64.4705 33.4466C64.4705 33.3401 64.4705 33.2337 64.4705 33.1272L63.2697 32.9971L58.9847 32.5122L58.8199 33.4939L58.7257 34.1444L58.7022 34.31L58.6904 34.2982Z" fill="white"/>
<path d="M58.4194 35.9541L62.7162 35.9304H64.3643C64.3643 35.9304 64.3643 35.8477 64.3643 35.8003C64.3878 35.5165 64.3996 35.2326 64.4232 34.9606C64.4232 34.6649 64.4467 34.381 64.4467 34.0972H63.0458L58.7137 34.1327L58.6902 34.2982L58.5489 35.138L58.4194 35.9541Z" fill="#D7DDE2"/>
<path d="M58.2549 36.9355L62.4339 37.4086L64.1762 37.6097C64.2233 37.2903 64.2586 36.971 64.2939 36.6635C64.3175 36.4151 64.341 36.1667 64.3645 35.9301C64.3645 35.8947 64.3645 35.8474 64.3645 35.8119L62.7753 35.6226L58.5492 35.1377L58.4197 35.9538L58.302 36.6871L58.2549 36.9237V36.9355Z" fill="white"/>
<path d="M63.752 26.3735C63.8462 25.9123 65.0822 23.7242 64.9998 21.7016C64.941 20.1759 63.6578 19.4071 62.7043 19.277C60.5029 18.9695 59.5141 18.7447 59.5965 21.1103C58.3251 23.05 59.5141 23.5349 60.1851 25.2854" fill="#B5BEC7"/>
</g>
<defs>
<clipPath id="clip0_155_3264">
<rect width="38" height="73" fill="white" transform="translate(27 7)"/>
</clipPath>
</defs>
</svg>
