<svg width="89" height="88" viewBox="0 0 89 88" fill="none" xmlns="http://www.w3.org/2000/svg">
<g clip-path="url(#clip0_155_3249)">
<g clip-path="url(#clip1_155_3249)">
<path d="M48.9413 43.3095C48.8731 43.2032 48.7367 43.1548 48.6101 43.1065C47.4996 42.7199 46.5059 42.0821 45.5318 41.4442C45.0447 41.1253 43.6127 40.2748 43.4471 40.1395C43.0867 39.8496 42.9698 39.3856 42.7263 39.0087C42.5509 38.7381 41.2066 36.5733 40.7098 35.7614C39.8233 34.3021 38.9466 32.8234 38.0504 31.364C37.8263 30.9968 37.4951 30.5715 37.6802 30.1173C37.8653 29.6534 38.2355 29.2668 38.4205 28.7933C38.5959 28.3584 38.6349 27.8848 38.6738 27.4209C38.703 27.0247 38.742 26.6284 38.703 26.2322C38.6738 25.8746 38.5569 25.4783 38.2355 25.314C37.953 25.1691 37.6023 25.2367 37.3198 25.3817C37.0373 25.5266 36.7937 25.7393 36.5112 25.8746C36.0339 26.1065 35.4884 26.1162 34.9916 26.2998C34.4558 26.4931 33.9979 26.899 33.7447 27.4016C33.5401 27.7882 33.4524 28.2327 33.2381 28.6193C33.1115 28.8319 32.9556 29.0252 32.7705 29.1992C32.6439 29.3248 32.3516 29.4795 32.3322 29.6727C32.3127 29.8274 32.4783 30.0883 32.5367 30.2333C32.6244 30.4459 32.751 30.6489 32.9166 30.8132C33.3355 31.2287 33.9882 31.2771 34.3584 31.7506C34.5337 31.9729 34.5922 32.3015 34.6604 32.5721C34.8454 33.268 36.0826 37.3947 36.5502 38.7381C36.8814 39.6949 37.1639 40.729 37.6315 41.6278C38.0601 42.4493 38.6836 43.1742 39.2973 43.8604C40.6318 45.3294 42.1613 46.6921 43.7978 47.8422C44.4115 48.2674 45.0934 48.683 45.8338 48.654C46.8956 48.6057 47.6944 47.6779 48.162 46.7404C48.6393 45.7836 48.9218 44.7205 48.99 43.6574C48.99 43.5414 48.99 43.4254 48.9413 43.3191V43.3095Z" fill="#B5BEC7"/>
<path d="M50.8313 42.7003C50.2274 42.4877 48.2109 41.9755 47.8212 41.9272C47.529 41.8885 47.3439 41.8595 47.0517 41.9465C46.7399 42.0431 46.4379 42.1784 46.1554 42.3331C45.0157 42.942 44.0903 43.9471 43.5545 45.1165C43.233 45.8123 43.0479 46.5952 43.1161 47.3683C43.1453 47.7259 43.2233 48.1222 43.3986 48.4411C43.574 48.7504 43.9052 48.9243 44.1779 49.1369C45.8145 50.432 47.4608 51.7271 49.2143 52.8481C49.5844 53.0801 50.0033 53.3217 50.4319 53.2251C50.6852 53.1671 50.8898 53.0028 51.0846 52.8385C51.5425 52.4616 52.0198 52.0073 52.0685 51.4178C52.1172 50.8089 51.8347 50.287 52.0685 49.6782C52.4289 48.731 52.4776 47.9675 52.4582 47.0011C52.4582 46.4599 52.5556 45.9283 52.6238 45.3968C52.6919 44.8749 52.6919 44.3626 52.7894 43.8408C52.7991 43.7828 52.8088 43.7248 52.7894 43.6668C52.7699 43.6088 52.7212 43.5605 52.6822 43.5218C52.4582 43.3382 52.1951 43.2126 51.9224 43.0966C51.5619 42.9419 51.2015 42.8066 50.8313 42.681V42.7003Z" fill="#EDF0F3"/>
<path d="M50.8311 79.1649C50.7532 78.701 50.4902 78.2854 50.198 77.9085C49.2725 76.7294 47.9964 75.821 46.5839 75.3087C46.1845 75.1638 45.7753 75.0478 45.3565 74.9705C43.8855 74.6902 29.7702 64.5907 28.4746 64.5811C27.6465 64.5811 26.8283 64.8807 26.0587 65.1513C18.7039 67.6931 11.6414 71.0177 4.6665 74.4486C4.51064 74.5259 4.35478 74.6032 4.26711 74.7482C4.20866 74.8545 4.18917 74.9801 4.17943 75.1058C4.00409 77.3286 4.73469 79.6095 6.18617 81.3201C11.8849 78.614 18.3922 77.8795 23.9935 74.9705C24.6949 74.6032 25.3865 74.207 26.0684 73.8011C26.312 73.6561 26.6237 73.6464 26.8575 73.8011C27.744 74.4196 32.2542 79.8801 33.8908 81.6874C35.1961 83.1274 36.0144 84.5481 37.8166 85.3889C39.8331 86.336 42.1808 86.7419 44.3239 85.9978C46.4865 85.2439 48.0938 83.4753 49.6135 81.7743C50.2759 81.0302 50.987 80.141 50.8311 79.1552V79.1649Z" fill="#B5BEC7"/>
<path d="M52.3217 78.3242C51.3183 78.1599 50.2955 78.1019 49.2921 77.9763C48.5225 77.8796 47.5971 77.783 47.2562 76.9615C47.1587 76.7296 46.7496 75.3958 46.9736 75.2412C46.282 75.7148 45.8144 76.4493 45.454 77.2031C45.1715 77.812 45.0254 78.7398 44.6162 79.2713C44.4214 79.513 44.1389 79.5806 43.8467 79.7063C40.4469 81.098 36.9497 82.2867 33.511 83.5914C32.1764 84.094 30.8126 84.6255 29.8093 85.6693C28.9228 86.5971 28.5039 87.8535 28.1045 89.0422L26.6628 93.2367C25.8153 95.7011 19.4541 109.734 16.9019 114.17C18.1585 116.49 20.9543 117.891 23.5845 117.514C24.8801 111.996 28.8351 107.55 32.0693 102.882C32.6343 102.06 33.1895 101.22 33.6084 100.321C34.1344 99.1901 34.4657 97.9723 34.68 96.7352C34.9235 95.3242 35.0307 93.8939 35.0112 92.4732C35.0696 92.4732 35.1183 92.4732 35.1768 92.4732C38.8493 92.4925 42.5218 92.0866 46.1749 91.671C47.8796 91.4777 49.5941 91.2844 51.2599 90.8785C53.8608 90.231 56.3449 89.0809 57.8353 86.8C58.79 85.3504 59.5596 83.7654 59.9882 82.0837C60.4168 80.4021 60.4753 78.6142 60.0272 76.9422C60.0369 76.9808 59.394 77.638 59.3258 77.7347C59.1504 77.9956 59.0043 78.2276 58.79 78.4595C58.2737 79.0104 57.7769 79.513 57.1047 79.8802C56.9197 79.9769 56.7248 80.0735 56.5203 80.0638C56.3839 80.0638 56.2085 79.9962 56.0332 79.9092C55.5656 79.6773 55.0103 79.2617 54.6596 79.0974C53.9095 78.7495 53.1302 78.4692 52.312 78.3242H52.3217Z" fill="#B5BEC7"/>
<path d="M68.3851 54.5398C68.2488 55.052 68.0832 55.5739 67.9273 56.0765C67.5182 57.4295 67.109 58.7826 66.6901 60.1453C65.9595 62.5421 65.2192 64.9486 64.4691 67.3454C63.6605 69.9451 62.8228 72.5449 61.9948 75.1544C61.5467 76.5267 61.118 77.9088 60.6504 79.2715C60.4264 79.9093 60.3192 80.7018 59.988 81.2914C59.686 81.8229 59.0723 81.9679 58.5073 82.0452C55.9648 82.4125 53.3346 82.1129 50.9382 81.1947C48.5418 80.2862 46.3792 78.7592 44.7329 76.7973C44.2069 76.1595 43.7198 75.483 43.4373 74.7098C43.1353 73.898 43.4471 73.2601 43.6419 72.4483C43.8854 71.3948 44.0998 70.3511 44.3043 69.2976C44.4602 68.5438 44.5966 67.7899 44.7232 67.0264C44.7914 66.6495 44.8596 66.2629 44.918 65.886C45.6194 61.537 46.048 57.1396 46.1942 52.7325C46.2526 50.8286 46.2721 48.886 46.8858 47.0787C47.5093 45.2715 48.8536 43.5898 50.7142 43.1163C51.4838 42.9133 52.302 42.9423 53.1008 42.9616C54.036 42.9906 54.9712 43.01 55.9064 43.0389C56.4811 43.0583 57.0851 43.0969 57.6598 42.9616C58.0884 42.865 58.4684 42.4881 58.897 42.4301C58.936 42.4301 58.9847 42.4204 59.0334 42.4204C59.2672 42.4204 59.501 42.4977 59.725 42.575C60.6212 42.8746 61.5174 43.1839 62.3649 43.6092C63.3586 44.1214 64.2548 44.7979 65.1023 45.5131C66.7194 46.8758 68.2975 48.1418 68.882 50.2681C69.2814 51.7177 68.8138 53.1191 68.4144 54.5301L68.3851 54.5398Z" fill="#EDF0F3"/>
<path d="M56.8901 74.149C56.3348 74.178 55.7796 74.1973 55.2535 74.1973C53.276 74.1973 51.5323 73.9364 49.9639 73.4145C48.6878 72.9892 47.4409 72.3127 46.155 71.3559C45.405 70.805 44.7912 70.0609 44.2944 69.2974C44.4503 68.5435 44.5867 67.7897 44.7133 67.0262L45.7459 66.4946C46.2038 67.3644 46.9051 68.6015 47.7526 69.2394C48.8145 70.0222 49.8178 70.5634 50.8212 70.9017C52.4772 71.4526 54.4158 71.6555 56.7342 71.5009L56.9096 74.1393L56.8901 74.149Z" fill="#191F28"/>
<path d="M55.5948 42.8648C55.3512 42.8648 54.9323 43.1644 54.7765 43.29C54.494 43.4833 54.2602 43.7249 54.0459 43.9955C53.6075 44.5561 53.1009 45.0683 52.7113 45.6772C52.0294 46.7499 51.4741 47.9 51.0065 49.0791C50.4805 50.4225 50.0616 51.7948 49.672 53.1865C48.5809 57.091 47.7042 61.0632 46.9054 65.0353C46.73 65.9148 46.5547 66.8039 46.3891 67.6834C46.3891 67.7317 46.3696 67.7801 46.3599 67.8187C46.1358 69.0171 45.8923 70.2349 45.4539 71.3656C45.2688 71.8585 45.0448 72.3224 44.772 72.7767C44.5772 73.0956 44.3434 73.4048 44.0609 73.6658C43.6615 74.0427 43.1744 74.3037 42.6289 74.3133C42.7848 73.8011 42.9309 73.2889 43.0575 72.7767C43.3108 71.7619 43.5251 70.7374 43.7005 69.7033C43.8076 69.0944 43.905 68.4856 43.983 67.8767C44.0609 67.3548 44.1193 66.8426 44.1778 66.3207C44.2557 65.7408 44.3142 65.1706 44.3726 64.6004C44.4213 64.0689 44.4993 63.547 44.5772 63.0251C44.6454 62.4935 44.7136 61.9716 44.7818 61.4304C44.8792 60.551 44.9376 59.6618 44.9961 58.7823C45.113 56.8494 45.2396 54.9068 45.3662 52.9739C45.4831 51.0603 45.6098 49.1371 46.243 47.3298C46.8762 45.5225 48.0938 43.8312 49.857 43.0581C51.6397 42.2752 53.6952 42.5168 55.6142 42.8938L55.5948 42.8648Z" fill="#426984"/>
<path d="M46.9053 65.0354C46.73 65.9149 46.5546 66.804 46.389 67.6835C46.389 67.7318 46.3696 67.7802 46.3598 67.8188C45.5708 67.3549 44.8402 66.8524 44.1777 66.3015C44.2557 65.7216 44.3141 65.1514 44.3726 64.5812C44.4213 64.0496 44.4992 63.5277 44.5771 63.0059C44.9765 63.4601 45.4149 63.8853 45.8922 64.2719C46.2137 64.5425 46.5546 64.7938 46.9151 65.0354H46.9053Z" fill="#B5BEC7"/>
<path d="M45.454 71.3654C45.2689 71.8583 45.0449 72.3222 44.7721 72.7765C44.5773 73.0954 44.3435 73.4047 44.061 73.6656C43.7298 73.3853 43.3888 73.0857 43.0576 72.7765C43.3109 71.7617 43.5252 70.7372 43.7006 69.7031C43.7006 69.7031 43.7103 69.7128 43.72 69.7225C44.2948 70.3217 44.8793 70.8725 45.4638 71.3751L45.454 71.3654Z" fill="#B5BEC7"/>
<path d="M55.4971 47.32C55.6822 47.581 56.0037 47.6583 56.3251 47.7066C57.3675 47.8323 58.4293 47.668 59.4132 47.3104C60.2412 47.0108 61.0692 46.6822 61.7901 46.1796C62.3453 45.793 63.3585 44.9619 63.1831 44.1887C63.0857 43.7538 62.472 41.0381 62.1505 40.1489C62.0239 40.4195 62.0823 40.6805 61.8875 40.9124C61.6927 41.1444 61.4784 41.3473 61.2446 41.531C60.7965 41.8982 60.2996 42.1978 59.7931 42.4878C59.0235 42.9323 58.2345 43.3576 57.3577 43.5025C56.9096 43.5702 56.4225 43.5799 56.0524 43.8311C55.8868 43.9374 55.7601 44.0921 55.6432 44.2467C55.5361 44.411 55.5458 44.5753 55.351 44.614C55.2633 44.6333 55.2146 44.7299 55.1854 44.8169C55.0393 45.2325 55.0782 45.6867 55.1756 46.112C55.2536 46.4792 55.2536 46.8755 55.4289 47.2234C55.4484 47.2621 55.4679 47.2911 55.4874 47.3297L55.4971 47.32Z" fill="#B5BEC7"/>
<path d="M64.6153 70.6987C64.3815 71.8777 64.2743 73.0955 64.3133 74.3036C64.3327 75.1154 64.4107 75.9272 64.5471 76.7294C64.5568 76.826 64.5763 76.9226 64.5958 77.0096C64.7516 77.6765 64.8376 78.3744 65.5 78.5C66 79 66.2226 79.5 67 80C68 81 69 82 69 82C68.1038 83.3917 67.3428 81.6083 66.4272 83C65.3459 84.6623 63.9041 85.1762 62.4332 86.5292C60.3777 88.4042 56.4227 86.3843 54.6887 84.7703C52.5748 82.8084 52.1949 80.4599 52.4677 78.0051C52.5651 77.1449 52.7307 76.2655 52.945 75.3956C53.3347 73.7623 53.851 72.129 54.1822 70.573C54.1822 70.5537 54.1822 70.5344 54.1919 70.515C54.377 69.6549 54.5621 68.7947 54.7472 67.9346C55.9064 62.4161 56.9975 56.8783 58.5756 51.4565C58.7704 50.7993 58.9457 50.1131 59.238 49.5042C59.7835 48.3831 60.6018 47.4167 61.3811 46.4502C61.7708 45.9573 62.1604 45.4741 62.5111 44.9619C62.6767 44.7203 62.9202 44.4303 63.0079 44.1404C63.0469 44.0244 63.0566 43.8988 63.0469 43.7828C63.0469 43.6765 63.0177 43.5702 63.0079 43.4639C63.0664 43.4639 63.4268 43.7441 63.5047 43.8118C63.6801 43.9278 63.8554 44.0534 64.021 44.179C64.362 44.4303 64.6932 44.6913 65.0244 44.9425C65.0731 44.9812 65.1218 45.0199 65.1705 45.0585C65.3946 45.2325 65.6089 45.4064 65.8329 45.5901C66.9045 46.4985 67.9273 47.523 68.5508 48.7891C69.2132 50.1131 69.3496 51.5821 69.184 53.0221C69.0379 54.2979 68.7554 55.5736 68.5021 56.8203C67.9176 59.6134 67.0214 62.3678 66.2226 65.1125C66.018 65.7987 65.8037 66.4656 65.5894 67.1324C65.2582 68.1472 64.9465 69.1523 64.7127 70.1961C64.6834 70.3507 64.6445 70.515 64.6153 70.6793V70.6987Z" fill="#426984"/>
<path d="M61.693 50.7125C61.2741 51.2441 60.9526 51.8433 60.6409 52.4425C59.9103 53.8438 59.7934 55.2645 59.9103 56.8302C60.0077 58.0286 60.222 59.2463 60.826 60.2804C61.2838 61.0536 61.8001 61.7108 62.7548 61.6818C63.4757 61.6625 64.1576 61.3725 64.7323 60.9473C65.8915 60.0775 66.6416 58.7341 67.1969 57.4294C68.0054 55.5351 68.5412 53.6505 68.4925 51.5823C68.4828 50.9831 68.4146 50.3646 68.1223 49.8524C67.9275 49.5044 67.6353 49.2242 67.2943 49.0115C67.041 48.8472 66.7293 48.7216 66.4565 48.8376C66.2812 48.9149 66.1838 49.1952 66.0279 49.2338C65.9305 49.2628 65.6675 49.1662 65.5408 49.1565C64.0894 49.0889 62.6476 49.5334 61.7222 50.6738C61.7125 50.6835 61.7027 50.7028 61.693 50.7125Z" fill="#EDF0F3"/>
<path d="M65.5992 67.1519C65.2679 68.1666 64.9562 69.1718 64.7224 70.2155C64.06 70.4185 63.3781 70.5924 62.6767 70.7181C61.6149 70.921 60.4849 71.0177 59.2867 71.0177C57.7183 71.0177 56.0428 70.8534 54.2114 70.5151C54.3965 69.655 54.5816 68.7948 54.7667 67.9347C57.6502 68.4566 60.0758 68.5242 62.1897 68.128C63.3391 67.9154 64.4789 67.5578 65.6089 67.1519H65.5992Z" fill="#B5BEC7"/>
<path d="M64.5959 77.0196C62.9204 77.5994 61.1864 78.015 59.4232 78.2663C58.6439 78.3726 57.8353 78.4209 56.9683 78.4209C55.7994 78.4209 54.533 78.3243 53.1594 78.1213C52.9354 78.0923 52.7016 78.044 52.4775 78.0053C52.575 77.1452 52.7406 76.2657 52.9549 75.3959C53.1497 75.4442 53.3445 75.4732 53.5394 75.5022C55.6727 75.8018 57.4749 75.8501 59.053 75.6375C60.8552 75.3959 62.6281 74.9417 64.3134 74.3135C64.3329 75.1253 64.4108 75.9371 64.5472 76.7393C64.5569 76.8359 64.5764 76.9326 64.5959 77.0196Z" fill="#B5BEC7"/>
<path d="M64.2841 39.2698C64.4594 38.7479 64.5861 38.2164 64.6738 37.6752C64.8881 36.3801 64.8491 35.0464 64.5666 33.7707C64.2938 32.5239 63.7191 31.7411 62.6378 31.0259C61.0012 29.9338 58.8289 29.6729 56.978 30.3687C55.6142 30.881 54.5232 31.8088 53.9192 33.1135C53.2471 34.5632 52.984 36.1192 52.8282 37.6945C52.6236 39.7627 52.6528 41.8503 52.9646 43.9088C53.0327 44.3534 53.1204 44.8269 53.4321 45.1555C53.6659 45.4068 53.9874 45.5421 54.3089 45.6388C55.7311 46.064 57.2898 45.7837 58.6828 45.3585C59.8323 45.0106 61.1474 44.3437 61.7026 43.2226C61.9656 42.7007 62.0436 42.1112 62.1215 41.5313C62.1118 41.6183 63.1444 41.3864 63.2515 41.309C63.5535 41.0868 63.7094 40.6325 63.8652 40.3039C64.0211 39.9657 64.1575 39.6274 64.2744 39.2698H64.2841Z" fill="#B5BEC7"/>
<path d="M60.1146 35.0074C60.0756 35.0848 60.0366 35.1621 60.0366 35.249C60.0366 35.394 60.1535 35.51 60.2509 35.6163C60.7088 36.0899 60.9328 36.6311 61.1959 37.211C61.4881 37.8585 61.6829 38.564 61.7609 39.2695C61.9167 38.9796 62.0921 38.6993 62.3453 38.4963C62.5986 38.2837 62.9298 38.1581 63.2513 38.2064C63.4072 38.2257 63.5435 38.2934 63.6702 38.3804C63.8358 38.4963 63.9819 38.6606 64.0501 38.8636C64.1572 39.1632 64.0891 39.4821 64.1085 39.8011C64.4105 38.8926 64.8586 38.0228 65.1314 37.1046C65.3749 36.2832 65.4529 35.4037 65.3457 34.5532C65.1898 33.2968 64.6346 32.0887 63.7871 31.1416C63.7286 31.5862 63.2903 31.9244 62.8324 31.9728C62.2772 32.0307 61.9849 31.6925 61.4978 31.5668C61.0887 31.4509 61.04 32.1081 60.9815 32.4367C60.8159 33.3451 60.5529 34.2053 60.1243 35.0268L60.1146 35.0074Z" fill="#191F28"/>
<path d="M56.4225 33.2487C56.8317 33.268 57.2506 33.2777 57.6695 33.2777C59.1696 33.2777 60.738 33.2197 62.0726 32.5238C62.2674 32.4175 62.4622 32.3015 62.6181 32.1469C62.959 32.3112 63.3195 32.4272 63.6897 32.4852C64.0014 32.5335 64.4203 32.4175 64.6638 32.6398C64.7515 32.7268 64.8294 32.8234 64.8976 32.9297C64.9073 32.7268 64.9171 32.5142 64.9268 32.3112C64.9268 32.1179 64.9463 31.915 64.9171 31.7217C64.8197 31.0741 64.2839 30.4943 63.5922 30.5039C63.4656 30.5039 63.3292 30.5233 63.2123 30.4846C63.0175 30.4266 62.9298 30.1367 62.8032 29.982C62.5207 29.6438 62.1213 29.4215 61.7024 29.2475C59.9392 28.5324 57.8935 28.7643 56.1595 29.5568C55.39 29.9047 54.5814 30.3493 54.0846 31.0451C53.7729 31.4897 53.6268 32.1759 54.0846 32.5915C54.4353 32.9007 54.9029 33.0457 55.3705 33.1327C55.7114 33.1907 56.0524 33.2293 56.4031 33.2487H56.4225Z" fill="#191F28"/>
<path d="M56.9002 52.2976C56.8807 52.5489 57.095 52.9838 57.1827 53.1771C57.3093 53.4767 57.4847 53.7666 57.6795 54.0275C58.0691 54.5591 58.5757 55.0133 59.1504 55.3612C60.2902 56.0571 61.6345 56.347 62.9691 56.4437C63.6023 56.492 64.2549 56.492 64.8784 56.376C65.1999 56.318 65.5506 56.2504 65.8136 56.0571C66.6903 55.4192 67.3819 54.3465 67.8301 53.38C68.0833 52.8195 68.2782 52.2396 68.4048 51.6404C68.6776 50.3163 68.2489 48.8473 67.2261 47.9485C66.5637 47.3783 65.5993 47.5039 64.8102 47.7262C64.1673 47.9099 63.5633 48.1998 62.9788 48.4897C61.1864 49.3885 56.9878 51.969 56.9294 52.2299C56.9294 52.2493 56.9294 52.2589 56.9294 52.2782L56.9002 52.2976Z" fill="#EDF0F3"/>
<path d="M39.0624 -3.05918C38.9649 -3.41677 39.1695 -3.78403 39.5202 -3.88067C39.5786 -3.9 39.6468 -3.90967 39.7053 -3.90967C39.9878 -3.90967 40.2605 -3.72604 40.3482 -3.42644C41.2931 -0.130816 42.2283 3.26145 42.4426 6.7697C42.5887 9.13752 42.3939 11.4763 42.0919 13.5639C42.0432 13.9215 41.7023 14.1728 41.3418 14.1148C40.9717 14.0665 40.7184 13.7282 40.7768 13.3706C41.0593 11.3604 41.2542 9.10853 41.1081 6.84701C40.9035 3.48374 39.9878 0.159121 39.0526 -3.05918H39.0624Z" fill="#426984"/>
<path d="M48.1134 72.023C48.0549 72.3999 48.0841 72.8058 48.1231 73.2214V73.434C48.1913 74.0526 48.2108 74.6808 48.1913 75.2993C48.1426 77.4448 47.8406 78.9912 47.2366 80.2669C46.6132 81.5813 45.6196 82.5961 44.4603 83.1373C43.8564 83.4079 43.2134 83.5432 42.5802 83.5432C41.7717 83.5432 40.9924 83.3209 40.3495 82.886C39.5604 82.3448 38.9564 81.4653 38.6642 80.4119C38.4401 79.6194 38.3719 78.7302 38.4596 77.6188C38.557 76.3721 38.8103 75.1447 39.2097 73.9559C39.3266 73.608 39.463 73.2601 39.5994 72.9025C39.8916 72.139 40.1741 71.4045 40.3007 70.6506C40.554 69.1816 40.1838 67.6256 39.2876 66.3789C39.0246 66.0116 38.6739 65.712 38.3135 65.3931C38.07 65.1805 37.8167 64.9679 37.5731 64.7166C36.9107 64.0401 36.2093 63.2959 35.5761 62.4647C30.8808 56.4244 31.0561 48.4124 32.04 42.7586C32.9849 37.2885 34.641 31.9536 36.2483 26.8024C37.0861 24.106 37.9433 21.3516 38.6934 18.5682C38.7811 18.2493 39.0928 18.0366 39.424 18.085C39.8234 18.143 40.0864 18.5295 39.9793 18.9161C39.2194 21.7188 38.3622 24.4829 37.5244 27.189C35.9366 32.3016 34.2903 37.5881 33.3648 42.9809C32.4297 48.3738 32.2446 55.9991 36.6477 61.6626C37.2517 62.4357 37.9141 63.1509 38.5473 63.8081C38.7616 64.0304 38.9759 64.214 39.2 64.4073C39.6091 64.7552 40.028 65.1225 40.3884 65.6154C41.4892 67.1521 41.9373 69.0656 41.6256 70.8729C41.4795 71.7621 41.1677 72.5739 40.856 73.376C40.7294 73.7143 40.6027 74.0429 40.4858 74.3812C40.1157 75.4636 39.8916 76.5847 39.8039 77.7154C39.726 78.6626 39.7844 79.4067 39.9598 80.0446C40.1741 80.7984 40.5832 81.417 41.119 81.7842C41.8789 82.2964 42.9796 82.3544 43.9148 81.9195C44.7915 81.5136 45.5514 80.7308 46.0384 79.6967C46.5158 78.7012 46.7691 77.5028 46.847 75.8598C46.8957 75.0383 46.8762 74.2072 46.808 73.3857V73.3277C46.7593 72.8348 46.7203 72.3419 46.808 71.8104C46.8665 71.4141 46.9931 71.0469 47.1782 70.7473C47.4315 70.3317 48.0354 70.3124 48.3082 70.7183C48.3861 70.8343 48.4251 70.9599 48.4251 71.0952C48.4251 71.2015 48.3959 71.2982 48.3472 71.3948C48.24 71.5591 48.1621 71.7717 48.1231 72.0133L48.1134 72.023Z" fill="#426984"/>
<path d="M35.1084 30.2237C35.2935 30.1464 35.4689 30.0497 35.6247 29.9144C35.7611 29.7888 35.8877 29.6148 35.8196 29.4409C35.8585 29.5568 36.3066 29.3829 36.3651 29.3539C36.5307 29.2476 36.6865 29.0833 36.7645 28.8997C36.8424 28.6967 36.7645 28.4358 36.6963 28.2425C36.9301 28.2908 37.1639 28.0975 37.2321 27.8752C37.2905 27.6433 37.2126 27.4016 37.0762 27.2084C37.2613 27.276 37.4853 27.1794 37.5925 27.0151C37.6997 26.8508 37.6997 26.6285 37.6412 26.4448C37.5828 26.2612 37.4659 26.0873 37.349 25.9326C37.1834 25.7103 37.008 25.5074 36.8132 25.3141C36.7255 25.2271 36.6378 25.1401 36.5307 25.0725C36.4235 25.0048 36.3066 24.9662 36.1897 24.9275C35.9267 24.8599 35.6637 24.8212 35.3909 24.8115C34.9721 24.7922 34.5532 24.8115 34.144 24.8985C34.0271 24.9178 33.9102 24.9468 33.8128 25.0145C33.618 25.1498 33.5693 25.4204 33.5693 25.6524C33.5693 25.836 33.5888 26.0293 33.6277 26.2129C33.5985 26.0486 33.1407 26.1839 33.0627 26.2129C32.8679 26.2999 32.7023 26.4642 32.6146 26.6671C32.4783 26.9861 32.527 27.363 32.6731 27.6819C32.6731 27.6626 32.3614 28.0202 32.3321 28.0685C32.2347 28.2328 32.3321 28.4261 32.4588 28.5614C32.5757 28.6967 32.7218 28.8127 32.8679 28.9093C32.712 28.977 32.5659 29.0833 32.488 29.2379C32.3516 29.5085 32.488 29.8564 32.7218 30.0497C32.9653 30.243 33.277 30.3107 33.579 30.3493C33.9395 30.3977 34.2999 30.417 34.6603 30.359C34.8162 30.33 34.9721 30.2914 35.1182 30.2334L35.1084 30.2237Z" fill="#B5BEC7"/>
<path d="M36.9593 26.5221C36.9301 26.6284 36.9203 26.7444 36.9593 26.8507C36.9885 26.9377 37.0372 27.015 37.1054 27.073C37.2515 27.1986 37.4464 27.2373 37.6315 27.2276C37.8165 27.2276 38.0016 27.16 38.177 27.102C38.3328 27.044 38.4984 26.986 38.6153 26.8604C38.7322 26.7444 38.7907 26.5704 38.7907 26.4061C38.7907 26.2418 38.742 26.0775 38.664 25.9326C38.5569 25.7296 38.3815 25.5557 38.1672 25.4687C38.0308 25.4204 37.875 25.4107 37.7386 25.459C37.6022 25.5073 37.5535 25.5847 37.4658 25.691C37.2613 25.9519 37.047 26.1935 36.9593 26.5221Z" fill="#B5BEC7"/>
<path d="M63.1638 53.8339C62.9788 53.254 62.6086 52.7418 62.0923 52.3649C61.0597 51.611 59.7836 51.1568 58.5464 51.5724C57.5917 51.8913 54.796 53.0027 54.3771 53.2733C54.1043 53.1574 38.7129 50.5479 36.7548 50.3546C35.9755 49.8327 35.3034 49.1466 34.5922 48.528C34.0954 48.0931 33.5596 47.6872 33.0044 47.3296C32.3225 46.885 31.2801 46.4501 30.6372 47.204C30.4424 47.4263 30.345 47.7355 30.3839 48.0255C30.3839 48.1028 30.4132 48.1704 30.3937 48.2478C30.3742 48.3347 30.3255 48.4024 30.2768 48.47C29.965 48.9533 29.9456 49.6105 30.2378 50.1034C29.9261 50.4996 29.9845 51.1375 30.3742 51.4661C30.4229 51.5047 30.4716 51.5434 30.4813 51.611C30.4813 51.6497 30.4716 51.698 30.4521 51.7367C30.3352 52.0459 30.4521 52.3939 30.6372 52.6645C30.9879 53.167 31.5821 53.4473 32.1861 53.5633C32.7901 53.6792 33.4135 53.6599 34.0272 53.6599C34.524 53.6599 35.0403 53.7469 35.5371 53.8725C35.5469 53.8919 44.4506 57.1875 48.9316 58.2796C51.9125 59.0044 55.0979 59.275 58.0496 58.3376C59.1504 57.9897 60.2512 57.6031 61.2643 57.0522C62.1897 56.5593 63.31 55.9408 63.3002 54.752C63.3002 54.4331 63.2515 54.1238 63.1541 53.8339H63.1638Z" fill="#B5BEC7"/>
<path d="M7.10172 76.4299C6.73154 75.3572 6.16654 74.352 5.67947 73.2986C4.62739 70.9791 3.83834 68.5146 2.42583 66.3884C2.02643 65.7892 1.52962 65.0934 0.721079 65.1127C0.633406 65.1127 0.545733 65.1224 0.467802 65.161C0.243749 65.2673 0.0976273 65.5959 0.0391787 65.8182C-0.116684 66.4367 0.1853 67.0746 0.204783 67.6931C0.224266 68.331 0.0781447 68.9495 0.0781447 69.5874C0.0684032 70.6215 0.25349 71.6363 0.399612 72.6607C0.769786 75.1832 0.93539 77.8023 0.243749 80.2571C0.0684031 80.8853 -0.369961 81.7841 -0.106943 82.422C0.0586617 82.8375 0.419095 83.2531 0.876942 83.3304C1.11074 83.3691 1.35427 83.3304 1.58807 83.3014C3.32204 82.9922 4.9586 82.2577 6.37111 81.2042C7.29654 80.518 7.57905 79.339 7.50111 78.2372C7.45241 77.5993 7.30629 77.0098 7.11146 76.4299H7.10172Z" fill="#0069D1"/>
<path d="M-2.76621 69.7613C-2.91233 70.5345 -2.99026 71.327 -3 72.1195C-3 73.0473 -2.91233 73.9654 -2.73698 74.8739C-2.57138 75.7147 -2.18172 76.5169 -2.0356 77.348C-1.89922 78.1019 -1.9187 78.8847 -1.86999 79.6482C-1.79206 81.0109 -1.45111 82.8762 0.049068 83.3787C0.916055 83.6687 1.87072 83.2338 2.31882 82.4703C2.67925 81.8614 2.69874 81.0882 2.62081 80.402C2.54287 79.6869 2.16296 79.0393 2.16296 78.3241C2.16296 77.1644 2.46494 76.0433 2.67925 74.9125C3.09814 72.709 3.20529 70.5055 2.76693 68.2923C2.56236 67.2775 2.23115 66.1854 1.50054 65.4123C0.886831 64.7647 -0.476969 65.219 -1.04197 65.7602C-2.07456 66.746 -2.50319 68.4276 -2.75646 69.771L-2.76621 69.7613Z" fill="#0080FF"/>
</g>
<path d="M44.0378 16.4558L52.5131 11.6011L52.2515 14.6369L60.7825 12.4679L50.0483 18.0243L50.0849 15.2751L44.0378 16.4558Z" fill="#426984"/>
<path d="M46.6241 19.6087L53.5664 21.9795L53.0297 24.2751L46.6241 19.6087Z" fill="#426984"/>
</g>
<defs>
<clipPath id="clip0_155_3249">
<rect x="0.363281" width="88" height="88" rx="44" fill="white"/>
</clipPath>
<clipPath id="clip1_155_3249">
<rect width="81" height="136" fill="white" transform="translate(-3 -8)"/>
</clipPath>
</defs>
</svg>
