<svg width="89" height="88" viewBox="0 0 89 88" fill="none" xmlns="http://www.w3.org/2000/svg">
<path d="M27.9099 49.1903C25.3935 44.8586 24.6672 39.5631 25.9184 34.6627C28.0009 26.5126 35.078 20.8203 43.1311 20.8203H44.2788C53.9431 20.8203 61.8057 29.0577 61.8057 39.1827V41.6186L65.0647 46.866C65.445 47.4778 65.5531 48.2323 65.361 48.9345C65.1689 49.6368 64.6961 50.216 64.0639 50.524L61.7233 51.6637L60.7971 57.1939C60.3259 60.0046 58.007 62.0445 55.283 62.0445H50.9921C50.4298 62.0445 49.9392 62.4633 49.8256 63.0393L49.1328 66.531C49.0573 66.9091 48.7393 67.1795 48.3715 67.1795H31.8462C31.6121 67.1795 31.3905 67.0687 31.2435 66.8789C31.0958 66.6891 31.0375 66.439 31.0849 66.1995L32.1425 60.8665C32.5608 58.7581 32.2031 56.582 31.1339 54.7408L27.9099 49.1903Z" fill="#B5BEC7"/>
<g clip-path="url(#clip0_155_3254)">
<path d="M42.0715 29.5704C41.4771 28.3373 40.3598 27.4053 38.9692 27.4053C37.103 27.4053 35.5935 29.0031 35.5935 30.9656C35.5935 31.0814 35.5935 31.1971 35.6113 31.3129C35.6113 31.3129 35.5994 31.3129 35.5935 31.3129C33.7273 31.3129 32.2178 32.9107 32.2178 34.8732C32.2178 36.1179 32.818 37.2062 33.7333 37.843C33.3351 38.3467 33.0914 38.9893 33.0914 39.6956C33.0914 41.1023 34.0483 42.2717 35.3141 42.5207C35.5459 43.8579 36.6573 44.871 37.9885 44.871C38.0717 44.871 38.1549 44.871 38.2322 44.8595C38.5353 45.7394 39.3376 46.3646 40.2707 46.3646C41.4712 46.3646 42.3389 45.3342 42.3389 44.0663V30.5661C42.3389 30.2014 42.2081 29.8656 42.0655 29.5704H42.0715Z" fill="#426984"/>
<path d="M53.5592 34.8732C53.5592 32.9049 52.0496 31.3129 50.1835 31.3129C50.1835 31.3129 50.1716 31.3129 50.1657 31.3129C50.1776 31.1971 50.1835 31.0872 50.1835 30.9656C50.1835 28.9973 48.674 27.4053 46.8078 27.4053C45.4171 27.4053 44.282 28.3257 43.7055 29.5704C43.545 29.912 43.4321 30.2014 43.4321 30.5661V44.0721C43.4321 45.34 44.2998 46.3704 45.5003 46.3704C46.4393 46.3704 47.2357 45.7452 47.5388 44.8652C47.622 44.871 47.6993 44.8768 47.7825 44.8768C49.1137 44.8768 50.2251 43.8637 50.4569 42.5264C51.7228 42.2775 52.6796 41.1081 52.6796 39.7014C52.6796 38.9951 52.4359 38.3467 52.0378 37.8488C52.9471 37.212 53.5533 36.1179 53.5533 34.879L53.5592 34.8732Z" fill="#426984"/>
</g>
<defs>
<clipPath id="clip0_155_3254">
<rect width="21.3358" height="18.9651" fill="white" transform="translate(32.2236 27.4053)"/>
</clipPath>
</defs>
</svg>
