<svg width="89" height="88" viewBox="0 0 89 88" fill="none" xmlns="http://www.w3.org/2000/svg">
<g clip-path="url(#clip0_155_3234)">
<path d="M0 46.3388V1C0 1 50.4364 22.35 52.4755 23.4295C54.5145 24.509 65.5493 29.6666 66.7488 35.7837C67.9482 41.9009 64.4698 54.7349 64.3499 55.9343C64.2299 57.1337 60.3917 89.2787 60.3917 89.2787H31.8958C31.8958 89.2787 30.6575 75.2537 31.0528 70.6874C31.7083 63.1225 33.2794 54.1351 33.2794 54.1351L0 46.3388Z" fill="#D7DDE2"/>
<path d="M-2 16C-2 16 33.0836 28.6118 36.6819 29.8113C40.2802 31.0107 46.6769 30.2733 48.0369 31.1417C49.396 32.01 51.1951 35.3684 51.2754 36.328C51.3556 37.2875 51.5549 39.6467 50.5954 40.1662C49.6358 40.6856 47.237 40.2861 45.9978 41.8454C44.7587 43.4046 44.9183 46.2436 42.8396 47.2032C40.7608 48.1627 36.7225 47.003 35.6033 45.5239C34.4841 44.0449 35.8431 41.6857 32.9248 39.4068C30.0064 37.1279 -1.99831 27.3947 -1.99831 27.3947V16H-2Z" fill="#EDF0F3"/>
<path d="M40.3403 88.7829C40.3403 88.7829 41.6952 62.7947 41.7509 59.8806C41.8075 56.9665 40.1706 52.5657 41.0456 51.3165C41.9207 50.068 45.476 47.8077 46.3789 48.997C47.2819 50.1863 46.3223 55.0634 46.0402 56.9656C45.7581 58.8687 44.1777 88.782 44.1777 88.782H40.3403V88.7829Z" fill="#EDF0F3"/>
<path d="M44.958 88.7831C44.958 88.7831 49.216 60.2365 49.5759 52.9799C49.6975 50.521 46.4218 47.7623 46.4995 45.9032C46.5773 44.0441 50.2355 41.0455 52.1546 42.065C54.0737 43.0845 56.2927 46.8028 56.5326 50.641C56.7725 54.4792 53.534 67.9129 52.9343 72.051C52.3346 76.189 51.0751 88.7831 51.0751 88.7831H44.958Z" fill="#EDF0F3"/>
<path d="M53.5927 38.8498C53.9362 40.1205 55.8301 41.8644 56.6218 43.1417C57.4136 44.419 57.7824 45.1512 58.6469 45.0038C59.5104 44.8574 60.1664 40.7984 59.9188 38.5494C59.6712 36.3004 55.7075 32.675 54.6045 33.0959C53.5015 33.5157 53.1368 37.1612 53.5927 38.8498Z" fill="#426984"/>
</g>
<defs>
<clipPath id="clip0_155_3234">
<rect x="0.272461" width="88" height="88" rx="44" fill="white"/>
</clipPath>
</defs>
</svg>
