<svg width="55" height="58" viewBox="0 0 55 58" fill="none" xmlns="http://www.w3.org/2000/svg">
<path d="M7.09476 3.2604C7.09476 1.51297 5.67978 0.097168 3.93336 0.097168C2.18695 0.097168 0.771973 1.51297 0.771973 3.2604C0.771973 5.00784 2.18695 6.42364 3.93336 6.42364C5.67978 6.42364 7.09476 5.00784 7.09476 3.2604Z" fill="white"/>
<path d="M55 3.2604C55 1.51297 53.5851 0.097168 51.8386 0.097168C50.0922 0.097168 48.6772 1.51297 48.6772 3.2604C48.6772 5.00784 50.0922 6.42364 51.8386 6.42364C53.5851 6.42364 55 5.00784 55 3.2604Z" fill="white"/>
<path d="M48.6392 24.3828L37.1664 19.9313L38.951 26.7297L48.6392 30.4797V49.102L34.0432 43.4387V8.83448L28.1539 6.53858L20.9897 3.77075L1.68994 11.2452V12.5972V52.9922V53.1325V57.9029L28.1539 47.6606L19.8042 44.3954L7.74503 49.0637V14.6508L28.1539 6.74266V47.6606L54.3501 57.9029V12.0487L48.6392 9.81661V24.3828Z" fill="white"/>
</svg>
