<svg width="55" height="58" viewBox="0 0 55 58" fill="none" xmlns="http://www.w3.org/2000/svg">
<path d="M7.09427 3.2604C7.09427 1.51297 5.67929 0.097168 3.93288 0.097168C2.18646 0.097168 0.771484 1.51297 0.771484 3.2604C0.771484 5.00784 2.18646 6.42364 3.93288 6.42364C5.67929 6.42364 7.09427 5.00784 7.09427 3.2604Z" fill="#183F58"/>
<path d="M54.9995 3.2604C54.9995 1.51297 53.5846 0.097168 51.8381 0.097168C50.0917 0.097168 48.6768 1.51297 48.6768 3.2604C48.6768 5.00784 50.0917 6.42364 51.8381 6.42364C53.5846 6.42364 54.9995 5.00784 54.9995 3.2604Z" fill="#183F58"/>
<path d="M48.6387 24.3828L37.1659 19.9313L38.9505 26.7297L48.6387 30.4797V49.102L34.0427 43.4387V8.83448L28.1534 6.53858L20.9892 3.77075L1.68945 11.2452V12.5972V52.9922V53.1325V57.9029L28.1534 47.6606L19.8037 44.3954L7.74454 49.0637V14.6508L28.1534 6.74266V47.6606L54.3496 57.9029V12.0487L48.6387 9.81661V24.3828Z" fill="#183F58"/>
</svg>
