<svg width="128" height="80" viewBox="0 0 128 80" fill="none" xmlns="http://www.w3.org/2000/svg">
<g clip-path="url(#clip0_155_2712)">
<path d="M10.9402 71.5677H4.34805V69.6729H2.47168V75.149C2.47168 75.3574 2.56103 75.526 2.64045 75.6351C2.7993 75.8236 3.18649 76.2006 3.37512 76.3494C3.50418 76.4387 3.67295 76.4982 3.82187 76.4982H12.8165V69.6729H10.9402V71.5677ZM10.9402 74.9407H4.69552C4.48704 74.9407 4.34805 74.8018 4.34805 74.5935V73.1252H10.9402V74.9407Z" fill="white"/>
<path d="M10.9405 63.3728H8.15078V60.5157H6.27441V62.9462H1.87637V60.5157H0V66.8252C0 67.0335 0.0893508 67.2022 0.168774 67.3113C0.32762 67.4998 0.714807 67.8768 0.903436 68.0256C1.0325 68.1149 1.20127 68.1744 1.35019 68.1744H8.15078V64.9204H10.9405V68.7399H12.8169V59.7617H10.9405V63.3728ZM6.27441 66.6268H2.22384C2.01536 66.6268 1.87637 66.4879 1.87637 66.2796V64.5038H6.27441V66.6268Z" fill="white"/>
<path d="M17.7216 67.4994C17.8507 67.5887 18.0195 67.6482 18.1684 67.6482H27.5105V60.6641H16.8281V66.299C16.8281 66.5073 16.9175 66.676 16.9969 66.7851C17.1557 66.9736 17.5429 67.3506 17.7316 67.4994H17.7216ZM18.6946 62.2216H25.6242V66.0907H19.042C18.8336 66.0907 18.6946 65.9518 18.6946 65.7434V62.2216Z" fill="white"/>
<path d="M14.4551 70.9822H21.216V76.6072H23.0923V70.9822H29.7936V69.4346H14.4551V70.9822Z" fill="white"/>
<path d="M42.1739 63.3728H39.3842V60.5157H37.5078V62.9462H33.1098V60.5157H31.2334V66.8252C31.2334 67.0335 31.3227 67.2022 31.4022 67.3113C31.561 67.4998 31.9482 67.8768 32.1368 68.0256C32.2659 68.1149 32.4347 68.1744 32.5836 68.1744H39.3842V64.9204H42.1739V68.7399H44.0503V59.7617H42.1739V63.3728ZM37.5078 66.6268H33.4572C33.2488 66.6268 33.1098 66.4879 33.1098 66.2796V64.5038H37.5078V66.6268Z" fill="white"/>
<path d="M42.1735 71.5677H35.5814V69.6729H33.7051V75.149C33.7051 75.3574 33.7944 75.526 33.8739 75.6351C34.0327 75.8236 34.4199 76.2006 34.6085 76.3494C34.7376 76.4387 34.9064 76.4982 35.0553 76.4982H44.0499V69.6729H42.1735V71.5677ZM42.1735 74.9407H35.9289C35.7204 74.9407 35.5814 74.8018 35.5814 74.5935V73.1252H42.1735V74.9407Z" fill="white"/>
<path d="M51.6249 74.8705C51.4164 74.8705 51.2774 74.7316 51.2774 74.5232V70.7236H49.3613V75.0689C49.3613 75.2772 49.4507 75.4459 49.5301 75.555C49.6889 75.7435 50.0761 76.1205 50.2648 76.2693C50.3938 76.3585 50.5626 76.4181 50.7115 76.4181H60.2125V74.8605H51.6249V74.8705Z" fill="white"/>
<path d="M55.5064 64.5831C55.5064 62.0037 53.6995 60.2676 51.009 60.2676C48.3186 60.2676 46.5117 62.0037 46.5117 64.5831C46.5117 67.1624 48.3186 68.8985 51.009 68.8985C53.6995 68.8985 55.5064 67.1624 55.5064 64.5831ZM48.3782 64.5831C48.3782 62.8767 49.3908 61.8251 51.009 61.8251C52.6273 61.8251 53.6399 62.8866 53.6399 64.5831C53.6399 66.2795 52.6273 67.341 51.009 67.341C49.3908 67.341 48.3782 66.2795 48.3782 64.5831Z" fill="white"/>
<path d="M59.6664 59.7715H57.79V71.5076H59.6664V59.7715Z" fill="white"/>
<path d="M79.9194 63.6309H73.5557V65.7638H79.9194V78.9087H82.4808V56.3789H79.9194V63.6309Z" fill="white"/>
<path d="M77.4572 69.9211C76.0872 70.0897 74.0222 70.2087 72.4337 70.2087H68.82C68.542 70.2087 68.3534 70.0203 68.3534 69.7425V60.1591H75.6404V58.0361H65.792V70.4964C65.792 70.7742 65.9111 71.0123 66.0203 71.1512C66.2387 71.4092 66.7649 71.925 67.0231 72.1334C67.2018 72.2623 67.4301 72.3318 67.6287 72.3318H72.3841C73.913 72.3318 76.3255 72.1631 77.6558 71.9647H77.6955L77.497 69.9012H77.4473L77.4572 69.9211Z" fill="white"/>
<path d="M96.8363 68.9084H102.714V57.9561H100.152V61.2993H90.9888V57.9561H88.4274V67.0731C88.4274 67.3509 88.5465 67.589 88.6557 67.7279C88.8742 67.9858 89.4003 68.5017 89.6585 68.71C89.8372 68.839 90.0655 68.9084 90.2641 68.9084H94.2749V73.333H85.1016V75.4561H105.95V73.333H96.8462V68.9084H96.8363ZM91.4554 66.7854C91.1774 66.7854 90.9888 66.5969 90.9888 66.3192V63.4322H100.152V66.7854H91.4554Z" fill="white"/>
<path d="M117.883 69.9902C115.868 69.9902 114.18 70.4962 112.999 71.4386C111.887 72.3315 111.281 73.5914 111.281 75.0101C111.281 78.0458 113.872 80.0002 117.883 80.0002C121.894 80.0002 124.485 78.0359 124.485 75.0101C124.485 71.9843 121.894 69.9902 117.883 69.9902ZM117.883 77.8771C115.362 77.8771 113.853 76.8057 113.853 75.0101C113.853 73.2144 115.362 72.1232 117.883 72.1232C120.405 72.1232 121.914 73.2045 121.914 75.0101C121.914 76.8156 120.405 77.8771 117.883 77.8771Z" fill="white"/>
<path d="M124.366 61.2301V56.3789H121.795V69.7817H124.366V63.3531H128V61.2301H124.366Z" fill="white"/>
<path d="M118.708 68.4427L118.737 68.4725L120.276 66.7364L120.237 66.7066C118.221 65.0995 116.424 63.4626 115.531 62.4408C115.154 62.0241 114.985 61.5479 114.985 60.9427V57.2324H112.274V60.9427C112.274 61.5479 112.076 62.1431 111.728 62.6094C110.676 63.9983 108.413 66.0915 106.635 67.5499L106.596 67.5796L108.214 69.3455L108.244 69.3158C110.16 67.7086 112.195 65.7146 113.674 63.9586C114.975 65.3475 116.762 66.9348 118.698 68.4427H118.708Z" fill="white"/>
<path d="M48.974 2.28175C48.974 1.02183 47.9515 0 46.6906 0C45.4298 0 44.4072 1.02183 44.4072 2.28175C44.4072 3.54167 45.4298 4.56349 46.6906 4.56349C47.9515 4.56349 48.974 3.54167 48.974 2.28175Z" fill="white"/>
<path d="M83.602 2.28175C83.602 1.02183 82.5794 0 81.3186 0C80.0577 0 79.0352 1.02183 79.0352 2.28175C79.0352 3.54167 80.0577 4.56349 81.3186 4.56349C82.5794 4.56349 83.602 3.54167 83.602 2.28175Z" fill="white"/>
<path d="M79.0059 17.5294L70.7161 14.325L72.0067 19.2258L79.0059 21.9441V35.3766L68.4526 31.2992V6.30915L64.1935 4.65241L59.0112 2.64844L45.0625 8.04526V9.02741V38.1941V38.2933V41.7357L64.1935 34.3449L58.1574 31.9838L49.4407 35.3568V10.5056L64.1935 4.80122V34.3449L83.1359 41.7357V8.63058L79.0059 7.01352V17.5294Z" fill="white"/>
</g>
<defs>
<clipPath id="clip0_155_2712">
<rect width="128" height="80" fill="white"/>
</clipPath>
</defs>
</svg>
