<svg width="71" height="15" viewBox="0 0 71 15" fill="none" xmlns="http://www.w3.org/2000/svg">
<g id="Layer_1" clip-path="url(#clip0_155_3583)">
<g id="naver">
<path id="Vector" d="M9.43998 1.19531V7.71036L4.9008 1.19531H0V14.1086H4.88461V7.59354L9.42379 14.1086H14.3246V1.19531H9.43998Z" fill="white"/>
<path id="Vector_2" d="M66.7492 9.27673C68.4871 8.79885 69.6044 7.56699 69.6044 5.58646C69.6044 2.26257 66.9219 1.19531 63.3866 1.19531H57.2822V14.1033H62.1668V10.0732L65.0814 14.1033H70.6947L66.7438 9.27142L66.7492 9.27673ZM64.3474 6.64841C64.0613 6.87673 63.5162 6.98823 63.0628 6.98823H62.0157V4.44487H63.0466C63.5378 4.44487 64.0991 4.56168 64.3744 4.79C64.6496 5.02363 64.7684 5.33691 64.7684 5.74045C64.7684 6.14399 64.6388 6.4254 64.3528 6.64841H64.3474Z" fill="white"/>
<path id="Vector_3" d="M45.3755 1.19531H55.2796V4.55637H50.2115V6.07496H54.8802V9.25018H50.2115V10.7422H55.4362V14.1033H45.3755V1.19531Z" fill="white"/>
<path id="Vector_4" d="M26.0853 1.19531H20.5152L15.377 14.1033H20.8121L21.2871 12.4201H25.3243L25.7992 14.1033H31.2344L26.0961 1.19531H26.0853ZM22.0805 9.43602L23.2301 5.17761H23.365L24.5147 9.43602H22.0805Z" fill="white"/>
<path id="Vector_5" d="M39.0012 1.19531L36.594 8.98469H36.459L34.0518 1.19531H28.7246L34.2191 14.1086H38.8339L44.3284 1.19531H39.0012Z" fill="white"/>
</g>
</g>
<defs>
<clipPath id="clip0_155_3583">
<rect width="71" height="14" fill="white" transform="translate(0 0.5)"/>
</clipPath>
</defs>
</svg>
