<svg width="186" height="42" viewBox="0 0 186 42" fill="none" xmlns="http://www.w3.org/2000/svg">
<g clip-path="url(#clip0_162_369)">
<path d="M67.8536 25.7353H61.2313V23.8262H59.3418V29.331C59.3418 29.5349 59.4344 29.711 59.5085 29.8129C59.666 30.0075 60.0642 30.3875 60.2495 30.5358C60.3791 30.6285 60.5459 30.6841 60.6941 30.6841H69.7338V23.8169H67.8443V25.726L67.8536 25.7353ZM67.8536 29.1271H61.5739C61.3609 29.1271 61.222 28.9881 61.222 28.775V27.2922H67.8443V29.1271H67.8536Z" fill="#103147"/>
<path d="M67.8534 17.4873H65.0563V14.6144H63.1668V17.061H58.7488V14.6144H56.8594V20.9626C56.8594 21.1665 56.952 21.3426 57.0261 21.4445C57.1835 21.6391 57.5818 22.0191 57.7671 22.1674C57.8967 22.26 58.0634 22.3157 58.2116 22.3157H65.047V19.0443H67.8441V22.8902H69.7336V13.8545H67.8441V17.4873H67.8534ZM63.1668 20.7587H59.1008C58.8878 20.7587 58.7488 20.6197 58.7488 20.4066V18.6179H63.1668V20.7587Z" fill="#103147"/>
<path d="M74.6709 21.6396C74.8005 21.7323 74.9672 21.7879 75.1154 21.7879H84.4979V14.7632H73.7539V20.4348C73.7539 20.6387 73.8465 20.8148 73.9206 20.9168C74.0781 21.1114 74.4763 21.4913 74.6616 21.6396H74.6709ZM75.6526 16.3294H82.6177V20.231H76.0046C75.7916 20.231 75.6526 20.092 75.6526 19.8788V16.3294Z" fill="#103147"/>
<path d="M71.3916 25.1516H78.1807V30.8048H80.0701V25.1516H86.8036V23.5854H71.3916V25.1516Z" fill="#103147"/>
<path d="M99.2518 17.4873H96.4547V14.6144H94.5653V17.061H90.1473V14.6144H88.2578V20.9626C88.2578 21.1665 88.3504 21.3426 88.4245 21.4445C88.582 21.6391 88.9802 22.0191 89.1655 22.1674C89.2952 22.26 89.4619 22.3157 89.6101 22.3157H96.4454V19.0443H99.2426V22.8902H101.132V13.8545H99.2426V17.4873H99.2518ZM94.5653 20.7587H90.4992C90.2862 20.7587 90.1473 20.6197 90.1473 20.4066V18.6179H94.5653V20.7587Z" fill="#103147"/>
<path d="M99.252 25.7353H92.6297V23.8262H90.7402V29.331C90.7402 29.5349 90.8329 29.711 90.907 29.8129C91.0644 30.0075 91.4627 30.3875 91.6479 30.5358C91.7776 30.6285 91.9443 30.6841 92.0925 30.6841H101.132V23.8169H99.2428V25.726L99.252 25.7353ZM99.252 29.1271H92.9724C92.7594 29.1271 92.6204 28.9881 92.6204 28.775V27.2922H99.2428V29.1271H99.252Z" fill="#103147"/>
<path d="M108.736 29.0624C108.523 29.0624 108.385 28.9234 108.385 28.7103V24.8921H106.458V29.2663C106.458 29.4702 106.551 29.6463 106.625 29.7482C106.782 29.9428 107.18 30.3228 107.366 30.4711C107.495 30.5638 107.662 30.6194 107.81 30.6194H117.359V29.0532H108.727L108.736 29.0624Z" fill="#103147"/>
<path d="M112.644 18.7014C112.644 16.1065 110.829 14.3643 108.124 14.3643C105.42 14.3643 103.604 16.1065 103.604 18.7014C103.604 21.2963 105.42 23.0386 108.124 23.0386C110.829 23.0386 112.644 21.2963 112.644 18.7014ZM105.475 18.7014C105.475 16.9869 106.494 15.9305 108.124 15.9305C109.754 15.9305 110.773 16.9962 110.773 18.7014C110.773 20.4066 109.754 21.4724 108.124 21.4724C106.494 21.4724 105.475 20.4066 105.475 18.7014Z" fill="#103147"/>
<path d="M116.831 13.8638H114.941V25.6705H116.831V13.8638Z" fill="#103147"/>
<path d="M137.181 17.7476H130.79V19.8883H137.181V33.1222H139.756V10.4541H137.181V17.7476Z" fill="#103147"/>
<path d="M134.707 24.077C133.327 24.2531 131.252 24.3736 129.659 24.3736H126.029C125.751 24.3736 125.566 24.1883 125.566 23.9102V14.2628H132.883V12.1221H122.981V24.6702C122.981 24.9482 123.102 25.1891 123.213 25.3374C123.426 25.5969 123.963 26.1159 124.223 26.3198C124.399 26.4495 124.63 26.5237 124.834 26.5237H129.613C131.141 26.5237 133.577 26.3568 134.911 26.153H134.957L134.753 24.077H134.707Z" fill="#103147"/>
<path d="M154.176 23.0668H160.076V12.0386H157.501V15.4119H148.294V12.0386H145.72V21.2133C145.72 21.4913 145.84 21.7323 145.951 21.8806C146.164 22.1401 146.701 22.659 146.961 22.8629C147.137 22.9927 147.368 23.0668 147.572 23.0668H151.601V27.5152H142.376V29.656H163.327V27.5152H154.176V23.0668ZM148.767 20.926C148.489 20.926 148.304 20.7407 148.304 20.4627V17.5527H157.51V20.926H148.776H148.767Z" fill="#103147"/>
<path d="M175.33 24.1416C173.311 24.1416 171.616 24.642 170.421 25.5966C169.31 26.4955 168.689 27.7652 168.689 29.1831C168.689 32.2321 171.292 34.206 175.321 34.206C179.35 34.206 181.953 32.2321 181.953 29.1831C181.953 26.1341 179.35 24.1323 175.321 24.1323L175.33 24.1416ZM175.33 32.0745C172.793 32.0745 171.274 30.9995 171.274 29.1923C171.274 27.3852 172.793 26.2824 175.33 26.2824C177.868 26.2824 179.387 27.3667 179.387 29.1923C179.387 31.018 177.868 32.0745 175.33 32.0745Z" fill="#103147"/>
<path d="M181.841 15.3288V10.4541H179.267V23.9382H181.841V17.4695H185.5V15.3288H181.841Z" fill="#103147"/>
<path d="M176.164 22.5944L176.202 22.6222L177.748 20.8706L177.711 20.8428C175.692 19.221 173.877 17.5807 172.988 16.552C172.608 16.1257 172.441 15.6531 172.441 15.0414V11.3066H169.718V15.0414C169.718 15.6531 169.524 16.2462 169.162 16.7188C168.097 18.1182 165.828 20.2219 164.05 21.6954L164.013 21.7232L165.634 23.5026L165.671 23.4748C167.597 21.853 169.635 19.8512 171.135 18.0904C172.45 19.4898 174.238 21.093 176.183 22.6036L176.164 22.5944Z" fill="#103147"/>
<path d="M4.59396 2.29832C4.59396 1.02868 3.56588 0 2.29698 0C1.02808 0 0 1.02868 0 2.29832C0 3.56796 1.02808 4.59664 2.29698 4.59664C3.56588 4.59664 4.59396 3.56796 4.59396 2.29832Z" fill="#103147"/>
<path d="M39.4006 2.29832C39.4006 1.02868 38.3725 0 37.1036 0C35.8347 0 34.8066 1.02868 34.8066 2.29832C34.8066 3.56796 35.8347 4.59664 37.1036 4.59664C38.3725 4.59664 39.4006 3.56796 39.4006 2.29832Z" fill="#103147"/>
<path d="M34.779 17.6451L26.4432 14.4108L27.7399 19.3503L34.779 22.0749V35.6054L24.174 31.4906V6.34811L19.895 4.67998L14.6897 2.66895L0.666992 8.09966V9.082V38.4319V38.5339V41.9999L19.895 34.5582L13.8283 32.1857L5.06645 35.5776V10.5741L19.895 4.82826V34.5582L38.9284 41.9999V8.6835L34.779 7.0617V17.6451Z" fill="#103147"/>
</g>
<defs>
<clipPath id="clip0_162_369">
<rect width="185.5" height="42" fill="white"/>
</clipPath>
</defs>
</svg>
