<svg width="560" height="598" viewBox="0 0 560 598" fill="none" xmlns="http://www.w3.org/2000/svg">
<path fill-rule="evenodd" clip-rule="evenodd" d="M65.2936 32.7239C65.2936 14.6466 50.6815 0 32.6468 0C14.6121 0 0 14.6466 0 32.7239C0 50.8012 14.6121 65.4478 32.6468 65.4478C50.6815 65.4478 65.2936 50.8012 65.2936 32.7239ZM560 32.7239C560 14.6466 545.388 0 527.353 0C509.318 0 494.706 14.6466 494.706 32.7239C494.706 50.8012 509.318 65.4478 527.353 65.4478C545.388 65.4478 560 50.8012 560 32.7239ZM375.828 205.181L494.305 251.232V100.544L553.279 123.635V598L282.759 492.043V68.7436L72.0027 150.553V506.558L196.534 458.263L282.759 492.043L9.47363 598V548.65V547.199V129.309V115.322L208.777 37.999L282.759 66.6324L343.577 90.3836V448.367L494.305 506.953V314.305L394.258 275.511L375.828 205.181Z" fill="url(#paint0_linear_155_3419)"/>
<defs>
<linearGradient id="paint0_linear_155_3419" x1="281.376" y1="37.999" x2="279.57" y2="536.194" gradientUnits="userSpaceOnUse">
<stop stop-color="#103147" stop-opacity="0.05"/>
<stop offset="1" stop-color="#103147" stop-opacity="0"/>
</linearGradient>
</defs>
</svg>
