<svg width="160" height="50" viewBox="0 0 160 50" fill="none" xmlns="http://www.w3.org/2000/svg">
<g clip-path="url(#clip0_175_1807)">
<path d="M128.617 6.54864C127.594 6.89043 126.831 7.65326 126.048 8.32692C124.71 9.48108 123.416 10.7095 122.22 12.0123C120.758 13.6073 119.321 15.2419 118.051 16.9905C116.575 19.0263 115.123 21.0969 114.38 23.5736C113.612 26.1395 114.178 27.3878 116.742 28.1308C117.899 28.4676 119.124 28.6558 120.325 28.7252C125.069 28.9877 129.72 28.3091 134.351 27.3134C138.735 26.3723 142.968 24.9308 147.249 23.638C147.663 23.5142 148.11 23.4597 148.489 23.2665C149.272 22.8653 149.961 23.212 150.635 23.4944C151.206 23.7321 151.216 24.5395 150.67 25.2231C149.488 26.7042 148.307 28.1853 147.087 29.6317C144.754 32.3957 142.791 35.3826 141.536 38.8005C141.359 39.281 141.176 39.7763 141.122 40.2766C140.95 41.9261 141.993 43.0258 143.593 42.6988C145.045 42.4016 146.482 41.9261 147.84 41.3366C150.109 40.3459 152.313 39.2067 154.538 38.1169C155.561 37.6166 156.565 37.0717 157.589 36.5813C157.859 36.4525 158.184 36.3832 158.484 36.3733C159.208 36.3485 159.828 36.7696 159.961 37.3095C160.094 37.8445 159.725 38.4735 158.932 38.6915C155.999 39.489 153.381 41.0394 150.65 42.2976C148.932 43.0901 147.215 43.8233 145.423 44.3879C144.331 44.7297 143.224 44.8932 142.072 44.6009C139.877 44.0363 138.361 41.8122 138.982 39.6277C139.484 37.8544 140.192 36.1058 141.058 34.4811C142.476 31.8359 144.095 29.2998 146.181 27.1054C146.344 26.937 146.477 26.7339 146.605 26.5358C146.639 26.4862 146.605 26.3921 146.59 26.2237C146.285 26.2881 145.984 26.3277 145.704 26.4169C142.446 27.4521 139.159 28.3586 135.788 28.958C133.977 29.28 132.195 29.7604 130.384 30.0577C128.765 30.3202 127.126 30.4985 125.487 30.5778C123.726 30.662 121.959 30.5778 120.192 30.5778C118.681 30.5778 117.225 30.2707 115.807 29.7704C114.031 29.1462 112.741 27.9822 112.185 26.1643C111.974 25.4807 111.88 24.6336 112.087 23.9748C112.495 22.6671 113.066 21.3941 113.721 20.1904C114.395 18.952 115.005 17.6493 116.112 16.6933C116.639 16.2376 117.141 15.7769 117.343 15.0339C117.436 14.697 117.845 14.4543 118.11 14.167C118.47 13.7708 118.834 13.3794 119.188 12.9782C119.715 12.3788 120.217 11.7547 120.768 11.1801C121.634 10.2786 122.485 9.36219 123.425 8.54488C124.931 7.24708 126.398 5.85021 128.081 4.8397C129.159 4.1908 130.089 3.36853 131.142 2.70477C131.56 2.44224 131.875 1.99643 132.2 1.60016C132.978 0.65405 133.603 0.515354 134.651 1.05528C134.853 1.1593 135.133 1.20883 135.35 1.1593C136.521 0.872001 137.702 0.589655 138.849 0.213194C139.68 -0.0592449 140.448 -0.0641983 141.24 0.297403C141.629 0.475726 142.043 0.584702 142.441 0.748165C143.568 1.20884 143.967 1.88746 143.977 3.13572C143.986 4.77531 143.475 6.25639 142.677 7.64335C141.462 9.76342 139.872 11.5566 137.845 12.9287C136.678 13.7163 135.404 14.1423 133.986 14.2166C131.211 14.3652 129.621 12.4878 128.967 10.6749C128.573 9.595 128.312 8.47057 128.711 7.31147C128.76 7.16782 128.76 6.9994 128.755 6.84089C128.755 6.7765 128.686 6.70715 128.608 6.56845L128.617 6.54864ZM140.054 1.95185C137.781 2.07073 135.842 2.82861 133.878 3.52704C131.851 4.25025 130.984 5.90469 130.546 7.79691C129.877 10.655 132.318 12.8147 135.079 11.8984C135.374 11.7993 135.679 11.6903 135.94 11.5268C138.859 9.69407 140.965 7.15296 142.298 3.9679C142.687 3.03665 142.298 2.34317 141.299 2.10045C140.847 1.99148 140.364 1.98652 140.059 1.95185H140.054Z" fill="black"/>
<path d="M87.5297 18.5308C84.9313 19.4521 82.4706 20.2744 80.3004 21.7406C79.075 22.5678 78.322 22.3845 77.7462 20.9827C77.6626 20.7796 77.6921 20.527 77.6675 20.314C80.4185 18.7586 83.2876 17.6094 86.2206 16.6138C86.4815 16.5246 86.7374 16.4255 87.0031 16.3562C87.7905 16.1482 88.1694 15.6082 88.2482 14.8206C88.5041 12.3835 88.7944 9.94645 89.0011 7.50441C89.0651 6.72672 88.9273 5.92921 88.8486 5.14657C88.7698 4.34907 88.9618 4.13607 89.7541 4.22028C90.7137 4.3243 91.2502 4.8246 91.2305 5.87472C91.196 8.04928 91.1665 10.2387 90.9352 12.3984C90.5759 15.7766 89.9952 19.1351 89.6261 22.5133C89.4244 24.356 89.4539 26.2234 89.4047 28.081C89.3948 28.4971 89.4834 28.9132 89.5474 29.5522C90.0887 29.2252 90.4381 29.0073 90.7925 28.7992C92.2147 27.9571 93.5878 26.9912 95.2659 26.7485C96.7177 26.5405 98.012 27.0507 98.9962 28.0958C99.3407 28.4624 99.4834 29.2005 99.4342 29.7453C99.2374 31.9249 98.4795 33.8963 96.9342 35.4963C96.4421 36.0065 95.9007 36.4622 95.4086 36.9724C94.5179 37.8987 93.3466 38.2355 92.1803 38.5575C91.3584 38.7854 90.635 38.4089 89.9755 37.9532C88.3515 36.8288 87.5887 35.1446 87.1261 33.3118C86.8653 32.2815 86.7816 31.2017 86.6192 30.1466C86.5996 30.0277 86.5848 29.9088 86.5946 29.7899C86.8998 26.4909 87.2147 23.1919 87.5149 19.888C87.5494 19.5016 87.5149 19.1103 87.5149 18.5308H87.5297ZM89.4096 32.5936C89.4736 32.9007 89.5523 33.2821 89.6409 33.6635C89.8525 34.5601 90.1773 35.3923 90.8565 36.056C91.2994 36.487 91.7078 36.6603 92.3181 36.3384C93.4155 35.7687 94.4145 35.0901 95.2216 34.144C96.324 32.8561 97.0769 31.3998 97.3033 29.7057C97.4116 28.8785 97.1261 28.5912 96.3191 28.6605C96.009 28.6853 95.6793 28.7447 95.4086 28.8785C94.2521 29.4531 93.0759 30.0128 91.9736 30.6815C91.1173 31.2017 90.3594 31.8753 89.4096 32.5936Z" fill="black"/>
<path d="M20.5905 50.0001C19.0108 50.0249 18.4399 49.48 18.4153 48.098C18.3513 44.4374 19.0009 40.8462 19.4586 37.2401C19.8572 34.1046 20.31 30.974 20.7185 27.8434C20.9006 26.4317 21.0482 25.02 21.186 23.6033C21.2204 23.2664 21.1466 22.9247 21.1171 22.5234C20.7726 22.5234 20.5364 22.4937 20.3149 22.5234C18.0315 22.8949 15.748 23.2615 13.4695 23.6528C11.5354 23.9847 9.6161 24.4255 7.67221 24.6831C5.96453 24.906 4.23224 24.9754 2.5098 25.0398C1.51571 25.0744 0.654489 24.693 0.186969 23.7271C0.0737805 23.4993 0.0639379 23.2169 0.00488281 22.9494C0.925158 22.4442 1.82575 22.4244 2.67713 22.7761C3.37102 23.0634 4.06 23.1079 4.7539 22.999C7.31295 22.5977 9.86709 22.142 12.4261 21.7358C14.749 21.3643 17.0817 21.0374 19.4045 20.6807C21.6535 20.334 23.8927 19.9377 26.1466 19.6257C29.6456 19.1353 33.1446 18.6697 36.6535 18.2585C37.1998 18.1941 37.8198 18.4121 38.3415 18.6449C39.0797 18.9718 39.0748 20.0913 38.3612 20.4678C38.061 20.6263 37.687 20.7154 37.3474 20.7154C36.0974 20.7154 34.8523 20.6362 33.6023 20.6263C33.0954 20.6263 32.5885 20.7105 32.0817 20.7848C29.5275 21.1662 26.9734 21.5724 24.4143 21.929C23.7401 22.0231 23.4399 22.3154 23.435 22.9891C23.435 23.3804 23.3169 23.7766 23.3169 24.168C23.3366 27.5512 22.5541 30.8402 22.1899 34.1838C21.87 37.1262 21.4517 40.0635 21.1663 43.0108C20.9645 45.0913 20.9153 47.1915 20.7824 49.2819C20.7677 49.5098 20.6693 49.7277 20.5905 50.0051V50.0001Z" fill="black"/>
<path d="M61.0136 15.7867C60.7036 15.1427 60.5166 14.7564 60.3345 14.3799C62.7803 11.4276 65.8069 9.49581 69.4437 8.54475C70.7872 8.19305 72.1603 8.12866 73.5136 8.50512C75.2114 8.9757 76.2597 10.2438 76.3679 11.9973C76.4073 12.6611 76.4319 13.3743 76.2498 13.9985C75.7479 15.7371 75.1524 17.4461 74.5618 19.1501C74.3305 19.8089 74.0107 20.4379 73.7597 21.0125C73.8925 21.1958 73.9221 21.2998 73.9811 21.3147C75.5313 21.7457 76.3729 22.9196 76.9782 24.2868C77.6327 25.7629 78.1298 27.3133 78.8187 28.7696C79.5175 30.2507 79.9112 31.811 80.2902 33.3813C80.3886 33.7924 80.4477 34.2432 80.4034 34.6593C80.3296 35.4023 79.6504 35.7243 79.0303 35.3329C78.4496 34.9664 78.0264 34.4809 77.9378 33.733C77.5786 30.5875 76.2843 27.7393 75.1179 24.8465C75.0589 24.7029 74.9851 24.5592 74.9063 24.4255C74.2026 23.2416 73.3414 23.088 72.4851 24.1382C71.6878 25.109 71.0038 26.1889 70.3837 27.2836C69.3551 29.1065 68.4299 30.9838 67.4309 32.8215C67.0569 33.5101 66.6337 34.1887 66.1563 34.8079C65.5855 35.5459 64.9949 35.6599 64.4536 35.2586C63.5825 34.6196 63.4152 34.0252 63.8925 33.1584C64.1189 32.7423 64.3797 32.346 64.6357 31.9448C66.5353 28.9975 68.5087 26.0997 70.3099 23.093C71.3975 21.2751 72.2045 19.2888 73.1691 17.3916C73.8187 16.1186 74.2223 14.7712 74.4929 13.3743C74.9506 11.0264 74.3256 10.0754 71.9437 9.94162C69.6504 9.81283 67.5294 10.5212 65.6051 11.7942C64.3551 12.6264 63.1986 13.5626 62.2735 14.7762C61.988 15.1526 61.5205 15.3854 61.0185 15.7817L61.0136 15.7867Z" fill="black"/>
<path d="M15.0984 15.6181C12.8789 15.7369 11.1171 13.8299 10.6348 11.3482C10.2559 9.39158 11.063 7.74704 12.0767 6.2412C12.9281 4.97807 14.0009 3.86354 15.3937 3.11558C16.1515 2.70939 16.8159 2.11498 17.5738 1.7088C17.9527 1.50075 18.5088 1.34224 18.8878 1.47103C19.4931 1.67413 19.995 1.64936 20.5757 1.43636C21.2696 1.18373 22.0029 1.04009 22.7214 0.841948C22.7952 0.822134 22.874 0.747832 22.938 0.762693C24.4242 1.04009 25.9448 0.505114 27.436 1.11439C29.5324 1.96638 30.3641 3.59111 29.685 5.7409C29.1338 7.49442 28.1151 8.9111 26.7618 10.1148C23.6958 12.854 20.1279 14.5927 16.1515 15.514C15.812 15.5933 15.4478 15.5834 15.0984 15.6181ZM12.5984 10.6052C12.623 11.0064 12.623 11.2045 12.6476 11.3977C12.8395 12.8838 13.6614 13.5624 15.1328 13.4484C15.3248 13.4336 15.5167 13.3841 15.7135 13.3543C17.4557 13.1215 18.9665 12.2547 20.5511 11.5711C22.9429 10.5358 24.9065 8.92596 26.6092 6.99907C27.2736 6.2412 27.8198 5.34958 27.9429 4.27468C28.0315 3.48213 27.9035 3.18988 27.1702 2.90753C26.8799 2.7936 26.5698 2.72425 26.2598 2.68958C24.3602 2.45677 22.495 2.68958 20.684 3.25923C19.562 3.61092 18.4842 4.08645 17.3671 4.45796C14.7933 5.3149 13.5679 7.36067 12.7411 9.74823C12.6279 10.0752 12.6279 10.4467 12.6082 10.6002L12.5984 10.6052Z" fill="black"/>
<path d="M30.2561 39.4147C30.2561 41.6685 30.2512 43.9224 30.2561 46.1811C30.2561 46.8548 30.3151 47.5235 30.3496 48.1972C30.3889 48.9996 30.1675 49.4504 29.6803 49.5346C29.0012 49.6485 27.9234 48.9848 27.8496 48.3606C27.7905 47.8504 27.8004 47.3303 27.8151 46.8152C27.9037 43.0555 28.0267 39.2909 28.0858 35.5312C28.1399 32.044 27.9431 28.5667 27.3919 25.1191C27.323 24.6931 27.1951 24.277 27.0671 23.8659C26.9145 23.3805 26.6488 22.8752 27.1212 22.4443C27.4067 22.1817 28.5828 22.3353 28.883 22.6721C29.1045 22.9247 29.3407 23.2517 29.385 23.5687C29.6606 25.4857 29.9657 27.4076 30.0986 29.3345C30.2807 32.0539 30.32 34.7882 30.4136 37.5126C30.4332 38.1467 30.4136 38.7757 30.4136 39.4098C30.3594 39.4098 30.3053 39.4098 30.2512 39.4098L30.2561 39.4147Z" fill="black"/>
</g>
<defs>
<clipPath id="clip0_175_1807">
<rect width="160" height="50" fill="white"/>
</clipPath>
</defs>
</svg>
