<svg width="26" height="27" viewBox="0 0 26 27" fill="none" xmlns="http://www.w3.org/2000/svg">
<path d="M0.585786 23.0858C-0.195262 23.8668 -0.195262 25.1332 0.585786 25.9142C1.36684 26.6953 2.63316 26.6953 3.41421 25.9142L0.585786 23.0858ZM26 2.5C26 1.39543 25.1046 0.499998 24 0.5L6 0.499999C4.89543 0.499998 4 1.39543 4 2.5C4 3.60457 4.89543 4.5 6 4.5L22 4.5L22 20.5C22 21.6046 22.8954 22.5 24 22.5C25.1046 22.5 26 21.6046 26 20.5L26 2.5ZM2 24.5L3.41421 25.9142L25.4142 3.91421L24 2.5L22.5858 1.08578L0.585786 23.0858L2 24.5Z" fill="white"/>
</svg>
