<svg width="60" height="60" viewBox="0 0 60 60" fill="none" xmlns="http://www.w3.org/2000/svg">
<path opacity="0.8" d="M30 58.4001C45.6849 58.4001 58.4 45.685 58.4 30.0001C58.4 14.3152 45.6849 1.6001 30 1.6001C14.3151 1.6001 1.59998 14.3152 1.59998 30.0001C1.59998 45.685 14.3151 58.4001 30 58.4001Z" fill="black" stroke="white" stroke-miterlimit="10"/>
<path d="M39 41.6L29.2 31C29.2 31 29 30.8 28.8 31C28.6 31 28.6 31.2 28.6 31.2L28.8 46C28.8 46.2 28.8 46.2 29 46.2C29 46.2 29 46.2 29.2 46.2H29.4L33.2 42H38.8C39 42 39 42 39 41.8C39.2 41.8 39.2 41.6 39 41.6Z" fill="white"/>
<path d="M20.6 19.6C20.4 19.4 20.2 19.2 19.8 19C19.4 18.8 19.2 18.8 18.8 18.8C18.2 18.8 17.8 19 17.4 19.2C17 19.4 16.8 19.8 16.6 20.4C16.4 20.8 16.2 21.4 16.2 22.2C16.2 22.8 16.4 23.4 16.6 24C16.8 24.4 17.2 24.8 17.4 25.2C17.8 25.4 18.2 25.6 18.8 25.6C19.2 25.6 19.6 25.6 19.8 25.4C20.2 25.2 20.4 25 20.6 24.8C20.8 24.6 21 24.2 21 23.8H23C23 24.4 22.6 25 22.4 25.6C22 26.2 21.6 26.6 21 26.8C20.4 27.2 19.6 27.2 18.8 27.2C18 27.2 17.2 27 16.4 26.6C15.8 26.2 15.2 25.6 14.8 24.8C14.4 24 14.2 23 14.2 22C14.2 21 14.4 20 14.8 19.2C15.2 18.6 15.6 18 16.4 17.6C17 17.2 17.8 17 18.8 17C19.6 17 20.2 17.2 20.8 17.4C21.4 17.6 22 18 22.4 18.6C22.8 19.2 23 19.8 23.2 20.6H21.2C20.8 20.2 20.8 19.8 20.6 19.6Z" fill="white"/>
<path d="M26.3999 27H24.3999V17H26.3999V27Z" fill="white"/>
<path d="M28.3999 18.3999C28.1999 18.3999 28.1999 18.1999 27.9999 17.9999C27.7999 17.7999 27.9999 17.7999 27.9999 17.5999C27.9999 17.3999 27.9999 17.1999 28.1999 16.9999C28.3999 16.7999 28.3999 16.7999 28.5999 16.5999C28.7999 16.3999 28.9999 16.3999 29.1999 16.3999C29.3999 16.3999 29.5999 16.3999 29.7999 16.5999C29.9999 16.7999 30.1999 16.7999 30.1999 16.9999C30.3999 17.1999 30.3999 17.3999 30.3999 17.5999C30.3999 17.7999 29.9999 17.7999 29.9999 17.9999C29.9999 18.1999 29.7999 18.1999 29.5999 18.3999C29.3999 18.3999 29.1999 18.5999 28.9999 18.5999C28.7999 18.5999 28.5999 18.5999 28.3999 18.3999ZM27.9999 19.5999H29.9999V26.9999H27.9999V19.5999Z" fill="white"/>
<path d="M32.9999 26.5999C32.3999 26.1999 31.9999 25.7999 31.7999 25.1999C31.5999 24.5999 31.3999 23.9999 31.3999 23.1999C31.3999 22.3999 31.5999 21.7999 31.7999 21.1999C31.9999 20.5999 32.5999 20.1999 32.9999 19.7999C33.5999 19.3999 34.1999 19.3999 34.9999 19.3999C35.5999 19.3999 36.1999 19.5999 36.5999 19.7999C36.9999 19.9999 37.3999 20.3999 37.7999 20.7999C37.9999 21.1999 38.1999 21.7999 38.1999 22.1999H36.1999C36.1999 21.9999 35.9999 21.7999 35.9999 21.5999C35.7999 21.3999 35.7999 21.1999 35.5999 21.1999C35.3999 20.9999 35.1999 20.9999 34.9999 20.9999C34.5999 20.9999 34.3999 20.9999 34.1999 21.1999C33.9999 21.3999 33.7999 21.5999 33.5999 21.9999C33.3999 22.3999 33.3999 22.7999 33.3999 23.1999C33.3999 23.5999 33.3999 23.9999 33.5999 24.3999C33.7999 24.7999 33.9999 24.9999 34.1999 25.1999C34.3999 25.3999 34.7999 25.3999 34.9999 25.3999C35.1999 25.3999 35.3999 25.3999 35.5999 25.1999C35.7999 25.1999 35.9999 24.9999 35.9999 24.7999C35.9999 24.5999 36.1999 24.3999 36.1999 24.1999H38.1999C38.1999 24.7999 37.9999 25.1999 37.7999 25.5999C37.5999 25.9999 37.1999 26.3999 36.5999 26.5999C36.1999 26.7999 35.5999 26.9999 34.9999 26.9999C34.1999 27.1999 33.5999 26.9999 32.9999 26.5999Z" fill="white"/>
<path d="M39.3999 17H41.3999V26.8H39.3999V17ZM41.3999 22.4H41.7999L43.9999 19.6H46.3999L43.1999 23.4H42.7999L41.3999 25V22.4ZM41.9999 23.8L43.3999 22.4L46.5999 27H44.1999L41.9999 23.8Z" fill="white"/>
</svg>
