<svg width="12" height="13" viewBox="0 0 12 13" fill="none" xmlns="http://www.w3.org/2000/svg">
<path d="M0.292649 11.0409C-0.0978752 11.4315 -0.0978752 12.0646 0.292649 12.4552C0.683173 12.8457 1.31634 12.8457 1.70686 12.4552L0.292649 11.0409ZM11.9998 1.74805C11.9998 1.19576 11.552 0.748047 10.9998 0.748047L1.99976 0.748047C1.44747 0.748046 0.999756 1.19576 0.999756 1.74805C0.999757 2.30033 1.44747 2.74805 1.99976 2.74805H9.99976V10.748C9.99976 11.3003 10.4475 11.748 10.9998 11.748C11.552 11.748 11.9998 11.3003 11.9998 10.748L11.9998 1.74805ZM0.999756 11.748L1.70686 12.4552L11.7069 2.45515L10.9998 1.74805L10.2926 1.04094L0.292649 11.0409L0.999756 11.748Z" fill="#40EFEC"/>
</svg>
