<svg width="100" height="100" viewBox="0 0 100 100" fill="none" xmlns="http://www.w3.org/2000/svg">
<path d="M22.1406 37.5327L46.3027 54.1617C47.2502 54.8545 49.7138 55.8246 51.9879 54.1617C54.262 52.4988 69.5172 41.9209 76.8606 36.8398" stroke="#EC1B23" stroke-width="2" stroke-linecap="round" stroke-linejoin="round"/>
<path d="M78 34.4333V65.4667C78 66.6425 77.538 67.7701 76.7158 68.6015C75.8935 69.4329 74.7783 69.9 73.6154 69.9H25.3846C24.2217 69.9 23.1065 69.4329 22.2842 68.6015C21.4619 67.7701 21 66.6425 21 65.4667V34.4333M78 34.4333C78 33.2575 77.538 32.1299 76.7158 31.2985C75.8935 30.4671 74.7783 30 73.6154 30H25.3846C24.2217 30 23.1065 30.4671 22.2842 31.2985C21.4619 32.1299 21 33.2575 21 34.4333" stroke="black" stroke-width="2" stroke-linecap="round" stroke-linejoin="round"/>
</svg>
