<svg width="100" height="100" viewBox="0 0 100 100" fill="none" xmlns="http://www.w3.org/2000/svg">
<path d="M67.13 71.18V78C67.13 79.1 66.23 80 65.13 80H25.13C24.03 80 23.13 79.1 23.13 78V22C23.13 20.9 24.03 20 25.13 20H65.13C66.23 20 67.13 20.9 67.13 22V45.96" stroke="black" stroke-width="2" stroke-miterlimit="10"/>
<path d="M61.9503 72.1995C69.478 72.1995 75.5803 66.0971 75.5803 58.5695C75.5803 51.0418 69.478 44.9395 61.9503 44.9395C54.4227 44.9395 48.3203 51.0418 48.3203 58.5695C48.3203 66.0971 54.4227 72.1995 61.9503 72.1995Z" stroke="black" stroke-width="2" stroke-miterlimit="10"/>
<path d="M71.9297 68.5488L80.8697 77.4988" stroke="black" stroke-width="2" stroke-miterlimit="10" stroke-linecap="round"/>
<path d="M55.9502 58.7988L60.4502 63.2988L67.9502 55.7988" stroke="#EC1B23" stroke-width="2" stroke-linecap="round" stroke-linejoin="round"/>
<path d="M33.88 32.5H53.88" stroke="black" stroke-width="2" stroke-miterlimit="10" stroke-linecap="round"/>
<path d="M33.88 43.5H46.05" stroke="black" stroke-width="2" stroke-miterlimit="10" stroke-linecap="round"/>
</svg>
