<svg width="100" height="100" viewBox="0 0 100 100" fill="none" xmlns="http://www.w3.org/2000/svg">
<path d="M26.9229 75.6337V24.359C26.9229 23.509 27.2605 22.6939 27.8615 22.0929C28.4625 21.4919 29.2776 21.1543 30.1275 21.1543H49.9067C51.6065 21.1547 53.2364 21.8302 54.4382 23.0322L69.9103 38.5044C71.1124 39.7061 71.7879 41.3361 71.7882 43.0358V75.6337C71.7882 76.4836 71.4506 77.2987 70.8496 77.8997C70.2486 78.5007 69.4335 78.8384 68.5836 78.8384H30.1275C29.2776 78.8384 28.4625 78.5007 27.8615 77.8997C27.2605 77.2987 26.9229 76.4836 26.9229 75.6337Z" stroke="black" stroke-width="2" stroke-linejoin="round"/>
<path d="M49.3555 21.1543V40.3823C49.3555 41.2322 49.6932 42.0474 50.2942 42.6484C50.8952 43.2494 51.7103 43.587 52.5602 43.587H71.7882" stroke="black" stroke-width="2" stroke-linejoin="round"/>
<path d="M36.5391 53.8457H48.5391" stroke="#EC1B23" stroke-width="2" stroke-linecap="round"/>
<path d="M36.5381 65.3848H48.5381H60.5381" stroke="#EC1B23" stroke-width="2" stroke-linecap="round"/>
</svg>
