<svg width="120" height="120" viewBox="0 0 120 120" fill="none" xmlns="http://www.w3.org/2000/svg">
<rect width="120" height="120" rx="60" fill="#00A9A7"/>
<path d="M79.6028 33.7278H40.3972C39.0732 33.7278 38 34.8011 38 36.125V89.1023C38 90.4262 39.0732 91.4994 40.3972 91.4994H79.6028C80.9267 91.4994 81.9999 90.4262 81.9999 89.1023V36.125C81.9999 34.8011 80.9267 33.7278 79.6028 33.7278Z" stroke="white" stroke-width="1.5" stroke-linecap="round" stroke-linejoin="round"/>
<path d="M65.304 28.5004H54.6846C52.3611 28.5004 50.4775 30.3839 50.4775 32.7074V33.1629C50.4775 35.4864 52.3611 37.3699 54.6846 37.3699H65.304C67.6275 37.3699 69.511 35.4864 69.511 33.1629V32.7074C69.511 30.3839 67.6275 28.5004 65.304 28.5004Z" fill="#00A9A7" stroke="white" stroke-width="1.5" stroke-linecap="round" stroke-linejoin="round"/>
<path d="M53.7027 45.6902H45.8999V53.4929H53.7027V45.6902Z" stroke="white" stroke-width="1.5" stroke-linecap="round" stroke-linejoin="round"/>
<path d="M46.127 63.3676L48.8597 66.1123L54.8287 60.1434" stroke="white" stroke-width="1.5" stroke-linecap="round" stroke-linejoin="round"/>
<path d="M59.0596 49.5856H74.0898" stroke="white" stroke-width="1.5" stroke-linecap="round" stroke-linejoin="round"/>
<path d="M53.7027 73.281H45.8999V81.0837H53.7027V73.281Z" stroke="white" stroke-width="1.5" stroke-linecap="round" stroke-linejoin="round"/>
<path d="M59.0596 77.1881H74.0898" stroke="white" stroke-width="1.5" stroke-linecap="round" stroke-linejoin="round"/>
<path d="M59.0596 63.9686H74.0898" stroke="white" stroke-width="1.5" stroke-linecap="round" stroke-linejoin="round"/>
</svg>
