<svg width="120" height="120" viewBox="0 0 120 120" fill="none" xmlns="http://www.w3.org/2000/svg">
<rect width="120" height="120" rx="60" fill="#F6F6F6"/>
<path d="M48.7585 62.9874C53.3125 62.9874 57.0042 59.2956 57.0042 54.7416C57.0042 50.1876 53.3125 46.4959 48.7585 46.4959C44.2044 46.4959 40.5127 50.1876 40.5127 54.7416C40.5127 59.2956 44.2044 62.9874 48.7585 62.9874Z" stroke="#222222" stroke-width="1.5" stroke-linecap="round" stroke-linejoin="round"/>
<path d="M30.5 84.7797C30.5 74.6964 38.6751 66.5213 48.7585 66.5213" stroke="#222222" stroke-width="1.5" stroke-linecap="round" stroke-linejoin="round"/>
<path d="M48.7583 66.5212C58.8417 66.5212 67.0168 74.6963 67.0168 84.7796" stroke="#222222" stroke-width="1.5" stroke-linecap="round" stroke-linejoin="round"/>
<path d="M89.5 36.8753V51.7835C89.5 52.6956 88.7568 53.4387 87.8448 53.4387H71.6079L66.3383 58.303V53.4387H63.5571C62.645 53.4387 61.9019 52.6956 61.9019 51.7835V36.8753C61.9019 35.9633 62.645 35.2201 63.5571 35.2201H87.8448C88.7568 35.2201 89.5 35.9633 89.5 36.8753Z" stroke="#222222" stroke-width="1.5" stroke-linecap="round" stroke-linejoin="round"/>
<path d="M69.1872 45.523C69.9396 45.523 70.5496 44.913 70.5496 44.1605C70.5496 43.4081 69.9396 42.7981 69.1872 42.7981C68.4347 42.7981 67.8247 43.4081 67.8247 44.1605C67.8247 44.913 68.4347 45.523 69.1872 45.523Z" fill="#00A9A7"/>
<path d="M75.38 45.523C76.1325 45.523 76.7425 44.913 76.7425 44.1605C76.7425 43.4081 76.1325 42.7981 75.38 42.7981C74.6276 42.7981 74.0176 43.4081 74.0176 44.1605C74.0176 44.913 74.6276 45.523 75.38 45.523Z" fill="#00A9A7"/>
<path d="M81.5729 45.523C82.3254 45.523 82.9354 44.913 82.9354 44.1605C82.9354 43.4081 82.3254 42.7981 81.5729 42.7981C80.8204 42.7981 80.2104 43.4081 80.2104 44.1605C80.2104 44.913 80.8204 45.523 81.5729 45.523Z" fill="#00A9A7"/>
</svg>
