<svg width="28" height="28" viewBox="0 0 28 28" fill="none" xmlns="http://www.w3.org/2000/svg">
<path fill-rule="evenodd" clip-rule="evenodd" d="M10.6001 9C11.2048 9 11.7445 9.02814 12.2736 9.2608C12.5759 9.33836 12.9538 9.49347 13.2562 9.57103C13.8609 9.72614 14.4655 9.57103 14.9946 9.41591C15.3726 9.2608 15.8261 9.10569 16.2796 8.95058C17.5645 8.64036 18.7739 8.95058 19.7565 9.80369C20.0588 10.0364 20.2856 10.269 20.5123 10.5792C20.5879 10.6568 20.5879 10.7344 20.5123 10.8119C19.4541 11.5099 18.7739 12.5181 18.6983 13.759C18.6227 14.9999 18.9251 16.0081 19.7565 16.9388C20.1344 17.3266 20.5123 17.6368 21.0414 17.8695C21.1926 17.8695 21.1926 17.8695 21.117 18.1021C20.5879 19.343 19.9077 20.5063 19.0006 21.5921C18.6983 21.9023 18.396 22.2901 17.9424 22.5228C17.3378 22.9106 16.6575 22.9106 15.9772 22.5228C15.6749 22.4452 15.4481 22.2901 15.1458 22.2126C14.2388 21.9023 13.3318 21.9799 12.4247 22.3677C12.198 22.4452 11.9712 22.6003 11.7445 22.6779C10.913 22.9881 10.1572 22.833 9.40133 22.2126C8.94782 21.9023 8.64548 21.437 8.26755 20.9717C7.5117 19.9635 6.90702 18.8001 6.5291 17.6368C6.22676 16.7837 6.07559 15.853 6 14.9999C6 13.9917 6 12.9835 6.37793 12.0528C6.98261 10.5792 8.0408 9.57103 9.5525 9.10569C9.85484 9.10569 10.2978 8.92244 10.6001 9Z" stroke="#636363" stroke-linejoin="round"/>
<path fill-rule="evenodd" clip-rule="evenodd" d="M16.4271 3.33939C16.4271 4.27273 16.1354 5.03636 15.7708 5.8C15.2604 6.64848 14.6771 7.15758 13.875 7.49697C13.6563 7.58182 13.3646 7.66667 13.1458 7.66667C13.0729 7.66667 13 7.66667 13 7.49697C13 6.81818 13 6.22424 13.2917 5.6303C13.8021 4.44242 14.6042 3.59394 15.6979 3.1697C15.9167 3.08485 16.1354 3 16.3542 3C16.4271 3 16.5 3 16.5 3.1697C16.5 3.25455 16.5 3.42424 16.5 3.50909L16.4271 3.33939Z" stroke="#636363"/>
</svg>
