<svg width="120" height="120" viewBox="0 0 120 120" fill="none" xmlns="http://www.w3.org/2000/svg">
<g clip-path="url(#clip0_6177_4989)">
<path d="M59.995 119.573C92.899 119.573 119.573 92.899 119.573 59.995C119.573 27.091 92.899 0.416992 59.995 0.416992C27.091 0.416992 0.416992 27.091 0.416992 59.995C0.416992 92.899 27.091 119.573 59.995 119.573Z" fill="white"/>
<g clip-path="url(#clip1_6177_4989)">
<path d="M45.0657 46.074C45.1201 46.1885 45.1291 46.2936 45.0748 46.4081C45.0385 46.5227 44.9841 46.6181 44.8935 46.6754C44.8482 46.7136 44.812 46.7422 44.7757 46.7709C44.7395 46.7995 44.7032 46.8186 44.6579 46.8282C44.5854 46.8759 44.4948 46.8854 44.386 46.8759C44.3407 46.8759 44.3045 46.8759 44.2682 46.8568C44.232 46.8377 44.1957 46.8282 44.1595 46.7995C44.1232 46.7804 44.087 46.7518 44.0507 46.7327C44.0145 46.7041 43.9783 46.6754 43.942 46.6468C43.8967 46.6086 43.8604 46.58 43.8242 46.5513C43.7879 46.5227 43.7608 46.4845 43.7336 46.4558C43.6973 46.4177 43.6701 46.3795 43.643 46.3413C43.6158 46.3031 43.5886 46.2745 43.5614 46.2458L43.4345 46.1026L41.4227 43.8878L41.4499 46.1026V46.1981C41.4499 46.1981 41.4499 46.2554 41.4409 46.2936C41.4409 46.3222 41.4227 46.3604 41.4227 46.3986C41.4046 46.494 41.3774 46.58 41.3502 46.6563C41.3321 46.7041 41.314 46.7327 41.2959 46.7709C41.2778 46.8091 41.2415 46.8282 41.2143 46.8568C41.1418 46.9332 41.0421 46.9714 40.9425 46.9809C40.8337 47.0191 40.7431 47.0286 40.6525 47.0191C40.5618 47.0095 40.4803 46.9809 40.3897 46.9332C40.3172 46.8854 40.2537 46.8186 40.1994 46.7136C40.1812 46.685 40.1722 46.6659 40.1722 46.6563C40.1722 46.6563 40.1722 46.6277 40.1541 46.58C40.1087 46.5036 40.0906 46.4368 40.0906 46.3604C40.0906 46.3126 40.0816 46.2745 40.0725 46.2363C40.0634 46.1981 40.0725 46.1599 40.0544 46.1122C40.0544 46.0835 40.0453 46.0549 40.0453 46.0263V45.9403C40.0453 45.9403 40.0544 45.8735 40.0544 45.8449V44.8807L40.0362 43.2578C40.0362 42.79 40.0272 42.284 40.0091 41.7399C40.0091 41.4726 40 41.2434 40 41.0334C40 40.8234 40 40.5943 40.0091 40.3365V40.2888C40.0181 40.2124 40.0272 40.1265 40.0272 40.0501C40.0272 39.9737 40.0272 39.8974 40.0362 39.821C40.0362 39.6778 40.0634 39.5251 40.1269 39.3819C40.1722 39.2673 40.2447 39.1814 40.3444 39.1146C40.3987 39.0764 40.4531 39.0573 40.5075 39.0382C40.5618 39.0286 40.6162 39.0191 40.6797 39C40.725 39 40.7793 39 40.8246 39.0095C40.87 39.0095 40.9153 39.0286 40.9515 39.0286C41.0421 39.0477 41.1237 39.0859 41.2053 39.1527C41.2234 39.1718 41.2415 39.2005 41.2596 39.2291C41.2778 39.2578 41.2959 39.2959 41.3049 39.3437C41.3412 39.401 41.3684 39.4869 41.3774 39.6014C41.3774 39.6492 41.3865 39.6874 41.3956 39.7351C41.3956 39.7828 41.3956 39.8305 41.3956 39.8783V41.673C41.5134 41.568 41.6312 41.463 41.7399 41.358C41.8487 41.2434 41.9574 41.1289 42.0571 41.0048C42.2474 40.7947 42.4286 40.6038 42.6189 40.4033C42.8002 40.2124 42.9905 40.0119 43.1808 39.821L43.217 39.7924C43.2714 39.7351 43.3258 39.6778 43.3892 39.6205C43.4527 39.5632 43.507 39.5155 43.5614 39.4582C43.6701 39.3341 43.797 39.2482 43.9511 39.1909C44.0507 39.1241 44.1595 39.0955 44.2954 39.1146C44.3589 39.1146 44.4132 39.1337 44.4676 39.1623C44.522 39.1814 44.5673 39.21 44.6217 39.2482C44.6579 39.2864 44.6942 39.315 44.7304 39.3437C44.7667 39.3723 44.7938 39.401 44.812 39.4391C44.8663 39.4869 44.9026 39.5632 44.9207 39.6683C44.9207 39.7446 44.9026 39.821 44.8754 39.8878C44.8573 39.926 44.8301 39.9642 44.812 40.0024C44.7938 40.0406 44.7667 40.0788 44.7395 40.1169C44.7032 40.1647 44.676 40.2029 44.6488 40.2411C44.6217 40.2792 44.5854 40.3174 44.5582 40.3556C44.531 40.3938 44.5039 40.4224 44.4676 40.4511C44.4404 40.4797 44.4042 40.5179 44.377 40.5465L44.2411 40.6897L42.2836 42.79C42.3924 42.9045 42.5011 43.0191 42.6099 43.1337C42.7277 43.2578 42.8364 43.3723 42.9361 43.4869C43.0449 43.6014 43.1355 43.7064 43.2261 43.8019C43.3167 43.8974 43.3892 43.9833 43.4527 44.0501C43.643 44.2601 43.8242 44.4606 43.9964 44.6611C44.1686 44.8616 44.3407 45.0621 44.5129 45.2721L44.5492 45.3007C44.6035 45.358 44.6579 45.4248 44.7032 45.4821C44.7485 45.5489 44.7938 45.6062 44.8391 45.6635C44.9479 45.7876 45.0204 45.9212 45.0566 46.074H45.0657Z" fill="#00A9A7"/>
<path d="M51.7354 39.4103C51.8079 39.5058 51.8532 39.6012 51.8532 39.7062C51.8532 39.754 51.8532 39.7922 51.8532 39.8399C51.8532 39.8876 51.8532 39.9258 51.8351 39.964C51.8169 40.0404 51.7716 40.1263 51.6991 40.1931C51.6448 40.2408 51.5632 40.2695 51.4726 40.2886C51.4273 40.3077 51.3729 40.3172 51.3276 40.3172C51.2823 40.3172 51.2279 40.3363 51.1735 40.3459C51.1282 40.3459 51.0738 40.3554 51.0285 40.3554H50.3398C50.2129 40.3554 50.0861 40.365 49.9683 40.365H49.6058C49.6058 40.5941 49.6148 40.8327 49.6148 41.1C49.6148 41.3673 49.6148 41.6633 49.6148 42.007C49.6148 42.3506 49.6148 42.7516 49.6058 43.2098C49.6058 43.6681 49.6058 44.1931 49.6058 44.7945V45.6346C49.6058 45.711 49.6058 45.7587 49.6148 45.7969V45.8829C49.6148 45.8829 49.6148 45.9401 49.6058 45.9783C49.5877 46.0451 49.5786 46.1215 49.5786 46.2074C49.5786 46.2456 49.5786 46.2743 49.5695 46.3124C49.5695 46.3411 49.5514 46.3793 49.5333 46.4175C49.5061 46.4461 49.488 46.4652 49.488 46.4843L49.4608 46.5511C49.4245 46.6275 49.3611 46.6943 49.2614 46.7611C49.1074 46.8375 48.9352 46.8566 48.7449 46.8184C48.6271 46.7993 48.5365 46.7707 48.473 46.7229C48.4096 46.6561 48.3643 46.5893 48.3371 46.5225C48.2918 46.4461 48.2737 46.3602 48.2646 46.2934C48.2465 46.2265 48.2374 46.1597 48.2374 46.0833V40.4318H47.9746C47.8387 40.4318 47.7028 40.4318 47.5487 40.4318C47.3946 40.4318 47.2587 40.4318 47.1228 40.4127C46.9868 40.4127 46.8962 40.3936 46.8509 40.3936C46.8056 40.3936 46.7422 40.3745 46.6606 40.365C46.57 40.3459 46.5066 40.3363 46.4431 40.3172C46.2981 40.2695 46.1803 40.2027 46.0988 40.1072C46.0263 40.0117 45.981 39.9067 45.981 39.7922V39.6585C45.981 39.6585 45.981 39.5726 45.9991 39.5344C46.0172 39.4485 46.0716 39.3721 46.1622 39.3148C46.1894 39.2957 46.2347 39.2671 46.2891 39.2289C46.3434 39.1907 46.4069 39.1716 46.4612 39.1621C46.5428 39.1335 46.6516 39.1144 46.7784 39.0953C46.8328 39.0953 46.8872 39.0857 46.9415 39.0857H47.8115C48.029 39.0857 48.2646 39.0857 48.5093 39.0762C48.9171 39.0762 49.3158 39.0762 49.7145 39.0762C50.1133 39.0762 50.512 39.0857 50.9107 39.1048C51.0013 39.1048 51.092 39.1239 51.1735 39.1335C51.2551 39.1525 51.3457 39.1716 51.4273 39.2098C51.4907 39.2289 51.5451 39.2576 51.6085 39.2957C51.6629 39.3244 51.7082 39.3721 51.7444 39.4198L51.7354 39.4103Z" fill="#00A9A7"/>
<path d="M59.855 39.7636C60.1178 40.0214 60.3172 40.3269 60.444 40.6801C60.5709 41.0333 60.6162 41.3865 60.589 41.7398C60.5619 42.0739 60.4622 42.3889 60.29 42.6753C60.1178 42.9617 59.846 43.1717 59.4925 43.3245C59.2116 43.4486 58.9397 43.5345 58.6679 43.5918C58.396 43.6491 58.097 43.6873 57.7707 43.7159C57.6257 43.735 57.4989 43.735 57.3992 43.7445C57.2995 43.7541 57.1817 43.7445 57.0458 43.7636H56.9008C56.8373 43.7636 56.792 43.7636 56.7558 43.7732V46.0548C56.7377 46.198 56.7105 46.3412 56.6742 46.4844C56.647 46.6276 56.5655 46.7422 56.4295 46.8281C56.3571 46.8758 56.2574 46.8949 56.1486 46.9044C56.0399 46.914 55.9402 46.9044 55.8496 46.8949C55.7499 46.8758 55.6683 46.8567 55.6049 46.809C55.5415 46.7612 55.4871 46.6944 55.4418 46.5894C55.4146 46.5226 55.3874 46.4462 55.3602 46.3603C55.333 46.2744 55.324 46.1694 55.324 46.0453V39.945C55.324 39.8973 55.324 39.8495 55.333 39.8018C55.333 39.7541 55.3421 39.7159 55.3512 39.6682C55.3693 39.63 55.3783 39.5918 55.3874 39.5441C55.3874 39.4963 55.4055 39.4581 55.4146 39.42C55.4237 39.3818 55.4418 39.3531 55.4599 39.3245C55.478 39.2959 55.4962 39.2672 55.5324 39.2481C55.5687 39.2099 55.623 39.1813 55.6955 39.1527C55.768 39.124 55.8768 39.1049 56.0218 39.1049H56.0399C56.2574 39.0858 56.493 39.0763 56.7648 39.0667C57.0276 39.0572 57.2451 39.0667 57.4264 39.0858C57.5261 39.1049 57.6167 39.1049 57.6982 39.1145C57.7798 39.1145 57.8614 39.1145 57.9339 39.1336C58.0154 39.1336 58.106 39.1527 58.1876 39.1527C58.2691 39.1527 58.3507 39.1717 58.4413 39.1813C58.5138 39.2004 58.5773 39.2099 58.6316 39.2099C58.6951 39.2099 58.7494 39.229 58.8129 39.2386C58.8672 39.2577 58.9307 39.2672 58.9941 39.2863C59.0575 39.3054 59.121 39.3245 59.1754 39.3627C59.3203 39.4104 59.4472 39.4581 59.5378 39.525C59.6375 39.5918 59.7372 39.6682 59.8369 39.7445L59.855 39.7636ZM59.2207 41.5775C59.2207 41.4056 59.1935 41.2433 59.121 41.1192C59.0485 40.9951 58.9488 40.8806 58.8129 40.7851C58.6769 40.6896 58.5319 40.6228 58.3598 40.5751C58.1876 40.5274 58.0245 40.4892 57.8614 40.4605C57.816 40.4605 57.7617 40.4605 57.6892 40.4605C57.6167 40.4605 57.5351 40.4605 57.4536 40.451C57.372 40.451 57.2904 40.451 57.2179 40.4414C57.1455 40.4414 57.0911 40.4414 57.0458 40.4414C57.0095 40.4414 56.9733 40.4319 56.9189 40.4319H56.7558C56.7558 40.661 56.7648 40.8806 56.7648 41.0906V41.7684C56.7648 41.9021 56.7558 42.0357 56.7558 42.1694V42.5512H57.4083C57.5714 42.5417 57.7617 42.5321 57.961 42.5035C58.1604 42.4844 58.3507 42.4367 58.5319 42.3698C58.7132 42.303 58.8672 42.2075 58.9941 42.0834C59.121 41.9593 59.1935 41.797 59.2207 41.587V41.5775Z" fill="#00A9A7"/>
<path d="M62.8455 45.988C62.8455 45.988 62.8364 46.0549 62.8274 46.093C62.8183 46.1312 62.8274 46.1599 62.8274 46.1981L62.7639 46.4272C62.7639 46.4272 62.7367 46.4749 62.7367 46.4845L62.7005 46.5513C62.6642 46.6277 62.6008 46.6945 62.5102 46.7518C62.3471 46.8377 62.1658 46.8663 61.9755 46.8186C61.8577 46.7995 61.758 46.7709 61.6946 46.704C61.6221 46.6563 61.5768 46.5895 61.5496 46.5131C61.5224 46.4367 61.5043 46.3699 61.4862 46.2935C61.468 46.2172 61.459 46.1503 61.459 46.093V39.926C61.459 39.8783 61.459 39.8305 61.459 39.7923C61.459 39.7541 61.459 39.716 61.4771 39.6778C61.4771 39.63 61.4952 39.5823 61.5043 39.5441C61.5134 39.5059 61.5224 39.4677 61.5405 39.42C61.5587 39.3436 61.604 39.2864 61.6583 39.2482C61.7399 39.1814 61.8215 39.1432 61.903 39.1336C61.9483 39.1145 61.9936 39.1145 62.039 39.105C62.0843 39.105 62.1296 39.105 62.1839 39.105C62.2836 39.105 62.3924 39.1336 62.5192 39.1909C62.6189 39.2482 62.6914 39.3341 62.7277 39.4296C62.8002 39.5728 62.8364 39.716 62.8364 39.8401C62.8364 39.9164 62.8455 40.0214 62.8545 40.1742C62.8545 40.3174 62.8545 40.4319 62.8545 40.5083V40.5561C62.8636 40.7947 62.8727 41.0143 62.8727 41.2339C62.8727 41.4534 62.8727 41.6921 62.8636 41.9403C62.8636 42.1885 62.8636 42.4272 62.8636 42.6658C62.8636 42.895 62.8636 43.1241 62.8636 43.3532V45.6635C62.8636 45.6635 62.8636 45.7207 62.8636 45.7494C62.8636 45.778 62.8636 45.8067 62.8636 45.8353C62.8636 45.9117 62.8636 45.9594 62.8545 45.9976L62.8455 45.988Z" fill="#00A9A7"/>
<path d="M64.9299 42.2268C65.1383 42.1122 65.3558 42.0358 65.5914 41.9881C65.8179 41.9404 66.0536 41.9308 66.2801 41.9595C66.5067 41.9881 66.7242 42.0454 66.9326 42.1504C67.141 42.2554 67.3404 42.3891 67.5216 42.5704C67.7029 42.7614 67.8388 42.9714 67.9385 43.2005C68.0382 43.4296 68.1107 43.6778 68.1469 43.9642C68.1741 44.1552 68.2194 44.327 68.2828 44.4893C68.3463 44.6516 68.4097 44.8139 68.4822 44.9762C68.5547 45.1385 68.6272 45.3008 68.6906 45.463C68.7541 45.6253 68.8084 45.7972 68.8537 45.969C68.89 46.1409 68.8719 46.3031 68.8175 46.4559C68.7631 46.6086 68.6363 46.7136 68.455 46.7518C68.3463 46.7709 68.2556 46.7614 68.156 46.7232C68.0653 46.685 67.9747 46.6277 67.9022 46.5514C67.8297 46.475 67.7572 46.3891 67.7029 46.2936C67.6394 46.1981 67.5851 46.1122 67.5397 46.0358C67.3766 46.2554 67.2044 46.4272 67.0141 46.5514C66.8238 46.6755 66.5973 46.7518 66.3345 46.79C66.1079 46.8187 65.8995 46.8282 65.7001 46.8091C65.5008 46.79 65.2833 46.7518 65.0567 46.685C64.7577 46.6086 64.513 46.4654 64.3227 46.265C64.1324 46.0645 63.9874 45.8258 63.8877 45.5585C63.788 45.2912 63.7337 45.0048 63.7246 44.6898C63.7246 44.3843 63.7518 44.0788 63.8334 43.7733C63.933 43.3724 64.078 43.0573 64.2683 42.7996C64.4677 42.5514 64.6943 42.3604 64.948 42.2268H64.9299ZM65.1927 43.5156C65.093 43.6206 65.0205 43.7351 64.9661 43.8783C64.9117 44.0215 64.8755 44.1647 64.8664 44.3175C64.8574 44.4702 64.8664 44.623 64.9027 44.7757C64.9389 44.9284 64.9933 45.0621 65.0658 45.1862C65.1383 45.2912 65.2561 45.3771 65.4192 45.444C65.5823 45.5108 65.7636 45.5585 65.9448 45.5681C66.1532 45.5872 66.3345 45.5203 66.4976 45.3962C66.6517 45.2626 66.7695 45.1003 66.851 44.8998C66.9326 44.6993 66.9688 44.4798 66.9598 44.2506C66.9507 44.0215 66.8963 43.8115 66.7785 43.6206C66.697 43.4774 66.5882 43.3819 66.4523 43.3151C66.3164 43.2483 66.1714 43.2101 66.0173 43.2101C65.8633 43.2101 65.7092 43.2292 65.5642 43.2864C65.4102 43.3437 65.2923 43.4201 65.1927 43.5251V43.5156Z" fill="#00A9A7"/>
<path d="M72.5962 45.5488C72.7049 45.5488 72.8137 45.5488 72.9496 45.5488C73.0855 45.5488 73.2034 45.5679 73.3302 45.5774C73.448 45.5965 73.5658 45.6251 73.6655 45.6729C73.7652 45.7206 73.8377 45.7779 73.883 45.8447C73.9918 46.0357 74.0189 46.2075 73.9827 46.3602C73.9464 46.513 73.8649 46.6275 73.7471 46.7039C73.6202 46.7994 73.4752 46.8662 73.3121 46.8948C73.149 46.9235 72.9949 46.9426 72.8499 46.933C72.5599 46.9139 72.2609 46.9139 71.9437 46.933C71.6266 46.9426 71.3184 46.9521 71.0375 46.9617C70.9378 46.9617 70.8382 46.9617 70.7294 46.9617C70.6207 46.9617 70.521 46.9617 70.4213 46.9426C70.3216 46.9235 70.231 46.8853 70.1404 46.8376C70.0498 46.7898 69.9773 46.7039 69.9138 46.5989C69.8323 46.4557 69.8141 46.322 69.8594 46.1788C69.9048 46.0357 69.9591 45.902 70.0226 45.7779C70.1222 45.5965 70.2401 45.4151 70.376 45.2337C70.5119 45.0619 70.6297 44.9092 70.7294 44.7851L72.0343 42.9808L70.9741 43.0094H70.7113C70.6207 43.0094 70.521 43.0094 70.4213 42.9808C70.3216 42.9521 70.231 42.9426 70.1494 42.9044C70.0679 42.8757 69.9954 42.828 69.9319 42.7707C69.8685 42.7039 69.8232 42.6275 69.796 42.5416C69.7688 42.4557 69.7598 42.3698 69.7598 42.2839C69.7598 42.1979 69.7779 42.112 69.8141 42.0261C69.8413 41.9402 69.8866 41.8638 69.941 41.797C69.9863 41.7493 70.0407 41.7206 70.1041 41.6824C70.1676 41.6538 70.2491 41.6347 70.3307 41.6156C70.4122 41.5965 70.5029 41.5965 70.5844 41.587C70.675 41.587 70.7566 41.587 70.8291 41.587H71.3456C71.5359 41.587 71.7172 41.587 71.8984 41.587C72.0797 41.587 72.2428 41.587 72.3968 41.5774C72.5509 41.5679 72.6778 41.5774 72.7774 41.5774C72.9043 41.5774 73.0312 41.5774 73.158 41.5679C73.2849 41.5679 73.4027 41.5679 73.5115 41.5965C73.6202 41.6252 73.7199 41.6824 73.8015 41.7588C73.883 41.8352 73.9283 41.9593 73.9555 42.1311C73.9736 42.2457 73.9555 42.3507 73.9374 42.4557C73.9102 42.5607 73.8739 42.6657 73.8196 42.7612C73.7652 42.8567 73.7108 42.9617 73.6383 43.0571C73.5658 43.1526 73.5024 43.2481 73.4299 43.334L71.8078 45.5392H72.6234L72.5962 45.5488Z" fill="#00A9A7"/>
<path d="M76.058 42.2268C76.2665 42.1122 76.484 42.0358 76.7196 41.9881C76.9461 41.9404 77.1817 41.9308 77.4083 41.9595C77.6348 41.9881 77.8523 42.0454 78.0608 42.1504C78.2692 42.2554 78.4686 42.3891 78.6498 42.5704C78.831 42.7614 78.967 42.9714 79.0666 43.2005C79.1663 43.4296 79.2388 43.6778 79.2751 43.9642C79.3023 44.1552 79.3476 44.327 79.411 44.4893C79.4744 44.6516 79.5379 44.8139 79.6104 44.9762C79.6829 45.1385 79.7554 45.3008 79.8188 45.463C79.8822 45.6253 79.9366 45.7972 79.9819 45.969C80.0182 46.1409 80 46.3031 79.9457 46.4559C79.8913 46.6086 79.7644 46.7136 79.5832 46.7518C79.4744 46.7709 79.3838 46.7614 79.2841 46.7232C79.1935 46.685 79.1029 46.6277 79.0304 46.5514C78.9579 46.475 78.8854 46.3891 78.831 46.2936C78.7676 46.1981 78.7132 46.1122 78.6679 46.0358C78.5048 46.2554 78.3326 46.4272 78.1423 46.5514C77.952 46.6755 77.7255 46.7518 77.4627 46.79C77.2361 46.8187 77.0277 46.8282 76.8283 46.8091C76.629 46.79 76.4115 46.7518 76.1849 46.685C75.8859 46.6086 75.6412 46.4654 75.4509 46.265C75.2606 46.0645 75.1156 45.8258 75.0159 45.5585C74.9162 45.2912 74.8618 45.0048 74.8528 44.6898C74.8528 44.3843 74.88 44.0788 74.9615 43.7733C75.0612 43.3724 75.2062 43.0573 75.3965 42.7996C75.5959 42.5514 75.8224 42.3604 76.0762 42.2268H76.058ZM76.3208 43.5156C76.2212 43.6206 76.1487 43.7351 76.0943 43.8783C76.0399 44.0215 76.0037 44.1647 75.9946 44.3175C75.9855 44.4702 75.9946 44.623 76.0309 44.7757C76.0671 44.9284 76.1215 45.0621 76.194 45.1862C76.2665 45.2912 76.3843 45.3771 76.5474 45.444C76.7105 45.5108 76.8918 45.5585 77.073 45.5681C77.2814 45.5872 77.4627 45.5203 77.6258 45.3962C77.7798 45.2626 77.8976 45.1003 77.9792 44.8998C78.0608 44.6993 78.097 44.4798 78.0879 44.2506C78.0789 44.0215 78.0245 43.8115 77.9067 43.6206C77.8251 43.4774 77.7164 43.3819 77.5805 43.3151C77.4445 43.2483 77.2995 43.2101 77.1455 43.2101C76.9914 43.2101 76.8374 43.2292 76.6924 43.2864C76.5383 43.3437 76.4205 43.4201 76.3208 43.5251V43.5156Z" fill="#00A9A7"/>
</g>
<path d="M27.803 86.1533H91.3528" stroke="black" stroke-width="1.5" stroke-linecap="round" stroke-linejoin="round"/>
<path d="M84.8113 50.6411V86.1538H34.3452V50.6411" stroke="black" stroke-width="1.5" stroke-linejoin="round"/>
<path d="M70.7262 61.0972H48.4277C47.8754 61.0972 47.4277 61.5449 47.4277 62.0972V85.1497C47.4277 85.702 47.8755 86.1497 48.4277 86.1497H70.7262C71.2785 86.1497 71.7262 85.702 71.7262 85.1497V62.0972C71.7262 61.5449 71.2785 61.0972 70.7262 61.0972Z" stroke="black" stroke-width="1.5" stroke-linecap="round" stroke-linejoin="round"/>
<path d="M59.5779 61.564V85.6831" stroke="black" stroke-width="1.5" stroke-linecap="round" stroke-linejoin="round"/>
<path d="M85.6134 34.7539H33.54C32.4355 34.7539 31.54 35.6493 31.54 36.7539V48.6412C31.54 49.7457 32.4355 50.6412 33.54 50.6412H85.6134C86.718 50.6412 87.6134 49.7457 87.6134 48.6412V36.7539C87.6134 35.6493 86.718 34.7539 85.6134 34.7539Z" stroke="black" stroke-width="1.5" stroke-linecap="round" stroke-linejoin="round"/>
</g>
<defs>
<clipPath id="clip0_6177_4989">
<rect width="120" height="120" fill="white"/>
</clipPath>
<clipPath id="clip1_6177_4989">
<rect width="40" height="8" fill="white" transform="translate(40 39)"/>
</clipPath>
</defs>
</svg>
