<svg width="120" height="120" viewBox="0 0 120 120" fill="none" xmlns="http://www.w3.org/2000/svg">
<rect width="120" height="120" rx="60" fill="#00A9A7"/>
<rect x="38.6096" y="29.8541" width="39.3448" height="50.8649" rx="3.25" stroke="white" stroke-width="1.5"/>
<path d="M82.1404 85.9214H63.8999V90.896H82.1404V85.9214Z" fill="#00A9A7" stroke="white" stroke-width="1.5" stroke-linejoin="round"/>
<path d="M63.8997 85.9209C58.4944 80.0154 55.393 76.5928 54.5954 75.6532C53.3989 74.2437 53.9014 72.6518 56.8961 72.6518C59.8909 72.6518 61.618 77.0336 63.8997 77.0336C63.9135 77.037 63.9143 71.433 63.9022 60.2217C63.9017 59.8949 63.9657 59.5712 64.0904 59.2692C64.2151 58.9671 64.3981 58.6926 64.6289 58.4613C64.8598 58.23 65.1339 58.0465 65.4357 57.9211C65.7375 57.7958 66.0611 57.7312 66.3878 57.731H66.3903C66.7175 57.7309 67.0414 57.7953 67.3437 57.9204C67.646 58.0455 67.9207 58.2289 68.152 58.4602C68.3834 58.6915 68.5669 58.9661 68.6922 59.2684C68.8174 59.5706 68.8818 59.8945 68.8818 60.2217V66.8629C75.4915 67.8645 79.0852 68.4172 79.6628 68.5211C80.5292 68.677 82.1402 69.5044 82.1402 71.8823V85.9209H63.8997Z" fill="#00A9A7" stroke="white" stroke-width="1.5" stroke-linejoin="round"/>
<path d="M47.4329 40.3625H61.0478" stroke="white" stroke-width="1.5" stroke-linecap="round" stroke-linejoin="round"/>
<path d="M47.4329 48.7412H68.3789" stroke="white" stroke-width="1.5" stroke-linecap="round" stroke-linejoin="round"/>
</svg>
