<svg width="17" height="19" viewBox="0 0 17 19" fill="none" xmlns="http://www.w3.org/2000/svg">
<path d="M8.62514 10.6507L10.1254 12.2859C10.677 12.834 11.4095 12.4354 11.4095 12.4354L12.8304 11.7469C13.1745 11.5566 13.3599 11.8239 13.3599 11.8239L15.8354 14.1476C16.0692 14.4012 15.9854 14.7409 15.9854 14.7409C15.5221 16.4848 13.4702 17.7441 13.4702 17.7441C11.1139 19.2615 5.69516 13.5361 5.69516 13.5361L4.94502 12.7162C4.94502 12.7162 -0.288346 6.8051 1.3002 4.44972C1.3002 4.44972 2.62398 2.39328 4.33166 2.00827C4.33166 2.00827 4.66702 1.94032 4.89648 2.19398L7.0013 4.8755C7.0013 4.8755 7.2484 5.07933 7.04542 5.42358L6.3041 6.85493C6.3041 6.85493 5.87608 7.58872 6.37912 8.19116L7.87941 9.83087L8.62955 10.6507H8.62514Z" stroke="#636363" stroke-miterlimit="10" stroke-linejoin="round"/>
</svg>
