<svg width="120" height="120" viewBox="0 0 120 120" fill="none" xmlns="http://www.w3.org/2000/svg">
<rect width="120" height="120" rx="60" fill="#00A9A7"/>
<path d="M35.9999 49.4582C38.9929 49.4582 41.4193 47.0319 41.4193 44.0388C41.4193 41.0458 38.9929 38.6195 35.9999 38.6195C33.0069 38.6195 30.5806 41.0458 30.5806 44.0388C30.5806 47.0319 33.0069 49.4582 35.9999 49.4582Z" stroke="white" stroke-width="1.5" stroke-linecap="round" stroke-linejoin="round"/>
<path d="M24 63.7808C24 57.1537 29.3729 51.7808 36 51.7808" stroke="white" stroke-width="1.5" stroke-linecap="round" stroke-linejoin="round"/>
<path d="M36 51.7808C42.6271 51.7808 48 57.1537 48 63.7808" stroke="white" stroke-width="1.5" stroke-linecap="round" stroke-linejoin="round"/>
<path d="M59.9999 67.4582C62.9929 67.4582 65.4193 65.0319 65.4193 62.0388C65.4193 59.0458 62.9929 56.6195 59.9999 56.6195C57.0069 56.6195 54.5806 59.0458 54.5806 62.0388C54.5806 65.0319 57.0069 67.4582 59.9999 67.4582Z" stroke="white" stroke-width="1.5" stroke-linecap="round" stroke-linejoin="round"/>
<path d="M48 81.7808C48 75.1537 53.3729 69.7808 60 69.7808" stroke="white" stroke-width="1.5" stroke-linecap="round" stroke-linejoin="round"/>
<path d="M60 69.7808C66.6271 69.7808 72 75.1537 72 81.7808" stroke="white" stroke-width="1.5" stroke-linecap="round" stroke-linejoin="round"/>
<path d="M83.9999 49.0583C86.9929 49.0583 89.4193 46.632 89.4193 43.6389C89.4193 40.6459 86.9929 38.2196 83.9999 38.2196C81.0069 38.2196 78.5806 40.6459 78.5806 43.6389C78.5806 46.632 81.0069 49.0583 83.9999 49.0583Z" stroke="white" stroke-width="1.5" stroke-linecap="round" stroke-linejoin="round"/>
<path d="M72 63.3809C72 56.7538 77.3729 51.3809 84 51.3809" stroke="white" stroke-width="1.5" stroke-linecap="round" stroke-linejoin="round"/>
<path d="M84 51.3809C90.6271 51.3809 96 56.7538 96 63.3809" stroke="white" stroke-width="1.5" stroke-linecap="round" stroke-linejoin="round"/>
</svg>
