<svg width="120" height="120" viewBox="0 0 120 120" fill="none" xmlns="http://www.w3.org/2000/svg">
<rect width="120" height="120" rx="60" fill="#F6F6F6"/>
<rect x="38.6094" y="29.8541" width="39.3448" height="50.8649" rx="3.25" stroke="#222222" stroke-width="1.5"/>
<path d="M82.1399 85.9214H63.8994V90.896H82.1399V85.9214Z" fill="#F6F6F6" stroke="#222222" stroke-width="1.5" stroke-linejoin="round"/>
<path d="M63.8994 85.9209C58.4942 80.0154 55.3927 76.5928 54.5951 75.6532C53.3987 74.2437 53.9011 72.6518 56.8959 72.6518C59.8907 72.6518 61.6177 77.0336 63.8994 77.0336C63.9132 77.037 63.9141 71.433 63.9019 60.2217C63.9015 59.8949 63.9654 59.5712 64.0901 59.2692C64.2148 58.9671 64.3978 58.6926 64.6287 58.4613C64.8595 58.23 65.1337 58.0465 65.4355 57.9211C65.7373 57.7958 66.0608 57.7312 66.3876 57.731H66.3901C66.7172 57.7309 67.0412 57.7953 67.3435 57.9204C67.6458 58.0455 67.9204 58.2289 68.1518 58.4602C68.3832 58.6915 68.5667 58.9661 68.6919 59.2684C68.8171 59.5706 68.8816 59.8945 68.8816 60.2217V66.8629C75.4913 67.8645 79.0849 68.4172 79.6626 68.5211C80.529 68.677 82.1399 69.5044 82.1399 71.8823V85.9209H63.8994Z" fill="#F6F6F6" stroke="#222222" stroke-width="1.5" stroke-linejoin="round"/>
<path d="M47.4326 40.3625H61.0476" stroke="#00A9A7" stroke-width="1.5" stroke-linecap="round" stroke-linejoin="round"/>
<path d="M47.4326 48.7412H68.3787" stroke="#00A9A7" stroke-width="1.5" stroke-linecap="round" stroke-linejoin="round"/>
</svg>
