<svg width="87" height="88" viewBox="0 0 87 88" fill="none" xmlns="http://www.w3.org/2000/svg">
<rect y="0.5" width="87" height="87" rx="43.5" fill="white"/>
<path d="M28.2322 55.7322C27.2559 56.7085 27.2559 58.2915 28.2322 59.2678C29.2085 60.2441 30.7915 60.2441 31.7678 59.2678L28.2322 55.7322ZM59.5 30.5C59.5 29.1193 58.3807 28 57 28H34.5C33.1193 28 32 29.1193 32 30.5C32 31.8807 33.1193 33 34.5 33H54.5V53C54.5 54.3807 55.6193 55.5 57 55.5C58.3807 55.5 59.5 54.3807 59.5 53V30.5ZM30 57.5L31.7678 59.2678L58.7678 32.2678L57 30.5L55.2322 28.7322L28.2322 55.7322L30 57.5Z" fill="#EC1B23"/>
</svg>
