<svg width="40" height="40" viewBox="0 0 40 40" fill="none" xmlns="http://www.w3.org/2000/svg">
<path d="M10.9393 26.9393C10.3536 27.5251 10.3536 28.4749 10.9393 29.0607C11.5251 29.6464 12.4749 29.6464 13.0607 29.0607L10.9393 26.9393ZM29.5 12C29.5 11.1716 28.8284 10.5 28 10.5L14.5 10.5C13.6716 10.5 13 11.1716 13 12C13 12.8284 13.6716 13.5 14.5 13.5H26.5V25.5C26.5 26.3284 27.1716 27 28 27C28.8284 27 29.5 26.3284 29.5 25.5L29.5 12ZM12 28L13.0607 29.0607L29.0607 13.0607L28 12L26.9393 10.9393L10.9393 26.9393L12 28Z" fill="#E0E0E0"/>
</svg>
