<svg width="21" height="21" viewBox="0 0 21 21" fill="none" xmlns="http://www.w3.org/2000/svg">
<path d="M5.96967 13.9697C5.67678 14.2626 5.67678 14.7374 5.96967 15.0303C6.26256 15.3232 6.73744 15.3232 7.03033 15.0303L5.96967 13.9697ZM15.25 6.5C15.25 6.08579 14.9142 5.75 14.5 5.75L7.75 5.75C7.33579 5.75 7 6.08579 7 6.5C7 6.91421 7.33579 7.25 7.75 7.25H13.75V13.25C13.75 13.6642 14.0858 14 14.5 14C14.9142 14 15.25 13.6642 15.25 13.25L15.25 6.5ZM6.5 14.5L7.03033 15.0303L15.0303 7.03033L14.5 6.5L13.9697 5.96967L5.96967 13.9697L6.5 14.5Z" fill="white"/>
</svg>
