<svg width="14" height="14" viewBox="0 0 14 14" fill="none" xmlns="http://www.w3.org/2000/svg">
<path d="M0.792893 11.7929C0.402369 12.1834 0.402369 12.8166 0.792893 13.2071C1.18342 13.5976 1.81658 13.5976 2.20711 13.2071L0.792893 11.7929ZM13.5 1.5C13.5 0.947714 13.0523 0.499999 12.5 0.5L3.5 0.499999C2.94772 0.499999 2.5 0.947715 2.5 1.5C2.5 2.05228 2.94772 2.5 3.5 2.5L11.5 2.5L11.5 10.5C11.5 11.0523 11.9477 11.5 12.5 11.5C13.0523 11.5 13.5 11.0523 13.5 10.5L13.5 1.5ZM1.5 12.5L2.20711 13.2071L13.2071 2.20711L12.5 1.5L11.7929 0.792892L0.792893 11.7929L1.5 12.5Z" fill="black"/>
</svg>
