<svg width="40" height="40" viewBox="0 0 40 40" fill="none" xmlns="http://www.w3.org/2000/svg">
<path d="M9.26256 28.2626C8.57915 28.946 8.57915 30.054 9.26256 30.7374C9.94598 31.4209 11.054 31.4209 11.7374 30.7374L9.26256 28.2626ZM31.25 10.5C31.25 9.5335 30.4665 8.75 29.5 8.75L13.75 8.75C12.7835 8.75 12 9.5335 12 10.5C12 11.4665 12.7835 12.25 13.75 12.25H27.75V26.25C27.75 27.2165 28.5335 28 29.5 28C30.4665 28 31.25 27.2165 31.25 26.25L31.25 10.5ZM10.5 29.5L11.7374 30.7374L30.7374 11.7374L29.5 10.5L28.2626 9.26256L9.26256 28.2626L10.5 29.5Z" fill="#EC1B23"/>
</svg>
