<svg width="20" height="21" viewBox="0 0 20 21" fill="none" xmlns="http://www.w3.org/2000/svg">
<path d="M5.46967 13.9697C5.17678 14.2626 5.17678 14.7374 5.46967 15.0303C5.76256 15.3232 6.23744 15.3232 6.53033 15.0303L5.46967 13.9697ZM14.75 6.5C14.75 6.08579 14.4142 5.75 14 5.75L7.25 5.75C6.83579 5.75 6.5 6.08579 6.5 6.5C6.5 6.91421 6.83579 7.25 7.25 7.25H13.25V13.25C13.25 13.6642 13.5858 14 14 14C14.4142 14 14.75 13.6642 14.75 13.25L14.75 6.5ZM6 14.5L6.53033 15.0303L14.5303 7.03033L14 6.5L13.4697 5.96967L5.46967 13.9697L6 14.5Z" fill="#EC1B23"/>
</svg>
