<svg width="20" height="20" viewBox="0 0 20 20" fill="none" xmlns="http://www.w3.org/2000/svg">
<path d="M0.93934 16.9393C0.353553 17.5251 0.353553 18.4749 0.93934 19.0607C1.52513 19.6464 2.47487 19.6464 3.06066 19.0607L0.93934 16.9393ZM19.5 2C19.5 1.17157 18.8284 0.500001 18 0.500001L4.5 0.500001C3.67157 0.5 3 1.17157 3 2C3 2.82843 3.67157 3.5 4.5 3.5H16.5V15.5C16.5 16.3284 17.1716 17 18 17C18.8284 17 19.5 16.3284 19.5 15.5L19.5 2ZM2 18L3.06066 19.0607L19.0607 3.06066L18 2L16.9393 0.93934L0.93934 16.9393L2 18Z" fill="#E0E0E0"/>
</svg>
