<svg width="23" height="24" viewBox="0 0 23 24" fill="none" xmlns="http://www.w3.org/2000/svg">
<path d="M0.762563 20.2626C0.0791457 20.946 0.0791457 22.054 0.762563 22.7374C1.44598 23.4209 2.55402 23.4209 3.23744 22.7374L0.762563 20.2626ZM22.75 2.5C22.75 1.5335 21.9665 0.750001 21 0.75L5.25 0.750001C4.2835 0.750002 3.5 1.5335 3.5 2.5C3.5 3.4665 4.2835 4.25 5.25 4.25H19.25V18.25C19.25 19.2165 20.0335 20 21 20C21.9665 20 22.75 19.2165 22.75 18.25L22.75 2.5ZM2 21.5L3.23744 22.7374L22.2374 3.73744L21 2.5L19.7626 1.26256L0.762563 20.2626L2 21.5Z" fill="#EC1B23"/>
</svg>
