<svg width="47" height="46" viewBox="0 0 47 46" fill="none" xmlns="http://www.w3.org/2000/svg">
<path d="M22.6665 24C28.1894 24 32.6665 19.5228 32.6665 14C32.6665 8.47715 28.1894 4 22.6665 4C17.1437 4 12.6665 8.47715 12.6665 14C12.6665 19.5228 17.1437 24 22.6665 24Z" stroke="#363636" stroke-width="1.5" stroke-linecap="round" stroke-linejoin="round"/>
<path d="M30.6665 39C33.9802 39 36.6665 36.3137 36.6665 33C36.6665 29.6863 33.9802 27 30.6665 27C27.3528 27 24.6665 29.6863 24.6665 33C24.6665 36.3137 27.3528 39 30.6665 39Z" stroke="#05A4BC" stroke-width="1.5" stroke-linecap="round" stroke-linejoin="round"/>
<path d="M7.6665 42C7.6665 33.7191 14.3856 27 22.6665 27" stroke="#363636" stroke-width="1.5" stroke-linecap="round" stroke-linejoin="round"/>
<path d="M35.6665 37L39.6665 41" stroke="#05A4BC" stroke-width="1.5" stroke-linecap="round" stroke-linejoin="round"/>
</svg>
