<svg width="46" height="46" viewBox="0 0 46 46" fill="none" xmlns="http://www.w3.org/2000/svg">
<path d="M16 38H19" stroke="white" stroke-width="1.5" stroke-linecap="round" stroke-linejoin="round"/>
<path d="M25 17C25.6341 18.2056 26 19.5577 26 21C26 22.4423 25.6463 23.7831 25 25" stroke="white" stroke-width="1.5" stroke-linecap="round" stroke-linejoin="round"/>
<path d="M31 14C31.637 15.9633 32 18.1706 32 20.5C32 22.8294 31.6444 25.0367 31 27" stroke="white" stroke-width="1.5" stroke-linecap="round" stroke-linejoin="round"/>
<path d="M37 11C38.2772 13.8673 39 17.0917 39 20.5C39 23.9083 38.2772 27.1327 37 30" stroke="white" stroke-width="1.5" stroke-linecap="round" stroke-linejoin="round"/>
<path d="M29 30.0191V38.8975C29 40.6138 27.6014 42 25.8698 42H10.1302C8.39859 42 7 40.6138 7 38.8975V7.10249C7 5.38622 8.39859 4 10.1302 4H25.8698C27.6014 4 29 5.38622 29 7.10249V11.3932" stroke="white" stroke-width="1.5" stroke-linecap="round" stroke-linejoin="round"/>
</svg>
