<svg width="46" height="46" viewBox="0 0 46 46" fill="none" xmlns="http://www.w3.org/2000/svg">
<path d="M16.08 7H29.93C36.04 7 41.01 11.96 41.01 18.08V39.33H16.08C9.97 39.33 5 34.37 5 28.25V18.07C5 11.96 9.96 7 16.08 7Z" stroke="white" stroke-width="1.5" stroke-linecap="round" stroke-linejoin="round"/>
<path d="M17.5398 25.1109C18.6168 25.1109 19.4898 24.2379 19.4898 23.1609C19.4898 22.084 18.6168 21.2109 17.5398 21.2109C16.4629 21.2109 15.5898 22.084 15.5898 23.1609C15.5898 24.2379 16.4629 25.1109 17.5398 25.1109Z" stroke="white" stroke-width="1.5" stroke-linecap="round" stroke-linejoin="round"/>
<path d="M28.4598 25.1109C29.5367 25.1109 30.4098 24.2379 30.4098 23.1609C30.4098 22.084 29.5367 21.2109 28.4598 21.2109C27.3828 21.2109 26.5098 22.084 26.5098 23.1609C26.5098 24.2379 27.3828 25.1109 28.4598 25.1109Z" stroke="white" stroke-width="1.5" stroke-linecap="round" stroke-linejoin="round"/>
</svg>
