<svg width="47" height="46" viewBox="0 0 47 46" fill="none" xmlns="http://www.w3.org/2000/svg">
<path d="M16.3333 38H19.3333" stroke="black" stroke-width="1.5" stroke-linecap="round" stroke-linejoin="round"/>
<path d="M25.3333 17C25.9674 18.2056 26.3333 19.5577 26.3333 21C26.3333 22.4423 25.9796 23.7831 25.3333 25" stroke="#05A4BC" stroke-width="1.5" stroke-linecap="round" stroke-linejoin="round"/>
<path d="M31.3333 14C31.9703 15.9633 32.3333 18.1706 32.3333 20.5C32.3333 22.8294 31.9777 25.0367 31.3333 27" stroke="#05A4BC" stroke-width="1.5" stroke-linecap="round" stroke-linejoin="round"/>
<path d="M37.3333 11C38.6105 13.8673 39.3333 17.0917 39.3333 20.5C39.3333 23.9083 38.6105 27.1327 37.3333 30" stroke="#05A4BC" stroke-width="1.5" stroke-linecap="round" stroke-linejoin="round"/>
<path d="M29.3333 30.0191V38.8975C29.3333 40.6138 27.9347 42 26.2031 42H10.4634C8.73184 42 7.33325 40.6138 7.33325 38.8975V7.10249C7.33325 5.38622 8.73184 4 10.4634 4H26.2031C27.9347 4 29.3333 5.38622 29.3333 7.10249V11.3932" stroke="black" stroke-width="1.5" stroke-linecap="round" stroke-linejoin="round"/>
</svg>
