<svg width="46" height="46" viewBox="0 0 46 46" fill="none" xmlns="http://www.w3.org/2000/svg">
<path d="M22 24C27.5229 24 32 19.5228 32 14C32 8.47715 27.5229 4 22 4C16.4772 4 12 8.47715 12 14C12 19.5228 16.4772 24 22 24Z" stroke="white" stroke-width="1.5" stroke-linecap="round" stroke-linejoin="round"/>
<path d="M30 39C33.3137 39 36 36.3137 36 33C36 29.6863 33.3137 27 30 27C26.6863 27 24 29.6863 24 33C24 36.3137 26.6863 39 30 39Z" stroke="white" stroke-width="1.5" stroke-linecap="round" stroke-linejoin="round"/>
<path d="M7 42C7 33.7191 13.7191 27 22 27" stroke="white" stroke-width="1.5" stroke-linecap="round" stroke-linejoin="round"/>
<path d="M35 37L39 41" stroke="white" stroke-width="1.5" stroke-linecap="round" stroke-linejoin="round"/>
</svg>
