<?xml version="1.0" encoding="utf-8"?>
<!-- Generator: Adobe Illustrator 16.0.0, SVG Export Plug-In . SVG Version: 6.00 Build 0)  -->
<!DOCTYPE svg PUBLIC "-//W3C//DTD SVG 1.1//EN" "http://www.w3.org/Graphics/SVG/1.1/DTD/svg11.dtd">
<svg version="1.1" id="Layer_1" xmlns="http://www.w3.org/2000/svg" xmlns:xlink="http://www.w3.org/1999/xlink" x="0px" y="0px"
	 width="32px" height="29.615px" viewBox="0 0 32 29.615" enable-background="new 0 0 32 29.615" xml:space="preserve">
<path fill="#fff" d="M19.415,8.722H7.133c-0.343,0-0.62-0.277-0.62-0.619c0-0.342,0.277-0.619,0.62-0.619h12.282
	c0.342,0,0.619,0.277,0.619,0.619C20.035,8.444,19.756,8.722,19.415,8.722z"/>
<path fill="#fff" d="M13.275,12.697H7.133c-0.343,0-0.62-0.277-0.62-0.619c0-0.341,0.277-0.618,0.62-0.618h6.142
	c0.342,0,0.617,0.277,0.617,0.618C13.892,12.42,13.617,12.697,13.275,12.697z"/>
<path fill="#fff" d="M27.927,29.614c-0.086,0-0.172-0.003-0.256-0.01c-0.047,0.007-0.096,0.01-0.145,0.01H3.675
	C1.648,29.614,0,27.965,0,25.938V3.675C0,1.648,1.648,0,3.675,0h19.083c2.027,0,3.678,1.648,3.678,3.675v3.481h1.89
	c2.026,0,3.677,1.648,3.677,3.675V25.54C32,27.787,30.172,29.614,27.927,29.614z M26.435,9.735V25.54
	c0,0.824,0.67,1.494,1.492,1.494s1.493-0.67,1.493-1.494V10.831c0-0.604-0.491-1.096-1.097-1.096H26.435z M3.675,2.579
	c-0.604,0-1.095,0.492-1.095,1.096v22.264c0,0.604,0.491,1.097,1.095,1.097h20.463c-0.184-0.463-0.283-0.968-0.283-1.494V3.675
	c0-0.604-0.491-1.096-1.098-1.096H3.675z"/>
<path fill="#fff" d="M20.039,24.363c-0.08,0-0.161-0.017-0.238-0.048c-0.314-0.133-0.465-0.494-0.334-0.811l0,0
	c0,0,0.028-0.09,0.028-0.218c0-0.022-0.009-0.565-0.728-0.892c-1.088-0.491-2.383-1.25-2.383-2.066c0-0.439,0.238-0.796,0.448-1.111
	c0.088-0.131,0.179-0.268,0.22-0.365c0.117-0.289,0.154-0.438,0.162-0.473c0.021-0.104,0.072-0.212,0.141-0.292
	c0.113-0.13,0.229-0.297,0.302-0.425c-0.026-0.021-0.052-0.045-0.073-0.071c-0.119-0.138-0.172-0.321-0.143-0.503
	c0.068-0.429,0.103-1.26-0.096-1.656c-0.147-0.296-0.563-0.445-1.229-0.445h-0.232c-0.666,0-1.08,0.149-1.229,0.445
	c-0.198,0.396-0.163,1.229-0.096,1.656c0.031,0.186-0.023,0.373-0.148,0.514c-0.021,0.021-0.044,0.045-0.068,0.063
	c0.075,0.127,0.2,0.304,0.303,0.421c0.074,0.087,0.125,0.192,0.145,0.307c0.006,0.023,0.042,0.172,0.16,0.459
	c0.04,0.099,0.131,0.234,0.219,0.365c0.21,0.315,0.449,0.672,0.449,1.111c0,0.816-1.296,1.574-2.383,2.066
	c-0.72,0.324-0.728,0.867-0.728,0.892c0,0.137,0.032,0.229,0.032,0.229c0.115,0.316-0.042,0.674-0.355,0.797
	c-0.312,0.119-0.664-0.021-0.793-0.334c-0.021-0.051-0.123-0.315-0.123-0.692c0-0.628,0.382-1.534,1.458-2.021
	c0.847-0.384,1.444-0.797,1.631-1.004c-0.045-0.099-0.149-0.256-0.219-0.356c-0.121-0.183-0.248-0.372-0.336-0.587
	c-0.098-0.24-0.156-0.418-0.189-0.537c-0.225-0.279-0.568-0.782-0.568-1.244c0-0.333,0.125-0.55,0.246-0.682
	c-0.041-0.514-0.049-1.363,0.26-1.979c0.375-0.75,1.161-1.131,2.336-1.131h0.232c1.175,0,1.961,0.381,2.336,1.13
	c0.309,0.615,0.3,1.466,0.26,1.979c0.121,0.132,0.246,0.349,0.246,0.682c0,0.462-0.345,0.965-0.568,1.244
	c-0.033,0.119-0.092,0.295-0.189,0.535c-0.088,0.217-0.215,0.406-0.336,0.589c-0.068,0.102-0.172,0.257-0.219,0.358
	c0.187,0.205,0.787,0.619,1.632,1.002c1.075,0.485,1.456,1.393,1.456,2.021c0,0.378-0.104,0.644-0.125,0.694
	C20.509,24.22,20.281,24.363,20.039,24.363z"/>
</svg>
