<?xml version="1.0" encoding="utf-8"?>
<!-- Generator: Adobe Illustrator 16.0.0, SVG Export Plug-In . SVG Version: 6.00 Build 0)  -->
<!DOCTYPE svg PUBLIC "-//W3C//DTD SVG 1.1//EN" "http://www.w3.org/Graphics/SVG/1.1/DTD/svg11.dtd">
<svg version="1.1" id="Layer_1" xmlns="http://www.w3.org/2000/svg" xmlns:xlink="http://www.w3.org/1999/xlink" x="0px" y="0px"
	 width="30.039px" height="27.543px" viewBox="0 0 30.039 27.543" enable-background="new 0 0 30.039 27.543" xml:space="preserve">
<path fill="#fff" d="M29.999,9.086c-0.128-0.793-0.558-1.489-1.208-1.959c-0.627-0.453-1.387-0.637-2.145-0.536L26.068,3.01
	c-0.152-0.943-0.662-1.771-1.438-2.33c-0.774-0.56-1.721-0.786-2.664-0.632c-1.147,0.186-2.134,0.914-2.637,1.947
	c-0.781,1.6-2.56,4.259-5.841,5.134c-0.532-0.904-1.574-1.449-2.695-1.272L4.626,6.852C3.243,7.076,2.293,8.344,2.429,9.72
	c-0.658,0.284-1.237,0.728-1.667,1.323c-0.628,0.869-0.88,1.932-0.708,2.99l0.032,0.21c0.298,1.849,1.825,3.185,3.61,3.345
	c0.269,1.205,1.32,2.066,2.569,2.066c0.14,0,0.28-0.012,0.423-0.033l0.082-0.014c0.09,0.607,0.213,1.373,0.342,1.98
	c0.242,1.151,0.57,2.436,0.947,3.713c0.25,0.844,0.848,1.549,1.64,1.932c0.427,0.207,0.894,0.311,1.359,0.311
	c0.399,0,0.799-0.076,1.178-0.229c1.429-0.576,2.217-2.086,1.875-3.588c-0.073-0.324-0.195-0.631-0.361-0.91
	c-0.559-0.938-0.895-1.814-1.025-2.68c-0.084-0.547-0.59-0.92-1.141-0.838c-0.546,0.084-0.921,0.594-0.837,1.141
	c0.173,1.123,0.592,2.234,1.284,3.4c0.06,0.1,0.104,0.211,0.13,0.33c0.125,0.549-0.151,1.08-0.672,1.289
	c-0.304,0.123-0.63,0.112-0.92-0.027c-0.29-0.141-0.5-0.389-0.592-0.697c-0.362-1.227-0.676-2.457-0.908-3.559
	c-0.119-0.564-0.236-1.303-0.324-1.887l4.108-0.662c1.439-0.234,2.422-1.595,2.189-3.031l-1.049-6.506
	c4.055-1.062,6.193-4.292,7.133-6.219c0.221-0.449,0.652-0.767,1.158-0.849c0.418-0.064,0.834,0.032,1.175,0.278
	c0.343,0.247,0.567,0.611,0.634,1.027l2.18,13.518c0.068,0.413-0.03,0.832-0.276,1.174c-0.247,0.342-0.61,0.565-1.028,0.633
	c-0.503,0.084-1.016-0.082-1.365-0.44c-1.047-1.07-3.254-2.951-6.279-3.517c-0.549-0.094-1.066,0.259-1.167,0.8
	c-0.103,0.543,0.257,1.065,0.8,1.168c2.486,0.463,4.336,2.045,5.217,2.946c0.67,0.687,1.59,1.063,2.541,1.063
	c0.191,0,0.383-0.016,0.574-0.047c0.943-0.151,1.771-0.662,2.33-1.438c0.561-0.773,0.783-1.721,0.631-2.664l-0.646-4.015
	C29.185,12.203,30.259,10.691,29.999,9.086z M1.271,14.05l-0.033-0.207c-0.12-0.744,0.056-1.488,0.497-2.098
	c0.237-0.328,0.538-0.591,0.878-0.787l0.87,5.393C2.371,16.119,1.461,15.235,1.271,14.05z M12.536,16.652L6.37,17.646
	c-0.357,0.059-0.684-0.189-0.738-0.533L4.413,9.564C4.355,9.212,4.596,8.882,4.945,8.826l6.167-0.994
	c0.035-0.006,0.068-0.009,0.104-0.009c0.313,0,0.584,0.233,0.635,0.542l1.217,7.55C13.125,16.264,12.884,16.596,12.536,16.652z
	 M27.41,11.326l-0.572-3.549c0.443-0.048,0.887,0.06,1.251,0.324c0.392,0.282,0.65,0.701,0.728,1.177
	C28.968,10.23,28.341,11.125,27.41,11.326z"/>
</svg>
