<?xml version="1.0" encoding="utf-8"?>
<!-- Generator: Adobe Illustrator 16.0.0, SVG Export Plug-In . SVG Version: 6.00 Build 0)  -->
<!DOCTYPE svg PUBLIC "-//W3C//DTD SVG 1.1//EN" "http://www.w3.org/Graphics/SVG/1.1/DTD/svg11.dtd">
<svg version="1.1" id="Layer_1" xmlns="http://www.w3.org/2000/svg" xmlns:xlink="http://www.w3.org/1999/xlink" x="0px" y="0px"
	 width="40.061px" height="33.454px" viewBox="0 0 40.061 33.454" enable-background="new 0 0 40.061 33.454" xml:space="preserve">
<g>
	<path fill="#fff" d="M34.784,13.617h-8.463c-0.332,0-0.601-0.268-0.601-0.6c0-0.33,0.269-0.6,0.601-0.6h8.463
		c0.331,0,0.6,0.27,0.6,0.6C35.384,13.35,35.115,13.617,34.784,13.617z"/>
	<path fill="#fff" d="M13.157,13.646H4.33c-0.332,0-0.6-0.268-0.6-0.6c0-0.33,0.269-0.6,0.6-0.6h8.828
		c0.332,0,0.601,0.27,0.601,0.6C13.758,13.379,13.489,13.646,13.157,13.646z"/>
	<path fill="#fff" d="M32.882,18.715h-6.561c-0.332,0-0.601-0.268-0.601-0.6c0-0.33,0.269-0.601,0.601-0.601h6.561
		c0.331,0,0.601,0.271,0.601,0.601C33.481,18.448,33.213,18.715,32.882,18.715z"/>
	<path fill="#fff" d="M13.157,18.715h-6.41c-0.332,0-0.6-0.268-0.6-0.6c0-0.33,0.269-0.601,0.6-0.601h6.411
		c0.332,0,0.601,0.271,0.601,0.601C13.758,18.448,13.489,18.715,13.157,18.715z"/>
	<path fill="#fff" d="M30.206,23.786h-4.184c-0.332,0-0.602-0.271-0.602-0.6c0-0.332,0.27-0.601,0.602-0.601h4.184
		c0.332,0,0.602,0.269,0.602,0.601C30.807,23.515,30.538,23.786,30.206,23.786z"/>
	<path fill="#fff" d="M4.33,18.715H0.6c-0.332,0-0.601-0.268-0.601-0.6c0-0.33,0.27-0.601,0.601-0.601h3.729
		c0.332,0,0.601,0.271,0.601,0.601C4.93,18.448,4.661,18.715,4.33,18.715z"/>
	<path fill="#fff" d="M39.46,18.715H35.73c-0.331,0-0.601-0.268-0.601-0.6c0-0.33,0.27-0.601,0.601-0.601h3.729
		c0.331,0,0.601,0.271,0.601,0.601C40.06,18.448,39.791,18.715,39.46,18.715z"/>
	<path fill="#fff" d="M13.55,23.786H8.237c-0.332,0-0.6-0.271-0.6-0.6c0-0.332,0.269-0.601,0.6-0.601h5.313
		c0.332,0,0.602,0.269,0.602,0.601C14.15,23.515,13.882,23.786,13.55,23.786z"/>
	<path fill="#fff" d="M30.845,8.86H26.13c-0.332,0-0.601-0.269-0.601-0.6s0.269-0.6,0.601-0.6h4.716c0.33,0,0.6,0.269,0.6,0.6
		S31.176,8.86,30.845,8.86z"/>
	<path fill="#fff" d="M13.216,8.86H8.237c-0.332,0-0.6-0.269-0.6-0.6s0.269-0.6,0.6-0.6h4.979c0.332,0,0.602,0.269,0.602,0.6
		S13.548,8.86,13.216,8.86z"/>
	<path fill="#fff" d="M24.94,7.127c0-0.002,0-0.003,0-0.005V3.993c0-1.067-0.415-2.07-1.17-2.825C23.016,0.415,22.014,0,20.948,0
		h-2.352c-2.201,0-3.992,1.791-3.992,3.993v21.159c0,0.213,0.054,0.422,0.155,0.606l3.921,7.054
		c0.221,0.396,0.639,0.643,1.092,0.643c0.455,0,0.873-0.246,1.094-0.643l3.916-7.054c0.104-0.187,0.158-0.396,0.158-0.606V7.132
		C24.94,7.13,24.94,7.129,24.94,7.127z M18.597,2.5h2.352c0.398,0,0.773,0.155,1.055,0.438c0.282,0.281,0.438,0.656,0.438,1.056
		v1.885h-5.336V3.992C17.104,3.169,17.774,2.5,18.597,2.5z M19.772,29.629l-2.668-4.803V8.377h5.336v16.449L19.772,29.629z"/>
</g>
</svg>
