<?xml version="1.0" encoding="utf-8"?>
<!-- Generator: Adobe Illustrator 16.0.0, SVG Export Plug-In . SVG Version: 6.00 Build 0)  -->
<!DOCTYPE svg PUBLIC "-//W3C//DTD SVG 1.1//EN" "http://www.w3.org/Graphics/SVG/1.1/DTD/svg11.dtd">
<svg version="1.1" id="Layer_1" xmlns="http://www.w3.org/2000/svg" xmlns:xlink="http://www.w3.org/1999/xlink" x="0px" y="0px"
	 width="38.281px" height="28.873px" viewBox="0 0 38.281 28.873" enable-background="new 0 0 38.281 28.873" xml:space="preserve">
<g>
	<path fill="#3a3d72" d="M17.65,28.873c-0.656,0-1.282-0.282-1.717-0.774l-1.004-1.143c-1.134-1.288-2.768-2.025-4.481-2.025
		C4.687,24.931,0,20.242,0,14.481C0,7.939,4.527,4.033,12.109,4.033h10.978c7.698,0,12.294,3.906,12.294,10.448
		c0,5.762-4.688,10.449-10.448,10.449c-1.793,0-3.428,0.737-4.561,2.025l-1.003,1.141C18.934,28.591,18.308,28.873,17.65,28.873z
		 M12.109,6.532C5.912,6.532,2.5,9.354,2.5,14.48c0,4.383,3.565,7.949,7.948,7.949c2.434,0,4.751,1.049,6.358,2.877l0.844,0.959
		l0.845-0.959c1.606-1.828,3.925-2.877,6.358-2.877c4.461,0,8.026-3.565,8.026-7.949c0-5.126-3.479-7.948-9.794-7.948H12.109z"/>
	<path fill="#3a3d72" d="M36.367,16.312c-0.098,0-0.196-0.024-0.287-0.074c-0.291-0.159-0.397-0.523-0.239-0.814
		c0.813-1.485,1.241-3.208,1.241-4.98c0-5.355-4.813-9.242-11.441-9.242h-8.223c-2.965,0-5.283,0.793-6.891,2.356
		c-0.238,0.229-0.618,0.224-0.85-0.013C9.447,3.306,9.453,2.926,9.69,2.694C11.529,0.906,14.13,0,17.418,0h8.223
		c7.324,0,12.642,4.391,12.642,10.441c0,1.974-0.479,3.896-1.388,5.558C36.785,16.198,36.579,16.312,36.367,16.312z"/>
	<g>
		<path fill="#3a3d72" d="M9.7,16.854c-1.138,0-2.064-0.926-2.064-2.063s0.927-2.063,2.064-2.063s2.064,0.926,2.064,2.063
			S10.838,16.854,9.7,16.854z M9.7,13.928c-0.477,0-0.864,0.388-0.864,0.864c0,0.477,0.389,0.864,0.864,0.864
			s0.864-0.388,0.864-0.864C10.564,14.316,10.176,13.928,9.7,13.928z"/>
		<path fill="#3a3d72" d="M17.689,16.854c-1.139,0-2.064-0.926-2.064-2.063s0.927-2.063,2.064-2.063
			c1.139,0,2.063,0.926,2.063,2.063S18.828,16.854,17.689,16.854z M17.689,13.928c-0.478,0-0.863,0.388-0.863,0.864
			c0,0.477,0.387,0.864,0.863,0.864c0.476,0,0.865-0.388,0.865-0.864C18.554,14.316,18.166,13.928,17.689,13.928z"/>
		<path fill="#3a3d72" d="M25.681,16.854c-1.139,0-2.064-0.926-2.064-2.063s0.927-2.063,2.064-2.063
			c1.137,0,2.063,0.926,2.063,2.063S26.818,16.854,25.681,16.854z M25.681,13.928c-0.478,0-0.864,0.388-0.864,0.864
			c0,0.477,0.388,0.864,0.864,0.864c0.476,0,0.863-0.388,0.863-0.864C26.545,14.316,26.157,13.928,25.681,13.928z"/>
	</g>
</g>
</svg>
