<?xml version="1.0" encoding="utf-8"?>
<!-- Generator: Adobe Illustrator 16.0.0, SVG Export Plug-In . SVG Version: 6.00 Build 0)  -->
<!DOCTYPE svg PUBLIC "-//W3C//DTD SVG 1.1//EN" "http://www.w3.org/Graphics/SVG/1.1/DTD/svg11.dtd">
<svg version="1.1" id="Layer_1" xmlns="http://www.w3.org/2000/svg" xmlns:xlink="http://www.w3.org/1999/xlink" x="0px" y="0px"
	 width="32px" height="29.615px" viewBox="0 0 32 29.615" enable-background="new 0 0 32 29.615" xml:space="preserve">
<path fill="#3a3d72" d="M19.3,8.275H7.017c-0.342,0-0.619-0.277-0.619-0.619c0-0.341,0.277-0.619,0.619-0.619H19.3
	c0.343,0,0.618,0.277,0.618,0.619C19.918,7.999,19.643,8.275,19.3,8.275z"/>
<path fill="#3a3d72" d="M19.3,8.275H7.017c-0.342,0-0.619-0.277-0.619-0.619c0-0.341,0.277-0.619,0.619-0.619H19.3
	c0.343,0,0.618,0.277,0.618,0.619C19.918,7.999,19.643,8.275,19.3,8.275z"/>
<path fill="#3a3d72" d="M19.3,12.252H7.017c-0.342,0-0.619-0.278-0.619-0.619c0-0.343,0.277-0.618,0.619-0.618H19.3
	c0.343,0,0.618,0.275,0.618,0.618C19.918,11.975,19.643,12.252,19.3,12.252z"/>
<path fill="#3a3d72" d="M19.3,12.252H7.017c-0.342,0-0.619-0.278-0.619-0.619c0-0.343,0.277-0.618,0.619-0.618H19.3
	c0.343,0,0.618,0.275,0.618,0.618C19.918,11.975,19.643,12.252,19.3,12.252z"/>
<path fill="#3a3d72" d="M13.158,16.228H7.016c-0.342,0-0.619-0.275-0.619-0.619c0-0.34,0.277-0.618,0.619-0.618h6.142
	c0.343,0,0.62,0.278,0.62,0.618C13.779,15.952,13.501,16.228,13.158,16.228z"/>
<path fill="#3a3d72" d="M13.158,16.228H7.016c-0.342,0-0.619-0.275-0.619-0.619c0-0.34,0.277-0.618,0.619-0.618h6.142
	c0.343,0,0.62,0.278,0.62,0.618C13.779,15.952,13.501,16.228,13.158,16.228z"/>
<path fill="#3a3d72" d="M27.926,29.615c-0.084,0-0.17-0.004-0.254-0.009c-0.049,0.005-0.096,0.009-0.145,0.009H3.675
	C1.649,29.615,0,27.966,0,25.938V3.674C0,1.648,1.649,0,3.675,0h19.083c2.027,0,3.677,1.648,3.677,3.674v3.481h1.89
	c2.026,0,3.677,1.648,3.677,3.677v14.709C32,27.788,30.173,29.615,27.926,29.615z M26.435,9.734V25.54
	c0,0.823,0.669,1.494,1.491,1.494c0.824,0,1.494-0.671,1.494-1.494V10.833c0-0.604-0.492-1.097-1.098-1.097L26.435,9.734
	L26.435,9.734z M3.675,2.58C3.071,2.58,2.58,3.07,2.58,3.674v22.264c0,0.604,0.491,1.098,1.095,1.098h20.463
	c-0.183-0.465-0.282-0.969-0.282-1.494V3.674c0-0.604-0.492-1.095-1.098-1.095H3.675z"/>
<path fill="#3a3d72" d="M27.926,29.615c-0.084,0-0.17-0.004-0.254-0.009c-0.049,0.005-0.096,0.009-0.145,0.009H3.675
	C1.649,29.615,0,27.966,0,25.938V3.674C0,1.648,1.649,0,3.675,0h19.083c2.027,0,3.677,1.648,3.677,3.674v3.481h1.89
	c2.026,0,3.677,1.648,3.677,3.677v14.709C32,27.788,30.173,29.615,27.926,29.615z M26.435,9.734V25.54
	c0,0.823,0.669,1.494,1.491,1.494c0.824,0,1.494-0.671,1.494-1.494V10.833c0-0.604-0.492-1.097-1.098-1.097L26.435,9.734
	L26.435,9.734z M3.675,2.58C3.071,2.58,2.58,3.07,2.58,3.674v22.264c0,0.604,0.491,1.098,1.095,1.098h20.463
	c-0.183-0.465-0.282-0.969-0.282-1.494V3.674c0-0.604-0.492-1.095-1.098-1.095H3.675z"/>
</svg>
