<?xml version="1.0" encoding="utf-8"?>
<!-- Generator: Adobe Illustrator 16.0.0, SVG Export Plug-In . SVG Version: 6.00 Build 0)  -->
<!DOCTYPE svg PUBLIC "-//W3C//DTD SVG 1.1//EN" "http://www.w3.org/Graphics/SVG/1.1/DTD/svg11.dtd">
<svg version="1.1" id="Layer_1" xmlns="http://www.w3.org/2000/svg" xmlns:xlink="http://www.w3.org/1999/xlink" x="0px" y="0px"
	 width="31.623px" height="31.629px" viewBox="0 0 31.623 31.629" enable-background="new 0 0 31.623 31.629" xml:space="preserve" fill="#fff">
<path d="M22.21,4.258l4.039-4.048c0.295-0.28,0.764-0.28,1.048,0c0.101,0.104,0.161,0.22,0.196,0.333v0.009l0.006,0.018l0.748,2.804
	l2.809,0.754l0.018,0.009h0.006c0.117,0.035,0.235,0.088,0.328,0.192c0.289,0.28,0.289,0.754,0,1.043l-4.039,4.039l0,0
	c-0.181,0.184-0.451,0.263-0.715,0.192l-2.272-0.604l-1.167,1.165c1.262,1.629,2.016,3.68,2.016,5.905
	c0,2.663-1.082,5.082-2.835,6.833l-0.044,0.035c-1.742,1.734-4.145,2.805-6.79,2.805c-2.668,0-5.086-1.088-6.834-2.84
	c-1.753-1.752-2.835-4.171-2.835-6.833c0-2.664,1.082-5.082,2.835-6.834l0,0c1.748-1.753,4.166-2.839,6.834-2.839
	c2.222,0,4.271,0.753,5.905,2.015l1.166-1.156l-0.613-2.278C21.948,4.714,22.032,4.443,22.21,4.258L22.21,4.258z M28.09,12.267
	c-0.201-0.666,0.171-1.35,0.823-1.542c0.652-0.193,1.341,0.175,1.537,0.823c0.215,0.719,0.391,1.464,0.5,2.226
	c0.109,0.754,0.172,1.524,0.172,2.296c0,4.293-1.744,8.184-4.562,10.997c-2.813,2.813-6.707,4.563-11.001,4.563
	c-4.298,0-8.184-1.752-11-4.563c-2.817-2.814-4.561-6.703-4.561-10.997c0-4.294,1.743-8.192,4.561-11.005
	c2.816-2.813,6.702-4.557,11-4.557c0.768,0,1.533,0.053,2.282,0.176c0.771,0.104,1.517,0.28,2.233,0.49
	c0.653,0.193,1.025,0.885,0.824,1.542c-0.193,0.648-0.885,1.017-1.537,0.824c-0.613-0.193-1.24-0.333-1.875-0.421
	c-0.623-0.097-1.268-0.141-1.929-0.141c-3.61,0-6.887,1.473-9.253,3.838c-2.369,2.366-3.833,5.634-3.833,9.253
	c0,3.609,1.464,6.886,3.833,9.251c2.366,2.365,5.643,3.838,9.253,3.838c3.614,0,6.888-1.473,9.253-3.838
	c2.37-2.365,3.838-5.643,3.838-9.251c0-0.666-0.049-1.314-0.141-1.928C28.419,13.502,28.274,12.88,28.09,12.267L28.09,12.267z
	 M15.561,11.618c0.774,0,1.513,0.201,2.146,0.552l2.703-2.707c-1.357-0.999-3.035-1.577-4.85-1.577
	c-2.261,0-4.307,0.911-5.792,2.392v-0.009v0.009c-1.476,1.481-2.392,3.531-2.392,5.792c0,2.26,0.916,4.301,2.396,5.782
	c1.48,1.49,3.531,2.4,5.787,2.4c2.243,0,4.276-0.893,5.752-2.357l0.035-0.043c1.481-1.473,2.401-3.521,2.401-5.782
	c0-1.822-0.592-3.505-1.592-4.854l-2.703,2.699c0.352,0.648,0.558,1.366,0.558,2.155c0,1.217-0.504,2.331-1.306,3.137H18.7
	c-0.808,0.805-1.92,1.313-3.143,1.313c-1.227,0-2.339-0.508-3.141-1.313h-0.006c-0.801-0.807-1.3-1.91-1.3-3.137
	s0.499-2.34,1.3-3.137l0.006-0.009C13.226,12.117,14.339,11.618,15.561,11.618L15.561,11.618z M16.595,13.283
	c-0.324-0.123-0.67-0.185-1.034-0.185c-0.819,0-1.563,0.333-2.094,0.867h-0.005c-0.534,0.535-0.867,1.279-0.867,2.104
	c0,0.823,0.333,1.56,0.867,2.093c0.539,0.535,1.279,0.867,2.099,0.867c0.823,0,1.563-0.332,2.099-0.857v-0.01
	c0.535-0.533,0.867-1.271,0.867-2.093c0-0.368-0.064-0.719-0.184-1.034l-1.906,1.911c-0.486,0.474-1.266,0.474-1.748,0
	c-0.486-0.49-0.486-1.271,0-1.752L16.595,13.283L16.595,13.283z M26.391,2.173l-2.83,2.839l0.425,1.577l2.834-2.83L26.391,2.173
	L26.391,2.173z M27.866,4.802l-2.834,2.839l1.59,0.42l2.83-2.821L27.866,4.802L27.866,4.802z"/>
</svg>
