<?xml version="1.0" encoding="utf-8"?>
<!-- Generator: Adobe Illustrator 16.0.0, SVG Export Plug-In . SVG Version: 6.00 Build 0)  -->
<!DOCTYPE svg PUBLIC "-//W3C//DTD SVG 1.1//EN" "http://www.w3.org/Graphics/SVG/1.1/DTD/svg11.dtd">
<svg version="1.1" id="Layer_1" xmlns="http://www.w3.org/2000/svg" xmlns:xlink="http://www.w3.org/1999/xlink" x="0px" y="0px"
	 width="68px" height="53.424px" viewBox="0 0 68 53.424" enable-background="new 0 0 68 53.424" xml:space="preserve" fill="#3c4595">
<path d="M63.252,9.954h-2.756c-0.5-2.085-2.369-3.646-4.605-3.646h-2.654c-0.371-3.499-3.338-6.235-6.934-6.235H6.972
	c-3.845,0-6.973,3.128-6.973,6.973v39.331c0,3.846,3.128,6.975,6.973,6.975h52.44c0.011,0,0.021-0.006,0.031-0.006
	c0.031,0,0.063,0.006,0.094,0.006c4.666,0,8.465-3.799,8.465-8.467V14.703C68,12.084,65.869,9.954,63.252,9.954z M6.972,51.145
	c-2.628,0-4.767-2.14-4.767-4.769V7.046c0-2.628,2.138-4.767,4.767-4.767h39.331c2.629,0,4.768,2.139,4.768,4.767v4.011v33.828
	c0,1.475,0.387,2.928,1.115,4.202c0.449,0.784,1.025,1.467,1.679,2.058H6.972z M65.793,44.885c0,3.452-2.809,6.26-6.258,6.26
	c-2.238,0-4.321-1.207-5.436-3.153c-0.541-0.941-0.824-2.015-0.824-3.104v-33.83V8.514h2.615c1.399,0,2.541,1.141,2.541,2.542
	v29.931c0,0.609,0.494,1.104,1.104,1.104s1.104-0.494,1.104-1.104V12.16h2.613c1.4,0,2.541,1.141,2.541,2.542V44.885z"/>
<g>
	<path d="M10.604,8.971c0-0.452,0.357-0.809,0.81-0.809h0.168c0.389,0,0.62,0.189,0.84,0.473l3.118,4.095V8.939
		c0-0.44,0.357-0.798,0.798-0.798s0.798,0.357,0.798,0.798v5.849c0,0.451-0.356,0.809-0.808,0.809h-0.052
		c-0.39,0-0.621-0.189-0.84-0.473l-3.234-4.243v3.938c0,0.441-0.357,0.798-0.798,0.798c-0.442,0-0.799-0.357-0.799-0.798
		L10.604,8.971L10.604,8.971z"/>
	<path d="M18.9,14.746V9.013c0-0.452,0.357-0.809,0.808-0.809h4.075c0.398,0,0.724,0.326,0.724,0.725s-0.326,0.714-0.724,0.714
		h-3.276v1.491h2.804c0.398,0,0.724,0.326,0.724,0.725s-0.326,0.714-0.724,0.714h-2.804v1.543h3.328c0.4,0,0.726,0.326,0.726,0.725
		c0,0.399-0.327,0.714-0.727,0.714h-4.126C19.257,15.555,18.9,15.198,18.9,14.746z"/>
	<path d="M25.472,9.234c-0.032-0.095-0.062-0.21-0.062-0.305c0-0.451,0.377-0.788,0.829-0.788c0.377,0,0.683,0.242,0.788,0.578
		l1.458,4.504l1.47-4.462c0.125-0.378,0.41-0.641,0.82-0.641H30.9c0.41,0,0.693,0.252,0.819,0.641l1.47,4.462l1.459-4.504
		c0.104-0.314,0.377-0.578,0.775-0.578c0.439,0,0.799,0.336,0.799,0.777c0,0.094-0.031,0.22-0.063,0.315l-2.057,5.776
		c-0.146,0.41-0.452,0.662-0.84,0.662h-0.168c-0.388,0-0.683-0.242-0.829-0.662l-1.45-4.21l-1.448,4.21
		c-0.147,0.42-0.441,0.662-0.829,0.662h-0.168c-0.388,0-0.693-0.252-0.839-0.662L25.472,9.234L25.472,9.234z"/>
	<path d="M37.211,14.778c-0.178-0.126-0.305-0.357-0.305-0.609c0-0.42,0.337-0.745,0.757-0.745c0.21,0,0.356,0.074,0.462,0.147
		c0.557,0.41,1.166,0.662,1.88,0.662c0.661,0,1.06-0.263,1.06-0.693v-0.021c0-0.41-0.252-0.62-1.479-0.935
		c-1.479-0.378-2.437-0.788-2.437-2.247v-0.021c0-1.333,1.07-2.216,2.572-2.216c0.893,0,1.67,0.231,2.331,0.651
		c0.179,0.105,0.356,0.326,0.356,0.641c0,0.42-0.336,0.745-0.756,0.745c-0.157,0-0.282-0.042-0.409-0.116
		c-0.535-0.315-1.04-0.494-1.544-0.494c-0.619,0-0.944,0.283-0.944,0.641v0.021c0,0.483,0.313,0.641,1.586,0.966
		c1.491,0.389,2.33,0.924,2.33,2.205v0.021c0,1.459-1.112,2.279-2.698,2.279C39.006,15.661,38.029,15.367,37.211,14.778
		L37.211,14.778z"/>
</g>
<path d="M46.204,23.452H7.801c-0.609,0-1.103-0.494-1.103-1.103s0.494-1.103,1.103-1.103h38.403c0.608,0,1.103,0.494,1.103,1.103
	S46.813,23.452,46.204,23.452z"/>
<path d="M45.839,30.799H7.437c-0.609,0-1.103-0.493-1.103-1.103c0-0.61,0.494-1.104,1.103-1.104h38.402
	c0.608,0,1.103,0.494,1.103,1.104C46.941,30.306,46.449,30.799,45.839,30.799z"/>
<path d="M46.602,45.921H7.8c-0.609,0-1.103-0.493-1.103-1.103v-8.356c0-0.609,0.494-1.104,1.103-1.104h38.802
	c0.609,0,1.104,0.494,1.104,1.104v8.356C47.705,45.428,47.211,45.921,46.602,45.921z M8.903,43.715h36.595v-6.149H8.903V43.715z"/>
</svg>
