<?xml version="1.0" encoding="utf-8"?>
<!-- Generator: Adobe Illustrator 16.0.0, SVG Export Plug-In . SVG Version: 6.00 Build 0)  -->
<!DOCTYPE svg PUBLIC "-//W3C//DTD SVG 1.1//EN" "http://www.w3.org/Graphics/SVG/1.1/DTD/svg11.dtd">
<svg version="1.1" id="Layer_1" xmlns="http://www.w3.org/2000/svg" xmlns:xlink="http://www.w3.org/1999/xlink" x="0px" y="0px"
	 width="61px" height="62.42px" viewBox="0 0 61 62.42" enable-background="new 0 0 61 62.42" xml:space="preserve" fill="#fff">
<g>
	<path d="M39.273,20.052H21.727c-0.473,0-0.857-0.383-0.857-0.856s0.384-0.857,0.857-0.857h17.546c0.475,0,0.857,0.384,0.857,0.857
		S39.748,20.052,39.273,20.052z"/>
	<path d="M39.273,15.173H21.727c-0.473,0-0.857-0.383-0.857-0.857c0-0.473,0.384-0.856,0.857-0.856h17.546
		c0.475,0,0.857,0.383,0.857,0.856C40.131,14.79,39.748,15.173,39.273,15.173z"/>
	<path d="M39.273,24.666H21.727c-0.474,0-0.857-0.384-0.857-0.857c0-0.474,0.383-0.856,0.857-0.856h17.546
		c0.474,0,0.856,0.383,0.856,0.856C40.131,24.282,39.748,24.666,39.273,24.666z"/>
	<g>
		<path d="M47.914,44.192l-6.025-6.024c-0.375-0.367-0.375-0.966,0-1.335c0.366-0.37,0.965-0.37,1.34,0l6.024,6.023l-0.089-0.713
			c-0.063-0.518,0.313-0.986,0.83-1.047c0.518-0.063,0.988,0.311,1.053,0.828l0.406,3.523c0,0.287-0.172,0.64-0.414,0.776
			c0,0.004-0.008,0.009-0.008,0.011c-0.025,0.016-0.057,0.03-0.08,0.045c0,0,0,0,0,0.002l-0.168,0.067
			c0,0.036-0.33,0.041-0.391,0.037l-3.41-0.399c-0.52-0.06-0.895-0.529-0.83-1.047c0.063-0.521,0.525-0.893,1.052-0.83
			L47.914,44.192L47.914,44.192z"/>
		<path d="M19.112,36.831c0.367,0.369,0.367,0.969,0,1.336l-6.025,6.025l0.709-0.082c0.518-0.063,0.988,0.311,1.044,0.83
			c0.063,0.518-0.311,0.987-0.829,1.047l-3.522,0.406l-0.191-0.021c-0.032-0.008-0.056-0.012-0.08-0.021l-0.175-0.071
			c-0.22-0.125-0.43-0.371-0.471-0.605l-0.023-0.337l0.398-3.414c0.063-0.519,0.534-0.892,1.052-0.828
			c0.519,0.06,0.893,0.529,0.829,1.047l-0.08,0.712l6.025-6.023C18.139,36.462,18.737,36.462,19.112,36.831L19.112,36.831z"/>
		<path d="M59.111,59.813c0,0.395-0.326,0.719-0.717,0.719H45.803c-0.398,0-0.719-0.324-0.719-0.719v-7.32
			c0-0.395,0.318-0.715,0.719-0.715h2.43c0.279,0,0.494,0.127,0.631,0.365l0.925,1.65c0.462,0.822,1.259,1.306,2.2,1.332
			l6.422,0.179c0.385,0.013,0.701,0.332,0.701,0.718V59.813L59.111,59.813z M58.467,53.416l-6.424-0.181
			c-0.271-0.007-0.479-0.132-0.607-0.365l-0.924-1.65c-0.47-0.838-1.322-1.333-2.279-1.333h-2.43c-1.436,0-2.605,1.169-2.605,2.606
			v7.319c0,1.438,1.171,2.607,2.605,2.607h12.592c1.436,0,2.605-1.169,2.605-2.607v-3.791C61,54.599,59.885,53.454,58.467,53.416
			L58.467,53.416z"/>
		<path d="M37.506,59.813c0,0.395-0.318,0.719-0.709,0.719H24.205c-0.398,0-0.717-0.324-0.717-0.719v-7.32
			c0-0.395,0.319-0.715,0.717-0.715h2.431c0.279,0,0.494,0.127,0.622,0.365l0.933,1.65c0.455,0.822,1.259,1.306,2.2,1.332
			l6.423,0.179c0.383,0.013,0.693,0.332,0.693,0.718v3.791H37.506z M36.868,53.416l-6.431-0.181
			c-0.264-0.007-0.47-0.132-0.598-0.365l-0.924-1.65c-0.47-0.838-1.323-1.333-2.279-1.333h-2.431c-1.442,0-2.606,1.169-2.606,2.606
			v7.319c0,1.438,1.164,2.607,2.606,2.607h12.593c1.433,0,2.604-1.169,2.604-2.607v-3.791
			C39.402,54.599,38.288,53.454,36.868,53.416L36.868,53.416z"/>
		<path d="M15.908,59.813c0,0.395-0.319,0.719-0.718,0.719H2.607c-0.399,0-0.718-0.324-0.718-0.719v-7.32
			c0-0.395,0.319-0.715,0.718-0.715h2.431c0.271,0,0.494,0.127,0.622,0.363l0.924,1.652c0.462,0.822,1.268,1.306,2.208,1.332
			l6.423,0.18c0.383,0.012,0.694,0.332,0.694,0.717L15.908,59.813L15.908,59.813z M15.27,53.416l-6.431-0.181
			c-0.263-0.007-0.471-0.132-0.598-0.365l-0.933-1.65c-0.462-0.838-1.314-1.333-2.271-1.333H2.606C1.163,49.887,0,51.056,0,52.493
			v7.319c0,1.438,1.164,2.607,2.606,2.607H15.19c1.443,0,2.614-1.169,2.614-2.607v-3.791C17.805,54.599,16.689,53.454,15.27,53.416
			L15.27,53.416z"/>
		<path d="M31.441,40.849v5.227l0.445-0.563c0.326-0.41,0.918-0.479,1.332-0.155c0.405,0.324,0.479,0.918,0.15,1.33l-2.199,2.77
			c0,0.002,0,0.005,0,0.006c-0.339,0.34-0.895,0.372-1.268,0.066l-0.08-0.072c-0.024-0.021-0.04-0.045-0.063-0.068l-2.136-2.7
			c-0.327-0.411-0.255-1.006,0.16-1.329c0.406-0.324,1.004-0.256,1.324,0.154l0.445,0.563v-5.227c0-0.521,0.422-0.945,0.949-0.945
			C31.02,39.903,31.441,40.327,31.441,40.849L31.441,40.849z"/>
		<path d="M16.681,26.882c0.143,0.245,0.06,0.575-0.199,0.722c-0.603,0.345-1.123-0.568-0.526-0.916
			C16.21,26.541,16.535,26.632,16.681,26.882L16.681,26.882z M14.123,28.356c1.075,1.866,3.884,1.488,4.439-0.583
			c0.425-1.59-0.84-3.138-2.471-3.043c-3.335-8.226,0.922-17.73,9.5-20.576c0.494-0.164,0.765-0.7,0.598-1.197
			c-0.167-0.494-0.701-0.765-1.196-0.598c-9.726,3.266-14.437,13.989-10.607,23.21C13.74,26.326,13.597,27.443,14.123,28.356
			L14.123,28.356z"/>
		<path d="M30.5,1.889c0.693,0,0.688,1.061,0,1.061C29.801,2.95,29.795,1.889,30.5,1.889L30.5,1.889z M30.5,4.838
			c0.939,0,1.753-0.54,2.152-1.326c4.088,0.571,7.811,2.764,10.296,6.101c2.646,3.552,3.657,8.077,2.772,12.416
			c-0.117,0.583,0.33,1.136,0.926,1.136c0.445,0,0.838-0.309,0.934-0.757c0.986-4.867-0.145-9.942-3.107-13.925
			c-2.822-3.78-7.047-6.25-11.693-6.864c-0.326-0.941-1.227-1.618-2.278-1.618c-1.339,0-2.422,1.084-2.422,2.415
			C28.078,3.752,29.162,4.838,30.5,4.838L30.5,4.838z"/>
		<path d="M44.32,26.882c0.148-0.252,0.465-0.34,0.718-0.193c0.614,0.36,0.069,1.262-0.524,0.916
			C44.27,27.464,44.164,27.149,44.32,26.882L44.32,26.882z M44.32,29.524c1.002,0.179,2.018-0.246,2.55-1.168
			c1.08-1.869-0.653-4.102-2.726-3.547c-1.623,0.435-2.283,2.349-1.396,3.657c-5.522,7.054-15.858,8.013-22.57,2.059
			c-0.39-0.347-0.988-0.311-1.331,0.079c-0.351,0.39-0.311,0.987,0.08,1.335C26.479,38.649,38.15,37.532,44.32,29.524z"/>
	</g>
</g>
</svg>
