<svg xmlns="http://www.w3.org/2000/svg" xmlns:xlink="http://www.w3.org/1999/xlink" version="1.1" id="Layer_1" x="0px" y="0px" width="12.036px" height="12.036px" viewBox="0 0 12.036 12.036" enable-background="new 0 0 12.036 12.036" xml:space="preserve">
<path d="M11.028,5.009H7.026V1.007c0-0.557-0.451-1.008-1.008-1.008c-0.558,0-1.009,0.451-1.009,1.008v4.002H1.007  C0.451,5.009,0,5.46,0,6.017s0.451,1.008,1.008,1.008h4.001v4.004c0,0.557,0.451,1.008,1.009,1.008c0.557,0,1.008-0.451,1.008-1.008  V7.025h4.002c0.557,0,1.008-0.451,1.008-1.009C12.036,5.459,11.584,5.009,11.028,5.009z"/>
</svg>