<?xml version="1.0" encoding="utf-8"?>
<!-- Generator: Adobe Illustrator 16.0.0, SVG Export Plug-In . SVG Version: 6.00 Build 0)  -->
<!DOCTYPE svg PUBLIC "-//W3C//DTD SVG 1.1//EN" "http://www.w3.org/Graphics/SVG/1.1/DTD/svg11.dtd">
<svg version="1.1" id="Layer_1" xmlns="http://www.w3.org/2000/svg" xmlns:xlink="http://www.w3.org/1999/xlink" x="0px" y="0px"
	 width="17px" height="15.891px" viewBox="0 0 17 15.891" enable-background="new 0 0 17 15.891" xml:space="preserve">
<path d="M3.587,15.891c-0.697,0-1.373-0.201-1.956-0.581C0.61,14.646,0,13.522,0,12.303v-8.72c0-1.219,0.61-2.343,1.633-3.006
	c1.006-0.655,2.312-0.76,3.409-0.272l9.827,4.36C16.164,5.24,17,6.526,17,7.943s-0.836,2.704-2.131,3.279l-9.827,4.36
	C4.582,15.786,4.092,15.891,3.587,15.891z M3.588,1.431c-0.417,0-0.823,0.121-1.174,0.349C1.801,2.177,1.435,2.852,1.435,3.583v8.72
	c0,0.732,0.366,1.406,0.979,1.805c0.604,0.395,1.391,0.455,2.045,0.164l9.828-4.361c0.776-0.346,1.279-1.117,1.279-1.967
	s-0.503-1.622-1.279-1.967l-9.827-4.36C4.183,1.493,3.89,1.431,3.588,1.431z"/>
</svg>
