<?xml version="1.0" encoding="utf-8"?>
<!-- Generator: Adobe Illustrator 16.0.0, SVG Export Plug-In . SVG Version: 6.00 Build 0)  -->
<!DOCTYPE svg PUBLIC "-//W3C//DTD SVG 1.1//EN" "http://www.w3.org/Graphics/SVG/1.1/DTD/svg11.dtd">
<svg version="1.1" id="Layer_1" xmlns="http://www.w3.org/2000/svg" xmlns:xlink="http://www.w3.org/1999/xlink" x="0px" y="0px"
	 width="17px" height="17px" viewBox="0 0 17 17" enable-background="new 0 0 17 17" xml:space="preserve">
<path d="M16.726,15.405l-2.963-2.962c1.025-1.309,1.644-2.951,1.644-4.739C15.407,3.456,11.951,0,7.704,0C3.456,0,0,3.456,0,7.704
	c0,4.247,3.456,7.702,7.704,7.702c1.788,0,3.431-0.617,4.738-1.643l2.964,2.963C15.587,16.908,15.827,17,16.066,17
	s0.479-0.092,0.66-0.273C17.091,16.361,17.091,15.77,16.726,15.405z M1.624,7.704c0-3.358,2.721-6.08,6.08-6.08
	c3.356,0,6.079,2.721,6.079,6.08c0,3.356-2.723,6.077-6.079,6.077C4.345,13.781,1.624,11.061,1.624,7.704z"/>
</svg>
