<?xml version="1.0" encoding="utf-8"?>
<!-- Generator: Adobe Illustrator 16.0.0, SVG Export Plug-In . SVG Version: 6.00 Build 0)  -->
<!DOCTYPE svg PUBLIC "-//W3C//DTD SVG 1.1//EN" "http://www.w3.org/Graphics/SVG/1.1/DTD/svg11.dtd">
<svg version="1.1" id="Layer_1" xmlns="http://www.w3.org/2000/svg" xmlns:xlink="http://www.w3.org/1999/xlink" x="0px" y="0px"
	 width="15px" height="14.949px" viewBox="0 0 15 14.949" enable-background="new 0 0 15 14.949" xml:space="preserve" fill="#ca481d">
<path d="M9.799,5.914H15v-5.2h-1.478v2.37C12.142,1.169,9.922,0,7.474,0C3.354,0,0,3.352,0,7.473c0,4.122,3.354,7.476,7.476,7.476
	c3.758,0,6.942-2.811,7.414-6.531l-1.173-0.146c-0.396,3.133-3.079,5.496-6.241,5.496c-3.47,0-6.293-2.822-6.293-6.292
	c0-3.469,2.823-6.291,6.293-6.291c2.328,0,4.412,1.256,5.51,3.254H9.799V5.914z"/>
</svg>
