<?xml version="1.0" encoding="utf-8"?>
<!-- Generator: Adobe Illustrator 16.0.0, SVG Export Plug-In . SVG Version: 6.00 Build 0)  -->
<!DOCTYPE svg PUBLIC "-//W3C//DTD SVG 1.1//EN" "http://www.w3.org/Graphics/SVG/1.1/DTD/svg11.dtd">
<svg version="1.1" id="Layer_1" xmlns="http://www.w3.org/2000/svg" xmlns:xlink="http://www.w3.org/1999/xlink" x="0px" y="0px"
	 width="19.842px" height="19.838px" viewBox="0 0 19.842 19.838" enable-background="new 0 0 19.842 19.838" xml:space="preserve" fill="#fff">
<g>
	<path d="M11.19,13.491c-1.067,0-2.07-0.416-2.823-1.17l-0.848-0.85l1.414-1.414l0.848,0.849c0.753,0.754,2.066,0.75,2.818,0
		l4.658-4.659c0.377-0.377,0.584-0.878,0.584-1.41s-0.207-1.032-0.584-1.407l-0.848-0.85c-0.777-0.777-2.043-0.777-2.82,0
		l-2.964,2.965L9.213,4.132l2.963-2.965c1.558-1.557,4.092-1.557,5.648,0l0.848,0.848c0.754,0.754,1.17,1.756,1.17,2.822
		c0,1.067-0.416,2.071-1.17,2.825l-4.658,4.659C13.262,13.075,12.258,13.491,11.19,13.491z"/>
	<path d="M4.84,19.837c-1.021,0-2.045-0.389-2.824-1.168L1.17,17.823C0.416,17.071,0,16.067,0,15.001
		c-0.001-1.066,0.415-2.07,1.17-2.824l4.656-4.658c1.557-1.557,4.091-1.558,5.646-0.002l0.849,0.851L10.905,9.78l-0.847-0.849
		C9.284,8.157,8.018,8.158,7.24,8.933l-4.656,4.658C2.207,13.968,1.999,14.468,2,15.001c0,0.531,0.207,1.031,0.583,1.408
		l0.847,0.846c0.777,0.777,2.043,0.777,2.82,0l2.963-2.963l1.414,1.414l-2.963,2.963C6.887,19.448,5.862,19.837,4.84,19.837z"/>
</g>
</svg>
