<?xml version="1.0" encoding="utf-8"?>
<!-- Generator: Adobe Illustrator 16.0.0, SVG Export Plug-In . SVG Version: 6.00 Build 0)  -->
<!DOCTYPE svg PUBLIC "-//W3C//DTD SVG 1.1//EN" "http://www.w3.org/Graphics/SVG/1.1/DTD/svg11.dtd">
<svg version="1.1" id="Layer_1" xmlns="http://www.w3.org/2000/svg" xmlns:xlink="http://www.w3.org/1999/xlink" x="0px" y="0px"
	 width="21px" height="21.004px" viewBox="0 0 21 21.004" enable-background="new 0 0 21 21.004" xml:space="preserve">
<path fill="#fff" d="M10.499,0c2.902,0,5.528,1.176,7.426,3.076l0.043,0.044c1.875,1.896,3.033,4.505,3.033,7.378
	c0,1.132-0.178,2.229-0.514,3.254c-0.32,0.976-0.775,1.89-1.348,2.715v3.724c0,0.449-0.361,0.813-0.809,0.813h-0.021h-7.813
	c-2.896,0-5.52-1.181-7.416-3.078l-0.006-0.003v0.003c-1.9-1.901-3.076-4.53-3.076-7.428c0-2.892,1.176-5.521,3.076-7.422
	C4.974,1.176,7.601,0,10.499,0L10.499,0z M5.267,8.401L5.267,8.401h10.471c0.27,0,0.484-0.219,0.484-0.486s-0.215-0.484-0.484-0.484
	H5.267c-0.271,0-0.485,0.219-0.485,0.484C4.781,8.185,4.996,8.401,5.267,8.401L5.267,8.401z M5.267,10.983L5.267,10.983h10.471
	c0.27,0,0.484-0.217,0.484-0.482c0-0.27-0.215-0.484-0.484-0.484H5.267c-0.271,0-0.485,0.215-0.485,0.484
	C4.781,10.767,4.996,10.983,5.267,10.983L5.267,10.983z M5.267,13.569L5.267,13.569h10.471c0.27,0,0.484-0.221,0.484-0.483
	c0-0.269-0.215-0.483-0.484-0.483H5.267c-0.271,0-0.485,0.215-0.485,0.483C4.781,13.351,4.996,13.569,5.267,13.569L5.267,13.569z
	 M16.784,4.22L16.784,4.22c-1.607-1.614-3.83-2.605-6.285-2.605c-2.449,0-4.671,0.992-6.279,2.605V4.214L4.214,4.22
	c-1.604,1.6-2.594,3.824-2.594,6.278c0,2.453,0.988,4.675,2.6,6.28v0.006c1.608,1.604,3.83,2.604,6.279,2.604h7.024V16.21h0.003
	c0-0.162,0.048-0.332,0.152-0.479c0.55-0.741,0.979-1.578,1.271-2.477c0.285-0.863,0.437-1.796,0.437-2.758
	c0-2.438-0.979-4.646-2.563-6.243L16.784,4.22L16.784,4.22z"/>
</svg>
