<?xml version="1.0" encoding="utf-8"?>
<!-- Generator: Adobe Illustrator 16.0.0, SVG Export Plug-In . SVG Version: 6.00 Build 0)  -->
<!DOCTYPE svg PUBLIC "-//W3C//DTD SVG 1.1//EN" "http://www.w3.org/Graphics/SVG/1.1/DTD/svg11.dtd">
<svg version="1.1" id="Layer_1" xmlns="http://www.w3.org/2000/svg" xmlns:xlink="http://www.w3.org/1999/xlink" x="0px" y="0px"
	 width="17px" height="16.649px" viewBox="0 0 17 16.649" enable-background="new 0 0 17 16.649" xml:space="preserve">
<g>
	<path d="M16.245,16.649c-0.067,0-0.137-0.01-0.204-0.028c-0.15-0.044-0.413-0.115-0.737-0.204
		c-0.829-0.227-2.034-0.557-2.911-0.826c-1.236,0.693-2.635,1.059-4.066,1.059C3.735,16.649,0,12.915,0,8.325S3.735,0,8.326,0
		c4.591,0,8.326,3.734,8.326,8.325c0,1.521-0.408,2.993-1.184,4.28c0.48,1.018,1.043,2.182,1.379,2.854
		C16.943,15.583,17,15.739,17,15.909c0,0.408-0.331,0.74-0.74,0.74C16.255,16.649,16.25,16.649,16.245,16.649z M8.326,1.481
		c-3.774,0-6.844,3.07-6.844,6.844c0,3.774,3.07,6.844,6.844,6.844c1.272,0,2.512-0.352,3.586-1.014
		c0.186-0.114,0.41-0.141,0.617-0.075c0.617,0.199,1.523,0.456,2.326,0.678c-0.297-0.614-0.617-1.29-0.9-1.894
		c-0.11-0.236-0.088-0.512,0.057-0.729c0.758-1.125,1.158-2.442,1.158-3.811C15.169,4.551,12.099,1.481,8.326,1.481z"/>
	<g>
		<path d="M9.539,10.632c0.024,0.113-0.038,0.512-0.088,0.598c-0.561,0.698-1.507,1.146-2.092,1.146
			c-0.473,0-0.498-0.573-0.361-1.232c0.149-0.811,0.374-1.719,0.56-2.641c0.025-0.099,0-0.211-0.087-0.211
			c-0.125,0-0.324,0.087-0.548,0.249C6.897,8.528,6.835,8.502,6.835,8.465c0-0.15,0.062-0.424,0.112-0.51
			c0.81-0.71,1.706-1.096,2.104-1.096c0.299,0,0.299,0.585,0.199,1.083c-0.188,0.834-0.561,2.441-0.586,2.826
			c-0.012,0.175,0.038,0.25,0.125,0.25c0.175,0,0.448-0.212,0.672-0.424C9.476,10.595,9.525,10.595,9.539,10.632z M9.6,4.717
			C9.662,4.804,9.687,5.115,9.675,5.19C9.613,5.514,9.488,5.775,9.226,5.987C9.089,6.099,8.392,6.223,8.243,6.149
			C8.081,6.062,7.919,5.937,7.869,5.576C7.844,5.39,7.931,5.028,8.043,4.929c0.224-0.212,0.685-0.386,1.046-0.386
			C9.351,4.542,9.55,4.643,9.6,4.717z"/>
	</g>
</g>
</svg>
