<?xml version="1.0" encoding="utf-8"?>
<!-- Generator: Adobe Illustrator 16.0.0, SVG Export Plug-In . SVG Version: 6.00 Build 0)  -->
<!DOCTYPE svg PUBLIC "-//W3C//DTD SVG 1.1//EN" "http://www.w3.org/Graphics/SVG/1.1/DTD/svg11.dtd">
<svg version="1.1" id="Layer_1" xmlns="http://www.w3.org/2000/svg" xmlns:xlink="http://www.w3.org/1999/xlink" x="0px" y="0px"
	 width="23px" height="19.955px" viewBox="0 0 23 19.955" enable-background="new 0 0 23 19.955" xml:space="preserve" fill="#3b3d73">
<g>
	<path d="M15.582,7.106H7.418c-0.222,0-0.398-0.154-0.398-0.346s0.178-0.345,0.398-0.345h8.164c0.221,0,0.398,0.153,0.398,0.345
		S15.803,7.106,15.582,7.106z"/>
	<path d="M15.582,4.797H7.418c-0.222,0-0.398-0.154-0.398-0.345c0-0.191,0.178-0.346,0.398-0.346h8.164
		c0.221,0,0.398,0.154,0.398,0.346C15.98,4.643,15.803,4.797,15.582,4.797z"/>
	<path d="M19.506,10.026V3.499C19.506,1.57,17.938,0,16.008,0H6.989C5.061,0,3.491,1.57,3.491,3.499v6.527
		C1.496,10.465,0,12.243,0,14.368c0,2.453,1.994,4.447,4.447,4.447h0.789c0.503,0.688,1.311,1.139,2.227,1.139h8.072
		c0.916,0,1.723-0.451,2.227-1.139h0.789c2.453,0,4.449-1.994,4.449-4.447C23,12.243,21.502,10.465,19.506,10.026z M4.523,3.497
		c0-1.359,1.107-2.466,2.467-2.466h9.018c1.361,0,2.469,1.106,2.469,2.466V9.92H4.523V3.497z M15.537,18.922H7.463
		c-0.957,0-1.734-0.778-1.734-1.735c0-0.955,0.777-1.734,1.734-1.734h8.074c0.957,0,1.734,0.779,1.734,1.734
		C17.271,18.144,16.494,18.922,15.537,18.922z M18.551,17.782h-0.316c0.043-0.191,0.068-0.391,0.068-0.597
		c0-1.524-1.24-2.767-2.768-2.767H7.463c-1.525,0-2.768,1.24-2.768,2.767c0,0.206,0.025,0.404,0.068,0.597H4.447
		c-1.885,0-3.417-1.531-3.417-3.416c0-1.883,1.532-3.416,3.417-3.416h14.104c1.885,0,3.416,1.533,3.416,3.416
		C21.967,16.251,20.436,17.782,18.551,17.782z"/>
</g>
</svg>
