<svg width="17" height="16" viewBox="0 0 17 16" fill="none" xmlns="http://www.w3.org/2000/svg">
<g clip-path="url(#clip0_58_15756)">
<path d="M3.587 15.8912C2.89 15.8912 2.214 15.6902 1.631 15.3102C0.61 14.6462 0 13.5222 0 12.3032V3.58324C0 2.36424 0.61 1.24024 1.633 0.577235C2.639 -0.0777649 3.945 -0.182765 5.042 0.305235L14.869 4.66524C16.164 5.24024 17 6.52623 17 7.94323C17 9.36023 16.164 10.6472 14.869 11.2222L5.042 15.5822C4.582 15.7862 4.092 15.8912 3.587 15.8912ZM3.588 1.43124C3.171 1.43124 2.765 1.55224 2.414 1.78024C1.801 2.17724 1.435 2.85224 1.435 3.58324V12.3032C1.435 13.0352 1.801 13.7092 2.414 14.1082C3.018 14.5032 3.805 14.5632 4.459 14.2722L14.287 9.91124C15.063 9.56524 15.566 8.79423 15.566 7.94423C15.566 7.09423 15.063 6.32224 14.287 5.97724L4.46 1.61724C4.183 1.49324 3.89 1.43124 3.588 1.43124Z" fill="white"/>
</g>
<defs>
<clipPath id="clip0_58_15756">
<rect width="17" height="15.891" fill="white"/>
</clipPath>
</defs>
</svg>
