<?xml version="1.0" encoding="utf-8"?>
<!-- Generator: Adobe Illustrator 16.0.0, SVG Export Plug-In . SVG Version: 6.00 Build 0)  -->
<!DOCTYPE svg PUBLIC "-//W3C//DTD SVG 1.1//EN" "http://www.w3.org/Graphics/SVG/1.1/DTD/svg11.dtd">
<svg version="1.1" id="Layer_1" xmlns="http://www.w3.org/2000/svg" xmlns:xlink="http://www.w3.org/1999/xlink" x="0px" y="0px"
	 width="23px" height="23px" viewBox="0 0 23 23" enable-background="new 0 0 23 23" xml:space="preserve">
<path d="M22.643,20.92l-4.125-4.125c1.396-1.767,2.238-3.992,2.238-6.416C20.756,4.656,16.1,0,10.378,0C4.655,0,0,4.656,0,10.379
	s4.656,10.378,10.379,10.378c2.423,0,4.648-0.842,6.416-2.238l4.125,4.123C21.158,22.881,21.469,23,21.781,23
	s0.623-0.119,0.861-0.357C23.119,22.167,23.119,21.396,22.643,20.92z M2.09,10.379c0-4.578,3.71-8.289,8.289-8.289
	c4.578,0,8.287,3.711,8.287,8.289c0,4.578-3.709,8.288-8.287,8.288S2.09,14.957,2.09,10.379z"/>
</svg>
