<?xml version="1.0" encoding="utf-8"?>
<!-- Generator: Adobe Illustrator 16.0.0, SVG Export Plug-In . SVG Version: 6.00 Build 0)  -->
<!DOCTYPE svg PUBLIC "-//W3C//DTD SVG 1.1//EN" "http://www.w3.org/Graphics/SVG/1.1/DTD/svg11.dtd">
<svg version="1.1" id="Layer_1" xmlns="http://www.w3.org/2000/svg" xmlns:xlink="http://www.w3.org/1999/xlink" x="0px" y="0px"
	 width="48px" height="32.613px" viewBox="60 -3.38 48 32.613" enable-background="new 60 -3.38 48 32.613" xml:space="preserve">
<path d="M94.456,23.477h0.115c7.417,0,13.429-6.012,13.429-13.428l0,0c0-7.417-4.601-13.43-16.121-13.43H75.852
	C64.603-3.381,60,2.632,60,10.049l0,0c0,7.416,6.013,13.428,13.429,13.428l0,0c3.028,0,5.911,1.304,7.911,3.578l1.465,1.664
	c0.604,0.686,1.672,0.686,2.276,0l1.464-1.664C88.546,24.78,91.427,23.477,94.456,23.477z"/>
</svg>
