<svg width="36" height="36" viewBox="0 0 36 36" fill="none" xmlns="http://www.w3.org/2000/svg">
<g clip-path="url(#clip0_52_15734)">
<path d="M17.704 2C26.364 2 33.409 9.045 33.409 17.706C33.409 26.366 26.364 33.411 17.704 33.411C9.04499 33.411 2 26.366 2 17.706C2 9.045 9.04499 2 17.704 2ZM17.704 0C7.92699 0 0 7.927 0 17.706C0 27.483 7.92699 35.411 17.704 35.411C27.482 35.411 35.409 27.483 35.409 17.706C35.409 7.927 27.482 0 17.704 0Z" fill="white"/>
<path fill-rule="evenodd" clip-rule="evenodd" d="M13.8311 21.8848C13.8311 21.4508 13.8311 13.8388 13.8311 13.5388C13.8311 13.1518 14.2871 12.8628 14.7371 13.0898C15.0981 13.2718 22.3131 16.9398 22.9281 17.2548C23.3321 17.4618 23.3241 17.9518 22.9281 18.1588C22.4851 18.3888 15.2431 22.0768 14.7191 22.3328C14.3351 22.5198 13.8311 22.3128 13.8311 21.8848Z" fill="white"/>
</g>
<defs>
<clipPath id="clip0_52_15734">
<rect width="35.409" height="35.411" fill="white"/>
</clipPath>
</defs>
</svg>
