<svg xmlns="http://www.w3.org/2000/svg" xmlns:xlink="http://www.w3.org/1999/xlink" version="1.1" id="Layer_1" x="0px" y="0px" width="16px" height="13.156px" viewBox="0 0 16 13.156" enable-background="new 0 0 16 13.156" xml:space="preserve" fill="#3b3d73">
<g>
	<path d="M15.815,7.225l-6.842-6.76C8.684,0.161,8.349,0,8.001,0S7.316,0.161,7.044,0.451L0.187,7.225   c-0.246,0.242-0.248,0.64-0.005,0.884c0.123,0.123,0.283,0.187,0.444,0.187c0.159,0,0.317-0.06,0.439-0.181l6.874-6.791   c0.028-0.031,0.049-0.048,0.059-0.06c0.021,0.014,0.047,0.035,0.084,0.075l6.857,6.773c0.121,0.121,0.279,0.182,0.438,0.182   c0.162,0,0.322-0.063,0.445-0.186C16.063,7.862,16.061,7.467,15.815,7.225z"/>
	<path d="M12.557,6.993c-0.346,0-0.625,0.279-0.625,0.625v4.289H4.071V7.618c0-0.346-0.28-0.625-0.625-0.625   c-0.345,0-0.625,0.279-0.625,0.625v4.563c0,0.537,0.438,0.975,0.975,0.975h8.41c0.537,0,0.977-0.438,0.977-0.975V7.618   C13.182,7.274,12.901,6.993,12.557,6.993z"/>
</g>
</svg>