<svg xmlns="http://www.w3.org/2000/svg" xmlns:xlink="http://www.w3.org/1999/xlink" version="1.1" id="Layer_1" x="0px" y="0px" width="22px" height="22.244px" viewBox="0 0 22 22.244" enable-background="new 0 0 22 22.244" xml:space="preserve" fill="#3b3d73">
<g>
	<rect x="17.598" width="1.604" height="0.962"/>
	<path d="M6.727,1.291l-0.551-0.79C5.641,0.874,5.25,1.425,5.077,2.051l0.928,0.257C6.119,1.897,6.375,1.536,6.727,1.291z"/>
	<rect x="7.97" width="1.605" height="0.962"/>
	<rect x="11.18" width="1.604" height="0.962"/>
	<rect x="14.389" width="1.604" height="0.962"/>
	<rect x="21.037" y="6.966" width="0.963" height="1.604"/>
	<path d="M21.037,14.47c0,0.139-0.016,0.275-0.045,0.408l0.938,0.213C21.977,14.89,22,14.681,22,14.47v-1.086h-0.963V14.47   L21.037,14.47z"/>
	<rect x="21.037" y="10.175" width="0.963" height="1.605"/>
	<rect x="21.037" y="3.756" width="0.963" height="1.604"/>
	<path d="M19.203,16.306h-0.088v0.963h0.088c0.621,0,1.211-0.2,1.703-0.579l-0.586-0.763C19.996,16.175,19.611,16.306,19.203,16.306   z"/>
	<path d="M20.781,0.488l-0.543,0.794c0.354,0.242,0.611,0.601,0.729,1.01l0.926-0.265C21.715,1.403,21.32,0.856,20.781,0.488z"/>
	<path d="M17.025,7.774c0-0.117-0.012-0.23-0.023-0.343c-0.004-0.031-0.01-0.062-0.016-0.093c-0.014-0.086-0.029-0.171-0.053-0.255   c-0.008-0.03-0.014-0.06-0.021-0.089c-0.031-0.107-0.066-0.212-0.111-0.314c-0.008-0.018-0.018-0.035-0.023-0.053   c-0.037-0.083-0.08-0.164-0.125-0.243c-0.01-0.017-0.018-0.034-0.025-0.05l-0.004,0.001c-0.334-0.553-0.854-0.981-1.471-1.199   l0.002-0.003c-0.021-0.007-0.041-0.012-0.061-0.019c-0.027-0.009-0.057-0.017-0.086-0.025c-0.055-0.017-0.111-0.031-0.168-0.044   c-0.029-0.006-0.059-0.012-0.088-0.018c-0.059-0.011-0.119-0.021-0.182-0.028c-0.025-0.003-0.053-0.007-0.078-0.01   c-0.088-0.008-0.178-0.013-0.268-0.013H5.938v-1.2H4.976v1.2H2.799C1.256,4.976,0,6.231,0,7.774v11.672   c0,1.543,1.255,2.798,2.798,2.798h11.426c1.543,0,2.801-1.255,2.801-2.798v-2.178h0.484v-0.963h-0.484V7.774z M16.061,19.446   c0,1.012-0.822,1.835-1.836,1.835H2.799c-1.012,0-1.835-0.823-1.835-1.835V7.774c0-1.012,0.823-1.835,1.835-1.835h11.426   c0.096,0,0.188,0.009,0.277,0.023c0.018,0.003,0.037,0.005,0.055,0.008c0.086,0.016,0.17,0.038,0.252,0.065   c0.43,0.145,0.787,0.442,1.01,0.829c0.027,0.049,0.055,0.1,0.076,0.151c0.008,0.015,0.016,0.029,0.021,0.044   c0.027,0.065,0.051,0.133,0.07,0.202c0.006,0.021,0.012,0.042,0.016,0.064c0.014,0.053,0.025,0.107,0.033,0.162   c0.004,0.021,0.008,0.042,0.012,0.064c0.008,0.074,0.014,0.149,0.014,0.225V19.446z"/>
</g>
</svg>