<svg width="22" height="22" viewBox="0 0 22 22" fill="none" xmlns="http://www.w3.org/2000/svg">
<path fill-rule="evenodd" clip-rule="evenodd" d="M20.2439 9.46498H12.0939V1.31498C12.0939 0.589976 11.506 0.000976562 10.78 0.000976562C10.054 0.000976562 9.46595 0.590976 9.46595 1.31498V9.46498H1.31595C0.590948 9.46498 0.00195312 10.053 0.00195312 10.78C0.00195312 11.505 0.591949 12.094 1.31595 12.094H9.46595V20.244C9.46595 20.971 10.055 21.558 10.78 21.558C11.507 21.558 12.0939 20.97 12.0939 20.244V12.094H20.2439C20.9709 12.094 21.558 11.504 21.558 10.78C21.559 10.053 20.9709 9.46498 20.2439 9.46498Z" fill="white"/>
</svg>
