<?xml version="1.0" encoding="utf-8"?>
<!-- Generator: Adobe Illustrator 16.0.0, SVG Export Plug-In . SVG Version: 6.00 Build 0)  -->
<!DOCTYPE svg PUBLIC "-//W3C//DTD SVG 1.1//EN" "http://www.w3.org/Graphics/SVG/1.1/DTD/svg11.dtd">
<svg version="1.1" id="Layer_1" xmlns="http://www.w3.org/2000/svg" xmlns:xlink="http://www.w3.org/1999/xlink" x="0px" y="0px"
	 width="59px" height="58.96px" viewBox="0 0 59 58.96" enable-background="new 0 0 59 58.96" xml:space="preserve" fill="#fff">
<g>
	<path d="M58.999,26.262c-0.161,0.135-0.309,0.296-0.488,0.398c-0.443,0.252-0.932,0.067-1.143-0.413
		c-0.126-0.289-0.124-0.598-0.124-0.905c0-2.38-0.054-4.76,0.013-7.138c0.059-2.216-1.631-3.928-3.93-3.905
		c-7.771,0.076-15.543,0.026-23.313,0.031c-1.54,0.001-2.694,0.663-3.362,2.079c-0.231,0.491-0.308,1.029-0.309,1.569
		c-0.004,4.145,0.004,8.289-0.011,12.434c-0.001,0.488,0.155,0.595,0.639,0.59c3.55-0.032,7.101-0.063,10.648-0.02
		c2.121,0.025,3.768,0.962,4.731,2.913c0.237,0.481,0.558,0.694,1.086,0.627c0.547-0.071,0.994,0.14,1.43,0.472
		c1.438,1.088,2.894,2.151,4.354,3.209c0.299,0.213,0.61,0.568,1.02,0.367c0.416-0.203,0.314-0.658,0.32-1.033
		c0.008-0.653-0.013-1.307,0-1.959c0.012-0.699,0.312-1.021,1.019-1.049c0.729-0.029,1.458-0.008,2.187-0.008
		c1.946,0,3.385-1.378,3.471-3.327c0.013-0.288,0.013-0.575,0.01-0.862c-0.006-0.508,0.08-0.984,0.619-1.184
		c0.553-0.203,0.842,0.209,1.136,0.569c0,0.69,0,1.382,0,2.073c-0.222,0.734-0.417,1.479-0.851,2.127
		c-1.018,1.521-2.4,2.383-4.268,2.408c-1.515,0.021-1.525,0.033-1.52,1.51c0.002,0.994-0.311,1.812-1.219,2.31
		c-0.912,0.5-1.791,0.351-2.598-0.231c-1.261-0.908-2.498-1.85-3.748-2.772c-0.309-0.228-0.615-0.46-0.941-0.66
		c-0.578-0.356-0.845-0.198-0.845,0.487c0,4.105,0.017,8.213-0.003,12.318c-0.01,1.797-0.654,3.338-2.085,4.484
		c-0.897,0.721-1.959,1.055-3.1,1.068c-2.016,0.027-4.03,0.02-6.045,0.014c-0.646-0.004-1.104-0.408-1.104-0.93
		c-0.001-0.51,0.407-0.852,1.093-0.855c1.859-0.016,3.723,0.002,5.584-0.018c1.174-0.014,2.232-0.335,3.018-1.286
		c0.479-0.583,0.755-1.251,0.756-2.006c0.006-4.604,0.021-9.21-0.011-13.814c-0.012-1.644-1.419-2.981-3.146-3.083
		c-0.745-0.044-1.497-0.017-2.243-0.017c-7.063,0-14.125,0-21.186,0.003c-0.46,0.001-0.929-0.018-1.376,0.066
		c-1.729,0.328-2.828,1.623-2.837,3.404c-0.023,4.317-0.021,8.635-0.012,12.952c0.005,2.293,1.37,3.688,3.664,3.777
		c0.613,0.022,1.228,0.001,1.842,0.016c0.81,0.021,1.121,0.296,1.167,1.103c0.036,0.633-0.006,1.268,0.017,1.898
		c0.012,0.346-0.156,0.787,0.262,0.984c0.408,0.193,0.729-0.119,1.038-0.34c1.431-1.033,2.867-2.061,4.28-3.117
		c0.501-0.375,1.021-0.561,1.649-0.541c0.996,0.027,1.994,0,2.992,0.013c0.728,0.011,1.143,0.337,1.149,0.864
		c0.007,0.551-0.434,0.914-1.16,0.924c-0.92,0.014-1.841,0.018-2.763,0c-0.423-0.006-0.775,0.111-1.119,0.363
		c-1.39,1.023-2.797,2.023-4.195,3.037c-0.282,0.201-0.581,0.369-0.906,0.496c0.017,0.162,0.185,0.121,0.241,0.213
		c-0.615,0-1.229,0-1.843,0c0.077-0.053,0.153-0.107,0.246-0.174c-1.244-0.447-1.706-1.367-1.675-2.635
		c0.031-1.273,0.006-1.275-1.308-1.299c-2.556-0.045-4.708-1.697-5.272-4.091c-0.122-0.519-0.173-1.063-0.175-1.597
		C8.433,45.233,8.434,41.3,8.451,37.367c0.002-0.668,0.035-1.349,0.164-2.002c0.537-2.718,2.559-4.369,5.397-4.394
		c3.223-0.028,6.445-0.006,9.669-0.008c0.853,0,0.853-0.003,0.854-0.865c0.002-1.842-0.018-3.684,0.013-5.525
		c0.01-0.568-0.194-0.715-0.734-0.711c-2.589,0.023-5.18,0.02-7.77,0.001c-0.49-0.003-0.883,0.138-1.271,0.425
		c-1.402,1.039-2.819,2.06-4.235,3.08c-0.576,0.416-1.199,0.694-1.933,0.556c-1.096-0.208-1.852-1.082-1.906-2.217
		c-0.02-0.421-0.027-0.845-0.001-1.266c0.025-0.422-0.127-0.592-0.56-0.57c-0.709,0.037-1.418,0.01-2.114-0.171
		c-2.403-0.623-3.923-2.504-3.986-5.139c-0.067-2.837-0.029-5.678-0.021-8.518c0.001-0.667,0.412-1.108,0.937-1.088
		c0.498,0.019,0.844,0.438,0.847,1.113c0.013,2.495,0.009,4.989,0.006,7.483c-0.001,0.538,0.032,1.07,0.107,1.604
		c0.229,1.633,1.61,2.88,3.273,2.918c0.71,0.016,1.42-0.008,2.129,0.009c0.829,0.021,1.146,0.341,1.166,1.164
		c0.015,0.651,0.003,1.304,0.013,1.956c0.004,0.323-0.037,0.693,0.309,0.87c0.339,0.173,0.626-0.043,0.893-0.238
		c1.43-1.034,2.868-2.057,4.278-3.118c0.595-0.447,1.207-0.662,1.962-0.652c2.628,0.033,5.257,0,7.885,0.023
		c0.548,0.005,0.728-0.153,0.731-0.713c0.01-1.512-0.147-3.034,0.104-4.539c0.411-2.45,2.546-4.272,5.034-4.312
		c0.825-0.014,1.649-0.02,2.475-0.002c0.395,0.007,0.548-0.138,0.545-0.537c-0.011-2.188,0.042-4.376-0.02-6.562
		c-0.062-2.159-1.457-3.568-3.654-3.552c-7.789,0.057-15.58,0.022-23.368,0.022c-2.334,0-3.679,1.254-3.848,3.585
		C1.816,5.553,1.817,5.63,1.81,5.707C1.759,6.304,1.439,6.648,0.933,6.653c-0.479,0.004-0.899-0.429-0.905-1
		C0.01,4.134,0.467,2.786,1.52,1.663c1.179-1.255,2.709-1.64,4.34-1.644c7.559-0.023,15.118-0.024,22.677-0.007
		c1.624,0.004,3.169,0.33,4.375,1.562c1.014,1.033,1.57,2.27,1.588,3.713c0.027,2.149,0.011,4.298,0.016,6.447
		c0.002,0.754,0.037,0.759,0.784,0.739c0.67-0.018,1.341,0.044,2.011,0.044c4.835,0.004,9.671,0,14.507,0.003
		c0.707,0,1.408-0.079,2.123-0.013c2.289,0.21,3.836,1.387,4.735,3.477c0.062,0.138-0.057,0.491,0.322,0.375
		C58.999,19.662,58.999,22.961,58.999,26.262z"/>
	<path d="M13.594,8.155c0.594,0,1.19-0.026,1.782,0.008c0.493,0.028,0.71-0.128,0.667-0.647c-0.033-0.38-0.012-0.763,0.067-1.144
		c0.101-0.486,0.437-0.678,0.863-0.692c0.46-0.014,0.755,0.264,0.829,0.72c0.058,0.358,0.115,0.726,0.09,1.084
		c-0.04,0.547,0.188,0.69,0.702,0.678c1.322-0.027,2.645-0.009,3.968-0.008c0.191,0,0.386-0.005,0.574,0.021
		c0.527,0.074,0.883,0.43,0.884,0.896c0.002,0.526-0.317,0.805-0.793,0.912c-0.529,0.119-1.07,0.067-1.605,0.045
		c-0.399-0.019-0.641,0.115-0.801,0.49c-0.536,1.257-1.217,2.435-2.035,3.529c-0.257,0.346-0.27,0.556,0.103,0.84
		c0.581,0.443,1.188,0.842,1.793,1.247c0.606,0.406,0.746,0.83,0.46,1.282c-0.272,0.432-0.773,0.509-1.379,0.181
		c-0.762-0.41-1.473-0.901-2.097-1.503c-0.263-0.254-0.452-0.25-0.727-0.018c-0.731,0.62-1.483,1.215-2.367,1.617
		c-0.438,0.2-0.818,0.165-1.125-0.233c-0.321-0.417-0.242-0.913,0.213-1.244c0.62-0.45,1.329-0.76,1.911-1.274
		c0.369-0.326,0.455-0.556,0.12-0.987c-0.824-1.063-1.505-2.222-2.005-3.476c-0.137-0.344-0.345-0.464-0.697-0.45
		c-0.439,0.018-0.883,0.027-1.322-0.005c-0.776-0.056-1.165-0.422-1.138-1.021c0.025-0.531,0.414-0.825,1.167-0.844
		C12.328,8.142,12.961,8.155,13.594,8.155z M17.293,10.047c-0.46,0-0.919,0.002-1.379,0c-0.246-0.001-0.363,0.073-0.253,0.345
		c0.354,0.874,0.803,1.692,1.367,2.449c0.178,0.241,0.333,0.218,0.493-0.002c0.538-0.747,1.004-1.536,1.388-2.375
		c0.148-0.325-0.004-0.416-0.296-0.417C18.174,10.046,17.733,10.047,17.293,10.047z"/>
	<path d="M48.496,30.22c-0.021,0.455-0.241,0.693-0.585,0.845c-0.323,0.144-0.6,0.063-0.838-0.176
		c-0.223-0.222-0.354-0.498-0.475-0.783c-0.459-1.075-0.93-2.145-1.373-3.227c-0.129-0.308-0.298-0.456-0.64-0.454
		c-1.458,0.011-2.918,0.015-4.374-0.005c-0.385-0.005-0.542,0.19-0.671,0.499c-0.48,1.149-0.965,2.298-1.46,3.442
		c-0.162,0.375-0.37,0.738-0.841,0.775c-0.7,0.056-1.111-0.58-0.831-1.319c0.468-1.236,0.946-2.471,1.452-3.692
		c1.16-2.799,2.344-5.587,3.503-8.387c0.199-0.48,0.443-0.846,1.025-0.844c0.559,0.001,0.815,0.382,0.997,0.818
		c1.438,3.45,2.868,6.905,4.296,10.36c0.221,0.532,0.436,1.066,0.643,1.602C48.401,29.871,48.452,30.076,48.496,30.22z
		 M42.412,24.627c0.44,0,0.881-0.006,1.321,0.002c0.41,0.007,0.508-0.148,0.351-0.531c-0.497-1.204-0.976-2.417-1.462-3.625
		c-0.049-0.118-0.061-0.293-0.227-0.298c-0.166-0.005-0.189,0.167-0.236,0.287c-0.49,1.228-0.971,2.46-1.469,3.683
		c-0.153,0.376-0.021,0.49,0.34,0.484C41.491,24.623,41.952,24.629,42.412,24.627z"/>
	<g>
		<path d="M20.848,47.351c-0.305,0.107-0.584,0.121-0.839,0.037c-0.255-0.084-0.441-0.268-0.559-0.553
			c-0.118-0.283-0.13-0.553-0.037-0.81c0.093-0.256,0.282-0.436,0.566-0.545c0.658-0.245,1.241-0.539,1.751-0.883
			c0.51-0.345,0.939-0.72,1.288-1.126c0.349-0.407,0.61-0.832,0.787-1.271c0.176-0.442,0.266-0.884,0.266-1.326
			c0-0.371-0.091-0.637-0.273-0.793c-0.182-0.157-0.483-0.236-0.905-0.236h-2.516c-0.256,0-0.457-0.081-0.604-0.243
			c-0.147-0.161-0.221-0.38-0.221-0.653c0-0.274,0.074-0.494,0.221-0.656c0.147-0.161,0.348-0.241,0.604-0.241h3.635
			c0.766,0,1.349,0.206,1.751,0.618c0.402,0.412,0.604,1.016,0.604,1.81c0,0.767-0.127,1.499-0.382,2.2
			c-0.256,0.702-0.621,1.35-1.098,1.943c-0.476,0.594-1.055,1.123-1.735,1.588C22.469,46.677,21.701,47.057,20.848,47.351z
			 M28.104,38.065c0-0.274,0.11-0.481,0.33-0.618c0.222-0.138,0.479-0.205,0.773-0.205s0.552,0.067,0.772,0.205
			c0.221,0.137,0.332,0.344,0.332,0.618v3.414h1.56c0.256,0,0.452,0.089,0.59,0.265c0.138,0.179,0.206,0.39,0.206,0.635
			c0,0.244-0.068,0.451-0.206,0.617s-0.334,0.25-0.59,0.25h-1.56v5.401c0,0.245-0.11,0.441-0.332,0.588
			c-0.221,0.147-0.479,0.222-0.772,0.222s-0.552-0.075-0.773-0.229c-0.22-0.152-0.33-0.355-0.33-0.611V38.065z"/>
	</g>
</g>
</svg>
