<svg width="17" height="17" viewBox="0 0 17 17" fill="none" xmlns="http://www.w3.org/2000/svg">
<g clip-path="url(#clip0_58_15754)">
<path d="M16.726 15.405L13.763 12.443C14.788 11.134 15.407 9.492 15.407 7.704C15.407 3.456 11.951 0 7.704 0C3.456 0 0 3.456 0 7.704C0 11.951 3.456 15.406 7.704 15.406C9.492 15.406 11.135 14.789 12.442 13.763L15.406 16.726C15.587 16.908 15.827 17 16.066 17C16.305 17 16.545 16.908 16.726 16.727C17.091 16.361 17.091 15.77 16.726 15.405ZM1.624 7.704C1.624 4.346 4.345 1.624 7.704 1.624C11.06 1.624 13.783 4.345 13.783 7.704C13.783 11.06 11.06 13.781 7.704 13.781C4.345 13.781 1.624 11.061 1.624 7.704Z" fill="white"/>
</g>
<defs>
<clipPath id="clip0_58_15754">
<rect width="17" height="17" fill="white"/>
</clipPath>
</defs>
</svg>
