<svg width="17" height="17" viewBox="0 0 17 17" fill="none" xmlns="http://www.w3.org/2000/svg">
<g clip-path="url(#clip0_58_15749)">
<path d="M16.245 16.649C16.178 16.649 16.108 16.639 16.041 16.621C15.891 16.577 15.628 16.506 15.304 16.417C14.475 16.19 13.27 15.86 12.393 15.591C11.157 16.284 9.758 16.65 8.327 16.65C3.735 16.649 0 12.915 0 8.325C0 3.735 3.735 0 8.326 0C12.917 0 16.652 3.734 16.652 8.325C16.652 9.846 16.244 11.318 15.468 12.605C15.948 13.623 16.511 14.787 16.847 15.459C16.943 15.583 17 15.739 17 15.909C17 16.317 16.669 16.649 16.26 16.649C16.255 16.649 16.25 16.649 16.245 16.649ZM8.326 1.481C4.552 1.481 1.482 4.551 1.482 8.325C1.482 12.099 4.552 15.169 8.326 15.169C9.598 15.169 10.838 14.817 11.912 14.155C12.098 14.041 12.322 14.014 12.529 14.08C13.146 14.279 14.052 14.536 14.855 14.758C14.558 14.144 14.238 13.468 13.955 12.864C13.845 12.628 13.867 12.352 14.012 12.135C14.77 11.01 15.17 9.693 15.17 8.324C15.169 4.551 12.099 1.481 8.326 1.481Z" fill="white"/>
<path d="M9.53896 10.632C9.56296 10.745 9.50096 11.144 9.45096 11.23C8.88996 11.928 7.94396 12.376 7.35896 12.376C6.88596 12.376 6.86096 11.803 6.99796 11.144C7.14696 10.333 7.37196 9.42498 7.55796 8.50298C7.58296 8.40398 7.55796 8.29198 7.47096 8.29198C7.34596 8.29198 7.14696 8.37898 6.92296 8.54098C6.89696 8.52798 6.83496 8.50198 6.83496 8.46498C6.83496 8.31498 6.89696 8.04098 6.94696 7.95498C7.75696 7.24498 8.65296 6.85898 9.05096 6.85898C9.34996 6.85898 9.34996 7.44398 9.24996 7.94198C9.06196 8.77598 8.68896 10.383 8.66396 10.768C8.65196 10.943 8.70196 11.018 8.78896 11.018C8.96396 11.018 9.23696 10.806 9.46096 10.594C9.47596 10.595 9.52496 10.595 9.53896 10.632ZM9.59996 4.71698C9.66196 4.80398 9.68696 5.11498 9.67496 5.18998C9.61296 5.51398 9.48796 5.77498 9.22596 5.98698C9.08896 6.09898 8.39196 6.22298 8.24296 6.14898C8.08096 6.06198 7.91896 5.93698 7.86896 5.57598C7.84396 5.38998 7.93096 5.02798 8.04296 4.92898C8.26696 4.71698 8.72796 4.54298 9.08896 4.54298C9.35096 4.54198 9.54996 4.64298 9.59996 4.71698Z" fill="white"/>
</g>
<defs>
<clipPath id="clip0_58_15749">
<rect width="17" height="16.649" fill="white"/>
</clipPath>
</defs>
</svg>
