<?xml version="1.0" encoding="utf-8"?>
<!-- Generator: Adobe Illustrator 16.0.0, SVG Export Plug-In . SVG Version: 6.00 Build 0)  -->
<!DOCTYPE svg PUBLIC "-//W3C//DTD SVG 1.1//EN" "http://www.w3.org/Graphics/SVG/1.1/DTD/svg11.dtd">
<svg version="1.1" id="Layer_1" xmlns="http://www.w3.org/2000/svg" xmlns:xlink="http://www.w3.org/1999/xlink" x="0px" y="0px"
	 width="19px" height="19px" viewBox="0 0 19 19" enable-background="new 0 0 19 19" xml:space="preserve">
<g>
	<path d="M19,15.201C19,17.299,17.298,19,15.2,19H3.8C1.702,19,0,17.299,0,15.201V3.8C0,1.702,1.702,0,3.8,0h11.4
		C17.298,0,19,1.702,19,3.8V15.201z"/>
	<path fill="#FFFFFF" d="M11.057,8.485l4.925-5.627h-2.255l-3.713,4.245L6.802,2.858H2.151l5.557,7.266l-5.267,6.019h2.255
		l4.065-4.644l3.553,4.644h4.534L11.057,8.485z M4.783,4.136h1.341l8.061,10.658h-1.249L4.783,4.136z"/>
</g>
</svg>
