<?xml version="1.0" encoding="utf-8"?>
<!-- Generator: Adobe Illustrator 16.0.0, SVG Export Plug-In . SVG Version: 6.00 Build 0)  -->
<!DOCTYPE svg PUBLIC "-//W3C//DTD SVG 1.1//EN" "http://www.w3.org/Graphics/SVG/1.1/DTD/svg11.dtd">
<svg version="1.1" id="Layer_1" xmlns="http://www.w3.org/2000/svg" xmlns:xlink="http://www.w3.org/1999/xlink" x="0px" y="0px"
	 width="19px" height="19px" viewBox="0 0 19 19" enable-background="new 0 0 19 19" xml:space="preserve">
<g>
	<path fill="#1877F2" d="M19,9.499C19,4.253,14.746,0,9.5,0S0,4.253,0,9.499c0,4.742,3.475,8.673,8.016,9.385v-6.638H5.604V9.499
		h2.412V7.407c0-2.381,1.419-3.697,3.588-3.697c1.039,0,2.127,0.186,2.127,0.186v2.338h-1.197c-1.18,0-1.549,0.732-1.549,1.484
		v1.781h2.635l-0.422,2.747h-2.213v6.638C15.525,18.172,19,14.241,19,9.499"/>
	<path fill="#FFFFFF" d="M13.197,12.246l0.422-2.747h-2.635V7.718c0-0.752,0.369-1.484,1.549-1.484h1.197V3.896
		c0,0-1.088-0.186-2.127-0.186c-2.169,0-3.588,1.316-3.588,3.697v2.092H5.604v2.747h2.412v6.638C8.5,18.96,8.996,19,9.499,19
		c0.506,0,1.002-0.04,1.485-0.116v-6.638H13.197z"/>
</g>
</svg>
