<?xml version="1.0" encoding="utf-8"?>
<!-- Generator: Adobe Illustrator 16.0.0, SVG Export Plug-In . SVG Version: 6.00 Build 0)  -->
<!DOCTYPE svg PUBLIC "-//W3C//DTD SVG 1.1//EN" "http://www.w3.org/Graphics/SVG/1.1/DTD/svg11.dtd">
<svg version="1.1" id="Layer_1" xmlns="http://www.w3.org/2000/svg" xmlns:xlink="http://www.w3.org/1999/xlink" x="0px" y="0px"
	 width="20px" height="16.824px" viewBox="0 0 20 16.824" enable-background="new 0 0 20 16.824" xml:space="preserve">
<g>
	<path fill="#32B44A" d="M16.843-0.005H3.16C1.415-0.005,0,1.414,0,3.165v7.521c0,1.75,1.414,3.17,3.159,3.17h4.712l1.609,2.619
		c0,0,0.017,0.029,0.052,0.073c0.094,0.161,0.268,0.271,0.467,0.271c0.199,0,0.371-0.106,0.466-0.268
		c0.041-0.047,0.054-0.078,0.054-0.078l1.608-2.617h4.713c1.744,0,3.159-1.42,3.159-3.17V3.165
		C20.002,1.414,18.587-0.005,16.843-0.005"/>
	<path fill="#FFFFFF" d="M4.444,5.505c0,0-0.546,0-1.042,0.482V4.045H2.177v5.102h1.238V8.747c0,0,0.292,0.526,1.028,0.526
		c0,0,1.726-0.063,1.726-1.903C6.169,7.37,6.105,5.505,4.444,5.505 M4.174,8.197c-0.435,0-0.787-0.353-0.787-0.786
		c0-0.436,0.353-0.787,0.787-0.787s0.787,0.352,0.787,0.787C4.96,7.845,4.608,8.197,4.174,8.197"/>
	<path fill="#FFFFFF" d="M6.562,3.931v1.18c0,0,0.559-0.025,0.559,1.016v3.02h1.18V5.848C8.302,5.848,8.352,3.931,6.562,3.931"/>
	<path fill="#FFFFFF" d="M11.187,5.521c0,0-2.023,0-2.023,1.89c0,0-0.065,1.862,2.023,1.862c0,0,2.069-0.002,2.069-1.862
		C13.257,7.411,13.324,5.521,11.187,5.521 M11.187,8.197c-0.435,0-0.787-0.353-0.787-0.786c0-0.436,0.353-0.787,0.787-0.787
		c0.435,0,0.787,0.352,0.787,0.787C11.974,7.845,11.621,8.197,11.187,8.197"/>
	<path fill="#FFFFFF" d="M16.635,5.645v0.343c0,0-0.352-0.467-1.027-0.467c0,0-1.732-0.073-1.732,1.877c0,0-0.018,1.816,1.686,1.816
		c0,0,0.694,0.028,1.075-0.466v0.286c0,0,0.086,0.894-0.781,0.894h-0.294v1.086h0.477c0,0,1.789,0.02,1.789-1.914V5.645H16.635z
		 M15.902,8.197c-0.434,0-0.785-0.353-0.785-0.786c0-0.436,0.353-0.787,0.785-0.787c0.436,0,0.787,0.352,0.787,0.787
		C16.689,7.845,16.337,8.197,15.902,8.197"/>
</g>
</svg>
