<?xml version="1.0" encoding="utf-8"?>
<!-- Generator: Adobe Illustrator 16.0.0, SVG Export Plug-In . SVG Version: 6.00 Build 0)  -->
<!DOCTYPE svg PUBLIC "-//W3C//DTD SVG 1.1//EN" "http://www.w3.org/Graphics/SVG/1.1/DTD/svg11.dtd">
<svg version="1.1" id="Layer_1" xmlns="http://www.w3.org/2000/svg" xmlns:xlink="http://www.w3.org/1999/xlink" x="0px" y="0px"
	 width="23px" height="16.102px" viewBox="0 0 23 16.102" enable-background="new 0 0 23 16.102" xml:space="preserve">
<g>
	<path fill="#FF0000" d="M22.519,2.515c-0.264-0.989-1.045-1.77-2.033-2.033c-1.793-0.481-8.986-0.481-8.986-0.481
		s-7.193,0-8.985,0.481C1.523,0.747,0.745,1.526,0.48,2.515C0,4.309,0,8.051,0,8.051s0,3.743,0.48,5.538
		c0.265,0.988,1.043,1.769,2.034,2.031c1.792,0.481,8.985,0.481,8.985,0.481s7.193,0,8.986-0.481
		c0.988-0.264,1.771-1.043,2.033-2.031c0.48-1.795,0.48-5.538,0.48-5.538S22.999,4.309,22.519,2.515"/>
	<polygon fill="#FFFFFF" points="9.199,11.501 15.174,8.052 9.199,4.601 	"/>
</g>
</svg>
