<?xml version="1.0" encoding="utf-8"?>
<!-- Generator: Adobe Illustrator 16.0.0, SVG Export Plug-In . SVG Version: 6.00 Build 0)  -->
<!DOCTYPE svg PUBLIC "-//W3C//DTD SVG 1.1//EN" "http://www.w3.org/Graphics/SVG/1.1/DTD/svg11.dtd">
<svg version="1.1" id="Layer_1" xmlns="http://www.w3.org/2000/svg" xmlns:xlink="http://www.w3.org/1999/xlink" x="0px" y="0px"
	 width="16.178px" height="15.746px" viewBox="0 0 16.178 15.746" enable-background="new 0 0 16.178 15.746" xml:space="preserve">
<g>
	<polygon points="3.861,15.562 2.031,15.562 2.031,1.748 0,1.748 0.434,0 3.861,0 	"/>
	<path d="M8.984,15.746c-0.319,0-0.604-0.121-0.848-0.361c-0.24-0.239-0.361-0.521-0.361-0.837c0-0.33,0.119-0.611,0.355-0.84
		c0.467-0.449,1.244-0.45,1.705,0.001c0.229,0.228,0.348,0.509,0.348,0.839s-0.121,0.616-0.359,0.85
		C9.588,15.629,9.307,15.746,8.984,15.746z"/>
	<path d="M8.984,9.754c-0.319,0-0.604-0.12-0.846-0.354C7.896,9.162,7.775,8.885,7.775,8.576c0-0.336,0.119-0.623,0.354-0.854
		c0.467-0.459,1.248-0.459,1.709,0.002c0.229,0.229,0.346,0.517,0.346,0.853c0,0.321-0.119,0.603-0.352,0.833
		C9.598,9.638,9.313,9.754,8.984,9.754z"/>
	<polygon points="16.178,15.562 14.348,15.562 14.348,1.748 12.316,1.748 12.75,0 16.178,0 	"/>
</g>
</svg>
