<?xml version="1.0" encoding="utf-8"?>
<!-- Generator: Adobe Illustrator 16.0.0, SVG Export Plug-In . SVG Version: 6.00 Build 0)  -->
<!DOCTYPE svg PUBLIC "-//W3C//DTD SVG 1.1//EN" "http://www.w3.org/Graphics/SVG/1.1/DTD/svg11.dtd">
<svg version="1.1" id="Layer_1" xmlns="http://www.w3.org/2000/svg" xmlns:xlink="http://www.w3.org/1999/xlink" x="0px" y="0px"
	 width="31.986px" height="32.984px" viewBox="0 0 31.986 32.984" enable-background="new 0 0 31.986 32.984" xml:space="preserve">
<g>
	<polygon points="30.084,9.278 24.123,9.278 31.986,1.414 30.572,0 22.709,7.864 22.709,1.902 20.709,1.902 20.709,11.278 
		30.084,11.278 	"/>
	<polygon points="9.279,7.864 1.416,0 0.002,1.414 7.865,9.278 1.904,9.278 1.904,11.278 11.279,11.278 11.279,1.902 9.279,1.902 	
		"/>
	<polygon points="30.082,23.707 30.082,21.707 20.707,21.707 20.707,31.082 22.707,31.082 22.707,25.121 30.57,32.985 
		31.984,31.571 24.121,23.707 	"/>
	<polygon points="1.902,23.707 7.863,23.707 0,31.571 1.414,32.985 9.277,25.121 9.277,31.082 11.277,31.082 11.277,21.707 
		1.902,21.707 	"/>
</g>
</svg>
