<?xml version="1.0" encoding="utf-8"?>
<!-- Generator: Adobe Illustrator 16.0.0, SVG Export Plug-In . SVG Version: 6.00 Build 0)  -->
<!DOCTYPE svg PUBLIC "-//W3C//DTD SVG 1.1//EN" "http://www.w3.org/Graphics/SVG/1.1/DTD/svg11.dtd">
<svg version="1.1" id="Layer_1" xmlns="http://www.w3.org/2000/svg" xmlns:xlink="http://www.w3.org/1999/xlink" x="0px" y="0px"
	 width="22px" height="20.359px" viewBox="0 0 22 20.359" enable-background="new 0 0 22 20.359" xml:space="preserve">
<g>
	<path fill="#231F20" d="M13.269,5.689H4.824c-0.235,0-0.426-0.19-0.426-0.426c0-0.234,0.188-0.426,0.426-0.426h8.444
		c0.234,0,0.425,0.19,0.425,0.426S13.505,5.689,13.269,5.689z"/>
	<path fill="#231F20" d="M13.269,8.423H4.824c-0.235,0-0.426-0.189-0.426-0.425c0-0.234,0.188-0.426,0.426-0.426h8.444
		c0.234,0,0.425,0.19,0.425,0.426C13.693,8.232,13.505,8.423,13.269,8.423z"/>
	<path fill="#231F20" d="M9.046,11.156H4.824c-0.235,0-0.426-0.19-0.426-0.425c0-0.235,0.188-0.426,0.426-0.426h4.222
		c0.235,0,0.426,0.189,0.426,0.426C9.472,10.966,9.281,11.156,9.046,11.156z"/>
	<path fill="#231F20" d="M19.199,20.359c-0.06,0-0.116-0.002-0.175-0.005c-0.033,0.003-0.064,0.005-0.1,0.005H2.526
		c-1.395,0-2.525-1.133-2.525-2.527V2.525C0.001,1.132,1.134,0,2.526,0h13.12c1.393,0,2.526,1.133,2.526,2.525v2.394h1.299
		c1.395,0,2.527,1.135,2.527,2.527v10.113C22.001,19.103,20.743,20.359,19.199,20.359z M18.175,6.692v10.867
		c0,0.564,0.459,1.025,1.024,1.025s1.026-0.461,1.026-1.025V7.446c0-0.416-0.338-0.754-0.754-0.754H18.175z M2.526,1.773
		c-0.416,0-0.753,0.337-0.753,0.752v15.307c0,0.416,0.337,0.754,0.753,0.754h14.068c-0.127-0.317-0.194-0.664-0.194-1.025V2.525
		c0-0.415-0.339-0.752-0.754-0.752H2.526z"/>
</g>
</svg>
