<?xml version="1.0" encoding="utf-8"?>
<!-- Generator: Adobe Illustrator 16.0.0, SVG Export Plug-In . SVG Version: 6.00 Build 0)  -->
<!DOCTYPE svg PUBLIC "-//W3C//DTD SVG 1.1//EN" "http://www.w3.org/Graphics/SVG/1.1/DTD/svg11.dtd">
<svg version="1.1" id="Layer_1" xmlns="http://www.w3.org/2000/svg" xmlns:xlink="http://www.w3.org/1999/xlink" x="0px" y="0px"
	 width="18.053px" height="22.008px" viewBox="0 0 18.053 22.008" enable-background="new 0 0 18.053 22.008" xml:space="preserve">
<g>
	<path opacity="0.5" fill="#FFFFFF" enable-background="new    " d="M15.038,1c1.112,0,2.017,0.901,2.017,2.016v15.976
		c0,1.113-0.903,2.017-2.017,2.017H3.017C1.904,21.008,1,20.106,1,18.991V3.016C1,1.903,1.903,1,3.017,1H15.038 M15.038,0H3.017
		C1.354,0,0,1.353,0,3.016v15.976c0,1.664,1.354,3.017,3.017,3.017h12.021c1.663,0,3.016-1.353,3.016-3.017V3.016
		C18.053,1.353,16.701,0,15.038,0L15.038,0z"/>
	<g opacity="0.38">
		<path fill="#FFFFFF" d="M13.028,4.079h1v13.875h-1V4.079z"/>
		<path fill="#FFFFFF" d="M10.023,4.079h1v13.875h-1V4.079z"/>
		<path fill="#FFFFFF" d="M7.064,4.079h1v13.875h-1V4.079z"/>
		<path fill="#FFFFFF" d="M4.044,4.079h1v13.875h-1V4.079z"/>
	</g>
	<polygon fill="#FFFFFF" points="7.996,8.079 7.996,4.079 4.028,4.079 4.028,8.079 4.028,12.079 7.996,12.079 14.028,12.079 
		14.028,8.079 	"/>
</g>
</svg>
