<?xml version="1.0" encoding="utf-8"?>
<!-- Generator: Adobe Illustrator 16.0.0, SVG Export Plug-In . SVG Version: 6.00 Build 0)  -->
<!DOCTYPE svg PUBLIC "-//W3C//DTD SVG 1.1//EN" "http://www.w3.org/Graphics/SVG/1.1/DTD/svg11.dtd">
<svg version="1.1" id="Layer_1" xmlns="http://www.w3.org/2000/svg" xmlns:xlink="http://www.w3.org/1999/xlink" x="0px" y="0px"
	 width="32.277px" height="29.973px" viewBox="0 0 32.277 29.973" enable-background="new 0 0 32.277 29.973" xml:space="preserve">
<g>
	<path fill="#231F20" d="M24.024,29.973c-0.029,0-0.061-0.002-0.092-0.005c-2.481-0.192-5.111-2.122-6.199-3.545
		c-4.076,0.248-7.857-1.104-10.669-3.83c-1.48-1.436-2.597-3.188-3.226-5.063c-0.22-0.654,0.133-1.363,0.788-1.584
		c0.658-0.217,1.363,0.135,1.583,0.789c0.503,1.5,1.399,2.906,2.596,4.063c2.34,2.269,5.521,3.365,8.955,3.117
		c0.755-0.053,1.473,0.291,1.896,0.9c0.249,0.36,0.699,0.803,1.251,1.221c-0.169-0.672-0.16-1.385,0.172-2.09
		c0.23-0.494,0.64-0.879,1.146-1.078c5.535-2.17,7.772-6.957,7.535-10.74c-0.277-4.424-3.446-6.996-6.056-8.374
		c-0.863-0.455-2.029-0.823-3.279-1.038c-1.461-0.252-3.729-0.409-6.26,0.255c-0.668,0.177-1.353-0.225-1.526-0.893
		s0.224-1.352,0.892-1.526c2.964-0.777,5.613-0.593,7.316-0.301c1.504,0.258,2.934,0.717,4.025,1.293
		c4.487,2.371,7.108,6.074,7.383,10.429c0.35,5.579-3.24,10.846-8.95,13.155c-0.044,0.308,0.146,0.978,1.397,2.404
		c0.336,0.385,0.844,0.965,0.456,1.742C24.945,29.701,24.497,29.973,24.024,29.973z"/>
	<path fill="#231F20" d="M4.163,15.735L4.163,15.735c-0.236,0-0.455-0.142-0.553-0.355c-0.166-0.364,0.066-0.631,0.236-0.823
		c0.646-0.738,0.756-1.099,0.716-1.275c-2.9-1.165-4.728-3.837-4.551-6.667C0.15,4.41,1.477,2.536,3.749,1.336
		c0.553-0.292,1.275-0.523,2.039-0.654c2.021-0.346,4.17,0.034,5.868,1.068c3.986,2.431,3.248,6.179,2.746,7.676
		c-0.319,0.953-0.885,1.84-1.634,2.564c-1.413,1.369-3.339,2.07-5.421,1.938c-0.544,0.721-1.88,1.704-3.138,1.805
		C4.195,15.735,4.178,15.735,4.163,15.735z M7.294,1.754c-0.438,0-0.877,0.037-1.305,0.11C5.35,1.974,4.753,2.163,4.31,2.397
		C2.974,3.104,1.352,4.42,1.21,6.689c-0.121,1.938,1.023,4.39,3.855,5.501c0.251,0.098,0.452,0.287,0.566,0.533
		c0.181,0.383,0.167,0.771,0.057,1.137c0.323-0.234,0.588-0.488,0.729-0.691c0.188-0.276,0.51-0.446,0.855-0.446
		c0.245,0.016,0.41,0.022,0.573,0.022c1.563,0,3.014-0.574,4.088-1.617c0.612-0.592,1.072-1.311,1.33-2.082
		c0.511-1.521,0.899-4.36-2.231-6.27C9.648,1.932,8.235,1.754,7.294,1.754z"/>
	<path fill="#231F20" d="M22.853,10.085H18.53c-0.331,0-0.601-0.269-0.601-0.6s0.27-0.601,0.601-0.601h4.323
		c0.331,0,0.601,0.27,0.601,0.601S23.184,10.085,22.853,10.085z"/>
	<path fill="#231F20" d="M19.537,13.951h-3.038c-0.332,0-0.602-0.27-0.602-0.6c0-0.332,0.27-0.601,0.602-0.601h3.038
		c0.331,0,0.601,0.269,0.601,0.601C20.138,13.682,19.868,13.951,19.537,13.951z"/>
	<path fill="#231F20" d="M26.023,13.951h-3.17c-0.332,0-0.601-0.27-0.601-0.6c0-0.332,0.269-0.601,0.601-0.601h3.17
		c0.332,0,0.601,0.269,0.601,0.601C26.622,13.682,26.355,13.951,26.023,13.951z"/>
	<path fill="#231F20" d="M14.53,17.817h-2.772c-0.332,0-0.602-0.271-0.602-0.601c0-0.332,0.27-0.6,0.602-0.6h2.772
		c0.332,0,0.601,0.268,0.601,0.6C15.13,17.546,14.862,17.817,14.53,17.817z"/>
	<path fill="#231F20" d="M22.853,17.817h-3.98c-0.331,0-0.602-0.271-0.602-0.601c0-0.332,0.271-0.6,0.602-0.6h3.98
		c0.331,0,0.601,0.268,0.601,0.6C23.452,17.546,23.184,17.817,22.853,17.817z"/>
</g>
</svg>
