<?xml version="1.0" encoding="utf-8"?>
<!-- Generator: Adobe Illustrator 16.0.0, SVG Export Plug-In . SVG Version: 6.00 Build 0)  -->
<!DOCTYPE svg PUBLIC "-//W3C//DTD SVG 1.1//EN" "http://www.w3.org/Graphics/SVG/1.1/DTD/svg11.dtd">
<svg version="1.1" id="Layer_1" xmlns="http://www.w3.org/2000/svg" xmlns:xlink="http://www.w3.org/1999/xlink" x="0px" y="0px"
	 width="63px" height="55.979px" viewBox="0 0 63 55.979" enable-background="new 0 0 63 55.979" xml:space="preserve">
<path d="M63,11.478c0-2.286-0.995-4.452-2.73-5.94c-1.734-1.49-4.024-2.145-6.287-1.795L43.031,5.428
	c-0.309,0.046-0.618,0.032-0.919-0.046L22.307,0.252c-1.06-0.276-2.146-0.325-3.229-0.148L6.562,2.155C2.76,2.779,0,6.027,0,9.88
	v34.733c0,2.303,1.006,4.477,2.76,5.967c1.753,1.49,4.065,2.131,6.333,1.76l10.881-1.785c0.314-0.053,0.631-0.037,0.939,0.043
	l19.804,5.133c0.641,0.164,1.301,0.248,1.961,0.248c0.396,0,0.799-0.027,1.195-0.09l12.49-1.924
	c1.847-0.283,3.533-1.223,4.751-2.641c1.215-1.418,1.885-3.229,1.885-5.098L63,11.478L63,11.478z M54.288,5.732
	c1.677-0.262,3.381,0.226,4.669,1.333c1.29,1.105,2.029,2.715,2.029,4.413v26.066c-1.834-1.611-2.932-2.678-2.691-5.16
	c0.09-0.912,0.395-1.775,0.719-2.689c0.664-1.876,1.418-4.004-0.162-6.344c-2.053-3.02-5.568-2.227-7.895-1.702
	c-1.629,0.365-2.629,0.075-3.583-2.536c-0.288-0.771-0.394-1.556-0.506-2.388c-0.032-0.242-0.065-0.488-0.104-0.738
	c-0.098-0.645-0.34-1.344-0.596-2.083c-0.391-1.133-0.878-2.542-0.554-3.247c0.587-1.292,1.44-2.405,2.344-3.583l0.317-0.417
	L54.288,5.732z M6.888,4.14L19.402,2.09c0.805-0.132,1.613-0.095,2.399,0.11l7.803,2.021c-0.288,0.487-1.202,1.141-3.499,1.955
	l-0.121,0.043c-0.635,0.229-1.429,0.374-2.27,0.528c-1.82,0.333-3.882,0.71-5.237,2.138c-1.127,1.199-1.159,3.021-1.186,4.628
	c-0.022,1.331-0.045,2.706-0.703,3.147c-0.417,0.278-2.278-0.59-3.277-1.058c-1.779-0.828-3.618-1.688-5.171-1.368
	c-1.286,0.262-2.211,1.1-2.605,2.361c-0.511,1.635-0.01,3.855,1.139,5.055c0.334,0.351,0.792,0.71,1.322,1.126
	c1.027,0.807,2.579,2.025,2.564,2.924c-0.003,0.159-0.26,0.456-0.816,0.731c-1.282,0.638-3.024,0.67-3.372,0.418
	c-1.448-1.142-2.296-2.626-3.192-4.197c-0.362-0.636-0.744-1.289-1.166-1.939V9.879C2.014,7.017,4.064,4.604,6.888,4.14z
	 M24.949,48.613c-2.249-1.162-4.002-3.021-4.692-4.98c-0.505-1.398-0.111-2.555,0.387-4.018c0.12-0.354,0.242-0.709,0.356-1.086
	c0.277-0.938,0.336-2.141,0.399-3.414c0.163-3.313,0.436-5.686,2.471-6.063c0.385-0.074,0.499-0.004,0.993,0.611
	c0.439,0.547,1.104,1.377,2.376,1.422c1.212,0.01,2.154-0.725,2.915-1.322l0.333-0.256c1.776-1.333,4.067,0.461,5.682,2.207
	c0.326,0.346,0.642,0.719,0.958,1.094c1.02,1.203,2.072,2.449,3.608,3.172c1.011,0.48,2.103,0.566,3.157,0.65
	c1.029,0.082,2.002,0.16,2.705,0.607c0.116,0.074,0.125,0.115,0.127,0.129c0.021,0.102,0.021,0.523-0.813,1.691
	c-1.128,1.625-1.646,3.016-2.247,4.623c-0.137,0.365-0.276,0.742-0.433,1.141c-0.182,0.463-0.608,0.639-1.537,0.934
	c-0.426,0.137-0.864,0.275-1.293,0.5c-1.78,0.947-2.281,2.936-2.684,4.535c-0.148,0.588-0.289,1.145-0.476,1.605
	c-0.043,0.109-0.101,0.211-0.158,0.309l-10.22-2.648C26.346,49.499,25.709,49.011,24.949,48.613z M59.587,50.011
	c-0.903,1.055-2.157,1.75-3.528,1.963L43.57,53.896c-0.789,0.121-1.585,0.08-2.346-0.117l-2.148-0.557
	c0.012-0.027,0.029-0.053,0.042-0.08c0.233-0.58,0.397-1.229,0.556-1.859c0.354-1.398,0.687-2.723,1.668-3.242
	c0.269-0.141,0.606-0.248,0.965-0.361c0.951-0.303,2.252-0.715,2.805-2.121c0.158-0.408,0.303-0.795,0.443-1.168
	c0.575-1.545,1.03-2.764,2.006-4.17c0.65-0.908,1.369-2.1,1.144-3.24c-0.117-0.596-0.476-1.094-1.026-1.439
	c-1.119-0.713-2.391-0.814-3.621-0.914c-0.914-0.072-1.777-0.141-2.455-0.463c-1.146-0.537-2.016-1.564-2.934-2.652
	c-0.342-0.402-0.68-0.801-1.021-1.166c-4.147-4.481-7.021-3.457-8.365-2.444l-0.363,0.279c-0.565,0.444-1.13,0.866-1.627,0.895
	c-0.285-0.01-0.438-0.15-0.855-0.669c-0.49-0.611-1.313-1.629-2.929-1.33c-3.758,0.693-3.964,4.882-4.115,7.941
	c-0.057,1.15-0.111,2.238-0.316,2.938c-0.106,0.348-0.22,0.684-0.333,1.014c-0.551,1.615-1.12,3.285-0.379,5.344
	c0.565,1.604,1.646,3.102,3.082,4.344l-0.023-0.006c-0.354-0.092-0.711-0.137-1.071-0.137c-0.233,0-0.466,0.02-0.698,0.057
	L8.773,50.353c-1.688,0.277-3.402-0.199-4.705-1.305c-1.302-1.107-2.049-2.723-2.049-4.434V24.655
	c0.796,1.342,1.706,2.67,3.11,3.775c0.507,0.401,1.296,0.575,2.166,0.575c1.086,0,2.297-0.271,3.235-0.713
	c1.294-0.611,2.022-1.515,2.044-2.553c0.03-1.901-1.836-3.367-3.334-4.544c-0.45-0.354-0.875-0.688-1.11-0.935
	c-0.581-0.605-1-2.014-0.672-3.062c0.176-0.562,0.521-0.875,1.087-0.991c0.9-0.185,2.502,0.562,3.916,1.222
	c2.003,0.935,3.895,1.816,5.25,0.904c1.531-1.027,1.565-3.024,1.594-4.786c0.022-1.302,0.044-2.649,0.637-3.278
	c0.899-0.948,2.544-1.249,4.135-1.541c0.885-0.161,1.799-0.328,2.586-0.612l0.115-0.042c1.352-0.479,4.155-1.479,4.818-3.337
	l10.009,2.594c0.568,0.146,1.149,0.177,1.729,0.086l2.093-0.322c-0.609,0.842-1.192,1.728-1.646,2.726
	c-0.658,1.436-0.054,3.19,0.481,4.739c0.226,0.652,0.438,1.269,0.51,1.729c0.035,0.238,0.068,0.472,0.099,0.705
	c0.122,0.907,0.248,1.844,0.614,2.816c0.807,2.209,2.211,4.635,5.914,3.802c2.636-0.597,4.594-0.881,5.783,0.867
	c0.963,1.427,0.619,2.597-0.07,4.542c-0.35,0.988-0.711,2.01-0.824,3.168c-0.348,3.619,1.571,5.297,3.602,7.072
	c0.354,0.311,0.723,0.639,1.097,0.982v5.98C60.986,47.615,60.489,48.958,59.587,50.011z"/>
</svg>
