<?xml version="1.0" encoding="utf-8"?>
<!-- Generator: Adobe Illustrator 16.0.0, SVG Export Plug-In . SVG Version: 6.00 Build 0)  -->
<!DOCTYPE svg PUBLIC "-//W3C//DTD SVG 1.1//EN" "http://www.w3.org/Graphics/SVG/1.1/DTD/svg11.dtd">
<svg version="1.1" id="Layer_1" xmlns="http://www.w3.org/2000/svg" xmlns:xlink="http://www.w3.org/1999/xlink" x="0px" y="0px"
	 width="27.262px" height="32.357px" viewBox="0 0 27.262 32.357" enable-background="new 0 0 27.262 32.357" xml:space="preserve">
<g>
	<g>
		<path fill="#231F20" d="M27.261,3.517h-0.234c-1.032-0.873-4.895,0.719-6.564,0.377c-1.954-0.398-3.27-0.861-4.919-1.25
			c-2.619-0.615-5.871,0.979-8.447,1.392C5.848,4.235,3.808,3.507,3.082,3.796c-0.156,0-0.284,0.189-0.44,0.189
			C2.987,1.296,2.672,2.072,1.937,0H1.234c-0.16,0.966-0.51,1.436-1.172,1.876C0.067,2.515,0.07,2.948,0.297,3.281
			c0.362,0.864,0.897,0.767,2.109,0.704v0.234H2.173v3.048h0.233C2.607,6.698,2.66,5.815,2.64,4.922h0.234
			c0.28,1.287,0.5,2.503,0.469,4.221c0.671-0.854,0.748-2.614,0-3.517V5.393c1.329,0.234,2.579,0.303,3.985,0.234
			c2.526-0.14,3.924-0.875,5.858-1.351c2.632-0.643,4.264,0.74,6.08,1.178c2.679,0.644,3.71-0.511,6.297-0.682
			c-0.194,1.495-0.732,2.369-0.339,4.243c0.434,2.062,0.967,5.008,0.398,7.631c-0.852,3.926-0.532,7.503-0.118,10.903
			c-1.169,0.533-2.712,1.069-4.343,1.055c0.161-0.912,0.564-1.433,1.173-1.876V26.26h-0.234v-0.234
			c-1.074,0.213-1.147,0.683-1.877,1.173c0.207,0.554,0.089,0.388,0.47,0.703v0.47c-2.615-0.601-4.916-1.989-7.736-1.876
			c-2.683,0.107-5.107,2.146-8.911,0.703H3.344v1.176c1.173,0.258,3.294,1.195,4.681,0.915c0.601-0.121,1.234-0.313,2.263-0.685
			c1.027-0.371,3.766-0.75,5.383-0.074c3.37,1.408,6.901,2.85,11.123,0.074c0.481-1.189-0.631-3.756-0.206-5.896
			c0.352-1.771,0.054-3.874,0.439-5.595c0.595-2.641-0.082-5.794-0.514-7.737C26.047,7.278,26.753,5.022,27.261,3.517z M0.297,6.799
			h0.469V4.454H0.297V6.799z M7.565,6.33C6.829,7.446,5.171,8.89,4.048,9.612v0.235h0.234c0.241,0.188,0.059,0.086,0.47,0.234
			c1.033-1.104,2.592-1.862,3.517-3.05c0.003-0.003,0.467,0.004,0.235-0.233H8.268V6.33H7.565z M21.4,8.206h0.938
			c0.078-0.234,0.156-0.47,0.233-0.704c-0.633-0.399-0.893-0.896-1.642-1.172C20.456,7.359,20.765,7.224,21.4,8.206z M0.53,8.206
			v4.455c0.78-0.002,1.396-0.067,1.876-0.234c0.03-1.156,0.25-3.248-0.233-3.986V7.972C1.448,7.983,0.97,8.053,0.53,8.206z
			 M5.456,11.254l0.233,0.469c1.499-0.229,3.356-1.905,3.986-3.048h0.233V8.441C9.496,8.212,9.521,8.138,8.971,7.972
			C8.433,9.133,6.514,10.583,5.456,11.254z M19.054,7.972c-0.24,1.31,2.016,2.823,2.813,3.986h0.47v-0.235h0.233
			c-0.567-1.524-2.26-2.17-2.813-3.751H19.054z M23.275,8.675h-0.469v0.234h-0.234c0.191,0.979,0.507,0.986,0.938,1.642h0.703
			c-0.093-0.481-0.059-0.452-0.234-0.703C23.762,9.215,23.576,9.16,23.275,8.675z M3.344,12.427c0.573-0.807,0.424-2.512,0-3.049
			V12.427z M18.82,11.02c-0.254-0.844-0.565-1.359-1.405-1.642c-0.468,1.027-0.115,0.823,0.702,1.642H18.82z M7.095,12.896v0.703
			c1.884-0.41,2.414-2.447,4.221-3.048c-0.093-0.481-0.058-0.452-0.233-0.703C10.842,9.411,7.736,12.466,7.095,12.896z
			 M13.193,11.723c-0.181,0.162-0.522,0.31-0.704,0.47c-3.101,0.103-4.113,2.692-3.984,6.097c0.276,0.266,0.502,0.596,0.703,0.938
			c0.547,0.114,0.346,0.033,1.172,0c-0.205,0.276-0.189,0.267-0.47,0.469c0.218,0.634,0.402,0.688,0.703,1.174
			c1.281,0.063,2.359,0.267,3.283-0.471c0.536-0.241,0.508-0.4,0.938-0.703c0.067-0.929,0.347-1.541,0-2.109
			c-0.328-0.751-1.679-1.065-2.346-1.407c-0.011-1.991,0.45-2.21,1.174-3.282c1.293-0.034,2.59-0.082,3.281,0.469
			c0.953,0.355,1.52,1.414,1.643,2.579h0.233c-0.163-1.854-1.1-2.359-1.876-3.517C15.723,12.091,14.974,11.691,13.193,11.723z
			 M19.992,13.364c0.242,0.189,0.06,0.088,0.471,0.234c0.241-0.188,0.058-0.086,0.469-0.234c-0.286-0.801-0.663-0.835-0.938-1.642
			h-0.702C19.23,12.553,19.255,12.815,19.992,13.364z M0.297,16.648h0.469v-3.752H0.297V16.648z M3.344,23.916
			c0,0.078,0.234-0.078,0.234,0c1.08,0.5,2.427,2.298,3.048,3.282h0.469v-0.233H7.33c-0.259-1.436-1.941-3.627-3.609-3.699
			c0.493-2.493-0.771-9.158-1.548-10.37c-0.351,1.015-0.265,2.837-0.235,4.221c0.506-0.215,0.341-0.202,0.704-0.469
			c0.466,1.882,1.407,5.736,0,7.503v0.938h0.234C2.996,24.781,3.163,24.166,3.344,23.916C3.108,23.684,3.347,23.913,3.344,23.916z
			 M3.11,13.364c-0.134,0.377-0.196,0.562-0.234,1.174H3.11C3.271,14.028,3.41,13.844,3.11,13.364z M16.711,20.164v0.233
			c0.899-0.318,1.159-0.927,1.876-1.406c0.121-0.8,0.471-1.888,0-2.578C18.538,18.262,17.865,19.431,16.711,20.164z M2.406,17.351
			c-0.779,0.002-1.396,0.067-1.876,0.234v4.924c0.725-0.011,1.202-0.081,1.643-0.234c-0.031-1.255-0.3-3.636,0.233-4.455V17.351z
			 M10.847,23.682c-0.422-1.537-2.041-1.797-2.579-3.283H7.095c0.569,1.492,2.131,2.002,2.813,3.519
			C10.451,23.84,10.492,23.807,10.847,23.682z M19.054,22.275c1.055-0.167,1.188-0.498,1.876-0.938
			c-0.093-0.481-0.058-0.452-0.234-0.703c-0.252-0.178-0.217-0.147-0.704-0.235c-0.328,0.561-0.639,1.042-1.172,1.407L19.054,22.275
			z M16.241,20.634c0.241,0.188,0.059,0.086,0.47,0.234v-0.234H16.241z M6.392,23.213h0.703c-0.286-0.801-0.663-0.835-0.938-1.643
			H5.455C5.646,22.55,5.962,22.559,6.392,23.213z M21.635,22.04c-0.232,0.68-0.406,0.828-0.938,1.173v0.703
			c0.234,0.078,0.47,0.155,0.704,0.233c0.442-0.681,1.011-1.139,1.406-1.876C22.429,22.142,22.247,22.078,21.635,22.04z
			 M18.117,22.509c-0.385,0.631-0.771,1.029-1.406,1.407l0.233,0.703C18.377,24.423,18.998,23.198,18.117,22.509z M2.173,22.979
			H1.937c-0.311,0.896-0.263,2.494-0.233,3.751H0.765v-3.984H0.53c-0.952,2.793-0.41,6.744,0,9.379h0.234v0.233
			c0.482-0.094,0.452-0.059,0.704-0.233c1.407-0.215,1.222-7.437,0.704-8.207V22.979z M24.213,23.682
			c-1.045,0.229-0.943,0.67-1.642,1.173v0.703c1.308-0.092,1.132-0.412,1.875-0.938C24.372,24.079,24.339,24.037,24.213,23.682z
			 M8.268,25.323h0.938v-0.469c-0.698-0.401-0.685-0.751-1.643-0.938C7.731,24.789,7.909,24.745,8.268,25.323z M18.82,26.261
			c1.101-0.222,0.959-0.634,1.643-1.172v-0.704c-1.075,0.213-1.147,0.682-1.876,1.173L18.82,26.261z"/>
	</g>
</g>
</svg>
