<?xml version="1.0" encoding="utf-8"?>
<!-- Generator: Adobe Illustrator 16.0.0, SVG Export Plug-In . SVG Version: 6.00 Build 0)  -->
<!DOCTYPE svg PUBLIC "-//W3C//DTD SVG 1.1//EN" "http://www.w3.org/Graphics/SVG/1.1/DTD/svg11.dtd">
<svg version="1.1" id="Layer_1" xmlns="http://www.w3.org/2000/svg" xmlns:xlink="http://www.w3.org/1999/xlink" x="0px" y="0px"
	 width="31px" height="26.006px" viewBox="0 0 31 26.006" enable-background="new 0 0 31 26.006" xml:space="preserve">
<path fill="#231F20" d="M26.319,0H4.682C2.101,0,0,2.1,0,4.682v16.643c0,2.582,2.101,4.682,4.683,4.682h21.637
	c2.58,0,4.683-2.1,4.683-4.682V4.682C31.001,2.1,28.899,0,26.319,0z M4.682,2.707h21.637c1.088,0,1.976,0.886,1.976,1.975v0.042
	L15.5,12.248L2.707,4.724V4.682C2.707,3.593,3.592,2.707,4.682,2.707z M26.319,23.299H4.682c-1.09,0-1.976-0.887-1.976-1.975V6.231
	l12.464,7.332c0.102,0.06,0.216,0.089,0.329,0.089c0.114,0,0.229-0.029,0.329-0.089l12.465-7.332v15.093
	C28.294,22.414,27.407,23.299,26.319,23.299z"/>
</svg>
